<!--
  (c) 2018-2020 Cloudera, Inc. All rights reserved.

  This code is provided to you pursuant to your written agreement with Cloudera, which may be the terms of the
  Affero General Public License version 3 (AGPLv3), or pursuant to a written agreement with a third party authorized
  to distribute this code.  If you do not have a written agreement with Cloudera or with an authorized and
  properly licensed third party, you do not have any rights to this code.

  If this code is provided to you under the terms of the AGPLv3:
   (A) CLOUDERA PROVIDES THIS CODE TO YOU WITHOUT WARRANTIES OF ANY KIND;
   (B) CLOUDERA DISCLAIMS ANY AND ALL EXPRESS AND IMPLIED WARRANTIES WITH RESPECT TO THIS CODE, INCLUDING BUT NOT
       LIMITED TO IMPLIED WARRANTIES OF TITLE, NON-INFRINGEMENT, MERCHANTABILITY AND FITNESS FOR A PARTICULAR PURPOSE;
   (C) CLOUDERA IS NOT LIABLE TO YOU, AND WILL NOT DEFEND, INDEMNIFY, OR HOLD YOU HARMLESS FOR ANY CLAIMS ARISING
       FROM OR RELATED TO THE CODE; AND
   (D) WITH RESPECT TO YOUR EXERCISE OF ANY RIGHTS GRANTED TO YOU FOR THE CODE, CLOUDERA IS NOT LIABLE FOR ANY
       DIRECT, INDIRECT, INCIDENTAL, SPECIAL, EXEMPLARY, PUNITIVE OR CONSEQUENTIAL DAMAGES INCLUDING, BUT NOT LIMITED
       TO, DAMAGES RELATED TO LOST REVENUE, LOST PROFITS, LOSS OF INCOME, LOSS OF BUSINESS ADVANTAGE OR
       UNAVAILABILITY, OR LOSS OR CORRUPTION OF DATA.
-->
<svg width="24px" height="24px" viewBox="0 0 24 24" version="1.1" xmlns="http://www.w3.org/2000/svg" xmlns:xlink="http://www.w3.org/1999/xlink">
    <!-- Generator: Sketch 58 (84663) - https://sketch.com -->
    <title>ic-acumulo</title>
    <desc>Created with Sketch.</desc>
    <g id="Symbols" stroke="none" stroke-width="1" fill="none" fill-rule="evenodd">
        <g id="icon/service/apache/accumulo">
            <g id="icon" transform="translate(3.000000, 3.000000)">
                <path d="M4.10294118,13.2352941 C4.46783824,13.2352941 4.76470588,13.5321618 4.76470588,13.8970588 L4.76470588,17.8676471 C4.76470588,17.9408382 4.70541176,18 4.63235294,18 C4.55929412,18 4.5,17.9408382 4.5,17.8676471 L4.5,13.8970588 C4.5,13.6781471 4.32185294,13.5 4.10294118,13.5 L0.132352941,13.5 C0.0592941176,13.5 1.070255e-13,13.4408382 1.070255e-13,13.3676471 C1.070255e-13,13.2944559 0.0592941176,13.2352941 0.132352941,13.2352941 L4.10294118,13.2352941 Z M10.7205882,13.2352941 C11.0854853,13.2352941 11.3823529,13.5321618 11.3823529,13.8970588 L11.3823529,17.8676471 C11.3823529,17.9408382 11.3230588,18 11.25,18 C11.1769412,18 11.1176471,17.9408382 11.1176471,17.8676471 L11.1176471,13.8970588 C11.1176471,13.6781471 10.9395,13.5 10.7205882,13.5 L7.27941176,13.5 C7.0605,13.5 6.88235294,13.6781471 6.88235294,13.8970588 L6.88235294,17.8676471 C6.88235294,17.9408382 6.82305882,18 6.75,18 C6.67694118,18 6.61764706,17.9408382 6.61764706,17.8676471 L6.61764706,13.8970588 C6.61764706,13.5321618 6.91451471,13.2352941 7.27941176,13.2352941 L10.7205882,13.2352941 Z M17.3382353,13.2352941 C17.7031324,13.2352941 18,13.5321618 18,13.8970588 L18,17.8676471 C18,17.9408382 17.9407059,18 17.8676471,18 C17.7945882,18 17.7352941,17.9408382 17.7352941,17.8676471 L17.7352941,13.8970588 C17.7352941,13.6781471 17.5571471,13.5 17.3382353,13.5 L13.8970588,13.5 C13.6781471,13.5 13.5,13.6781471 13.5,13.8970588 L13.5,17.8676471 C13.5,17.9408382 13.4407059,18 13.3676471,18 C13.2945882,18 13.2352941,17.9408382 13.2352941,17.8676471 L13.2352941,13.8970588 C13.2352941,13.5321618 13.5321618,13.2352941 13.8970588,13.2352941 L17.3382353,13.2352941 Z M4.10294118,6.61764706 C4.46783824,6.61764706 4.76470588,6.91451471 4.76470588,7.27941176 L4.76470588,10.7205882 C4.76470588,11.0854853 4.46783824,11.3823529 4.10294118,11.3823529 L0.132352941,11.3823529 C0.0592941176,11.3823529 1.070255e-13,11.3231912 1.070255e-13,11.25 C1.070255e-13,11.1768088 0.0592941176,11.1176471 0.132352941,11.1176471 L4.10294118,11.1176471 C4.32185294,11.1176471 4.5,10.9395 4.5,10.7205882 L4.5,7.27941176 C4.5,7.0605 4.32185294,6.88235294 4.10294118,6.88235294 L0.132352941,6.88235294 C0.0592941176,6.88235294 1.070255e-13,6.82305882 1.070255e-13,6.75 C1.070255e-13,6.67694118 0.0592941176,6.61764706 0.132352941,6.61764706 L4.10294118,6.61764706 Z M17.8676471,6.61764706 C17.9407059,6.61764706 18,6.67694118 18,6.75 C18,6.82305882 17.9407059,6.88235294 17.8676471,6.88235294 L13.8970588,6.88235294 C13.6781471,6.88235294 13.5,7.0605 13.5,7.27941176 L13.5,10.7205882 C13.5,10.9395 13.6781471,11.1176471 13.8970588,11.1176471 L17.8676471,11.1176471 C17.9407059,11.1176471 18,11.1768088 18,11.25 C18,11.3231912 17.9407059,11.3823529 17.8676471,11.3823529 L13.8970588,11.3823529 C13.5321618,11.3823529 13.2352941,11.0854853 13.2352941,10.7205882 L13.2352941,7.27941176 C13.2352941,6.91451471 13.5321618,6.61764706 13.8970588,6.61764706 L17.8676471,6.61764706 Z M4.63235294,1.070255e-13 C4.70541176,1.070255e-13 4.76470588,0.0592941176 4.76470588,0.132352941 L4.76470588,4.10294118 C4.76470588,4.46783824 4.46783824,4.76470588 4.10294118,4.76470588 L0.132352941,4.76470588 C0.0592941176,4.76470588 1.070255e-13,4.70541176 1.070255e-13,4.63235294 C1.070255e-13,4.55929412 0.0592941176,4.5 0.132352941,4.5 L4.10294118,4.5 C4.32185294,4.5 4.5,4.32185294 4.5,4.10294118 L4.5,0.132352941 C4.5,0.0592941176 4.55929412,1.070255e-13 4.63235294,1.070255e-13 Z M11.25,1.070255e-13 C11.3230588,1.070255e-13 11.3823529,0.0592941176 11.3823529,0.132352941 L11.3823529,4.10294118 C11.3823529,4.46783824 11.0854853,4.76470588 10.7205882,4.76470588 L7.27941176,4.76470588 C6.91451471,4.76470588 6.61764706,4.46783824 6.61764706,4.10294118 L6.61764706,0.132352941 C6.61764706,0.0592941176 6.67694118,1.070255e-13 6.75,1.070255e-13 C6.82305882,1.070255e-13 6.88235294,0.0592941176 6.88235294,0.132352941 L6.88235294,4.10294118 C6.88235294,4.32185294 7.0605,4.5 7.27941176,4.5 L10.7205882,4.5 C10.9395,4.5 11.1176471,4.32185294 11.1176471,4.10294118 L11.1176471,0.132352941 C11.1176471,0.0592941176 11.1769412,1.070255e-13 11.25,1.070255e-13 Z M17.8676471,1.070255e-13 C17.9407059,1.070255e-13 18,0.0592941176 18,0.132352941 L18,4.10294118 C18,4.46783824 17.7031324,4.76470588 17.3382353,4.76470588 L13.8970588,4.76470588 C13.5321618,4.76470588 13.2352941,4.46783824 13.2352941,4.10294118 L13.2352941,0.132352941 C13.2352941,0.0592941176 13.2945882,1.070255e-13 13.3676471,1.070255e-13 C13.4407059,1.070255e-13 13.5,0.0592941176 13.5,0.132352941 L13.5,4.10294118 C13.5,4.32185294 13.6781471,4.5 13.8970588,4.5 L17.3382353,4.5 C17.5571471,4.5 17.7352941,4.32185294 17.7352941,4.10294118 L17.7352941,0.132352941 C17.7352941,0.0592941176 17.7945882,1.070255e-13 17.8676471,1.070255e-13 Z" id="brackets" fill="#C0C0C0"></path>
                <path d="M7.80882353,9.39705882 C7.44392647,9.39705882 7.14705882,9.69392647 7.14705882,10.0588235 L7.14705882,10.1911765 C7.14705882,10.5560735 7.44392647,10.8529412 7.80882353,10.8529412 L10.1911765,10.8529412 C10.5560735,10.8529412 10.8529412,10.5560735 10.8529412,10.1911765 L10.8529412,9.39705882 L7.80882353,9.39705882 Z M10.1911765,11.6470588 L7.80882353,11.6470588 C7.00610294,11.6470588 6.35294118,10.9938971 6.35294118,10.1911765 L6.35294118,10.0588235 C6.35294118,9.25610294 7.00610294,8.60294118 7.80882353,8.60294118 L10.8529412,8.60294118 L10.8529412,7.80882353 C10.8529412,7.44392647 10.5560735,7.14705882 10.1911765,7.14705882 L7.80882353,7.14705882 C7.44392647,7.14705882 7.14705882,7.44392647 7.14705882,7.80882353 C7.14705882,8.02813235 6.96930882,8.20588235 6.75,8.20588235 C6.53069118,8.20588235 6.35294118,8.02813235 6.35294118,7.80882353 C6.35294118,7.00610294 7.00610294,6.35294118 7.80882353,6.35294118 L10.1911765,6.35294118 C10.9938971,6.35294118 11.6470588,7.00610294 11.6470588,7.80882353 L11.6470588,10.1911765 C11.6470588,10.9938971 10.9938971,11.6470588 10.1911765,11.6470588 L10.1911765,11.6470588 Z" id="a" fill="#000000"></path>
            </g>
        </g>
    </g>
</svg>
