<!--
  (c) 2018-2020 Cloudera, Inc. All rights reserved.

  This code is provided to you pursuant to your written agreement with Cloudera, which may be the terms of the
  Affero General Public License version 3 (AGPLv3), or pursuant to a written agreement with a third party authorized
  to distribute this code.  If you do not have a written agreement with Cloudera or with an authorized and
  properly licensed third party, you do not have any rights to this code.

  If this code is provided to you under the terms of the AGPLv3:
   (A) CLOUDERA PROVIDES THIS CODE TO YOU WITHOUT WARRANTIES OF ANY KIND;
   (B) CLOUDERA DISCLAIMS ANY AND ALL EXPRESS AND IMPLIED WARRANTIES WITH RESPECT TO THIS CODE, INCLUDING BUT NOT
       LIMITED TO IMPLIED WARRANTIES OF TITLE, NON-INFRINGEMENT, MERCHANTABILITY AND FITNESS FOR A PARTICULAR PURPOSE;
   (C) CLOUDERA IS NOT LIABLE TO YOU, AND WILL NOT DEFEND, INDEMNIFY, OR HOLD YOU HARMLESS FOR ANY CLAIMS ARISING
       FROM OR RELATED TO THE CODE; AND
   (D) WITH RESPECT TO YOUR EXERCISE OF ANY RIGHTS GRANTED TO YOU FOR THE CODE, CLOUDERA IS NOT LIABLE FOR ANY
       DIRECT, INDIRECT, INCIDENTAL, SPECIAL, EXEMPLARY, PUNITIVE OR CONSEQUENTIAL DAMAGES INCLUDING, BUT NOT LIMITED
       TO, DAMAGES RELATED TO LOST REVENUE, LOST PROFITS, LOSS OF INCOME, LOSS OF BUSINESS ADVANTAGE OR
       UNAVAILABILITY, OR LOSS OR CORRUPTION OF DATA.
-->
<svg width="24px" height="24px" viewBox="0 0 24 24" version="1.1" xmlns="http://www.w3.org/2000/svg" xmlns:xlink="http://www.w3.org/1999/xlink">
    <g id="Symbols" stroke="none" stroke-width="1" fill="none" fill-rule="evenodd">
        <g id="icon/service/apache/atlas">
            <g id="icon" transform="translate(3.000000, 1.500000)">
                <g id="hex" transform="translate(0.000035, -0.000012)">
                    <path d="M8.98588235,8.8817842e-15 L-3.55271368e-15,5.67058824 L-3.55271368e-15,15.16 L8.98588235,20.8307059 L17.9716471,15.16 L17.9716471,5.67058824 L8.98588235,8.8817842e-15 Z M2.36823529,13.9094118 L2.36823529,6.92117647 L8.98588235,2.74470588 L15.6035294,6.92117647 L15.6035294,13.9094118 L8.98588235,18.086 L2.36823529,13.9094118 Z" id="hexagon-outline" fill="#1FCFB8"></path>
                    <polygon id="hex-shadow" fill="#009883" points="17.9717294 5.65877647 15.6034941 6.90948235 15.6034941 13.9106588 8.91643529 18.1306588 8.91643529 20.8681882 17.9717294 15.1541882"></polygon>
                </g>
                <path d="M7.38352941,13.8012353 C7.69152941,13.8012353 7.94117647,14.0508824 7.94117647,14.3587647 C7.94117647,14.6667647 7.69152941,14.9164118 7.38352941,14.9164118 C7.07552941,14.9164118 6.82588235,14.6667647 6.82588235,14.3587647 C6.82588235,14.0508824 7.07552941,13.8012353 7.38352941,13.8012353 Z M6.96590588,8.62235294 C7.51814118,8.62235294 7.96590588,9.07011765 7.96590588,9.62235294 C7.96590588,10.1745882 7.51814118,10.6223529 6.96590588,10.6223529 C6.41355294,10.6223529 5.96590588,10.1745882 5.96590588,9.62235294 C5.96590588,9.07011765 6.41355294,8.62235294 6.96590588,8.62235294 Z M12.6776471,8.85534118 C13.024,8.85534118 13.3047059,9.13604706 13.3047059,9.48228235 C13.3047059,9.82863529 13.024,10.1093412 12.6776471,10.1093412 C12.3312941,10.1093412 12.0505882,9.82863529 12.0505882,9.48228235 C12.0505882,9.13604706 12.3312941,8.85534118 12.6776471,8.85534118 Z M6.94115294,10.6106235 L7.28938824,13.8105059 M12.0505882,9.62235294 L8,9.66941176" id="node" stroke="#CDCCCC" stroke-width="0.5"></path>
                <path d="M7.04472941,11.5729412 C5.85767059,11.5729412 4.89531765,10.6105882 4.89531765,9.42341176 C4.89531765,8.23647059 5.85767059,7.27411765 7.04472941,7.27411765 C8.23178824,7.27411765 9.19416215,8.23647059 9.19416215,9.42341176 C9.19931765,10.6054118 8.24543529,11.5677647 7.06355294,11.5729412 L7.04472941,11.5729412 Z M9.91061176,11.5729412 L9.52943529,11.5729412 L9.38590588,11.4294118 C9.88014118,10.8784706 10.1526118,10.1636471 10.1506118,9.42341176 C10.1506118,7.70882353 8.76049412,6.31882353 7.04590588,6.31882353 C5.3312,6.31882353 3.9412,7.70882353 3.9412,9.42341176 C3.9412,11.1382353 5.3312,12.5282353 7.04590588,12.5282353 C7.78555294,12.5303529 8.49967059,12.2582353 9.05061176,11.7647059 L9.19414118,11.9082353 L9.19414118,12.2905882 L11.5823765,14.6788235 L12.2988471,13.9623529 L9.91061176,11.5729412 Z" id="search" fill="#1FCFB8"></path>
            </g>
        </g>
    </g>
</svg>
