<!--
  (c) 2018-2020 Cloudera, Inc. All rights reserved.

  This code is provided to you pursuant to your written agreement with Cloudera, which may be the terms of the
  Affero General Public License version 3 (AGPLv3), or pursuant to a written agreement with a third party authorized
  to distribute this code.  If you do not have a written agreement with Cloudera or with an authorized and
  properly licensed third party, you do not have any rights to this code.

  If this code is provided to you under the terms of the AGPLv3:
   (A) CLOUDERA PROVIDES THIS CODE TO YOU WITHOUT WARRANTIES OF ANY KIND;
   (B) CLOUDERA DISCLAIMS ANY AND ALL EXPRESS AND IMPLIED WARRANTIES WITH RESPECT TO THIS CODE, INCLUDING BUT NOT
       LIMITED TO IMPLIED WARRANTIES OF TITLE, NON-INFRINGEMENT, MERCHANTABILITY AND FITNESS FOR A PARTICULAR PURPOSE;
   (C) CLOUDERA IS NOT LIABLE TO YOU, AND WILL NOT DEFEND, INDEMNIFY, OR HOLD YOU HARMLESS FOR ANY CLAIMS ARISING
       FROM OR RELATED TO THE CODE; AND
   (D) WITH RESPECT TO YOUR EXERCISE OF ANY RIGHTS GRANTED TO YOU FOR THE CODE, CLOUDERA IS NOT LIABLE FOR ANY
       DIRECT, INDIRECT, INCIDENTAL, SPECIAL, EXEMPLARY, PUNITIVE OR CONSEQUENTIAL DAMAGES INCLUDING, BUT NOT LIMITED
       TO, DAMAGES RELATED TO LOST REVENUE, LOST PROFITS, LOSS OF INCOME, LOSS OF BUSINESS ADVANTAGE OR
       UNAVAILABILITY, OR LOSS OR CORRUPTION OF DATA.
-->
<svg width="24px" height="24px" viewBox="0 0 24 24" version="1.1" xmlns="http://www.w3.org/2000/svg" xmlns:xlink="http://www.w3.org/1999/xlink">
    <!-- Generator: Sketch 58 (84663) - https://sketch.com -->
    <title>ic-mapreduce</title>
    <desc>Created with Sketch.</desc>
    <g id="Symbols" stroke="none" stroke-width="1" fill="none" fill-rule="evenodd">
        <g id="icon/service/apache/mapreduce">
            <g id="mr" transform="translate(1.000000, 7.500000)">
                <path d="M21.0474,3.75009067 C21.0221733,3.84747733 20.82652,4.185104 20.41468,4.185104 C20.4029467,4.185104 20.39092,4.18481067 20.3788933,4.184224 C20.5789467,4.38985067 20.84236,4.49017067 20.7264933,5.280704 C20.5463867,6.50947733 20.2419067,8.199664 20.2419067,8.199664 L19.70364,8.199664 C19.77052,7.60595733 19.9259867,6.23081067 20.04244,5.280704 C20.1395333,4.487824 19.8948933,4.38985067 19.69484,4.184224 C20.1310267,4.20475733 20.33724,3.85041067 20.3633467,3.75009067 C20.5613467,2.991824 20.7687333,2.052864 20.8235867,1.48497067 C20.8620133,1.089264 20.7074267,0.603210667 20.4302267,0.297557333 L20.49124,0.297557333 C21.1227867,0.297557333 21.5686533,0.856357333 21.50764,1.48497067 C21.4527867,2.052864 21.2454,2.991824 21.0474,3.75009067 L21.0474,3.75009067 Z M18.7060133,2.98009067 L16.9287067,2.98009067 L17.0950267,2.162864 L18.82276,2.162864 C18.9312933,2.403104 18.8743867,2.73955733 18.7060133,2.98009067 L18.7060133,2.98009067 Z M16.56996,3.273424 L15.8847333,3.273424 L16.1722,1.86953067 L16.85508,1.86953067 L16.56996,3.273424 Z M16.2282267,5.25811733 L15.4617467,8.199664 L14.8472133,8.199664 L15.5441733,5.25811733 C15.5990267,5.04721067 15.7894,4.90025067 16.00676,4.90025067 L16.6908133,4.90025067 C16.4734533,4.90025067 16.28308,5.04721067 16.2282267,5.25811733 L16.2282267,5.25811733 Z M12.1858,8.199664 L11.32868,8.199664 L12.8232133,1.968384 C13.0326533,1.135024 12.40228,0.326890667 11.5431067,0.326890667 L12.4703333,0.326890667 C13.1144933,0.326890667 13.6292933,0.780384 13.75924,1.358544 L12.9951067,4.97651733 L12.1858,8.199664 Z M9.33841333,2.22475733 L7.83772,8.199664 L6.9806,8.199664 L8.41118667,2.22475733 C8.46017333,2.029104 8.63617333,1.891824 8.83769333,1.891824 L9.72737333,1.89857067 C9.54228,1.914704 9.38446667,2.04201067 9.33841333,2.22475733 L9.33841333,2.22475733 Z M4.72956,2.22475733 L3.22886667,8.199664 L2.37174667,8.199664 L3.80204,2.22475733 C3.85132,2.029104 4.02732,1.891824 4.22884,1.891824 L5.15636,1.891824 C4.95454667,1.891824 4.77854667,2.029104 4.72956,2.22475733 L4.72956,2.22475733 Z M21.4492667,0.427210667 C21.2014,0.154410667 20.8614267,0.004224 20.49124,0.004224 L19.8793467,0.004224 C19.86204,0.00305066667 19.8456133,0.000117333333 19.8280133,0.000117333333 L14.9730533,0.000117333333 C14.3192133,0.000117333333 14.04084,0.432784 13.8874267,0.880117333 C13.8451867,0.802090667 13.7982533,0.725824 13.74252,0.654544 C13.4348133,0.260010667 12.9710533,0.0335573333 12.4703333,0.0335573333 L4.16225333,0.0335573333 C4.06428,0.0335573333 3.96836,0.0432373333 3.87478667,0.0602506667 C2.30486667,0.093104 1.87132,1.04203733 1.72641333,1.61843733 L0.000146666667,8.49299733 L0.77924,8.49299733 L1.15558667,8.49299733 L2.30164,8.49299733 L3.22886667,8.49299733 L3.45766667,8.49299733 L3.5134,8.27123733 L5.01409333,2.29633067 C5.03022667,2.23091733 5.08889333,2.18515733 5.15636,2.18515733 L6.25313333,2.18515733 C6.28129333,2.26377067 6.29009333,2.35059733 6.2678,2.43889067 L4.82108,8.49299733 L5.37225333,8.49299733 L5.74830667,8.49299733 L6.91049333,8.49299733 L7.83772,8.49299733 L8.06681333,8.49299733 L8.12225333,8.27123733 L9.62294667,2.29633067 C9.63937333,2.23091733 9.69774667,2.18515733 9.76521333,2.18515733 L10.9056933,2.193664 C10.93268,2.26729067 10.9429467,2.348544 10.92564,2.432144 L9.42993333,8.49299733 L9.98169333,8.49299733 L10.3574533,8.49299733 L11.25828,8.49299733 L12.1858,8.49299733 L12.25268,8.49299733 L12.4143067,8.49299733 L12.9807333,8.49299733 L13.3547333,8.49299733 L15.4617467,8.49299733 L15.6884933,8.49299733 L15.7456933,8.273584 L16.5121733,5.33203733 C16.5332933,5.25049067 16.60692,5.193584 16.6908133,5.193584 L18.1809467,5.193584 C18.21468,5.272784 18.22964,5.36137067 18.2149733,5.454064 L17.7682267,8.49299733 L18.2255333,8.49299733 L18.56932,8.49299733 L20.2419067,8.49299733 L20.4871333,8.49299733 L20.5305467,8.25187733 C20.5337733,8.234864 20.83796,6.542624 21.0168933,5.322944 C21.0881733,4.83601067 21.0286267,4.54825067 20.9112933,4.34409067 C21.1574,4.196544 21.2952667,3.96275733 21.3313467,3.824304 C21.5193733,3.103584 21.7411333,2.11827733 21.7998,1.513424 C21.83852,1.111264 21.71092,0.715264 21.4492667,0.427210667 L21.4492667,0.427210667 Z" id="black" fill="#000000"></path>
                <path d="M19.118528,1.86950133 C20.024048,1.86950133 19.7201547,3.27339467 19.0009013,3.27339467 L16.570048,3.27339467 L16.855168,1.86950133 L19.118528,1.86950133 Z M16.2280213,5.258088 C16.283168,5.04718133 16.473248,4.90022133 16.6909013,4.90022133 L18.5353813,4.90022133 C18.8295947,4.90022133 19.0539947,5.16334133 19.0079413,5.45403467 L18.569408,8.19963467 L20.2419947,8.19963467 C20.2419947,8.19963467 20.5464747,6.509448 20.7265813,5.28067467 C20.842448,4.49043467 20.5790347,4.38982133 20.378688,4.184488 C20.815168,4.204728 21.0213813,3.85038133 21.047488,3.75006133 C21.2451947,2.99179467 21.4528747,2.05283467 21.507728,1.48494133 C21.5687413,0.856328 21.1228747,0.297821333 20.491328,0.297821333 L16.233008,0.297821333 C15.6824213,0.297821333 15.2031147,0.673581333 15.0719947,1.20803467 L13.3548213,8.19963467 L15.4618347,8.19963467 L16.2280213,5.258088 Z" id="R" fill="#66CCFF"></path>
                <path d="M4.162048,0.326861333 L12.4704213,0.326861333 C13.329888,0.326861333 13.959968,1.13499467 13.7508213,1.96835467 L12.1855947,8.19963467 L10.357248,8.19963467 L11.7963413,2.43211467 C11.852368,2.15931467 11.643808,1.90382133 11.3651413,1.90382133 L9.76530133,1.89179467 C9.563488,1.89179467 9.387488,2.02907467 9.33850133,2.224728 L7.837808,8.19963467 L5.74839467,8.19963467 L7.19511467,2.43886133 C7.264928,2.161368 7.05490133,1.89179467 6.76831467,1.89179467 L5.15615467,1.89179467 C4.95434133,1.89179467 4.77863467,2.02907467 4.72935467,2.224728 L3.22895467,8.19963467 L1.15538133,8.19963467 L2.88194133,1.325368 C3.02919467,0.738408 3.55690133,0.326861333 4.162048,0.326861333 L4.162048,0.326861333 Z" id="M" fill="#FFFF00"></path>
            </g>
        </g>
    </g>
</svg>
