<!--
  (c) 2018-2020 Cloudera, Inc. All rights reserved.

  This code is provided to you pursuant to your written agreement with Cloudera, which may be the terms of the
  Affero General Public License version 3 (AGPLv3), or pursuant to a written agreement with a third party authorized
  to distribute this code.  If you do not have a written agreement with Cloudera or with an authorized and
  properly licensed third party, you do not have any rights to this code.

  If this code is provided to you under the terms of the AGPLv3:
   (A) CLOUDERA PROVIDES THIS CODE TO YOU WITHOUT WARRANTIES OF ANY KIND;
   (B) CLOUDERA DISCLAIMS ANY AND ALL EXPRESS AND IMPLIED WARRANTIES WITH RESPECT TO THIS CODE, INCLUDING BUT NOT
       LIMITED TO IMPLIED WARRANTIES OF TITLE, NON-INFRINGEMENT, MERCHANTABILITY AND FITNESS FOR A PARTICULAR PURPOSE;
   (C) CLOUDERA IS NOT LIABLE TO YOU, AND WILL NOT DEFEND, INDEMNIFY, OR HOLD YOU HARMLESS FOR ANY CLAIMS ARISING
       FROM OR RELATED TO THE CODE; AND
   (D) WITH RESPECT TO YOUR EXERCISE OF ANY RIGHTS GRANTED TO YOU FOR THE CODE, CLOUDERA IS NOT LIABLE FOR ANY
       DIRECT, INDIRECT, INCIDENTAL, SPECIAL, EXEMPLARY, PUNITIVE OR CONSEQUENTIAL DAMAGES INCLUDING, BUT NOT LIMITED
       TO, DAMAGES RELATED TO LOST REVENUE, LOST PROFITS, LOSS OF INCOME, LOSS OF BUSINESS ADVANTAGE OR
       UNAVAILABILITY, OR LOSS OR CORRUPTION OF DATA.
-->
<svg width="24px" height="24px" viewBox="0 0 24 24" version="1.1" xmlns="http://www.w3.org/2000/svg" xmlns:xlink="http://www.w3.org/1999/xlink">
    <!-- Generator: Sketch 58 (84663) - https://sketch.com -->
    <title>ic-pig</title>
    <desc>Created with Sketch.</desc>
    <defs>
        <radialGradient cx="49.9999494%" cy="49.9996296%" fx="49.9999494%" fy="49.9996296%" r="68.1116119%" gradientTransform="translate(0.499999,0.499996),scale(0.734090,1.000000),scale(1.000000,0.734087),translate(-0.499999,-0.499996)" id="radialGradient-1">
            <stop stop-color="#C16D3F" offset="0%"></stop>
            <stop stop-color="#F6AA7C" offset="100%"></stop>
        </radialGradient>
        <radialGradient cx="50.0004153%" cy="49.9991223%" fx="50.0004153%" fy="49.9991223%" r="51.3102274%" gradientTransform="translate(0.500004,0.499991),scale(0.974479,1.000000),scale(1.000000,0.974478),translate(-0.500004,-0.499991)" id="radialGradient-2">
            <stop stop-color="#C16D3F" offset="0%"></stop>
            <stop stop-color="#F6AA7C" offset="100%"></stop>
        </radialGradient>
        <radialGradient cx="50.0003168%" cy="49.9998577%" fx="50.0003168%" fy="49.9998577%" r="77.4863411%" gradientTransform="translate(0.500003,0.499999),scale(0.645280,1.000000),scale(1.000000,0.645292),translate(-0.500003,-0.499999)" id="radialGradient-3">
            <stop stop-color="#C16D3F" offset="0%"></stop>
            <stop stop-color="#F6AA7C" offset="100%"></stop>
        </radialGradient>
        <linearGradient x1="-22.686647%" y1="43.1794532%" x2="94.9707781%" y2="53.2953306%" id="linearGradient-4">
            <stop stop-color="#560000" offset="0%"></stop>
            <stop stop-color="#CC1515" offset="100%"></stop>
        </linearGradient>
    </defs>
    <g id="Symbols" stroke="none" stroke-width="1" fill="none" fill-rule="evenodd">
        <g id="icon/service/apache/pig">
            <g id="pig-head" transform="translate(1.000000, 4.250000)">
                <path d="M9.44554213,0.378037707 C8.28219161,0.677767603 7.19835937,1.28355906 6.33827703,2.12297037 L6.33827703,2.12297037 C6.21518199,2.24550673 6.07346441,2.35388996 5.96694344,2.49085879 L5.96694344,2.49085879 C5.99562216,2.5976591 6.10195691,2.67317353 6.16238707,2.76544825 L6.16238707,2.76544825 C6.21927895,2.83565525 6.27551905,2.90632782 6.32831397,2.97970065 L6.32831397,2.97970065 C6.00474721,2.6700077 5.68704656,2.33340516 5.26571143,2.15704963 L5.26571143,2.15704963 C4.61196691,1.85312967 3.84741824,1.88413621 3.1759823,2.11337976 L3.1759823,2.11337976 C2.63397307,2.29262178 2.08507349,2.44960985 1.53552212,2.60399077 L1.53552212,2.60399077 C1.20134052,2.7365833 0.831310504,2.74310119 0.477016545,2.75520585 L0.477016545,2.75520585 C0.380644863,2.76805541 0.266116199,2.74477722 0.182035398,2.7986895 L0.182035398,2.7986895 C0.152984225,2.88919508 0.281200462,2.93063024 0.338744132,2.97187918 L0.338744132,2.97187918 C0.65486187,3.11936976 0.931406695,3.32924586 1.17526895,3.57804309 L1.17526895,3.57804309 C1.56056945,3.94630396 1.90359677,4.35395152 2.17911735,4.81048326 L2.17911735,4.81048326 C2.41990689,5.16775683 2.84692189,5.31459561 3.21052713,5.5104117 L3.21052713,5.5104117 C3.67851174,5.74617314 4.16558446,5.94059254 4.65852328,6.11741362 L4.65852328,6.11741362 C4.53161062,6.08789688 4.3457576,6.03277414 4.26493574,6.17477107 L4.26493574,6.17477107 C4.1176314,6.46779684 4.06325356,6.79769527 3.9648334,7.1086918 L3.9648334,7.1086918 C3.8405279,7.58300808 3.69117507,8.05211004 3.59461716,8.53313043 L3.59461716,8.53313043 C3.5035529,9.23864563 3.55141285,9.95905887 3.68568142,10.6561008 L3.68568142,10.6561008 C3.80803155,11.2239023 4.09090804,11.7411435 4.37611235,12.2414382 L4.37611235,12.2414382 C4.93050558,13.1649304 5.81330743,13.8588065 6.79127049,14.2905702 L6.79127049,14.2905702 C7.45972682,14.5920693 8.14084648,14.8823948 8.85744209,15.0474836 L8.85744209,15.0474836 C9.57906579,15.1933913 10.3138184,15.2708611 11.0478261,15.3183486 L11.0478261,15.3183486 C11.6322016,15.3143447 12.2215121,15.3312913 12.7989042,15.2238392 L12.7989042,15.2238392 C13.9841362,15.0311889 15.162571,14.7146987 16.2253598,14.1434521 L16.2253598,14.1434521 C17.0058307,13.7358045 17.7083663,13.1929573 18.3554067,12.6009465 L18.3554067,12.6009465 C18.7459215,12.2481424 19.2825302,12.1014898 19.6979061,11.7815544 L19.6979061,11.7815544 C20.0524794,11.481359 20.3185956,11.0334867 20.5407626,10.620718 L20.5407626,10.620718 C20.7355544,10.2104633 20.7934706,9.74918276 20.7567841,9.29944825 L20.7567841,9.29944825 C20.7148834,8.6637676 20.4565887,8.04186764 20.0122547,7.58179761 L20.0122547,7.58179761 C19.6480908,7.15794844 19.1398815,6.90263332 18.6353036,6.68568065 L18.6353036,6.68568065 C18.4991728,6.61016622 18.3240277,6.57329357 18.2272836,6.4433082 L18.2272836,6.4433082 C18.1108927,6.16741516 18.0825864,5.86349519 18.0008334,5.57568372 L18.0008334,5.57568372 C17.7795975,4.6879469 17.4896445,3.79201616 16.9283609,3.05558753 L16.9283609,3.05558753 C16.3847688,2.32958753 15.6963863,1.71727818 14.9409627,1.21893882 L14.9409627,1.21893882 C14.0922401,0.66882878 13.107666,0.331388226 12.1020485,0.232502501 L12.1020485,0.232502501 C11.74403,0.203265102 11.3844286,0.204196229 11.0255721,0.204382455 L11.0255721,0.204382455 C10.9920516,0.204103117 10.958531,0.203916891 10.9250104,0.203916891 L10.9250104,0.203916891 C10.4268573,0.203916891 9.92674875,0.242093113 9.44554213,0.378037707 M1.57146364,3.37598846 C2.10472028,3.26257715 2.65064025,3.22617007 3.19237014,3.17486495 L3.19237014,3.17486495 C3.4552274,3.15493882 3.71985379,3.13361601 3.98215237,3.13175375 L3.98215237,3.13175375 C4.14770681,3.13361601 4.32108272,3.13808542 4.48039861,3.19749134 L4.48039861,3.19749134 C3.95524279,3.20754752 3.42701424,3.21900038 2.90483801,3.29060408 L2.90483801,3.29060408 C2.51553367,3.33138746 2.1253913,3.37887495 1.73469027,3.37887495 L1.73469027,3.37887495 C1.68031243,3.37887495 1.62584148,3.37794382 1.57146364,3.37598846 M15.452524,5.57745287 C15.6780431,5.18619315 16.1270327,4.93581301 16.5740669,4.92519815 L16.5740669,4.92519815 C16.8468873,4.9518284 17.105182,5.05946672 17.3396399,5.19708734 L17.3396399,5.19708734 C17.1212905,5.10146056 16.8954921,4.99922278 16.6504194,5.02063871 L16.6504194,5.02063871 C16.2322501,5.00918584 15.8268372,5.19792536 15.5427503,5.50035552 L15.5427503,5.50035552 C15.5177961,5.52037476 15.4431197,5.61097345 15.4353913,5.61097345 L15.4353913,5.61097345 C15.4328773,5.61097345 15.4373467,5.60156907 15.452524,5.57745287 M10.0970519,5.2121716 C10.1327141,5.21021624 10.1683763,5.20965756 10.2040385,5.20974095 L10.2040385,5.20974095 C10.6274221,5.20974095 11.0460569,5.36971835 11.3711135,5.63872105 L11.3711135,5.63872105 C10.9792951,5.38796845 10.509262,5.28722047 10.0477953,5.30211851 L10.0477953,5.30211851 C9.85430704,5.28777915 9.6617499,5.32213775 9.48800154,5.40984994 L9.48800154,5.40984994 C9.21546056,5.52922047 8.9554898,5.68099423 8.72550135,5.87019931 L8.72550135,5.87019931 C9.0892928,5.51143594 9.57226856,5.22716275 10.0970519,5.2121716 M16.0090589,6.59275414 C16.0131558,6.42645479 15.8438769,6.25680339 15.9557984,6.09618392 L15.9557984,6.09618392 C16.1004956,5.87736899 16.3586041,5.71581839 16.622858,5.70064102 L16.622858,5.70064102 C16.8391589,5.71339746 16.9775244,5.91023778 17.1339538,6.03575375 L17.1339538,6.03575375 C17.3098438,6.18789996 17.4786572,6.36984225 17.6883471,6.46900731 L17.6883471,6.46900731 C17.4997007,6.64918045 17.2367503,6.72255329 16.9976368,6.80654098 L16.9976368,6.80654098 C16.9073174,6.84453097 16.7926957,6.84844171 16.716157,6.90747518 L16.716157,6.90747518 C16.6987449,6.98047557 16.8051728,7.02870796 16.8395314,7.08764833 L16.8395314,7.08764833 C17.2268803,7.4691312 17.5376907,7.93227395 17.7022209,8.45296037 L17.7022209,8.45296037 C17.8979438,9.01200923 17.959212,9.61966295 17.8647026,10.2059938 L17.8647026,10.2059938 C17.8424486,10.4154975 17.6111566,10.4802109 17.4600346,10.5762101 L17.4600346,10.5762101 C16.904524,10.9425156 16.4620523,11.4478384 16.0006787,11.9202924 L16.0006787,11.9202924 C15.8316791,12.0039077 15.635025,11.9948757 15.450848,12.0207611 L15.450848,12.0207611 C14.3875006,12.1117322 13.2892359,11.9454329 12.3254259,11.4708372 L12.3254259,11.4708372 C11.9840746,11.3130112 11.7044571,11.0582547 11.3947641,10.8514513 L11.3947641,10.8514513 C11.3328442,10.7994013 11.2368449,10.8046156 11.203883,10.8864617 L11.203883,10.8864617 C11.0727803,11.1722247 11.0237099,11.4914152 10.87594,11.7698222 L10.87594,11.7698222 C10.6874798,12.1526087 10.4473421,12.5251528 10.1249858,12.8037461 L10.1249858,12.8037461 C10.515035,12.3655575 10.8401847,11.8586518 10.998197,11.2893605 L10.998197,11.2893605 C11.2361932,10.4540462 11.1619823,9.52608465 10.751262,8.75613544 L10.751262,8.75613544 C10.735526,8.71851789 10.6288188,8.5328511 10.6820793,8.61795614 L10.6820793,8.61795614 C11.0459638,9.20894267 11.2348896,9.91976529 11.2233436,10.6169003 L11.2233436,10.6169003 C11.2166395,10.7367364 11.3678546,10.7188588 11.4456968,10.7445579 L11.4456968,10.7445579 C12.1011174,10.8661631 12.7634282,10.9488472 13.4272289,11.0088119 L13.4272289,11.0088119 C13.5060954,10.970915 13.4404509,10.8521031 13.4461308,10.779289 L13.4461308,10.779289 C13.3635398,10.2963132 13.2614883,9.80951982 13.3231289,9.31928126 L13.3231289,9.31928126 C13.4168934,8.53452713 13.6948349,7.72323586 14.2830281,7.17796768 L14.2830281,7.17796768 C14.6832266,6.81277953 15.2375267,6.57143132 15.7835398,6.59573374 L15.7835398,6.59573374 C15.8104494,6.59163678 15.8421077,6.60336899 15.8733005,6.61510119 L15.8733005,6.61510119 C15.9003032,6.62525048 15.9271197,6.63539977 15.9505841,6.63539977 L15.9505841,6.63539977 C15.9747003,6.63539977 15.9952782,6.62478492 16.0090589,6.59275414 M9.9300077,7.46196152 C9.5308334,7.41959523 9.15111966,7.27629473 8.78164833,7.12452097 L8.78164833,7.12452097 C9.10549442,7.018 9.41937745,6.87404771 9.68558676,6.65774683 L9.68558676,6.65774683 C9.89006233,6.49144748 10.1241477,6.31583686 10.4047895,6.33762524 L10.4047895,6.33762524 C10.7287287,6.35000923 11.0503401,6.48111197 11.2685033,6.72311197 L11.2685033,6.72311197 C11.3947641,6.83456791 11.4842455,6.9748888 11.5947703,7.09947364 L11.5947703,7.09947364 C11.6731712,7.15319969 11.7303424,7.2519923 11.7660046,7.33989073 L11.7660046,7.33989073 C11.6702847,7.42080569 11.5254013,7.40944594 11.4076137,7.43719354 L11.4076137,7.43719354 C11.1169157,7.46996922 10.8241693,7.48756753 10.5317953,7.48756753 L10.5317953,7.48756753 C10.330858,7.48756753 10.1300139,7.47928049 9.9300077,7.46196152 M15.139479,13.5661531 C15.7247857,13.4079546 16.2619531,13.1082247 16.7341277,12.7317699 L16.7341277,12.7317699 C16.761596,12.7116576 16.7974444,12.6843755 16.8217468,12.6708742 L16.8217468,12.6708742 C16.6665279,12.9110119 16.428718,13.085319 16.2042232,13.2568326 L16.2042232,13.2568326 C15.7471327,13.5812374 15.1851043,13.7038669 14.6438399,13.8099223 L14.6438399,13.8099223 C13.907132,13.9368349 13.1468665,13.9858122 12.4093205,13.8445602 L12.4093205,13.8445602 C12.3005648,13.8256583 12.1914367,13.8067564 12.0845433,13.7787295 L12.0845433,13.7787295 C12.3035444,13.7754706 12.5238492,13.7768673 12.7448057,13.7783571 L12.7448057,13.7783571 C12.8646418,13.779102 12.9847572,13.7798469 13.1047795,13.7798469 L13.1047795,13.7798469 C13.7904617,13.7798469 14.4767026,13.7553582 15.139479,13.5661531" id="face" fill="url(#radialGradient-1)"></path>
                <path d="M15.5498269,6.70858638 C14.9888226,6.69731974 14.488621,7.04779608 14.1472697,7.46754829 L14.1472697,7.46754829 C13.7161578,8.00620546 13.4697815,8.68378684 13.4093513,9.36807234 L13.4093513,9.36807234 C13.3822555,9.85169988 13.3945464,10.3459423 13.5489273,10.8097368 L13.5489273,10.8097368 C13.5872897,10.8845063 13.5691327,11.0596514 13.6951143,11.0202647 L13.6951143,11.0202647 C14.4019331,10.9760362 15.1131281,10.9471712 15.8146395,10.8361808 L15.8146395,10.8361808 C16.4256452,10.738878 17.0412135,10.6168072 17.611529,10.3700585 L17.611529,10.3700585 C17.7176776,10.3303925 17.8118145,10.2462185 17.8143286,10.1254513 L17.8143286,10.1254513 C17.8534359,9.68689034 17.8128388,9.24143902 17.7236368,8.81088573 L17.7236368,8.81088573 C17.5412289,7.99931512 17.0445656,7.21065025 16.270147,6.8542147 L16.270147,6.8542147 C16.0610158,6.75374606 15.8328896,6.70784148 15.60197,6.70784148 L15.60197,6.70784148 C15.584651,6.70784148 15.5672389,6.7080277 15.5498269,6.70858638 M16.5452951,9.22588919 C16.426297,8.99822855 16.4440816,8.72931897 16.5151266,8.48815698 L16.5151266,8.48815698 C16.5361701,8.44104194 16.562521,8.36496883 16.623696,8.35975452 L16.623696,8.35975452 C16.7479084,8.4092905 16.7473497,8.57698653 16.7669034,8.68965294 L16.7669034,8.68965294 C16.7753767,8.89273182 16.7883194,9.11862332 16.6729527,9.29861023 L16.6729527,9.29861023 C16.6612205,9.31648788 16.6491158,9.32356445 16.6371043,9.32356445 L16.6371043,9.32356445 C16.6000454,9.32356445 16.5641039,9.25577838 16.5452951,9.22588919 M14.6708426,9.71659331 C14.5833167,9.55457715 14.6072466,9.35531589 14.5922555,9.17877414 L14.5922555,9.17877414 C14.5999838,8.96899115 14.5796853,8.74365833 14.6626487,8.54495575 L14.6626487,8.54495575 C14.671122,8.53145441 14.685182,8.51795306 14.7025941,8.52205002 L14.7025941,8.52205002 C14.7948688,8.58080416 14.7800639,8.71982147 14.7975691,8.81684494 L14.7975691,8.81684494 C14.8067872,9.10595998 14.8324863,9.40690035 14.7427257,9.68847326 L14.7427257,9.68847326 C14.7360215,9.71454482 14.7153505,9.74406156 14.6964486,9.74406156 L14.6964486,9.74406156 C14.6867649,9.74406156 14.6775467,9.73633321 14.6708426,9.71659331" id="nose" fill="url(#radialGradient-2)"></path>
                <path d="M16.7873882,0.629628319 C16.2295498,0.621713736 15.6694767,0.810173913 15.2234667,1.14072412 L15.2234667,1.14072412 C15.1500939,1.2969673 15.3947942,1.39063871 15.4711466,1.49399384 L15.4711466,1.49399384 C16.2570181,2.11784917 16.9511735,2.86181993 17.4556583,3.73177222 L17.4556583,3.73177222 C17.5677661,3.87423471 17.6213059,4.09854329 17.7836014,4.18988688 L17.7836014,4.18988688 C18.1023263,4.04900731 18.4214236,3.87516583 18.6867949,3.64666718 L18.6867949,3.64666718 C19.0473274,3.2008434 19.3635383,2.71656406 19.787015,2.32362832 L19.787015,2.32362832 C20.0666326,2.02566756 20.3997899,1.78422624 20.7280123,1.55200308 L20.7280123,1.55200308 C20.5359207,1.44343363 20.262728,1.45646941 20.0357191,1.41354444 L20.0357191,1.41354444 C19.2275937,1.32210773 18.4836229,0.961668334 17.7025002,0.755516737 L17.7025002,0.755516737 C17.4285625,0.660541747 17.1397268,0.629162755 16.8511705,0.629162755 L16.8511705,0.629162755 C16.8298476,0.629162755 16.8086179,0.629255868 16.7873882,0.629628319 M19.2019877,2.06766141 C18.3629488,1.99186764 17.518137,1.93851404 16.674908,1.89326125 L16.674908,1.89326125 C16.6358007,1.89111966 16.4200585,1.87026241 16.5620554,1.84409773 L16.5620554,1.84409773 C16.7176468,1.81448788 16.8773351,1.81532589 17.0352543,1.81337053 L17.0352543,1.81337053 C17.8201016,1.82864102 18.6084871,1.88367064 19.3803917,2.02771604 L19.3803917,2.02771604 C19.4401701,2.06170219 19.3166095,2.06859254 19.2430504,2.06859254 L19.2430504,2.06859254 C19.2254521,2.06859254 19.2106472,2.06812697 19.2019877,2.06766141" id="ear" fill="url(#radialGradient-3)"></path>
                <path d="M12.0004625,11.2127287 C12.6218969,11.5913251 13.310838,11.7868619 14.0124425,11.8975729 L14.0124425,11.8975729 C14.6065017,11.9214098 15.2147141,11.9818399 15.8030935,11.8919861 L15.8030935,11.8919861 C16.02405,11.8014806 15.7380077,11.6020331 15.6460123,11.5265187 L15.6460123,11.5265187 C15.3247734,11.2801424 14.9603301,11.0534129 14.537319,11.1141224 L14.537319,11.1141224 C14.0230573,11.0954067 13.2320646,11.0815329 12.6925694,11.0423324 L12.6925694,11.0423324 C12.5767372,11.0338592 12.4660262,11.0189611 12.3777553,11.0156091 L12.3777553,11.0156091 C12.2379931,11.0102085 12.158661,11.0125364 12.1298892,11.0184025 L12.1298892,11.0184025 L12.1134082,11.0203578 C12.0972066,11.0138399 12.081005,11.0109534 12.0654552,11.0109534 L12.0654552,11.0109534 C11.9599584,11.0109534 11.8824886,11.1450358 12.0004625,11.2127287" id="tongue" fill="url(#linearGradient-4)"></path>
                <path d="M6.41244132,1.91329912 C8.17962793,0.389602309 10.4710392,-0.219541208 12.684329,0.246115583 C13.3435671,0.384760446 13.7586637,0.529364525 14.4238611,0.852186379 C14.7325298,1.00200477 15.0124267,1.12454113 15.0458542,1.12454113 C15.0791885,1.12454113 15.2037734,1.05200631 15.3227715,0.963362986 C16.1587376,0.339786995 17.1368869,0.291461485 18.3061035,0.8157793 C18.5989431,0.94716137 18.873905,1.05470658 18.9171093,1.05470658 C18.945788,1.05470658 19.2807145,1.18404017 19.5033471,1.28199477 C19.5602389,1.26011327 19.9124844,1.30545918 20.4272116,1.40322755 L20.4272116,1.40322755 L20.7729392,1.53796168 C20.86689,1.49652651 20.9492947,1.47436568 21.0156841,1.47529681 C21.0762074,1.47604171 21.0243436,1.52678815 20.9005968,1.58777699 L20.9005968,1.58777699 L20.8067905,1.6409236 C20.497305,1.83415888 19.9519922,2.31698938 19.6237418,2.696191 C19.2839735,3.0888474 18.9257688,3.60450573 18.9257688,3.70115675 C18.9257688,3.75935221 18.0795602,4.27659346 17.8564621,4.35480816 C17.8252693,4.36579546 17.8623282,4.52092128 17.93896,4.69969773 C18.0155918,4.87838107 18.1484636,5.31098284 18.2343136,5.66099361 L18.2343136,5.66099361 L18.3903705,6.29732605 L18.9410392,6.58383394 C20.4902489,7.38972466 21.2172732,8.9933122 20.6775918,10.4135608 C20.6775918,10.4135608 20.3939704,11.1579971 20.1313925,11.4753253 C19.5364952,12.1943418 18.8469023,12.3769359 18.7144028,12.4477947 C18.5819965,12.5185604 18.3399965,12.7388651 18.3399965,12.7388651 C18.3399965,12.7388651 17.8920312,13.1256554 17.7098095,13.2792914 C17.5275879,13.4329274 17.2156603,13.6932706 17.1393078,13.7644088 C17.0017803,13.8924388 16.7721643,14.0258693 16.7721643,14.0258693 L16.7721643,14.0258693 L16.2741043,14.3222472 C15.5040619,14.7094099 15.0871031,14.8692845 14.3712524,15.0517855 L14.3712524,15.0517855 L13.7624813,15.2070044 L13.3510162,15.2844742 L12.9027715,15.3625958 C12.656302,15.4055207 12.1980012,15.4406242 11.8842112,15.4406242 C11.5705144,15.4406242 10.5734633,15.4109213 10.1266152,15.362782 C9.33068757,15.2767458 8.23512312,15.0271106 7.59283147,14.785483 C6.83759407,14.5011167 5.79556945,13.9349913 5.32544325,13.5535084 C4.91165025,13.2179301 4.26107157,12.3488159 4.18695383,12.200301 C4.1655379,12.1574692 4.08434359,11.9993638 4.06134475,11.9572768 C3.97335321,11.796378 3.85873144,11.4901302 3.74913775,11.1899347 C3.48804963,10.4754807 3.38376337,9.55562001 3.47864525,8.80438646 C3.56542632,8.11572466 3.89653521,6.5207035 3.98815814,6.34928295 C4.12410273,6.09489896 4.06125164,5.96826564 3.75425895,5.87757384 C3.59103232,5.82934144 3.17463217,5.65354459 2.82890458,5.48705902 C2.22627895,5.19673351 2.18838207,5.16460962 1.90941631,4.70817099 C1.57095152,4.15461578 0.624460562,3.18912982 0.194931512,2.95932759 C-0.0337533667,2.83697745 -0.0442751058,2.75894898 0.0759334359,2.75894898 L0.0759334359,2.75894898 L0.768878415,2.69907749 C1.02922162,2.683807 1.2600481,2.66928142 1.36414813,2.62365618 C1.37895306,2.6172314 1.4092147,2.61937299 1.44003501,2.59739838 C1.69637437,2.50624102 2.08856522,2.38156306 2.11510235,2.38156306 C2.16417276,2.38156306 2.42349173,2.27681124 2.69128396,2.14878122 C3.4205429,1.80026025 3.99141708,1.70249188 4.58854906,1.82409711 C5.0268307,1.91329912 5.37311697,2.05175775 5.6723813,2.25744379 L5.6723813,2.25744379 L5.86214506,2.38780162 Z M12.5372109,0.315391458 C11.8180081,0.18885125 10.4923621,0.18885125 9.83601039,0.315484571 C8.5961212,0.554784302 7.35725625,1.18692666 6.46989188,2.03304209 L6.46989188,2.03304209 L5.97937399,2.50074736 L6.20237899,2.77133297 C6.52659754,3.16464117 6.47557176,3.20114136 6.12863371,2.8241279 C5.35682224,1.98546149 4.317591,1.74839646 3.15554406,2.14589473 C2.40607965,2.40214098 1.75885302,2.56946456 1.50316545,2.63250189 C1.49078145,2.64172005 1.47299692,2.65289357 1.44841516,2.66713982 C1.38053598,2.70671274 1.0977526,2.75243109 0.819904194,2.76881893 L0.819904194,2.76881893 L0.262717584,2.81053344 C0.348474413,2.81053344 0.210388038,2.8241279 0.210388038,2.85289973 C0.210388038,2.88176468 0.349964217,2.96258653 0.520267411,3.03260731 C0.895884186,3.18708134 1.75494229,4.06066503 2.10141477,4.64047803 C2.32181262,5.00939069 2.39341631,5.06749304 3.03840823,5.40083663 C3.42249827,5.59925987 4.03527318,5.86602786 4.40018199,5.9935923 C4.99163409,6.20030258 5.02580646,6.23680277 4.51070681,6.11156614 C4.29598884,6.0593299 4.25278453,6.1390344 4.01376414,7.0295646 C3.91124702,7.41141993 3.76962255,7.92819561 3.69885687,8.17783086 C3.55229742,8.69516522 3.53032282,9.35943147 3.63302616,10.1777062 C3.7210177,10.8799624 3.85323778,11.2566035 4.28844671,12.044989 C4.83557715,13.036081 5.70357407,13.7931806 6.87940169,14.3048351 C8.32991189,14.9359532 8.72173028,15.0486196 9.98648057,15.1978793 C11.6108322,15.3896916 12.5022936,15.3286096 14.1558826,14.9121164 C15.6532285,14.5350098 17.0260827,13.788525 18.1669931,12.7310436 C18.4498696,12.4688382 18.8855441,12.1320494 19.1352724,11.9826966 C19.7170408,11.6346412 20.3181766,11.032388 20.5283321,10.5871229 C20.9053455,9.78830873 20.7760119,8.61229488 20.2314886,7.88769157 C19.7926483,7.30359538 19.4833278,7.0800317 18.5726853,6.68830643 C18.1866399,6.52228642 18.1841258,6.51930681 18.0968792,6.11007634 C17.6867176,4.18869504 17.2330723,3.2716277 16.1897441,2.25427795 C15.0774194,1.16979392 13.9296187,0.560464179 12.5372109,0.315391458 Z M16.8431628,12.6934447 C16.7266787,12.911701 16.234671,13.3148791 15.8831705,13.4801542 C15.0586572,13.8676894 13.5271389,14.0629468 12.570778,13.9024205 C11.730808,13.7613547 11.7906795,13.7208506 12.7947141,13.7511123 C14.6367634,13.8065144 15.6989003,13.5289453 16.6851504,12.7346005 C16.8955852,12.5651354 16.9142078,12.5602935 16.8431628,12.6934447 Z M9.81708988,13.0586142 C9.76727457,13.1392499 9.49808565,13.3018247 9.49808565,13.2512645 C9.49808565,13.235156 9.58058353,13.1679286 9.68133151,13.1019117 C9.78207949,13.0359878 9.84316145,13.0164342 9.81708988,13.0586142 Z M17.175957,6.03848195 C17.4028727,6.25487595 17.6300678,6.43300062 17.6809073,6.43430419 C17.8538392,6.4386017 17.5070234,6.6659202 17.1682697,6.78354993 L17.0840547,6.81047965 L16.7139316,6.91802486 L17.0341463,7.25192713 C17.6998092,7.94598946 18.0657423,9.16706987 17.9030743,10.1514577 C17.8654568,10.3792115 17.8188073,10.4322857 17.552598,10.5499802 C17.2814537,10.6699094 16.4497708,11.4281264 16.1213621,11.854769 C16.0250836,11.9799125 15.9020816,12.0137124 15.3880993,12.0565443 C14.0050028,12.171911 12.5032806,11.7781372 11.6695491,11.0814677 C11.5049258,10.9440333 11.3335984,10.8315531 11.288718,10.8315531 C11.2438377,10.8315531 11.1712098,10.9827682 11.1272606,11.167597 C10.9736245,11.8143581 10.5168135,12.5517178 10.0566503,12.8953969 C9.97131768,12.9591274 10.0198834,12.8781446 10.1621944,12.7132669 L10.219877,12.6476239 L10.3535558,12.4889282 C11.2513469,11.3563967 11.3644229,9.78163509 10.6156061,8.5619302 C10.4911144,8.35903755 10.4638323,8.2855716 10.5506134,8.38659892 C10.8854806,8.77657199 11.184488,9.57185479 11.2360854,10.1736156 L11.2439308,10.3477394 L11.2439308,10.6726097 L11.6122848,10.7465412 C12.1318539,10.8509206 13.3992113,11.0044635 13.434501,10.9673115 C13.4507027,10.9502719 13.4207204,10.7320156 13.3680185,10.4823804 C13.2342155,9.8494 13.2460409,9.33821108 13.408895,8.70131997 C13.7142117,7.50789404 14.4146057,6.76960316 15.4137985,6.58794021 C15.640528,6.54678438 15.8137177,6.54818107 15.891653,6.59175783 C16.018007,6.66252351 16.0178208,6.58840577 15.8909081,6.28141308 C15.8153937,6.09881901 16.1864479,5.73679669 16.500331,5.68688826 C16.7469866,5.6476878 16.7892598,5.66966241 17.175957,6.03848195 Z M11.9422763,11.1177817 C11.9422763,11.2628513 12.9979885,11.6938702 13.7230574,11.844899 C14.1660878,11.9372669 15.4991828,11.966318 15.7672544,11.8895 C15.9174452,11.8465751 15.9199593,11.8355878 15.8147419,11.6855831 C15.7535668,11.5983365 15.5408042,11.4337132 15.3418223,11.319557 C14.9926496,11.1193646 14.9487003,11.1121018 14.0722302,11.1092153 C13.5729597,11.1076324 12.952084,11.0788606 12.6924856,11.0454331 C12.211279,10.98342 11.9422763,11.0093985 11.9422763,11.1177817 Z M14.7750451,6.94940385 C13.7442142,7.55352737 13.1890103,9.15286376 13.5033462,10.5329974 L13.5516369,10.7197247 L13.6306896,10.9920795 L14.4799708,10.9484096 C14.9471174,10.9243865 15.6825218,10.8407713 16.1142856,10.7625566 C16.9184072,10.6171145 17.6636815,10.3820048 17.7550251,10.245036 C17.8428304,10.1133746 17.8114514,9.28159854 17.7009266,8.81277591 C17.3145087,7.17333998 15.9145588,6.28169242 14.7750451,6.94940385 Z M14.7555287,8.51878176 C14.80702,8.57027311 14.8404475,8.80771058 14.8404475,9.12056937 C14.8404475,9.65894721 14.7254533,9.94200993 14.6158596,9.6734728 C14.5857841,9.59982062 14.5611093,9.35102339 14.5611093,9.12056937 C14.5611093,8.61152205 14.6312232,8.39456937 14.7555287,8.51878176 Z M16.6935771,8.36197992 C16.8774748,8.54578446 16.8183482,9.3649903 16.6212285,9.3649903 C16.5921774,9.3649903 16.5291401,9.27020154 16.4810939,9.1543693 C16.3354656,8.80249627 16.5043721,8.17258861 16.6935771,8.36197992 Z M10.7234679,6.35670404 C11.120873,6.4456267 11.5045906,6.89238161 11.6319688,7.13875791 C11.6042212,7.05849473 11.6233093,7.06501262 11.6977995,7.16110496 C11.7554363,7.23568826 11.8026445,7.31846549 11.8026445,7.34500262 C11.8026445,7.50292182 10.2371401,7.58113651 9.67138707,7.45152359 C9.48642793,7.40906418 9.2483126,7.33859646 9.08218458,7.2786408 L8.97304155,7.23624694 L8.69500693,7.11734198 L9.02043594,7.01091412 C9.19939861,6.95234621 9.49400731,6.78204302 9.67501847,6.63241085 C10.0827591,6.29552897 10.2515725,6.2511142 10.7234679,6.35670404 Z M10.6154571,6.50074944 C10.6154571,6.53520115 10.6469292,6.58278176 10.6852917,6.60652551 C10.8134148,6.68567134 10.7572678,6.77161439 10.5631277,6.79396145 C10.4249484,6.80988372 10.3710362,6.85522963 10.3710362,6.95569827 C10.3710362,7.05616691 10.4249484,7.10151281 10.5631277,7.11743509 C10.7744937,7.14183063 10.7998203,7.19443932 10.6678796,7.33485333 C10.5956241,7.41157822 10.6537264,7.42042393 11.0053201,7.38597222 C11.507384,7.3368087 11.6571093,7.2893212 11.6396972,7.17125425 C11.6143705,7.17507187 11.4158542,6.95849165 11.271995,6.82375752 C11.0609084,6.62598607 10.6154571,6.39217999 10.6154571,6.50074944 Z M9.21876606,7.07599992 C9.05274606,7.1416444 9.05097691,7.14778984 9.18384879,7.20254013 C9.39763563,7.29071789 9.49810427,7.28000993 9.49810427,7.16929888 C9.49810427,7.02432235 9.41765487,6.99741277 9.21876606,7.07599992 Z M16.6230536,5.76743078 L16.6230536,5.76743078 C16.5663479,5.80244117 16.5857154,5.84918376 16.6859978,5.91948388 C16.8540663,6.03717838 16.878648,6.22247272 16.7259431,6.22247272 C16.6683995,6.22247272 16.6211913,6.26958776 16.6211913,6.32722455 C16.6211913,6.38476822 16.6720309,6.43197638 16.7341371,6.43197638 C16.8126311,6.43197638 16.8359093,6.4745289 16.8105826,6.57164548 C16.767937,6.73477899 16.8975499,6.75377399 17.2393668,6.63458969 C17.3603202,6.59240962 17.4592059,6.54259431 17.4592059,6.52378553 C17.4592059,6.50497676 17.2895545,6.31577168 17.0820993,6.10319531 C16.9113539,5.92832959 16.7662726,5.8097156 16.6835841,5.77422219 L16.6476093,5.76352659 Z M11.5203732,5.73008326 C11.699429,5.90485587 11.749803,5.96482047 11.6322947,5.86332759 C11.2514636,5.53454652 10.8245417,5.36461578 10.2915644,5.32979161 C9.85821778,5.30148534 9.73949904,5.3216908 9.38371528,5.48426564 C9.15856868,5.58715521 8.86731204,5.77170466 8.73639554,5.89452035 C8.52903347,6.08893975 8.51562524,6.09378161 8.63164371,5.93232412 C8.81181685,5.68175775 9.33138592,5.34133759 9.67273721,5.25027334 C10.3478045,5.07010019 11.0240823,5.24580392 11.5203732,5.73008326 Z M16.5666366,4.8971526 C16.8044465,4.89873551 17.3402172,5.10870473 17.4149867,5.22956506 C17.4385442,5.26764817 17.3414276,5.23943501 17.1993376,5.16699331 C16.6635669,4.89389365 15.9276038,5.07360123 15.4971437,5.58274167 C15.2946235,5.82222763 15.28764,5.82511412 15.385874,5.62883247 C15.5957501,5.20945271 16.1046112,4.89407988 16.5666366,4.8971526 Z M17.8433332,0.809168295 C17.0835333,0.556180993 16.296172,0.58197322 15.6944775,0.879468411 C15.4728692,0.989062101 15.2605721,1.11597476 15.2227684,1.16150689 C15.1735117,1.22091281 15.3048938,1.35983701 15.6873078,1.65276968 C16.3346275,2.148595 16.9066191,2.80047726 17.3935987,3.59733605 L17.3935987,3.59733605 L17.7585075,4.19437491 L18.2198811,3.95107134 C18.6074163,3.74668888 18.7257626,3.63784009 18.9585444,3.27153459 C19.4077203,2.56490204 20.2335371,1.79057653 20.7457503,1.55071812 L20.7457503,1.55071812 L20.3573771,1.45779161 C20.1653786,1.45862963 19.9045698,1.43479277 19.7776572,1.40481047 C19.7512132,1.39857191 19.7249554,1.39130912 19.6994425,1.38376699 L19.6994425,1.38376699 C19.7010254,1.45220485 18.9132917,1.16532451 17.8433332,0.809168295 Z M4.22059546,3.11039369 C4.65468703,3.17547949 4.68597291,3.27622747 4.25933036,3.23525787 C4.06928726,3.21700777 3.62253236,3.23628211 3.26656237,3.27827595 C2.12285864,3.41301008 1.55561585,3.44587888 1.51483247,3.37995506 C1.45877861,3.28917014 3.83455006,3.05247757 4.22059546,3.11039369 Z M19.4664744,2.04499777 C19.3655402,2.10915244 19.2498011,2.10598661 18.4020096,2.01613282 C18.0563751,1.97953952 17.4702305,1.94462224 17.0995487,1.93856991 C16.3914263,1.92702393 16.2687968,1.86333482 16.8009361,1.78353721 C17.1760873,1.72729711 19.5933871,1.96436214 19.4664744,2.04499777 Z" id="outlines" fill="#0B0606"></path>
                <path d="M10.6481024,6.47368157 C10.7647727,6.4856 10.8629135,6.55049958 10.9617061,6.60059423 C11.2190697,6.73868042 11.4074368,6.96717907 11.6207581,7.16057422 C11.6532544,7.17640339 11.6420809,7.21932836 11.6228997,7.24148919 C11.5655422,7.30499207 11.4728019,7.31523447 11.3941217,7.33488126 C11.1815453,7.37268503 10.9660824,7.39549765 10.7505264,7.40322601 C10.7154229,7.39894282 10.6654214,7.41290973 10.6412121,7.3797616 C10.6472644,7.34670658 10.681623,7.3241733 10.6994075,7.29651881 C10.7265033,7.26290512 10.7703594,7.20824794 10.7307865,7.16867503 C10.6497785,7.10954844 10.5388812,7.13133682 10.4501447,7.08859808 C10.3659708,7.05433259 10.3497692,6.93989704 10.3935322,6.86829334 C10.4482825,6.79529296 10.5503341,6.80199708 10.6301317,6.78058115 C10.6780847,6.76829027 10.7449397,6.74752613 10.7533198,6.68998245 C10.7383287,6.6230344 10.6577861,6.60320139 10.6276176,6.54463347 C10.6155362,6.52717484 10.6107351,6.49494619 10.625863,6.48070867 L10.6481024,6.47368157 L10.6522925,6.47358846 Z M9.37816576,7.03480685 C9.4004197,7.03415506 9.42351166,7.03527241 9.44418269,7.04439746 C9.50032967,7.07279684 9.4991192,7.14803194 9.49362555,7.20194421 C9.48617653,7.25445979 9.4245359,7.26498153 9.38095914,7.25855675 C9.28458746,7.24701077 9.19119538,7.21106926 9.10636968,7.16469912 C9.08513998,7.15762255 9.08923694,7.13266833 9.1079526,7.12596422 C9.19268519,7.08350481 9.28263209,7.04272143 9.37816576,7.03480685 Z M16.6364152,5.76355729 C16.6731017,5.76532643 16.7061567,5.78469388 16.736977,5.80322332 C16.9230162,5.92929796 17.0760005,6.09680777 17.2304745,6.25835837 C17.3067338,6.34383586 17.3914664,6.42391281 17.4566453,6.51823601 C17.4507792,6.55091858 17.4075749,6.55995052 17.3830863,6.57577968 C17.2419274,6.63695475 17.0949955,6.69338107 16.9408008,6.70827911 C16.8927546,6.71386587 16.8323244,6.71144494 16.80886,6.6606985 C16.7974072,6.59970966 16.8206853,6.53657922 16.8148192,6.47512482 C16.7975934,6.43024448 16.7426569,6.43545879 16.7043875,6.42633374 C16.6453541,6.41637068 16.6075503,6.35100554 16.6280351,6.29448611 C16.6395811,6.23768734 16.7038289,6.22381354 16.7524337,6.21748188 C16.8086738,6.21338492 16.8396803,6.14988203 16.8214302,6.10053228 C16.796476,5.98665541 16.6827854,5.93022909 16.6091332,5.85052459 C16.580082,5.82259077 16.5950732,5.76774736 16.6364152,5.76355729 Z" id="eye-whites" fill="#FDFEFF"></path>
            </g>
        </g>
    </g>
</svg>
