<!--
  (c) 2018-2020 Cloudera, Inc. All rights reserved.

  This code is provided to you pursuant to your written agreement with Cloudera, which may be the terms of the
  Affero General Public License version 3 (AGPLv3), or pursuant to a written agreement with a third party authorized
  to distribute this code.  If you do not have a written agreement with Cloudera or with an authorized and
  properly licensed third party, you do not have any rights to this code.

  If this code is provided to you under the terms of the AGPLv3:
   (A) CLOUDERA PROVIDES THIS CODE TO YOU WITHOUT WARRANTIES OF ANY KIND;
   (B) CLOUDERA DISCLAIMS ANY AND ALL EXPRESS AND IMPLIED WARRANTIES WITH RESPECT TO THIS CODE, INCLUDING BUT NOT
       LIMITED TO IMPLIED WARRANTIES OF TITLE, NON-INFRINGEMENT, MERCHANTABILITY AND FITNESS FOR A PARTICULAR PURPOSE;
   (C) CLOUDERA IS NOT LIABLE TO YOU, AND WILL NOT DEFEND, INDEMNIFY, OR HOLD YOU HARMLESS FOR ANY CLAIMS ARISING
       FROM OR RELATED TO THE CODE; AND
   (D) WITH RESPECT TO YOUR EXERCISE OF ANY RIGHTS GRANTED TO YOU FOR THE CODE, CLOUDERA IS NOT LIABLE FOR ANY
       DIRECT, INDIRECT, INCIDENTAL, SPECIAL, EXEMPLARY, PUNITIVE OR CONSEQUENTIAL DAMAGES INCLUDING, BUT NOT LIMITED
       TO, DAMAGES RELATED TO LOST REVENUE, LOST PROFITS, LOSS OF INCOME, LOSS OF BUSINESS ADVANTAGE OR
       UNAVAILABILITY, OR LOSS OR CORRUPTION OF DATA.
-->
<svg width="24px" height="24px" viewBox="0 0 24 24" version="1.1" xmlns="http://www.w3.org/2000/svg" xmlns:xlink="http://www.w3.org/1999/xlink">
    <!-- Generator: Sketch 58 (84663) - https://sketch.com -->
    <title>ic-ranger</title>
    <desc>Created with Sketch.</desc>
    <defs>
        <linearGradient x1="50%" y1="84.9945617%" x2="50%" y2="-24.2722563%" id="linearGradient-1">
            <stop stop-color="#0F3A53" offset="0%"></stop>
            <stop stop-color="#18425C" offset="28.9517206%"></stop>
            <stop stop-color="#325872" offset="84.5839954%"></stop>
            <stop stop-color="#395E79" offset="100%"></stop>
        </linearGradient>
    </defs>
    <g id="Symbols" stroke="none" stroke-width="1" fill="none" fill-rule="evenodd">
        <g id="icon/service/apache/ranger">
            <g id="icon" transform="translate(3.000000, 2.750000)">
                <path d="M8.95113546,-7.63833441e-14 L9.32984759,0.0119765615 C11.9527005,0.177478278 14.1214797,2.02055237 16.427637,3.18384095 L16.7746649,3.35294118 L17.0031202,3.44566449 C17.1062197,3.4828642 17.2112325,3.51469184 17.3174719,3.5410493 L17.4776649,3.57647059 L17.57432,3.60991721 C17.8601653,3.75932656 17.8969212,4.29293139 17.8890167,4.72830374 L17.869959,5.20823529 L17.8419284,5.77251294 C17.8053143,6.33634353 17.7429496,6.89856471 17.6548343,7.45676235 L17.5581355,8.01352941 L17.4931144,8.46843294 C17.2068561,10.2698938 16.5880743,12.0031032 15.6691642,13.5784568 L15.4111355,14.0041176 L15.2022596,14.2735948 C15.1060592,14.3908235 15.0054434,14.50452 14.9007065,14.6140954 L14.7405472,14.7752941 L14.6064296,14.63 L14.3197869,14.9653132 C12.9580497,16.5065714 11.2623761,17.7161395 9.36154877,18.5026716 L8.95113546,18.6647059 L8.54030466,18.5009441 C6.63754438,17.7061186 4.9402587,16.4851017 3.58172269,14.932983 L3.29584134,14.5953529 L3.16172369,14.7417647 L2.92354068,14.4976209 C2.82071715,14.3860218 2.72208825,14.2704488 2.62824269,14.1514907 L2.49113546,13.9705882 L2.25220663,13.5779695 C1.32828995,12.0049493 0.705142561,10.2740831 0.415849094,8.47290723 L0.345253102,7.98 L0.243323691,7.42334024 C0.150111926,6.86533035 0.0830531024,6.30345788 0.04214722,5.73941271 L0.00995898471,5.17470588 L0.00029647498,4.73435111 C-0.00384266326,4.29082354 0.0318411149,3.72993648 0.332652423,3.60082791 L0.423488396,3.57647059 L0.663658331,3.52025708 C0.769296675,3.49117066 0.873389631,3.45663859 0.975642838,3.41675898 L1.12760604,3.35294118 L1.45890797,3.1917619 C3.7757223,2.02653114 5.95260539,0.170186523 8.58875722,0.0109679564 L8.95113546,-7.63833441e-14 Z M14.0587825,14.1494118 L13.7719639,14.4794545 C12.6041873,15.7794426 11.1925941,16.8356142 9.61671668,17.5895518 L9.21937075,17.7717059 L9.01605882,17.8555294 L9.35139417,17.7230444 C11.0717024,17.0031389 12.6051429,15.9009915 13.836036,14.5002702 L14.098,14.1896471 L14.0587825,14.1494118 Z M3.83231193,14.1382353 L3.79329412,14.1795882 L4.06624887,14.5002702 C5.29725812,15.9009915 6.83148651,17.0031389 8.55107146,17.7230444 L8.87411765,17.8510588 L8.55339351,17.7195851 C6.84423531,16.985189 5.32502279,15.874931 4.10779818,14.4681137 L3.83231193,14.1382353 Z M1.18708501,8.54097641 C1.43310167,10.1828259 1.9854752,11.7642904 2.81644451,13.2020866 L3.04995898,13.5905882 L3.23648186,13.8413137 C3.32274766,13.9499325 3.41342885,14.0547981 3.50823107,14.1559107 L3.6534884,14.3047647 L3.69717647,14.2589412 L3.09354722,13.5682353 L2.86025099,13.1806595 C2.02899069,11.7467916 1.46432304,10.1748569 1.19400913,8.53933631 L1.12770588,8.10294118 L1.18708501,8.54097641 Z M16.7557647,8.22923529 L16.7089755,8.55134199 C16.4410566,10.1900914 15.8763218,11.7671631 15.0418551,13.2026594 L14.807606,13.5905882 L14.2198235,14.2757059 L14.2487825,14.3047647 L14.4643642,14.0793725 C14.5570875,13.9763834 14.6456162,13.8696412 14.7296559,13.759146 L14.8523119,13.5905882 L15.0856066,13.2020866 C15.9159044,11.7642904 16.4690222,10.1828259 16.7151676,8.54097641 L16.7557647,8.22923529 Z M17.1165632,4.80794545 L17.1131314,4.76888575 C17.1203268,4.8909189 17.1203045,5.01637911 17.1173537,5.13501636 L17.0987825,5.58823529 L17.0622846,6.09450259 C17.0187769,6.60004565 16.9541858,7.10333553 16.8680286,7.603648 L16.8183529,7.866 L16.872839,7.59545788 C16.9632343,7.09780094 17.0302931,6.59628141 17.0740155,6.09258918 L17.109959,5.58823529 L17.1237254,5.11391203 C17.1243005,5.06412501 17.1242388,5.01317732 17.1231688,4.9619044 L17.1131314,4.76888575 L17.1165632,4.80794545 Z M8.95113546,0.804705882 L8.58861601,0.819405964 C7.65090459,0.887486473 6.77688138,1.1828503 5.93330636,1.57908457 L5.30581475,1.89319828 C6.36840435,1.33593499 7.46991761,0.895296565 8.67557197,0.842742379 L8.95011765,0.839352941 L8.95113546,0.804705882 Z" id="blue-shield" fill="url(#linearGradient-1)"></path>
                <path d="M9.49956487,0.710376471 C10.9039314,0.871145701 12.1722624,1.50803919 13.3919038,2.20125508 L14.052859,2.58243529 C14.7446825,2.98478824 15.4599766,3.40055294 16.1797413,3.72802353 C16.3101335,3.78465098 16.4464864,3.83233725 16.5868132,3.87042004 L16.8033884,3.92025882 C17.2306489,4.01605714 17.2604832,4.67022281 17.2440998,5.18245056 L17.2269766,5.59114118 L17.2269766,5.59114118 C17.1778002,6.44502353 17.0682707,7.29778824 16.9006237,8.1282 C16.6491531,10.0729059 15.9629178,11.9896706 14.9168002,13.6594353 L14.2115649,14.4831412 L14.0662707,14.3389647 C12.760859,15.8589647 11.1056237,17.0850235 9.27156487,17.8886118 L8.95303546,18.0204941 L8.90497663,18.0026118 C6.92785898,17.2336706 5.1753884,15.9673765 3.8263884,14.3356118 L3.70680016,14.4641412 L2.99821193,13.6516118 C1.92750604,11.9460824 1.2591531,10.0863176 0.999858985,8.1092 C0.819917808,7.26761176 0.699211926,6.39696471 0.642211926,5.52967059 L0.623050985,5.05651247 C0.615969573,4.57748 0.672835455,3.98843529 1.10380016,3.90796471 C1.32509428,3.86884706 1.53968251,3.80067059 1.74421193,3.70567059 C2.26810898,3.46761176 2.79263472,3.17800147 3.30788748,2.8811614 L4.423917,2.23255719 C5.84051064,1.41889485 7.31218987,0.676148529 9.00891781,0.710376471 C9.16091781,0.692494118 9.33191781,0.693611765 9.49956487,0.710376471 Z M9.01897663,0.966317647 L8.93291781,0.9652 L8.93291781,0.9652 C7.10109428,0.9652 5.49950604,1.90067059 3.94932957,2.80596471 C3.26756487,3.20496471 2.56121193,3.61625882 1.85150604,3.93925882 C1.62797663,4.0432 1.3921531,4.11696471 1.14962369,4.16167059 C0.912403102,4.20525882 0.876358985,4.67006029 0.880235823,5.04543254 L0.898153102,5.51737647 C0.955153102,6.36790588 1.07474134,7.22625882 1.25356487,8.06561176 C1.50950604,10.0159059 2.16556487,11.8399059 3.20385898,13.4996118 L3.71127075,14.0796706 L3.83868251,13.9422 L3.93144722,14.0584353 C5.25474134,15.6980235 6.98821193,16.9721412 8.94968251,17.7433176 L9.17097663,17.6516706 C11.009506,16.8458471 12.665859,15.6052588 13.9612119,14.0662588 L14.0506237,13.9600824 L14.1970355,14.1053765 L14.7111531,13.5063176 C15.7259766,11.8834941 16.3988002,10.0047294 16.6469178,8.08684706 C16.8134472,7.25867059 16.921859,6.41931765 16.9699178,5.58108235 L16.9864548,5.20218965 C16.9988214,4.80739118 16.9868688,4.22761176 16.747506,4.17172941 C16.5161531,4.12590588 16.2903884,4.05549412 16.0746825,3.96272941 C15.5248002,3.71293529 14.9812046,3.41473309 14.4495538,3.11008695 L13.2728995,2.42983247 C12.074875,1.7478307 10.8298228,1.12141267 9.47274134,0.966317647 C9.32297663,0.950670588 9.16985898,0.951788235 9.01897663,0.966317647 Z M10.5081296,8.28187647 C11.1619531,8.28187647 11.6704825,8.43275882 12.0370707,8.73675882 C12.4025413,9.03964118 12.5847178,9.47440588 12.5847178,10.0388176 C12.5847178,10.3294059 12.5232472,10.6043471 12.3991884,10.8625235 C12.2751296,11.1218176 12.099659,11.3352882 11.8727766,11.5085235 C11.6458943,11.6784059 11.3854825,11.7767588 11.0915413,11.7991118 L11.6481296,13.7672882 L12.2918943,13.7672882 L12.0538355,14.7865824 L10.4008355,14.7865824 L9.68442369,11.8941118 L8.77354134,11.8941118 L8.34212957,13.7672882 L8.95907075,13.7672882 L8.7131884,14.7865824 L5.81289428,14.7865824 L6.04983546,13.7672882 L6.68801193,13.7672882 L7.72071781,9.29558235 L7.08589428,9.29558235 L7.31389428,8.28187647 L10.5081296,8.28187647 Z M10.1158355,9.29558235 L9.37371781,9.29558235 L8.95907075,11.0558765 L9.66654134,11.0558765 C10.066659,11.0558765 10.3717766,10.9709353 10.5818943,10.8010529 C10.7920119,10.6289353 10.8970707,10.3707588 10.8970707,10.0298765 C10.8970707,9.79964118 10.826659,9.6197 10.6836002,9.49005294 C10.541659,9.36040588 10.351659,9.29558235 10.1158355,9.29558235 Z M12.6498766,5.91235294 C12.8488178,5.92688235 13.0220531,6.05205882 13.0969355,6.23647059 L13.120406,6.47117647 C12.7415237,6.98976471 12.2430531,7.40776471 11.6663472,7.68941176 C11.4875237,7.80117647 11.2863472,7.90176471 11.0751119,8.01352941 C11.0423276,7.94721569 11.0150074,7.8784183 10.9924888,7.80779956 L10.9622296,7.70058824 C10.840406,7.11941176 10.403406,7.00764706 9.84458251,7.03 C9.65458251,7.04452941 9.46681781,7.08141176 9.28575898,7.14176471 L8.00102369,7.56926471 L8.00102369,7.56926471 L6.7162884,8.01352941 C6.29940604,8.132 5.96746487,8.44494118 5.82217075,8.85176471 C5.75175898,9.15911765 5.79981781,9.48211765 5.95517075,9.75705882 C5.59864134,9.75705882 5.2510531,9.86882353 4.83752369,9.89117647 C4.42399428,9.96382353 4.00040604,9.96382353 3.58687663,9.89117647 C3.18340604,9.79058824 3.07275898,9.52235294 3.32981781,9.18705882 C3.60457271,8.85828431 3.93288153,8.57918301 4.30051498,8.36075027 L4.52570016,8.23705882 C6.03675898,7.37647059 7.66181781,6.73270588 9.35281781,6.32588235 C10.0792884,6.10235294 10.8303472,5.96376471 11.5892296,5.91235294 L12.6498766,5.91235294 Z M5.45088971,4.93162705 C5.48882589,4.83672738 5.54859324,4.75064844 5.62653778,4.68048199 L5.71040604,4.61588235 C6.31170016,4.12635294 7.0582884,3.84805882 7.83281781,3.82235294 L8.05746487,3.82235294 C8.32681781,3.78658824 8.59840604,3.89164706 8.77164134,4.10176471 C9.04099428,4.50523529 9.47464134,4.76788235 9.95634722,4.81705882 C10.3139943,4.81705882 10.3698766,5.20823529 10.5721707,5.42058824 C10.593406,5.44294118 10.6057002,5.52117647 10.6492884,5.58823529 C8.5972884,5.81958824 6.6190531,6.49017647 4.84981781,7.55529412 C4.66764134,7.24011765 4.69893546,6.84447059 4.92693546,6.56058824 C5.02249428,6.41808824 5.11050898,6.27111765 5.19083987,6.12009559 L5.28688487,5.92804471 L5.19593311,5.87803624 C5.1502325,5.85319964 5.11166088,5.83389412 5.09536487,5.83389412 C5.06556095,5.83389412 4.98608382,5.72461307 4.93641062,5.65175904 L4.89527178,5.58820397 L5.01357599,5.67435532 C5.03396665,5.68775368 5.05582045,5.70139742 5.07813462,5.71419242 C5.11671116,5.73634909 5.15737538,5.7562794 5.19413577,5.76774456 L5.25183546,5.77801176 C5.09312957,5.68077647 4.94224722,5.56901176 4.80477663,5.44271765 L4.67904134,5.12600441 L4.53654134,4.81683529 L4.42138943,4.59349809 L4.38843241,4.56697908 L4.29123851,4.47731895 L4.29123851,4.47731895 L4.20124722,4.38095294 C4.16697271,4.25652157 4.14064591,4.1306 4.12226683,4.00318824 L4.0914384,3.73830588 L4.0914384,3.73830588 L4.10065898,3.66565882 C4.10065898,3.66565882 4.11183546,3.56507059 4.16771781,3.56507059 L4.20124722,3.57177647 L4.23477663,3.56507059 C4.23477663,3.56507059 4.2459531,3.47565882 4.31301193,3.47565882 L4.34612222,3.47901176 L4.38007075,3.47565882 L4.4620781,3.53251912 L4.53654134,3.5986 C4.70865898,3.76289412 4.85507075,3.95065882 4.97242369,4.15742353 L5.08692549,4.35182243 C5.1724597,4.49112101 5.22948251,4.57095294 5.22948251,4.57095294 L5.23367369,4.72183529 L5.23367369,4.72183529 L5.22948251,4.87271765 C5.27083546,4.81236471 5.30883546,4.74865882 5.34124722,4.68271765 C5.38088644,4.76442297 5.41745159,4.84744575 5.45088971,4.93162705 Z M4.29065898,3.65448235 L4.93243288,4.78686402 C5.09746046,5.08646765 5.22948251,5.33793824 5.22948251,5.37565882 C5.28201193,5.50307059 5.32671781,5.63383529 5.36360016,5.76683529 C5.35831994,5.68169171 5.34680323,5.59732768 5.32951042,5.51397341 C5.31752442,5.45619543 5.30275657,5.39888129 5.28536487,5.34212941 C4.99142369,4.75871765 4.65948251,4.19430588 4.29065898,3.65448235 Z M4.35771781,4.47036471 L4.42138943,4.59349809 L4.49183546,4.64918824 C4.48065898,4.55977647 4.35771781,4.47036471 4.35771781,4.47036471 Z" id="white-objects" fill="#FFFFFF"></path>
            </g>
        </g>
    </g>
</svg>
