<!--
  (c) 2018-2020 Cloudera, Inc. All rights reserved.

  This code is provided to you pursuant to your written agreement with Cloudera, which may be the terms of the
  Affero General Public License version 3 (AGPLv3), or pursuant to a written agreement with a third party authorized
  to distribute this code.  If you do not have a written agreement with Cloudera or with an authorized and
  properly licensed third party, you do not have any rights to this code.

  If this code is provided to you under the terms of the AGPLv3:
   (A) CLOUDERA PROVIDES THIS CODE TO YOU WITHOUT WARRANTIES OF ANY KIND;
   (B) CLOUDERA DISCLAIMS ANY AND ALL EXPRESS AND IMPLIED WARRANTIES WITH RESPECT TO THIS CODE, INCLUDING BUT NOT
       LIMITED TO IMPLIED WARRANTIES OF TITLE, NON-INFRINGEMENT, MERCHANTABILITY AND FITNESS FOR A PARTICULAR PURPOSE;
   (C) CLOUDERA IS NOT LIABLE TO YOU, AND WILL NOT DEFEND, INDEMNIFY, OR HOLD YOU HARMLESS FOR ANY CLAIMS ARISING
       FROM OR RELATED TO THE CODE; AND
   (D) WITH RESPECT TO YOUR EXERCISE OF ANY RIGHTS GRANTED TO YOU FOR THE CODE, CLOUDERA IS NOT LIABLE FOR ANY
       DIRECT, INDIRECT, INCIDENTAL, SPECIAL, EXEMPLARY, PUNITIVE OR CONSEQUENTIAL DAMAGES INCLUDING, BUT NOT LIMITED
       TO, DAMAGES RELATED TO LOST REVENUE, LOST PROFITS, LOSS OF INCOME, LOSS OF BUSINESS ADVANTAGE OR
       UNAVAILABILITY, OR LOSS OR CORRUPTION OF DATA.
-->
<svg width="24px" height="24px" viewBox="0 0 24 24" version="1.1" xmlns="http://www.w3.org/2000/svg" xmlns:xlink="http://www.w3.org/1999/xlink">
    <title>ic-smm-schema-registry</title>
    <desc>Created with Sketch.</desc>
    <g id="Symbols" stroke="none" stroke-width="1" fill="none" fill-rule="evenodd">
        <g id="icon/service/cloudera/smm-schema-registry">
            <g id="icon" transform="translate(2.000000, 2.000000)">
                <g>
                    <path d="M1.55529231,5.18741538 L1.55529231,4.52464615 L0.175292308,3.72849231 C0.157292308,3.76172308 0.139753846,3.79587692 0.124061538,3.83095385 C0.0465230769,4.00033846 0.000830769231,4.17895385 0.000830769231,4.34326154 L0.000830769231,4.96449231 L0.000830769231,5.63926154 L1.10344615,5.63926154 C1.35175385,5.63926154 1.55529231,5.43618462 1.55529231,5.18741538" id="Fill-1" fill="#7EC7EE"></path>
                    <path d="M3.86164615,10.3044462 L2.89933846,8.63783077 L2.52410769,7.98752308 L2.52410769,9.57521538 C2.52410769,9.82398462 2.32056923,10.0270615 2.0718,10.0270615 L2.00718462,10.0270615 C1.75841538,10.0270615 1.55533846,9.82398462 1.55533846,9.57521538 L1.55533846,7.62244615 L1.55533846,6.45752308 C1.55533846,6.20875385 1.3518,6.00567692 1.10303077,6.00567692 L0.000876923077,6.00567692 L0.000876923077,9.49767692 C0.000876923077,9.55167692 0.00595384615,9.60706154 0.0151846154,9.66290769 C0.0373384615,9.79490769 0.0834923077,9.93106154 0.147646154,10.0602923 C0.169338462,10.1027538 0.192415385,10.1452154 0.217338462,10.1862923 C0.242261538,10.2269077 0.269030769,10.2666 0.296723077,10.3044462 C0.401953846,10.4461385 0.527953846,10.5666 0.663184615,10.6446 L5.12672308,13.2218308 C5.26933846,13.3039846 5.44703077,13.3533692 5.63256923,13.3718308 L3.86164615,10.3044462 Z" id="Fill-3" fill="#3FAE2A"></path>
                    <path d="M5.78893846,5.85673846 C5.80970769,5.85350769 5.83093846,5.85166154 5.85216923,5.85166154 L5.91678462,5.85166154 C6.16509231,5.85166154 6.36909231,6.0552 6.36909231,6.30396923 L6.36909231,6.58043077 C6.36909231,6.8292 6.57216923,7.0332 6.82093846,7.0332 L6.87078462,7.0332 C7.11909231,7.0332 7.32263077,6.8292 7.32263077,6.58043077 L7.32263077,5.42104615 C7.32263077,5.17227692 7.52616923,4.97889231 7.77493846,4.97889231 L7.83909231,4.97889231 C8.08786154,4.97889231 8.2854,5.16535385 8.2854,5.39704615 C8.2854,5.62873846 8.48893846,5.81843077 8.73770769,5.81843077 L8.80047692,5.81843077 C8.85909231,5.81843077 8.91493846,5.80689231 8.96709231,5.78658462 L8.68186154,5.2992 L7.71678462,3.62750769 L5.89047692,0.464584615 C5.85678462,0.462738462 5.82309231,0.461815385 5.78893846,0.461815385 L5.78893846,3.62750769 L5.78893846,5.85673846 Z" id="Fill-5" fill="#418FB2"></path>
                    <path d="M6.87064615,7.42029231 L6.82126154,7.42029231 C6.75618462,7.42029231 6.69433846,7.4346 6.63803077,7.45952308 L7.32203077,7.85413846 C7.31187692,7.61413846 7.11249231,7.42029231 6.87064615,7.42029231" id="Fill-7" fill="#3B8640"></path>
                    <path d="M1.55529231,4.44507692 C1.55529231,4.19630769 1.75836923,3.99276923 2.00713846,3.99276923 L2.07175385,3.99276923 C2.32052308,3.99276923 2.52406154,4.19630769 2.52406154,4.44507692 L2.52406154,5.08430769 L2.89652308,5.29938462 L3.4776,5.63492308 L3.4776,5.42076923 C3.4776,5.172 3.68067692,4.96892308 3.92990769,4.96892308 L3.99406154,4.96892308 C4.24283077,4.96892308 4.44683077,5.172 4.44683077,5.42076923 L4.44683077,6.19430769 L5.39990769,6.74446154 L5.39990769,6.30369231 C5.39990769,6.07661538 5.56975385,5.88784615 5.78898462,5.85692308 L5.78898462,3.62769231 L5.78898462,0.461538462 C5.75529231,0.461538462 5.72113846,0.462923077 5.68744615,0.464769231 C5.48252308,0.477692308 5.28313846,0.528923077 5.12667692,0.619384615 L0.663138462,3.19661538 C0.499753846,3.29076923 0.350215385,3.44676923 0.234369231,3.62769231 C0.2136,3.66046154 0.193753846,3.69415385 0.175292308,3.72830769 L1.55529231,4.52492308 L1.55529231,4.44507692 Z" id="Fill-9" fill="#3DB5E6"></path>
                    <path d="M4.89110769,7.97196923 L4.94049231,7.97196923 C5.18926154,7.97196923 5.40018462,7.76104615 5.40018462,7.51227692 L5.40018462,6.74473846 L4.44664615,6.19412308 L4.43926154,7.52012308 C4.43926154,7.76889231 4.6428,7.97196923 4.89110769,7.97196923" id="Fill-11" fill="#7EC7EE"></path>
                    <path d="M2.89666154,5.2992 L2.52373846,5.08412308 L2.52373846,5.94443077 L2.52373846,6.51212308 C2.52373846,6.76089231 2.72773846,6.96396923 2.97604615,6.96396923 L3.02543077,6.96396923 C3.2742,6.96396923 3.47773846,6.74012308 3.47773846,6.49181538 L3.47773846,5.6352 L2.89666154,5.2992 Z" id="Fill-13" fill="#7EC7EE"></path>
                    <path d="M5.39995385,11.4339692 L5.39995385,8.80458462 C5.39995385,8.55581538 5.19687692,8.35181538 4.94810769,8.35181538 L4.89872308,8.35181538 C4.64995385,8.35181538 4.44687692,8.55581538 4.44687692,8.80458462 L4.44687692,8.85443077 C4.44687692,9.1032 4.24287692,9.30673846 3.99410769,9.30673846 L3.92949231,9.30673846 C3.68072308,9.30673846 3.47764615,9.1032 3.47764615,8.85443077 L3.47764615,7.78366154 C3.47764615,7.53489231 3.27456923,7.33135385 3.02533846,7.33135385 L2.97595385,7.33135385 C2.72764615,7.33135385 2.52410769,7.53489231 2.52410769,7.78366154 L2.52410769,7.98766154 L2.89933846,8.63750769 L3.86164615,10.3045846 L5.63256923,13.3715077 C5.68426154,13.3765846 5.73641538,13.3798154 5.78903077,13.3798154 L5.78903077,11.8812 C5.5698,11.8502769 5.39995385,11.6610462 5.39995385,11.4339692" id="Fill-15" fill="#8CCE7F"></path>
                    <path d="M11.4540462,3.83076923 C11.4383538,3.79615385 11.4212769,3.762 11.4032769,3.72830769 C11.3843538,3.69415385 11.3649692,3.66046154 11.3437385,3.62769231 C11.2283538,3.44676923 11.0788154,3.29076923 10.9149692,3.19661538 L6.62958462,0.722307692 L6.45143077,0.619384615 C6.29496923,0.528923077 6.09604615,0.477692308 5.8902,0.464769231 L7.71650769,3.62769231 L8.68158462,5.29938462 L8.96635385,5.78676923 C9.13343077,5.72030769 9.25204615,5.55692308 9.25204615,5.36676923 L9.24512308,4.44507692 C9.24512308,4.19630769 9.4482,3.99276923 9.69696923,3.99276923 L9.76158462,3.99276923 C10.0103538,3.99276923 10.2134308,4.19630769 10.2134308,4.44507692 L10.2134308,5.166 C10.2134308,5.33769231 10.3108154,5.49969231 10.4534308,5.57630769 C10.5171231,5.61 10.5891231,5.62984615 10.6662,5.62984615 L11.5777385,5.62984615 L11.5777385,4.95876923 L11.5777385,4.34307692 C11.5777385,4.17923077 11.5311231,4.00015385 11.4540462,3.83076923" id="Fill-18" fill="#427C97"></path>
                    <path d="M-0.000138461538,6.00909231 L1.10247692,6.00909231 C1.35078462,6.00909231 1.55432308,6.21263077 1.55432308,6.4614 L1.55432308,7.62632308 L1.55432308,9.57909231 C1.55432308,9.8274 1.75786154,10.0314 2.00663077,10.0314 L2.07078462,10.0314 C2.31955385,10.0314 2.52309231,9.8274 2.52309231,9.57909231 L2.52309231,7.9914 L2.52309231,7.78786154 C2.52309231,7.53863077 2.72663077,7.33555385 2.97493846,7.33555385 L3.02478462,7.33555385 C3.27309231,7.33555385 3.47663077,7.53863077 3.47663077,7.78786154 L3.47663077,8.85863077 C3.47663077,9.10693846 3.68016923,9.31047692 3.92893846,9.31047692 L3.99309231,9.31047692 C4.24186154,9.31047692 4.4454,9.10693846 4.4454,8.85863077 L4.4454,8.80786154 C4.4454,8.55955385 4.64893846,8.35601538 4.89770769,8.35601538 L4.94709231,8.35601538 C5.19586154,8.35601538 5.39893846,8.55955385 5.39893846,8.80786154 L5.39893846,11.4381692 C5.39893846,11.6652462 5.56878462,11.8540154 5.78801538,11.8849385 C5.80878462,11.8881692 5.83001538,11.8900154 5.85124615,11.8900154 L5.91586154,11.8900154 C6.16416923,11.8900154 6.36816923,11.6869385 6.36816923,11.4381692 L6.36816923,7.87647692 C6.36816923,7.69278462 6.47893846,7.53447692 6.63724615,7.4634 C6.69309231,7.43893846 6.7554,7.42416923 6.82001538,7.42416923 L6.8694,7.42416923 C7.11170769,7.42416923 7.31109231,7.61801538 7.32032308,7.85801538 C7.32078462,7.86447692 7.32170769,7.87001538 7.32170769,7.87647692 L7.32170769,9.03678462 C7.32170769,9.28555385 7.52524615,9.48863077 7.77401538,9.48863077 L7.83816923,9.48863077 C8.08693846,9.48863077 8.29047692,9.28555385 8.29047692,9.03678462 L8.29047692,8.41832308 L8.29047692,6.65524615 C8.29047692,6.40647692 8.49355385,6.20293846 8.74232308,6.20293846 L8.79216923,6.20293846 C9.04047692,6.20293846 9.24401538,6.40647692 9.24401538,6.65524615 L9.24401538,7.00463077 C9.24401538,7.14863077 9.31232308,7.27693846 9.41755385,7.36001538 C9.49463077,7.42047692 9.59109231,7.45693846 9.69632308,7.45693846 L9.76047692,7.45693846 C10.0092462,7.45693846 10.2127846,7.2534 10.2127846,7.00463077 L10.2127846,6.4614 C10.2127846,6.21263077 10.4163231,6.00909231 10.6646308,6.00909231 L11.5770923,6.00909231 L11.5775538,5.6214 L10.6646308,5.62186154 C10.5880154,5.62186154 10.5155538,5.60201538 10.4523231,5.56832308 C10.3101692,5.49170769 10.2127846,5.34170769 10.2127846,5.17001538 L10.2127846,4.44863077 C10.2127846,4.19986154 10.0092462,3.99678462 9.76047692,3.99678462 L9.69632308,3.99678462 C9.44755385,3.99678462 9.24401538,4.19986154 9.24401538,4.44863077 L9.24401538,5.3634 C9.24401538,5.55355385 9.12493846,5.71647692 8.95786154,5.7834 C8.90663077,5.80416923 8.85078462,5.81570769 8.79216923,5.81570769 L8.74232308,5.81570769 C8.49355385,5.81570769 8.29047692,5.62601538 8.29047692,5.39432308 C8.29047692,5.16216923 8.08693846,4.97247692 7.83816923,4.97247692 L7.77401538,4.97247692 C7.52524615,4.97247692 7.32170769,5.17601538 7.32170769,5.42478462 L7.32170769,6.58463077 C7.32170769,6.8334 7.11816923,7.03693846 6.8694,7.03693846 L6.82001538,7.03693846 C6.57124615,7.03693846 6.36816923,6.8334 6.36816923,6.58463077 L6.36816923,6.30770769 C6.36816923,6.05893846 6.16416923,5.85586154 5.91586154,5.85586154 L5.85124615,5.85586154 C5.83001538,5.85586154 5.80878462,5.85770769 5.78801538,5.86093846 C5.56878462,5.8914 5.39893846,6.08063077 5.39893846,6.30770769 L5.39893846,6.74893846 L5.39893846,7.51647692 C5.39893846,7.76524615 5.19586154,7.96832308 4.94709231,7.96832308 L4.89770769,7.96832308 C4.64893846,7.96832308 4.4454,7.76524615 4.4454,7.51647692 L4.4454,6.19832308 L4.4454,5.42478462 C4.4454,5.17601538 4.24186154,4.97247692 3.99309231,4.97247692 L3.92893846,4.97247692 C3.68016923,4.97247692 3.47663077,5.17601538 3.47663077,5.42478462 L3.47663077,5.63893846 L3.47663077,6.49601538 C3.47663077,6.74432308 3.27309231,6.94786154 3.02478462,6.94786154 L2.97493846,6.94786154 C2.72663077,6.94786154 2.52309231,6.74432308 2.52309231,6.49601538 L2.52309231,5.94816923 L2.52309231,5.08832308 L2.52309231,4.44863077 C2.52309231,4.19986154 2.31955385,3.99678462 2.07078462,3.99678462 L2.00663077,3.99678462 C1.75786154,3.99678462 1.55432308,4.19986154 1.55432308,4.44863077 L1.55432308,4.52893846 L1.55432308,5.17001538 C1.55432308,5.41832308 1.35078462,5.62186154 1.10247692,5.62186154 L-0.000138461538,5.62186154 L-0.000138461538,6.00909231 Z" id="Fill-21" fill="#FFFFFF"></path>
                    <path d="M7.20646154,10.1484923 L11.2952308,10.1484923 L8.67876923,8.63787692 L8.29153846,8.41403077 L8.29153846,9.03249231 C8.29153846,9.28126154 8.088,9.4848 7.83923077,9.4848 L7.77461538,9.4848 C7.52584615,9.4848 7.32276923,9.28126154 7.32276923,9.03249231 L7.32276923,7.87218462 C7.32276923,7.86664615 7.32184615,7.86018462 7.32138462,7.85418462 L6.63830769,7.45956923 C6.48,7.53018462 6.36923077,7.68895385 6.36923077,7.87218462 L6.36923077,11.4338769 C6.36923077,11.6826462 6.16523077,11.8866462 5.91692308,11.8866462 L5.85184615,11.8866462 C5.83107692,11.8866462 5.80984615,11.8843385 5.78907692,11.8811077 L5.78907692,13.3797231 C5.84169231,13.3797231 5.89384615,13.3764923 5.946,13.3714154 C6.13107692,13.3534154 6.30923077,13.3040308 6.45138462,13.2218769 L7.20646154,12.7857231 L7.20646154,10.1484923 Z" id="Fill-24" fill="#3D9A35"></path>
                    <path d="M11.3814923,10.1484923 C11.3985692,10.1194154 11.4156462,10.0903385 11.4304154,10.0608 C11.5222615,9.87618462 11.5771846,9.67818462 11.5771846,9.49772308 L11.5771846,6.00526154 L10.6661077,6.00526154 C10.4173385,6.00526154 10.2138,6.2088 10.2138,6.45756923 L10.2138,7.0008 C10.2138,7.24956923 10.0102615,7.45310769 9.76149231,7.45310769 L9.69733846,7.45310769 C9.59210769,7.45310769 9.49564615,7.41664615 9.41856923,7.35572308 C9.31333846,7.27310769 9.24503077,7.1448 9.24503077,7.0008 L9.24503077,6.65141538 C9.24503077,6.40264615 9.04149231,6.19910769 8.79318462,6.19910769 L8.74333846,6.19910769 C8.49503077,6.19910769 8.29149231,6.40264615 8.29149231,6.65141538 L8.29149231,8.41403077 L8.67918462,8.63787692 L11.2951846,10.1484923 L11.3814923,10.1484923 Z" id="Fill-27" fill="#3B8640"></path>
                </g>
                <path d="M9.84615385,17 L9.84615385,19 L8,19 L8,17 L9.84615385,17 Z M20,17 L20,19 L10.7692308,19 L10.7692308,17 L20,17 Z M9.84615385,14 L9.84615385,16 L8,16 L8,14 L9.84615385,14 Z M20,14 L20,16 L10.7692308,16 L10.7692308,14 L20,14 Z M9.84615385,11 L9.84615385,13 L8,13 L8,11 L9.84615385,11 Z M20,11 L20,13 L10.7692308,13 L10.7692308,11 L20,11 Z" id="registry" fill="#427C97"></path>
            </g>
        </g>
    </g>
</svg>
