<!--
  (c) 2018-2020 Cloudera, Inc. All rights reserved.

  This code is provided to you pursuant to your written agreement with Cloudera, which may be the terms of the
  Affero General Public License version 3 (AGPLv3), or pursuant to a written agreement with a third party authorized
  to distribute this code.  If you do not have a written agreement with Cloudera or with an authorized and
  properly licensed third party, you do not have any rights to this code.

  If this code is provided to you under the terms of the AGPLv3:
   (A) CLOUDERA PROVIDES THIS CODE TO YOU WITHOUT WARRANTIES OF ANY KIND;
   (B) CLOUDERA DISCLAIMS ANY AND ALL EXPRESS AND IMPLIED WARRANTIES WITH RESPECT TO THIS CODE, INCLUDING BUT NOT
       LIMITED TO IMPLIED WARRANTIES OF TITLE, NON-INFRINGEMENT, MERCHANTABILITY AND FITNESS FOR A PARTICULAR PURPOSE;
   (C) CLOUDERA IS NOT LIABLE TO YOU, AND WILL NOT DEFEND, INDEMNIFY, OR HOLD YOU HARMLESS FOR ANY CLAIMS ARISING
       FROM OR RELATED TO THE CODE; AND
   (D) WITH RESPECT TO YOUR EXERCISE OF ANY RIGHTS GRANTED TO YOU FOR THE CODE, CLOUDERA IS NOT LIABLE FOR ANY
       DIRECT, INDIRECT, INCIDENTAL, SPECIAL, EXEMPLARY, PUNITIVE OR CONSEQUENTIAL DAMAGES INCLUDING, BUT NOT LIMITED
       TO, DAMAGES RELATED TO LOST REVENUE, LOST PROFITS, LOSS OF INCOME, LOSS OF BUSINESS ADVANTAGE OR
       UNAVAILABILITY, OR LOSS OR CORRUPTION OF DATA.
-->
<svg width="24px" height="24px" viewBox="0 0 24 24" version="1.1" xmlns="http://www.w3.org/2000/svg" xmlns:xlink="http://www.w3.org/1999/xlink">
    <title>ic-smm</title>
    <desc>Created with Sketch.</desc>
    <g id="Symbols" stroke="none" stroke-width="1" fill="none" fill-rule="evenodd">
        <g id="icon/service/cloudera/smm">
            <g id="Group" transform="translate(3.000000, 2.000000)">
                <path d="M2.41992087,7.3044804 L2.41992087,6.28008114 L0.273014135,5.04951795 C0.244283365,5.10088059 0.217707404,5.15366996 0.192567981,5.20788608 C0.0726170192,5.46969286 0.00150836538,5.74576703 0.00150836538,5.99972674 L0.00150836538,6.95992271 L0.00150836538,8.0028696 L1.71673529,8.0028696 C2.1038824,8.0028696 2.41992087,7.68898681 2.41992087,7.3044804" id="Fill-1" fill="#7EC7EE"></path>
                <path d="M6.00990231,15.2135418 L4.51231096,12.6375629 L3.92835808,11.6324246 L3.92835808,14.0864173 C3.92835808,14.4709237 3.61088308,14.7848065 3.22445423,14.7848065 L3.12389654,14.7848065 C2.73674942,14.7848065 2.41999269,14.4709237 2.41999269,14.0864173 L2.41999269,11.068149 L2.41999269,9.26760321 C2.41999269,8.88309679 2.10395423,8.56921401 1.71608885,8.56921401 L0.00158019231,8.56921401 L0.00158019231,13.9665712 C0.00158019231,14.0500354 0.00948115385,14.1356398 0.0238465385,14.2219576 C0.0576051923,14.4259814 0.130150385,14.6364255 0.229989808,14.8361691 C0.263030192,14.9017992 0.299661923,14.9674292 0.338448462,15.0309191 C0.377235,15.0936957 0.418176346,15.1550455 0.461990769,15.2135418 C0.625756154,15.4325464 0.821125385,15.618736 1.03157827,15.7392955 L7.97867827,19.7227534 C8.19990519,19.8497332 8.47715712,19.9260638 8.76518308,19.9545986 L6.00990231,15.2135418 Z" id="Fill-3" fill="#3FAE2A"></path>
                <path d="M9.00925096,8.33900952 C9.04157308,8.33401593 9.07389519,8.33116245 9.10765385,8.33116245 L9.20749327,8.33116245 C9.59464038,8.33116245 9.91139712,8.64575861 9.91139712,9.03026502 L9.91139712,9.45757363 C9.91139712,9.84208004 10.2281538,10.1573896 10.615301,10.1573896 L10.6921558,10.1573896 C11.0793029,10.1573896 11.3953413,9.84208004 11.3953413,9.45757363 L11.3953413,7.66558828 C11.3953413,7.28108187 11.7128163,6.98217985 12.0992452,6.98217985 L12.1998029,6.98217985 C12.5862317,6.98217985 12.8943692,7.27038132 12.8943692,7.62849304 C12.8943692,7.98660476 13.211126,8.27979982 13.5982731,8.27979982 L13.6959577,8.27979982 C13.7871779,8.27979982 13.8740885,8.26196557 13.9545346,8.23057729 L13.5113625,7.47725861 L12.0087433,4.8934326 L9.16727019,0.00470824176 C9.11411827,0.0018547619 9.06168462,0.000428021978 9.00925096,0.000428021978 L9.00925096,4.8934326 L9.00925096,8.33900952 Z" id="Fill-5" fill="#418FB2"></path>
                <path d="M10.6919403,10.7556929 L10.6158038,10.7556929 C10.5138095,10.7556929 10.4175614,10.7778074 10.3306509,10.8163294 L11.3944076,11.4262607 C11.3786057,11.0553083 11.0690316,10.7556929 10.6919403,10.7556929" id="Fill-7" fill="#3B8640"></path>
                <path d="M2.41992087,6.15709615 C2.41992087,5.77258974 2.7366776,5.45799359 3.12382471,5.45799359 L3.2243824,5.45799359 C3.61081125,5.45799359 3.92828625,5.77258974 3.92828625,6.15709615 L3.92828625,7.14511355 L4.50721125,7.47754396 L5.41223048,7.99616392 L5.41223048,7.66516026 C5.41223048,7.28065385 5.72826894,6.96677106 6.11613433,6.96677106 L6.21597375,6.96677106 C6.60312087,6.96677106 6.9198776,7.28065385 6.9198776,7.66516026 L6.9198776,8.86076832 L8.40382183,9.71110531 L8.40382183,9.029837 C8.40382183,8.67885897 8.6681449,8.38709066 9.00932279,8.33929487 L9.00932279,4.89371795 L9.00932279,1.687539e-13 C8.95688913,1.687539e-13 8.90373721,0.00214010989 8.85130356,0.00499358974 C8.53239202,0.0249679487 8.22209971,0.104152015 7.97860644,0.243972527 L1.03150644,4.2274304 C0.777957404,4.37295788 0.545238173,4.61407692 0.364952596,4.89371795 C0.331912212,4.94436722 0.301744904,4.99644322 0.273014135,5.0492326 L2.41992087,6.28050916 L2.41992087,6.15709615 Z" id="Fill-9" fill="#3DB5E6"></path>
                <path d="M7.61193,11.6083841 L7.68806654,11.6083841 C8.07593192,11.6083841 8.40418096,11.282374 8.40418096,10.8978676 L8.40418096,9.71153333 L6.91951846,8.86048297 L6.90874442,10.9099949 C6.90874442,11.2945013 7.22478288,11.6083841 7.61193,11.6083841" id="Fill-11" fill="#7EC7EE"></path>
                <path d="M4.50742673,7.47725861 L3.92778346,7.14482821 L3.92778346,8.47454982 L3.92778346,9.35199487 C3.92778346,9.73650128 4.24454019,10.0503841 4.63168731,10.0503841 L4.70782385,10.0503841 C5.09497096,10.0503841 5.41244596,9.70439963 5.41244596,9.32060659 L5.41244596,7.99659194 L4.50742673,7.47725861 Z" id="Fill-13" fill="#7EC7EE"></path>
                <path d="M8.40389365,16.9593722 L8.40389365,12.8953035 C8.40389365,12.5107971 8.08713692,12.1954875 7.70070808,12.1954875 L7.623135,12.1954875 C7.23670615,12.1954875 6.91994942,12.5107971 6.91994942,12.8953035 L6.91994942,12.9723474 C6.91994942,13.3568538 6.60319269,13.67145 6.21604558,13.67145 L6.11548788,13.67145 C5.72834077,13.67145 5.41230231,13.3568538 5.41230231,12.9723474 L5.41230231,11.3173291 C5.41230231,10.9328227 5.09554558,10.6182266 4.70768019,10.6182266 L4.63154365,10.6182266 C4.24439654,10.6182266 3.92835808,10.9328227 3.92835808,11.3173291 L3.92835808,11.6326386 L4.51231096,12.6370636 L6.00990231,15.2137559 L8.76518308,19.9540993 C8.84562923,19.9619463 8.92751192,19.9669399 9.00939462,19.9669399 L9.00939462,17.6506277 C8.66821673,17.6028319 8.40389365,17.3103502 8.40389365,16.9593722" id="Fill-15" fill="#8CCE7F"></path>
                <path d="M12.9035631,12.2917925 L12.9035631,13.2477082 C12.9035631,13.6322147 12.5868063,13.9460974 12.2003775,13.9460974 L12.0991015,13.9460974 C11.7126727,13.9460974 11.3951977,13.6322147 11.3951977,13.2477082 L11.3951977,11.4550095 C11.3951977,11.4450223 11.3944794,11.4357485 11.3937612,11.4264747 L10.3307227,10.8165434 C10.0843563,10.925689 9.91125346,11.1710883 9.91125346,11.4550095 L9.91125346,16.9593722 C9.91125346,17.3438786 9.595215,17.6584747 9.20734962,17.6584747 L9.10751019,17.6584747 C9.07375154,17.6584747 9.04142942,17.6556212 9.00910731,17.6506277 L9.00910731,19.9669399 C9.09027173,19.9669399 9.17287269,19.9619463 9.25331885,19.9540993 C9.54134481,19.9262778 9.81787846,19.8499473 10.0398237,19.7229674 L16.9869237,15.7395095 C17.1973765,15.61895 17.3927458,15.4327604 17.5572294,15.2137559 C17.6003256,15.1552595 17.6412669,15.0939097 17.6793352,15.0304198 L13.506191,12.6370636 L12.9035631,12.2917925 Z" id="Fill-18" fill="#3D9A35"></path>
                <path d="M17.8255748,5.20760073 C17.8011537,5.15409799 17.7745777,5.10130861 17.7458469,5.0492326 C17.7171162,4.99644322 17.6862306,4.94436722 17.6539085,4.89371795 C17.4736229,4.61407692 17.2409037,4.37295788 16.9866363,4.2274304 L10.3167883,0.403054029 L10.0395363,0.243972527 C9.79604308,0.104152015 9.48646904,0.0249679487 9.16683923,0.00499358974 L12.0083123,4.89371795 L13.5109315,7.47754396 L13.9533854,8.23086264 C14.2141171,8.12813736 14.3987123,7.8756044 14.3987123,7.58169597 L14.3879383,6.15709615 C14.3879383,5.77258974 14.7039767,5.45799359 15.0911238,5.45799359 L15.1916815,5.45799359 C15.5788287,5.45799359 15.8948671,5.77258974 15.8948671,6.15709615 L15.8948671,7.27138004 C15.8948671,7.53675366 16.0464219,7.78714652 16.2676488,7.90556593 C16.36677,7.95764194 16.4795383,7.98831685 16.598771,7.98831685 L18.0173527,7.98831685 L18.0173527,6.95107692 L18.0173527,5.99944139 C18.0173527,5.74619505 17.9455258,5.46940751 17.8255748,5.20760073" id="Fill-21" fill="#427C97"></path>
                <path d="M16.598771,8.56892866 C16.2116238,8.56892866 15.8955854,8.88281145 15.8955854,9.26731786 L15.8955854,10.1069543 C15.8955854,10.4914607 15.5788287,10.8067702 15.1916815,10.8067702 L15.0911238,10.8067702 C14.9280767,10.8067702 14.7779585,10.750414 14.6580075,10.6562492 C14.4935238,10.5278426 14.3879383,10.3302391 14.3879383,10.1069543 L14.3879383,9.56693324 C14.3879383,9.18242683 14.0704633,8.86854405 13.6833162,8.86854405 L13.6071796,8.86854405 C13.2200325,8.86854405 12.9032758,9.18242683 12.9032758,9.56693324 L12.9032758,12.2920065 L13.5059037,12.6372776 L17.6797662,15.0306338 C17.719271,14.9678572 17.7551844,14.9029406 17.7882248,14.8365972 C17.9311604,14.5519625 18.0173527,14.2459268 18.0173527,13.9662858 L18.0173527,8.56892866 L16.598771,8.56892866 Z" id="Fill-24" fill="#3B8640"></path>
                <path d="M-1.77635684e-15,8.57449295 L1.71522692,8.57449295 C2.10237404,8.57449295 2.4184125,8.8890891 2.4184125,9.27359551 L2.4184125,11.0741413 L2.4184125,14.0924096 C2.4184125,14.4762027 2.7358875,14.7915122 3.12231635,14.7915122 L3.22287404,14.7915122 C3.60930288,14.7915122 3.92677788,14.4762027 3.92677788,14.0924096 L3.92677788,11.6384169 L3.92677788,11.3238208 C3.92677788,10.938601 4.24281635,10.6247182 4.62996346,10.6247182 L4.70681827,10.6247182 C5.09396538,10.6247182 5.41072212,10.938601 5.41072212,11.3238208 L5.41072212,12.9788391 C5.41072212,13.3626321 5.72747885,13.6772283 6.11462596,13.6772283 L6.21446538,13.6772283 C6.6016125,13.6772283 6.91836923,13.3626321 6.91836923,12.9788391 L6.91836923,12.9003684 C6.91836923,12.5165754 7.23440769,12.2019792 7.62155481,12.2019792 L7.69912788,12.2019792 C8.08555673,12.2019792 8.40231346,12.5165754 8.40231346,12.9003684 L8.40231346,16.9658638 C8.40231346,17.3168418 8.66663654,17.6086102 9.00781442,17.656406 C9.04013654,17.6613995 9.07245865,17.664253 9.10621731,17.664253 L9.20605673,17.664253 C9.59320385,17.664253 9.90996058,17.3503702 9.90996058,16.9658638 L9.90996058,11.4607878 C9.90996058,11.1768666 10.0830635,10.9321807 10.3294298,10.8223217 C10.4163404,10.7845131 10.5125885,10.7616853 10.6131462,10.7616853 L10.6907192,10.7616853 C11.0678106,10.7616853 11.3773846,11.0613006 11.3924683,11.432253 C11.3931865,11.4422402 11.3939048,11.4508006 11.3939048,11.4607878 L11.3939048,13.2541999 C11.3939048,13.6387063 11.7113798,13.9525891 12.0978087,13.9525891 L12.1983663,13.9525891 C12.5847952,13.9525891 12.9022702,13.6387063 12.9022702,13.2541999 L12.9022702,12.2982842 L12.9022702,9.5732109 C12.9022702,9.18870449 13.2183087,8.87410833 13.6054558,8.87410833 L13.6823106,8.87410833 C14.0694577,8.87410833 14.3854962,9.18870449 14.3854962,9.5732109 L14.3854962,10.113232 C14.3854962,10.3358034 14.4925183,10.5341202 14.6562837,10.6625268 C14.7762346,10.7559783 14.9263529,10.8123345 15.0901183,10.8123345 L15.1899577,10.8123345 C15.5771048,10.8123345 15.8938615,10.4977384 15.8938615,10.113232 L15.8938615,9.27359551 C15.8938615,8.8890891 16.2099,8.57449295 16.5970471,8.57449295 L18.0170654,8.57449295 L18.0170654,7.97526218 L16.5970471,7.97597555 C16.4778144,7.97597555 16.3650462,7.94530064 16.265925,7.89322463 C16.0454163,7.77480522 15.8938615,7.54295998 15.8938615,7.27758636 L15.8938615,6.1625891 C15.8938615,5.77808269 15.5771048,5.46419991 15.1899577,5.46419991 L15.0901183,5.46419991 C14.7029712,5.46419991 14.3854962,5.77808269 14.3854962,6.1625891 L14.3854962,7.57648837 C14.3854962,7.87039679 14.200901,8.12221639 13.9408875,8.22565504 C13.8604413,8.25775668 13.7735308,8.27559093 13.6823106,8.27559093 L13.6054558,8.27559093 C13.2183087,8.27559093 12.9022702,7.98239588 12.9022702,7.62428416 C12.9022702,7.26545907 12.5847952,6.97226401 12.1983663,6.97226401 L12.0978087,6.97226401 C11.7113798,6.97226401 11.3939048,7.28686016 11.3939048,7.67136658 L11.3939048,9.46406529 C11.3939048,9.8485717 11.0778663,10.1631679 10.6907192,10.1631679 L10.6131462,10.1631679 C10.2267173,10.1631679 9.90996058,9.8485717 9.90996058,9.46406529 L9.90996058,9.03604332 C9.90996058,8.6515369 9.59320385,8.33765412 9.20605673,8.33765412 L9.10621731,8.33765412 C9.07245865,8.33765412 9.04013654,8.3405076 9.00781442,8.34550119 C8.66663654,8.39258361 8.40231346,8.68506529 8.40231346,9.03604332 L8.40231346,9.718025 L8.40231346,10.9043592 C8.40231346,11.2888657 8.08555673,11.6027484 7.69912788,11.6027484 L7.62155481,11.6027484 C7.23440769,11.6027484 6.91836923,11.2888657 6.91836923,10.9043592 L6.91836923,8.86697463 L6.91836923,7.67136658 C6.91836923,7.28686016 6.6016125,6.97226401 6.21446538,6.97226401 L6.11462596,6.97226401 C5.72747885,6.97226401 5.41072212,7.28686016 5.41072212,7.67136658 L5.41072212,8.00237024 L5.41072212,9.32709826 C5.41072212,9.7108913 5.09396538,10.0254875 4.70681827,10.0254875 L4.62996346,10.0254875 C4.24281635,10.0254875 3.92677788,9.7108913 3.92677788,9.32709826 L3.92677788,8.48032811 L3.92677788,7.15131987 L3.92677788,6.1625891 C3.92677788,5.77808269 3.60930288,5.46419991 3.22287404,5.46419991 L3.12231635,5.46419991 C2.7358875,5.46419991 2.4184125,5.77808269 2.4184125,6.1625891 L2.4184125,6.28671548 L2.4184125,7.27758636 C2.4184125,7.6613794 2.10237404,7.97597555 1.71522692,7.97597555 L-1.77635684e-15,7.97597555 L-1.77635684e-15,8.57449295 Z" id="Fill-27" fill="#FFFFFF"></path>
            </g>
        </g>
    </g>
</svg>
