<!--
  (c) 2018-2020 Cloudera, Inc. All rights reserved.

  This code is provided to you pursuant to your written agreement with Cloudera, which may be the terms of the
  Affero General Public License version 3 (AGPLv3), or pursuant to a written agreement with a third party authorized
  to distribute this code.  If you do not have a written agreement with Cloudera or with an authorized and
  properly licensed third party, you do not have any rights to this code.

  If this code is provided to you under the terms of the AGPLv3:
   (A) CLOUDERA PROVIDES THIS CODE TO YOU WITHOUT WARRANTIES OF ANY KIND;
   (B) CLOUDERA DISCLAIMS ANY AND ALL EXPRESS AND IMPLIED WARRANTIES WITH RESPECT TO THIS CODE, INCLUDING BUT NOT
       LIMITED TO IMPLIED WARRANTIES OF TITLE, NON-INFRINGEMENT, MERCHANTABILITY AND FITNESS FOR A PARTICULAR PURPOSE;
   (C) CLOUDERA IS NOT LIABLE TO YOU, AND WILL NOT DEFEND, INDEMNIFY, OR HOLD YOU HARMLESS FOR ANY CLAIMS ARISING
       FROM OR RELATED TO THE CODE; AND
   (D) WITH RESPECT TO YOUR EXERCISE OF ANY RIGHTS GRANTED TO YOU FOR THE CODE, CLOUDERA IS NOT LIABLE FOR ANY
       DIRECT, INDIRECT, INCIDENTAL, SPECIAL, EXEMPLARY, PUNITIVE OR CONSEQUENTIAL DAMAGES INCLUDING, BUT NOT LIMITED
       TO, DAMAGES RELATED TO LOST REVENUE, LOST PROFITS, LOSS OF INCOME, LOSS OF BUSINESS ADVANTAGE OR
       UNAVAILABILITY, OR LOSS OR CORRUPTION OF DATA.
-->
<svg xmlns="http://www.w3.org/2000/svg" width="24" height="24" viewBox="0 0 24 24">
    <g fill="none" fill-rule="evenodd" transform="translate(2 2)">
        <circle cx="10" cy="10" r="10" fill="#CBF1B5"/>
        <path fill="#3A870E" d="M9.522 6.54l.84.853-4.333 4.4h2.455V13H4V8.447h1.189v2.493l4.333-4.4zM16 5v4.554h-1.188V7.06l-4.333 4.4-.84-.853 4.332-4.401h-2.455V5H16z"/>
        <g transform="translate(11 10)">
            <circle cx="4.667" cy="4.667" r="4.667" fill="#3A870E"/>
            <path fill="#FFF" fill-rule="nonzero" d="M2.32 3.176h.588v1.148h1.068V3.176h.588V6h-.588V4.816H2.908V6H2.32V3.176zm4.533 2.232h-1.1L5.573 6h-.608l.896-2.824h.88L7.637 6h-.604l-.18-.592zm-.136-.452l-.412-1.348h-.008L5.89 4.956h.828z"/>
        </g>
    </g>
</svg>
