<!--
  ~  (c) 2018-2020 Cloudera, Inc. All rights reserved.
  ~
  ~    This code is provided to you pursuant to your written agreement with Cloudera, which may be the terms of the
  ~   Affero General Public License version 3 (AGPLv3), or pursuant to a written agreement with a third party authorized
  ~   to distribute this code.  If you do not have a written agreement with Cloudera or with an authorized and
  ~   properly licensed third party, you do not have any rights to this code.
  ~
  ~    If this code is provided to you under the terms of the AGPLv3:
  ~    (A) CLOUDERA PROVIDES THIS CODE TO YOU WITHOUT WARRANTIES OF ANY KIND;
  ~    (B) CLOUDERA DISCLAIMS ANY AND ALL EXPRESS AND IMPLIED WARRANTIES WITH RESPECT TO THIS CODE, INCLUDING BUT NOT
  ~        LIMITED TO IMPLIED WARRANTIES OF TITLE, NON-INFRINGEMENT, MERCHANTABILITY AND FITNESS FOR A PARTICULAR PURPOSE;
  ~    (C) CLOUDERA IS NOT LIABLE TO YOU, AND WILL NOT DEFEND, INDEMNIFY, OR HOLD YOU HARMLESS FOR ANY CLAIMS ARISING
  ~        FROM OR RELATED TO THE CODE; AND
  ~    (D) WITH RESPECT TO YOUR EXERCISE OF ANY RIGHTS GRANTED TO YOU FOR THE CODE, CLOUDERA IS NOT LIABLE FOR ANY
  ~        DIRECT, INDIRECT, INCIDENTAL, SPECIAL, EXEMPLARY, PUNITIVE OR CONSEQUENTIAL DAMAGES INCLUDING, BUT NOT LIMITED
  ~        TO, DAMAGES RELATED TO LOST REVENUE, LOST PROFITS, LOSS OF INCOME, LOSS OF BUSINESS ADVANTAGE OR
  ~        UNAVAILABILITY, OR LOSS OR CORRUPTION OF DATA.
  ~
  -->
<svg viewBox="0 0 24 24" xmlns="http://www.w3.org/2000/svg" width="1em" height="1em">
  <g fill="none" fill-rule="evenodd">
    <path d="M7.103 16.235c.365 0 .662.297.662.662v3.97a.132.132 0 11-.265 0v-3.97a.398.398 0 00-.397-.397h-3.97a.132.132 0 110-.265h3.97zm6.618 0c.364 0 .661.297.661.662v3.97a.132.132 0 11-.264 0v-3.97a.398.398 0 00-.397-.397h-3.442a.398.398 0 00-.397.397v3.97a.132.132 0 11-.264 0v-3.97c0-.365.297-.662.661-.662h3.442zm6.617 0c.365 0 .662.297.662.662v3.97a.132.132 0 11-.265 0v-3.97a.398.398 0 00-.397-.397h-3.44a.398.398 0 00-.398.397v3.97a.132.132 0 11-.265 0v-3.97c0-.365.297-.662.662-.662h3.441zM7.103 9.618c.365 0 .662.297.662.661v3.442a.663.663 0 01-.662.661h-3.97a.132.132 0 110-.264h3.97a.398.398 0 00.397-.397v-3.442a.398.398 0 00-.397-.397h-3.97a.132.132 0 010-.264h3.97zm13.765 0a.132.132 0 010 .264h-3.97a.398.398 0 00-.398.397v3.442c0 .219.178.397.397.397h3.97a.132.132 0 110 .264h-3.97a.663.663 0 01-.662-.661v-3.442c0-.364.297-.661.662-.661h3.97zM7.632 3c.073 0 .133.06.133.132v3.97a.663.663 0 01-.662.663h-3.97a.132.132 0 010-.265h3.97a.398.398 0 00.397-.397v-3.97c0-.074.06-.133.132-.133zm6.618 0c.073 0 .132.06.132.132v3.97a.663.663 0 01-.661.663h-3.442a.663.663 0 01-.661-.662v-3.97a.132.132 0 01.264 0v3.97c0 .219.179.397.397.397h3.442a.398.398 0 00.397-.397v-3.97c0-.074.059-.133.132-.133zm6.618 0c.073 0 .132.06.132.132v3.97a.663.663 0 01-.662.663h-3.44a.663.663 0 01-.663-.662v-3.97a.132.132 0 01.265 0v3.97c0 .219.178.397.397.397h3.441a.398.398 0 00.397-.397v-3.97c0-.074.06-.133.133-.133z" fill="silver"/>
    <path d="M10.809 12.397a.663.663 0 00-.662.662v.132c0 .365.297.662.662.662h2.382a.663.663 0 00.662-.662v-.794h-3.044zm2.382 2.25H10.81a1.458 1.458 0 01-1.456-1.456v-.132c0-.803.653-1.456 1.456-1.456h3.044v-.794a.663.663 0 00-.662-.662H10.81a.663.663 0 00-.662.662.397.397 0 11-.794 0c0-.803.653-1.456 1.456-1.456h2.382c.803 0 1.456.653 1.456 1.456v2.382c0 .803-.653 1.456-1.456 1.456z" fill="#000"/>
  </g>
</svg>
