<!--
  ~  (c) 2018-2020 Cloudera, Inc. All rights reserved.
  ~
  ~    This code is provided to you pursuant to your written agreement with Cloudera, which may be the terms of the
  ~   Affero General Public License version 3 (AGPLv3), or pursuant to a written agreement with a third party authorized
  ~   to distribute this code.  If you do not have a written agreement with Cloudera or with an authorized and
  ~   properly licensed third party, you do not have any rights to this code.
  ~
  ~    If this code is provided to you under the terms of the AGPLv3:
  ~    (A) CLOUDERA PROVIDES THIS CODE TO YOU WITHOUT WARRANTIES OF ANY KIND;
  ~    (B) CLOUDERA DISCLAIMS ANY AND ALL EXPRESS AND IMPLIED WARRANTIES WITH RESPECT TO THIS CODE, INCLUDING BUT NOT
  ~        LIMITED TO IMPLIED WARRANTIES OF TITLE, NON-INFRINGEMENT, MERCHANTABILITY AND FITNESS FOR A PARTICULAR PURPOSE;
  ~    (C) CLOUDERA IS NOT LIABLE TO YOU, AND WILL NOT DEFEND, INDEMNIFY, OR HOLD YOU HARMLESS FOR ANY CLAIMS ARISING
  ~        FROM OR RELATED TO THE CODE; AND
  ~    (D) WITH RESPECT TO YOUR EXERCISE OF ANY RIGHTS GRANTED TO YOU FOR THE CODE, CLOUDERA IS NOT LIABLE FOR ANY
  ~        DIRECT, INDIRECT, INCIDENTAL, SPECIAL, EXEMPLARY, PUNITIVE OR CONSEQUENTIAL DAMAGES INCLUDING, BUT NOT LIMITED
  ~        TO, DAMAGES RELATED TO LOST REVENUE, LOST PROFITS, LOSS OF INCOME, LOSS OF BUSINESS ADVANTAGE OR
  ~        UNAVAILABILITY, OR LOSS OR CORRUPTION OF DATA.
  ~
  -->
<svg viewBox="0 0 24 24" xmlns="http://www.w3.org/2000/svg" width="1em" height="1em">
  <g fill="none" fill-rule="evenodd">
    <path d="M7.369 10.707a1.82 1.82 0 00.084.618c.061.172.139.339.232.498a.3.3 0 01.05.157.265.265 0 01-.14.206l-.452.287a.353.353 0 01-.192.065.31.31 0 01-.214-.098 1.6 1.6 0 01-.254-.325 5.139 5.139 0 01-.226-.4 2.719 2.719 0 01-2.115.953 2.013 2.013 0 01-1.45-.493 1.748 1.748 0 01-.53-1.338 1.736 1.736 0 01.654-1.42 2.685 2.685 0 011.766-.54c.255.002.51.02.762.053.265.038.564.087.829.152v-.51a1.47 1.47 0 00-.339-1.082 1.696 1.696 0 00-1.173-.325 3.553 3.553 0 00-.778.092 5.59 5.59 0 00-.779.238c-.08.036-.163.065-.248.087a.4.4 0 01-.113 0c-.101 0-.152-.076-.152-.217v-.341a.44.44 0 01.05-.244.562.562 0 01.198-.146c.294-.132.6-.238.914-.314a4.69 4.69 0 011.128-.13 2.67 2.67 0 011.884.541c.434.465.65 1.08.598 1.701l.006 2.275zm-2.928 1.05a2.34 2.34 0 00.745-.124c.264-.087.5-.24.682-.444.116-.126.201-.276.248-.439a2.34 2.34 0 00.068-.6v-.293a5.941 5.941 0 00-.671-.114 5.836 5.836 0 00-.677-.043c-.38-.029-.76.07-1.072.281a.947.947 0 00-.355.796c-.02.27.076.536.265.737.211.177.488.264.767.244zm5.793.743a.466.466 0 01-.276-.065.493.493 0 01-.152-.27L8.113 6.806a1.314 1.314 0 01-.062-.265.148.148 0 01.046-.125.162.162 0 01.13-.043h.71a.478.478 0 01.282.065.604.604 0 01.147.276l1.224 4.572 1.128-4.577a.533.533 0 01.141-.277.495.495 0 01.288-.065h.564a.519.519 0 01.293.065.533.533 0 01.135.277l1.129 4.636 1.246-4.636a.605.605 0 01.153-.277.466.466 0 01.282-.065h.671a.162.162 0 01.132.045c.034.034.05.082.043.129a.952.952 0 010 .113l-.05.168-1.755 5.352a.493.493 0 01-.153.27.455.455 0 01-.299.055h-.564a.472.472 0 01-.293-.07.495.495 0 01-.135-.282L12.417 7.69l-1.128 4.458a.533.533 0 01-.14.282.454.454 0 01-.288.07h-.627zm9.263.184c-.38.001-.759-.04-1.128-.124-.29-.058-.57-.15-.835-.277a.478.478 0 01-.22-.195.492.492 0 01-.045-.195v-.352c0-.14.056-.216.163-.216a.405.405 0 01.136 0l.18.07c.256.106.523.188.796.244.282.053.57.08.857.081a2.03 2.03 0 001.055-.228.733.733 0 00.39-.617.652.652 0 00-.198-.482 1.889 1.889 0 00-.722-.363l-1.05-.32a2.268 2.268 0 01-1.128-.698 1.624 1.624 0 01-.389-1.008 1.49 1.49 0 01.192-.769 1.96 1.96 0 01.519-.542c.224-.163.479-.284.75-.357.295-.081.601-.122.908-.12a3.64 3.64 0 01.485.028c.164 0 .322.049.469.081.139.029.276.065.411.108.104.031.204.071.3.12a.745.745 0 01.22.173.378.378 0 01.061.227v.325c0 .147-.056.222-.163.222a.877.877 0 01-.282-.086 3.454 3.454 0 00-1.388-.266 1.962 1.962 0 00-.959.195.703.703 0 00-.124 1.083c.234.181.505.312.795.385l1.021.314c.44.105.833.338 1.129.667.222.277.34.62.332.97.011.275-.045.55-.163.8-.141.24-.333.45-.564.613-.24.176-.511.306-.801.385a3.598 3.598 0 01-1.01.135v-.01z" fill="#1F2838" fill-rule="nonzero"/>
    <path d="M1.604 14.401a22.295 22.295 0 0010.718 2.736 22.096 22.096 0 008.185-1.625c.406-.147.744.27.35.547-2.37 1.684-5.81 2.578-8.778 2.578-3.957.018-7.78-1.382-10.718-3.927-.22-.195 0-.455.243-.309zm21.278-.168c.259.304-.068 2.454-1.343 3.478-.192.157-.378.076-.293-.136.265-.688.902-2.226.626-2.6-.305-.373-2.008-.173-2.776-.086-.23.027-.265-.168-.056-.309 1.36-.915 3.582-.65 3.842-.347z" fill="#F90"/>
  </g>
</svg>
