<!--
  ~  (c) 2018-2020 Cloudera, Inc. All rights reserved.
  ~
  ~    This code is provided to you pursuant to your written agreement with Cloudera, which may be the terms of the
  ~   Affero General Public License version 3 (AGPLv3), or pursuant to a written agreement with a third party authorized
  ~   to distribute this code.  If you do not have a written agreement with Cloudera or with an authorized and
  ~   properly licensed third party, you do not have any rights to this code.
  ~
  ~    If this code is provided to you under the terms of the AGPLv3:
  ~    (A) CLOUDERA PROVIDES THIS CODE TO YOU WITHOUT WARRANTIES OF ANY KIND;
  ~    (B) CLOUDERA DISCLAIMS ANY AND ALL EXPRESS AND IMPLIED WARRANTIES WITH RESPECT TO THIS CODE, INCLUDING BUT NOT
  ~        LIMITED TO IMPLIED WARRANTIES OF TITLE, NON-INFRINGEMENT, MERCHANTABILITY AND FITNESS FOR A PARTICULAR PURPOSE;
  ~    (C) CLOUDERA IS NOT LIABLE TO YOU, AND WILL NOT DEFEND, INDEMNIFY, OR HOLD YOU HARMLESS FOR ANY CLAIMS ARISING
  ~        FROM OR RELATED TO THE CODE; AND
  ~    (D) WITH RESPECT TO YOUR EXERCISE OF ANY RIGHTS GRANTED TO YOU FOR THE CODE, CLOUDERA IS NOT LIABLE FOR ANY
  ~        DIRECT, INDIRECT, INCIDENTAL, SPECIAL, EXEMPLARY, PUNITIVE OR CONSEQUENTIAL DAMAGES INCLUDING, BUT NOT LIMITED
  ~        TO, DAMAGES RELATED TO LOST REVENUE, LOST PROFITS, LOSS OF INCOME, LOSS OF BUSINESS ADVANTAGE OR
  ~        UNAVAILABILITY, OR LOSS OR CORRUPTION OF DATA.
  ~
  -->
<svg viewBox="0 0 24 24" xmlns="http://www.w3.org/2000/svg" width="1em" height="1em">
  <path d="M12 19.75v-3.5a.25.25 0 00-.25-.25h-4.5a.25.25 0 00-.25.25v3.5c0 .138.112.25.25.25h4.5a.25.25 0 00.25-.25zm6.5-6v-3.5a.25.25 0 00-.25-.25h-4.5a.25.25 0 00-.25.25v3.5c0 .138.112.25.25.25h4.5a.25.25 0 00.25-.25zm-9.5-6v-3.5A.25.25 0 008.75 4h-4.5a.25.25 0 00-.25.25v3.5c0 .138.112.25.25.25h4.5A.25.25 0 009 7.75zm10 5h3v-1.5h-3v1.5zm-17 0h11v-1.5H2v1.5zm10.5 6H22v-1.5h-9.5v1.5zm-10.5 0h4.5v-1.5H2v1.5zm7.5-12H22v-1.5H9.5v1.5zm-7.5 0h1.5v-1.5H2v1.5z" fill="currentColor" fill-rule="evenodd"/>
</svg>
