<!--
  ~  (c) 2018-2020 Cloudera, Inc. All rights reserved.
  ~
  ~    This code is provided to you pursuant to your written agreement with Cloudera, which may be the terms of the
  ~   Affero General Public License version 3 (AGPLv3), or pursuant to a written agreement with a third party authorized
  ~   to distribute this code.  If you do not have a written agreement with Cloudera or with an authorized and
  ~   properly licensed third party, you do not have any rights to this code.
  ~
  ~    If this code is provided to you under the terms of the AGPLv3:
  ~    (A) CLOUDERA PROVIDES THIS CODE TO YOU WITHOUT WARRANTIES OF ANY KIND;
  ~    (B) CLOUDERA DISCLAIMS ANY AND ALL EXPRESS AND IMPLIED WARRANTIES WITH RESPECT TO THIS CODE, INCLUDING BUT NOT
  ~        LIMITED TO IMPLIED WARRANTIES OF TITLE, NON-INFRINGEMENT, MERCHANTABILITY AND FITNESS FOR A PARTICULAR PURPOSE;
  ~    (C) CLOUDERA IS NOT LIABLE TO YOU, AND WILL NOT DEFEND, INDEMNIFY, OR HOLD YOU HARMLESS FOR ANY CLAIMS ARISING
  ~        FROM OR RELATED TO THE CODE; AND
  ~    (D) WITH RESPECT TO YOUR EXERCISE OF ANY RIGHTS GRANTED TO YOU FOR THE CODE, CLOUDERA IS NOT LIABLE FOR ANY
  ~        DIRECT, INDIRECT, INCIDENTAL, SPECIAL, EXEMPLARY, PUNITIVE OR CONSEQUENTIAL DAMAGES INCLUDING, BUT NOT LIMITED
  ~        TO, DAMAGES RELATED TO LOST REVENUE, LOST PROFITS, LOSS OF INCOME, LOSS OF BUSINESS ADVANTAGE OR
  ~        UNAVAILABILITY, OR LOSS OR CORRUPTION OF DATA.
  ~
  -->
<svg viewBox="0 0 192 192" xmlns="http://www.w3.org/2000/svg" width="1em" height="1em">
  <path d="M154.616 141.543l2.968 2.953-39.324 39.16c-2.065.214-4.176.27-6.283.344l42.639-42.457zm-6.968-6.939l2.97 2.956-46.544 46.345c-1.852-.1-3.7-.202-5.522-.416l49.096-48.885zm-6.968-6.938l2.97 2.955-52.036 51.814c-1.615-.32-3.182-.763-4.764-1.168l53.83-53.601zm20.905 20.815l2.968 2.956-28.635 28.513a87.701 87.701 0 01-8.09 2.142l33.757-33.61zm-38.848-10.916l-42.077 41.9a88.178 88.178 0 01-4.348-1.585l38.708-38.542a43.794 43.794 0 007.717-1.773zm-21.415 1.534c1.75.306 3.533.496 5.346.59l-35.894 35.74c-1.338-.639-2.708-1.22-4.008-1.922zm67.231 16.32l2.947 2.934c-6.373 6.347-13.747 11.675-21.817 15.856l18.87-18.79zM90.701 135.8a43.906 43.906 0 004.245 1.684l-33.155 33.011c-1.21-.763-2.411-1.528-3.581-2.345zm-8.666-5.249c1.12.87 2.281 1.685 3.485 2.444l-31.885 31.746c-1.096-.874-2.14-1.808-3.193-2.734zm-12.024-14.336c2.084 3.975 4.739 7.615 7.895 10.759L46.4 158.347c-3.128-3.117-5.946-6.526-8.58-10.08zm-4.897-21.677c-.02.514-.078 1.018-.078 1.537 0 5.125.937 10.027 2.57 14.6L34.55 143.59A87.35 87.35 0 0128 131.493zM108.954 8c24.425 0 46.539 9.86 62.546 25.797L139.994 65.17c-7.953-7.918-18.934-12.824-31.04-12.824-12.11 0-23.089 4.906-31.04 12.824a43.662 43.662 0 00-11.47 20.114l-40.676 40.5a86.977 86.977 0 01-3.899-14.74l51.058-50.838-3.983-3.964-48.04 47.832c-.238-2.636-.404-5.297-.404-7.998 0-3.725.307-7.37.756-10.974l38.337-38.174-3.982-3.966-32.553 32.415c3.876-15.995 12.042-30.32 23.349-41.579C62.414 17.86 84.527 8 108.953 8z" fill="#FFF" fill-rule="evenodd"/>
</svg>
