<!--
  ~  (c) 2018-2020 Cloudera, Inc. All rights reserved.
  ~
  ~    This code is provided to you pursuant to your written agreement with Cloudera, which may be the terms of the
  ~   Affero General Public License version 3 (AGPLv3), or pursuant to a written agreement with a third party authorized
  ~   to distribute this code.  If you do not have a written agreement with Cloudera or with an authorized and
  ~   properly licensed third party, you do not have any rights to this code.
  ~
  ~    If this code is provided to you under the terms of the AGPLv3:
  ~    (A) CLOUDERA PROVIDES THIS CODE TO YOU WITHOUT WARRANTIES OF ANY KIND;
  ~    (B) CLOUDERA DISCLAIMS ANY AND ALL EXPRESS AND IMPLIED WARRANTIES WITH RESPECT TO THIS CODE, INCLUDING BUT NOT
  ~        LIMITED TO IMPLIED WARRANTIES OF TITLE, NON-INFRINGEMENT, MERCHANTABILITY AND FITNESS FOR A PARTICULAR PURPOSE;
  ~    (C) CLOUDERA IS NOT LIABLE TO YOU, AND WILL NOT DEFEND, INDEMNIFY, OR HOLD YOU HARMLESS FOR ANY CLAIMS ARISING
  ~        FROM OR RELATED TO THE CODE; AND
  ~    (D) WITH RESPECT TO YOUR EXERCISE OF ANY RIGHTS GRANTED TO YOU FOR THE CODE, CLOUDERA IS NOT LIABLE FOR ANY
  ~        DIRECT, INDIRECT, INCIDENTAL, SPECIAL, EXEMPLARY, PUNITIVE OR CONSEQUENTIAL DAMAGES INCLUDING, BUT NOT LIMITED
  ~        TO, DAMAGES RELATED TO LOST REVENUE, LOST PROFITS, LOSS OF INCOME, LOSS OF BUSINESS ADVANTAGE OR
  ~        UNAVAILABILITY, OR LOSS OR CORRUPTION OF DATA.
  ~
  -->
<svg viewBox="0 0 24 24" xmlns="http://www.w3.org/2000/svg" width="1em" height="1em">
  <g transform="translate(2 2)" fill="none" fill-rule="evenodd">
    <circle fill="#F4F5F6" cx="10" cy="10" r="10"/>
    <path d="M16.118 10.532h-.62a1.11 1.11 0 01-1.05.76 1.11 1.11 0 01-1.05-.76h-.653a1.3 1.3 0 01-1.285 1.057 1.297 1.297 0 01-1.283-1.057h-.653a1.11 1.11 0 01-1.05.76 1.11 1.11 0 01-1.05-.76H6.73a1.3 1.3 0 01-1.285 1.057 1.297 1.297 0 01-1.282-1.057h-.281v4.085h12.236v-4.085zm.382-.383V15h-13v-4.851h1.009l.011.179c.032.5.43.878.925.878a.917.917 0 00.925-.874l.008-.183h.99a1.11 1.11 0 011.106-1.083c.6 0 1.09.483 1.106 1.083h.944l.011.179c.032.5.43.878.925.878a.917.917 0 00.925-.874l.007-.183h.95a1.11 1.11 0 011.106-1.083c.601 0 1.09.483 1.107 1.083h.945zm-5.04-1.005c.612 0 1.109-.5 1.109-1.113 0-.614-.497-1.113-1.108-1.113-.611 0-1.108.5-1.108 1.113 0 .614.497 1.113 1.108 1.113h0zM4.303 6.113C4.302 5.499 4.8 5 5.41 5c.611 0 1.108.5 1.108 1.113S6.021 7.226 5.41 7.226c-.61 0-1.108-.5-1.108-1.113h0z" stroke="#838B92" stroke-width=".5" fill="#838B92"/>
  </g>
</svg>
