<!--
  ~  (c) 2018-2020 Cloudera, Inc. All rights reserved.
  ~
  ~    This code is provided to you pursuant to your written agreement with Cloudera, which may be the terms of the
  ~   Affero General Public License version 3 (AGPLv3), or pursuant to a written agreement with a third party authorized
  ~   to distribute this code.  If you do not have a written agreement with Cloudera or with an authorized and
  ~   properly licensed third party, you do not have any rights to this code.
  ~
  ~    If this code is provided to you under the terms of the AGPLv3:
  ~    (A) CLOUDERA PROVIDES THIS CODE TO YOU WITHOUT WARRANTIES OF ANY KIND;
  ~    (B) CLOUDERA DISCLAIMS ANY AND ALL EXPRESS AND IMPLIED WARRANTIES WITH RESPECT TO THIS CODE, INCLUDING BUT NOT
  ~        LIMITED TO IMPLIED WARRANTIES OF TITLE, NON-INFRINGEMENT, MERCHANTABILITY AND FITNESS FOR A PARTICULAR PURPOSE;
  ~    (C) CLOUDERA IS NOT LIABLE TO YOU, AND WILL NOT DEFEND, INDEMNIFY, OR HOLD YOU HARMLESS FOR ANY CLAIMS ARISING
  ~        FROM OR RELATED TO THE CODE; AND
  ~    (D) WITH RESPECT TO YOUR EXERCISE OF ANY RIGHTS GRANTED TO YOU FOR THE CODE, CLOUDERA IS NOT LIABLE FOR ANY
  ~        DIRECT, INDIRECT, INCIDENTAL, SPECIAL, EXEMPLARY, PUNITIVE OR CONSEQUENTIAL DAMAGES INCLUDING, BUT NOT LIMITED
  ~        TO, DAMAGES RELATED TO LOST REVENUE, LOST PROFITS, LOSS OF INCOME, LOSS OF BUSINESS ADVANTAGE OR
  ~        UNAVAILABILITY, OR LOSS OR CORRUPTION OF DATA.
  ~
  -->
<svg viewBox="0 0 24 24" xmlns="http://www.w3.org/2000/svg" width="1em" height="1em">
  <path d="M16.07 4.003c2.446.017 4.69 1.718 5.544 4.201.368 1.073.448 2.182.343 3.321-.153 1.673-.612 3.226-1.48 4.617-1.34 2.148-3.227 3.341-5.565 3.739-.793.134-1.588.118-2.384.118-.33 0-.507-.164-.527-.462-.021-.32.163-.565.49-.586.36-.024.724-.004 1.086-.015 2.201-.065 4.107-.891 5.617-2.665 1.058-1.244 1.594-2.76 1.775-4.43.126-1.158.113-2.31-.307-3.407-.645-1.68-1.8-2.71-3.39-3.187-.618-.185-1.251-.22-1.884-.224-2.364-.016-4.73-.006-7.093-.007-.1 0-.2.005-.3-.005-.234-.024-.417-.23-.43-.487-.004-.247.157-.46.38-.505.108-.016.218-.022.327-.017h3.968l-.002.001c1.278 0 2.555-.007 3.832 0zm-5.651 14.96a.443.443 0 01.325.17c.083.104.122.24.11.376-.02.296-.212.477-.514.49h-.897v-.002c-.307 0-.615.006-.924 0-.292-.007-.489-.188-.519-.454-.023-.292.174-.55.441-.578.658-.056 1.32-.057 1.978-.003zm4.787-11.287c1.424.003 2.656.942 3.105 2.41.319 1.042.205 2.092-.152 3.102-.686 1.939-2.301 3.131-4.212 3.136-1.377.005-2.754 0-4.13 0h-4.24c-.09.005-.181.003-.272-.006-.245-.036-.4-.19-.423-.46-.024-.27.092-.455.326-.55.148-.059.304-.046.457-.046 2.79 0 5.579.004 8.368-.006.978-.003 1.823-.398 2.495-1.18.575-.67.877-1.481.967-2.393.07-.716-.023-1.374-.43-1.958-.454-.652-1.067-.979-1.803-.982-2.636-.013-5.273-.005-7.906-.009-.28 0-.56-.025-.84-.053-.24-.025-.374-.183-.39-.447-.018-.288.117-.495.357-.546l.121-.012h8.602zM4.237 7.624c.135 0 .27.017.402.05.24.067.371.29.343.56-.029.271-.179.434-.43.443-.353.013-.706.004-1.06.004l.002.002c-.326 0-.652.005-.979 0a.516.516 0 01-.511-.466c-.031-.265.122-.493.416-.558.16-.029.323-.04.486-.035.443-.004.887-.005 1.331 0z" fill="currentColor" fill-rule="evenodd"/>
</svg>
