<!--
  ~  (c) 2018-2020 Cloudera, Inc. All rights reserved.
  ~
  ~    This code is provided to you pursuant to your written agreement with Cloudera, which may be the terms of the
  ~   Affero General Public License version 3 (AGPLv3), or pursuant to a written agreement with a third party authorized
  ~   to distribute this code.  If you do not have a written agreement with Cloudera or with an authorized and
  ~   properly licensed third party, you do not have any rights to this code.
  ~
  ~    If this code is provided to you under the terms of the AGPLv3:
  ~    (A) CLOUDERA PROVIDES THIS CODE TO YOU WITHOUT WARRANTIES OF ANY KIND;
  ~    (B) CLOUDERA DISCLAIMS ANY AND ALL EXPRESS AND IMPLIED WARRANTIES WITH RESPECT TO THIS CODE, INCLUDING BUT NOT
  ~        LIMITED TO IMPLIED WARRANTIES OF TITLE, NON-INFRINGEMENT, MERCHANTABILITY AND FITNESS FOR A PARTICULAR PURPOSE;
  ~    (C) CLOUDERA IS NOT LIABLE TO YOU, AND WILL NOT DEFEND, INDEMNIFY, OR HOLD YOU HARMLESS FOR ANY CLAIMS ARISING
  ~        FROM OR RELATED TO THE CODE; AND
  ~    (D) WITH RESPECT TO YOUR EXERCISE OF ANY RIGHTS GRANTED TO YOU FOR THE CODE, CLOUDERA IS NOT LIABLE FOR ANY
  ~        DIRECT, INDIRECT, INCIDENTAL, SPECIAL, EXEMPLARY, PUNITIVE OR CONSEQUENTIAL DAMAGES INCLUDING, BUT NOT LIMITED
  ~        TO, DAMAGES RELATED TO LOST REVENUE, LOST PROFITS, LOSS OF INCOME, LOSS OF BUSINESS ADVANTAGE OR
  ~        UNAVAILABILITY, OR LOSS OR CORRUPTION OF DATA.
  ~
  -->
<svg viewBox="0 0 24 24" xmlns="http://www.w3.org/2000/svg" width="1em" height="1em">
  <path d="M22.066 18.755c0 1.36-1.051 2.48-2.381 2.61-.079.01-.17.01-.25.01a2.632 2.632 0 01-2.63-2.62c0-.12.011-.24.021-.36l-1.45-.66v-.01l-1.441-.65-.97-.44-1.179-.54c-.46.53-1.12.87-1.87.9h-.111a2.623 2.623 0 01-2.62-2.62 2.64 2.64 0 011.771-2.48h.009c.26-.09.55-.14.84-.14a.85.85 0 01.16.01h.05c.13.011.261.03.391.06h.01c.54.13 1.019.42 1.37.83l1.179-.54.97-.44.731-.33.769-.35 1.391-.639c-.01-.121-.021-.241-.021-.361 0-.38.08-.73.231-1.06a2.614 2.614 0 012.399-1.56c1.45 0 2.631 1.18 2.631 2.62 0 1.37-1.051 2.49-2.381 2.62-.079.01-.17.01-.25.01-.79 0-1.489-.349-1.979-.9l-2.021.92-1.5.68-.359.16-1.16.53c.009.12.019.24.019.36s-.01.24-.019.36l1.16.53.359.16 1.5.681 2.021.92a2.635 2.635 0 012.229-.891 2.639 2.639 0 012.381 2.62zM3.715 5.005c.621-.38 2.3-.88 4.97-.88 2.671 0 4.351.5 4.971.88-2.46 1.101-7.481 1.101-9.941 0zm11.72 4.57v-4.27c0-2.55-5.619-2.68-6.75-2.68-1.13 0-6.75.13-6.75 2.68v12c0 .67.421 1.6 2.421 2.17 1.149.33 2.689.51 4.329.51.771 0 3.651-.06 5.391-.919l-1.88-.941c-.86.21-2.03.36-3.511.36-3.46 0-5.25-.83-5.25-1.18v-4.72c.78.3 1.691.51 2.671.64.159-.52.43-1 .779-1.4-1.37-.14-2.599-.43-3.45-.88v-4.43c1.431.551 3.341.82 5.25.82 1.91 0 3.82-.269 5.25-.82v3.66l1.5-.6z" fill="currentColor" fill-rule="evenodd"/>
</svg>
