<!--
  ~  (c) 2018-2020 Cloudera, Inc. All rights reserved.
  ~
  ~    This code is provided to you pursuant to your written agreement with Cloudera, which may be the terms of the
  ~   Affero General Public License version 3 (AGPLv3), or pursuant to a written agreement with a third party authorized
  ~   to distribute this code.  If you do not have a written agreement with Cloudera or with an authorized and
  ~   properly licensed third party, you do not have any rights to this code.
  ~
  ~    If this code is provided to you under the terms of the AGPLv3:
  ~    (A) CLOUDERA PROVIDES THIS CODE TO YOU WITHOUT WARRANTIES OF ANY KIND;
  ~    (B) CLOUDERA DISCLAIMS ANY AND ALL EXPRESS AND IMPLIED WARRANTIES WITH RESPECT TO THIS CODE, INCLUDING BUT NOT
  ~        LIMITED TO IMPLIED WARRANTIES OF TITLE, NON-INFRINGEMENT, MERCHANTABILITY AND FITNESS FOR A PARTICULAR PURPOSE;
  ~    (C) CLOUDERA IS NOT LIABLE TO YOU, AND WILL NOT DEFEND, INDEMNIFY, OR HOLD YOU HARMLESS FOR ANY CLAIMS ARISING
  ~        FROM OR RELATED TO THE CODE; AND
  ~    (D) WITH RESPECT TO YOUR EXERCISE OF ANY RIGHTS GRANTED TO YOU FOR THE CODE, CLOUDERA IS NOT LIABLE FOR ANY
  ~        DIRECT, INDIRECT, INCIDENTAL, SPECIAL, EXEMPLARY, PUNITIVE OR CONSEQUENTIAL DAMAGES INCLUDING, BUT NOT LIMITED
  ~        TO, DAMAGES RELATED TO LOST REVENUE, LOST PROFITS, LOSS OF INCOME, LOSS OF BUSINESS ADVANTAGE OR
  ~        UNAVAILABILITY, OR LOSS OR CORRUPTION OF DATA.
  ~
  -->
<svg viewBox="0 0 24 24" xmlns="http://www.w3.org/2000/svg" width="1em" height="1em">
  <path d="M18.213 9.43c-2.954 1.464-9.472 1.464-12.426 0V6.339c1.675.653 3.949.969 6.213.969 2.264 0 4.538-.316 6.213-.97v3.094zm0 4.94c-2.954 1.464-9.472 1.464-12.426 0v-3.33c1.675.644 3.949.96 6.213.96 2.264 0 4.538-.316 6.213-.96v3.33zm0 4.547c0 .406-2.111 1.364-6.213 1.364-4.101 0-6.213-.958-6.213-1.364v-2.934c1.675.64 3.949.958 6.213.958 2.264 0 4.538-.317 6.213-.958v2.934zM12 3.72c2.444 0 5.076.375 6 1.116-2.975 1.334-9.046 1.334-12.01-.01C6.924 4.096 8.64 3.72 12 3.72zM12 2c-1.34 0-8 .149-8 3.083v13.834c0 .78.497 1.838 2.873 2.5C8.233 21.792 10.06 22 12 22c1.34 0 8-.148 8-3.083V5.083C20 2.149 13.34 2 12 2z" fill="currentColor" fill-rule="evenodd"/>
</svg>
