<!--
  ~  (c) 2018-2020 Cloudera, Inc. All rights reserved.
  ~
  ~    This code is provided to you pursuant to your written agreement with Cloudera, which may be the terms of the
  ~   Affero General Public License version 3 (AGPLv3), or pursuant to a written agreement with a third party authorized
  ~   to distribute this code.  If you do not have a written agreement with Cloudera or with an authorized and
  ~   properly licensed third party, you do not have any rights to this code.
  ~
  ~    If this code is provided to you under the terms of the AGPLv3:
  ~    (A) CLOUDERA PROVIDES THIS CODE TO YOU WITHOUT WARRANTIES OF ANY KIND;
  ~    (B) CLOUDERA DISCLAIMS ANY AND ALL EXPRESS AND IMPLIED WARRANTIES WITH RESPECT TO THIS CODE, INCLUDING BUT NOT
  ~        LIMITED TO IMPLIED WARRANTIES OF TITLE, NON-INFRINGEMENT, MERCHANTABILITY AND FITNESS FOR A PARTICULAR PURPOSE;
  ~    (C) CLOUDERA IS NOT LIABLE TO YOU, AND WILL NOT DEFEND, INDEMNIFY, OR HOLD YOU HARMLESS FOR ANY CLAIMS ARISING
  ~        FROM OR RELATED TO THE CODE; AND
  ~    (D) WITH RESPECT TO YOUR EXERCISE OF ANY RIGHTS GRANTED TO YOU FOR THE CODE, CLOUDERA IS NOT LIABLE FOR ANY
  ~        DIRECT, INDIRECT, INCIDENTAL, SPECIAL, EXEMPLARY, PUNITIVE OR CONSEQUENTIAL DAMAGES INCLUDING, BUT NOT LIMITED
  ~        TO, DAMAGES RELATED TO LOST REVENUE, LOST PROFITS, LOSS OF INCOME, LOSS OF BUSINESS ADVANTAGE OR
  ~        UNAVAILABILITY, OR LOSS OR CORRUPTION OF DATA.
  ~
  -->
<svg xmlns="http://www.w3.org/2000/svg" xmlns:xlink="http://www.w3.org/1999/xlink" width="84" height="76" viewBox="0 0 84 76">
    <defs>
        <path id="prefix__a" d="M0 0.957L83.034 0.957 83.034 51.027 0 51.027z"/>
    </defs>
    <g fill="none" fill-rule="evenodd">
        <path fill="#838B92" d="M32.494 61.057c-2.156 0-3.91-1.754-3.91-3.91s1.754-3.91 3.91-3.91 3.91 1.754 3.91 3.91-1.754 3.91-3.91 3.91m5.91-3.91c0-3.259-2.65-5.91-5.91-5.91-3.26 0-5.91 2.651-5.91 5.91 0 3.259 2.65 5.91 5.91 5.91 3.26 0 5.91-2.651 5.91-5.91M22.92 63.222c-3.259 0-5.91 2.651-5.91 5.911s2.651 5.91 5.91 5.91c3.259 0 5.91-2.65 5.91-5.91 0-3.26-2.651-5.91-5.91-5.91M41.992 63.222c-3.259 0-5.91 2.651-5.91 5.911s2.651 5.91 5.91 5.91c3.26 0 5.91-2.65 5.91-5.91 0-3.26-2.65-5.91-5.91-5.91M61.065 73.043c-2.157 0-3.91-1.754-3.91-3.91s1.753-3.91 3.91-3.91c2.156 0 3.91 1.754 3.91 3.91s-1.754 3.91-3.91 3.91m0-9.82c-3.26 0-5.91 2.65-5.91 5.91 0 3.26 2.65 5.91 5.91 5.91 3.26 0 5.91-2.65 5.91-5.91 0-3.26-2.65-5.91-5.91-5.91M51.491 61.057c-2.156 0-3.91-1.754-3.91-3.91s1.754-3.91 3.91-3.91 3.91 1.754 3.91 3.91-1.754 3.91-3.91 3.91m5.91-3.91c0-3.259-2.65-5.91-5.91-5.91-3.26 0-5.91 2.651-5.91 5.91 0 3.259 2.65 5.91 5.91 5.91 3.26 0 5.91-2.651 5.91-5.91M70.564 51.237c-3.26 0-5.91 2.65-5.91 5.91 0 3.259 2.65 5.91 5.91 5.91 3.259 0 5.91-2.651 5.91-5.91 0-3.26-2.651-5.91-5.91-5.91"/>
        <g transform="translate(0 .043)">
            <mask id="prefix__b" fill="#fff">
                <use xlink:href="#prefix__a"/>
            </mask>
            <path fill="#838B92" d="M72.873 44.38h-5.948c-.364-2.911-2.85-5.173-5.86-5.173-3.009 0-5.495 2.262-5.86 5.173h-7.353c-.365-2.911-2.85-5.173-5.86-5.173-3.009 0-5.494 2.262-5.859 5.173H28.78c-.364-2.911-2.85-5.173-5.859-5.173s-5.494 2.262-5.86 5.173h-6.898c-4.546 0-8.23-3.902-8.23-8.717 0-4.814 3.684-8.718 8.23-8.718.973 0 1.902.189 2.77.517-.138-.713-.21-1.45-.21-2.206 0-6.084 4.656-11.016 10.401-11.016 1.901 0 3.68.55 5.214 1.494.054-7.228 7.292-12.846 13.035-12.846 5.742 0 13.272 5.618 13.325 12.846 1.534-.944 3.313-1.494 5.216-1.494 5.743 0 10.4 4.932 10.4 11.016 0 .756-.072 1.493-.209 2.206.867-.328 1.795-.517 2.77-.517 4.545 0 8.23 3.904 8.23 8.718 0 4.815-3.685 8.717-8.23 8.717m-30.882 4.647c-2.156 0-3.91-1.753-3.91-3.91 0-2.156 1.754-3.91 3.91-3.91s3.91 1.754 3.91 3.91c0 2.157-1.754 3.91-3.91 3.91m30.881-24.012c-.21 0-.42.007-.63.02-.113-7.037-5.6-12.725-12.33-12.725-1.236 0-2.463.197-3.638.58C54.615 6.075 47.42.957 41.372.957c-6.065 0-13.039 5.027-14.63 11.928-1.17-.38-2.39-.575-3.619-.575-6.73 0-12.219 5.688-12.33 12.725-.21-.013-.42-.02-.63-.02C4.558 25.015 0 29.79 0 35.663c0 5.87 4.56 10.649 10.162 10.649h6.97c.553 2.687 2.938 4.715 5.788 4.715s5.235-2.028 5.79-4.715h7.494c.554 2.687 2.94 4.715 5.788 4.715 2.85 0 5.235-2.028 5.79-4.715h7.494c.554 2.687 2.94 4.715 5.788 4.715 2.851 0 5.237-2.028 5.79-4.715h6.02c5.603 0 10.16-4.778 10.16-10.65 0-5.871-4.557-10.647-10.16-10.647" mask="url(#prefix__b)"/>
        </g>
    </g>
</svg>
