<!--
  ~  (c) 2018-2020 Cloudera, Inc. All rights reserved.
  ~
  ~    This code is provided to you pursuant to your written agreement with Cloudera, which may be the terms of the
  ~   Affero General Public License version 3 (AGPLv3), or pursuant to a written agreement with a third party authorized
  ~   to distribute this code.  If you do not have a written agreement with Cloudera or with an authorized and
  ~   properly licensed third party, you do not have any rights to this code.
  ~
  ~    If this code is provided to you under the terms of the AGPLv3:
  ~    (A) CLOUDERA PROVIDES THIS CODE TO YOU WITHOUT WARRANTIES OF ANY KIND;
  ~    (B) CLOUDERA DISCLAIMS ANY AND ALL EXPRESS AND IMPLIED WARRANTIES WITH RESPECT TO THIS CODE, INCLUDING BUT NOT
  ~        LIMITED TO IMPLIED WARRANTIES OF TITLE, NON-INFRINGEMENT, MERCHANTABILITY AND FITNESS FOR A PARTICULAR PURPOSE;
  ~    (C) CLOUDERA IS NOT LIABLE TO YOU, AND WILL NOT DEFEND, INDEMNIFY, OR HOLD YOU HARMLESS FOR ANY CLAIMS ARISING
  ~        FROM OR RELATED TO THE CODE; AND
  ~    (D) WITH RESPECT TO YOUR EXERCISE OF ANY RIGHTS GRANTED TO YOU FOR THE CODE, CLOUDERA IS NOT LIABLE FOR ANY
  ~        DIRECT, INDIRECT, INCIDENTAL, SPECIAL, EXEMPLARY, PUNITIVE OR CONSEQUENTIAL DAMAGES INCLUDING, BUT NOT LIMITED
  ~        TO, DAMAGES RELATED TO LOST REVENUE, LOST PROFITS, LOSS OF INCOME, LOSS OF BUSINESS ADVANTAGE OR
  ~        UNAVAILABILITY, OR LOSS OR CORRUPTION OF DATA.
  ~
  -->
<svg xmlns="http://www.w3.org/2000/svg" xmlns:xlink="http://www.w3.org/1999/xlink" width="69" height="62" viewBox="0 0 69 62">
    <defs>
        <path id="prefix__a" d="M0.333 0.172L12.082 0.172 12.082 61 0.333 61z"/>
    </defs>
    <g fill="none" fill-rule="evenodd">
        <g transform="translate(28 .828)">
            <mask id="prefix__b" fill="#fff">
                <use xlink:href="#prefix__a"/>
            </mask>
            <path fill="#838B92" d="M10.151 30.586c0 1.84-1.272 3.376-2.979 3.811v-7.62c1.707.433 2.98 1.97 2.98 3.81m0 14.437c0 1.84-1.273 3.376-2.98 3.81v-7.62c1.707.433 2.98 1.97 2.98 3.81m0-28.876c0 1.84-1.273 3.377-2.98 3.811v-7.62c1.707.433 2.98 1.97 2.98 3.81m1.93 0c0-2.91-2.129-5.326-4.91-5.789V.172h-1.93V10.36c-2.78.463-4.909 2.88-4.909 5.788 0 2.646 1.716 4.865 4.118 5.607l.048.013c.157.047.316.09.478.124.062.013.125.022.188.033l.077.014v2.86c-2.78.462-4.909 2.877-4.909 5.787 0 2.646 1.716 4.864 4.118 5.606l.048.014c.157.047.316.09.478.123.062.013.125.022.188.033l.077.015v2.858c-2.78.463-4.909 2.88-4.909 5.79 0 2.644 1.716 4.863 4.118 5.605l.048.013c.157.047.316.09.478.124.062.013.125.022.188.033l.077.014V61h1.93V50.812c2.781-.463 4.91-2.878 4.91-5.788s-2.129-5.326-4.91-5.789v-2.86c2.781-.463 4.91-2.879 4.91-5.789 0-2.91-2.129-5.325-4.91-5.788v-2.86c2.781-.464 4.91-2.879 4.91-5.79" mask="url(#prefix__b)"/>
        </g>
        <path fill="#838B92" d="M48.374 20.92c-2.174 0-3.943-1.77-3.943-3.944s1.769-3.944 3.943-3.944c2.174 0 3.944 1.77 3.944 3.944s-1.77 3.944-3.944 3.944m0-9.818c-3.239 0-5.874 2.635-5.874 5.874 0 3.24 2.635 5.875 5.874 5.875s5.875-2.636 5.875-5.875-2.636-5.874-5.875-5.874M62.541 13.033c2.174 0 3.943 1.77 3.943 3.944s-1.769 3.944-3.943 3.944c-2.174 0-3.944-1.77-3.944-3.944 0-2.175 1.77-3.944 3.944-3.944m0 9.818c3.239 0 5.874-2.636 5.874-5.874 0-3.24-2.635-5.876-5.874-5.876s-5.875 2.636-5.875 5.876c0 3.238 2.636 5.873 5.875 5.873M5.874 11.102C2.635 11.102 0 13.737 0 16.977c0 3.239 2.635 5.874 5.874 5.874s5.875-2.635 5.875-5.874c0-3.24-2.636-5.875-5.875-5.875M20.041 11.102c-3.239 0-5.875 2.635-5.875 5.875 0 3.239 2.636 5.874 5.875 5.874s5.874-2.635 5.874-5.874c0-3.24-2.635-5.875-5.874-5.875M48.374 35.358c-2.174 0-3.943-1.77-3.943-3.944s1.769-3.944 3.943-3.944c2.174 0 3.944 1.77 3.944 3.944s-1.77 3.944-3.944 3.944m0-9.818c-3.239 0-5.874 2.635-5.874 5.874s2.635 5.875 5.874 5.875 5.875-2.636 5.875-5.875c0-3.24-2.636-5.874-5.875-5.874M62.541 35.358c-2.174 0-3.944-1.77-3.944-3.944s1.77-3.944 3.944-3.944 3.943 1.77 3.943 3.944-1.769 3.944-3.943 3.944m0-9.818c-3.239 0-5.875 2.635-5.875 5.874s2.636 5.875 5.875 5.875 5.874-2.636 5.874-5.875c0-3.24-2.635-5.874-5.874-5.874M5.874 25.54C2.635 25.54 0 28.173 0 31.413c0 3.24 2.635 5.874 5.874 5.874s5.875-2.635 5.875-5.874c0-3.24-2.636-5.875-5.875-5.875M20.041 25.54c-3.239 0-5.875 2.634-5.875 5.874 0 3.24 2.636 5.874 5.875 5.874s5.874-2.635 5.874-5.874c0-3.24-2.635-5.875-5.874-5.875M48.374 49.795c-2.174 0-3.943-1.77-3.943-3.944s1.769-3.944 3.943-3.944c2.174 0 3.944 1.77 3.944 3.944s-1.77 3.944-3.944 3.944m0-9.818c-3.239 0-5.874 2.635-5.874 5.874 0 3.24 2.635 5.875 5.874 5.875s5.875-2.636 5.875-5.875-2.636-5.874-5.875-5.874M62.541 49.795c-2.174 0-3.944-1.77-3.944-3.944s1.77-3.944 3.944-3.944 3.943 1.77 3.943 3.944-1.769 3.944-3.943 3.944m0-9.818c-3.239 0-5.875 2.635-5.875 5.874 0 3.24 2.636 5.875 5.875 5.875s5.874-2.636 5.874-5.875-2.635-5.874-5.874-5.874M5.874 39.977C2.635 39.977 0 42.612 0 45.852c0 3.239 2.635 5.874 5.874 5.874s5.875-2.635 5.875-5.874c0-3.24-2.636-5.875-5.875-5.875M20.041 39.977c-3.239 0-5.875 2.635-5.875 5.875 0 3.239 2.636 5.874 5.875 5.874s5.874-2.635 5.874-5.874c0-3.24-2.635-5.875-5.874-5.875"/>
    </g>
</svg>
