<!--
  ~  (c) 2018-2020 Cloudera, Inc. All rights reserved.
  ~
  ~    This code is provided to you pursuant to your written agreement with Cloudera, which may be the terms of the
  ~   Affero General Public License version 3 (AGPLv3), or pursuant to a written agreement with a third party authorized
  ~   to distribute this code.  If you do not have a written agreement with Cloudera or with an authorized and
  ~   properly licensed third party, you do not have any rights to this code.
  ~
  ~    If this code is provided to you under the terms of the AGPLv3:
  ~    (A) CLOUDERA PROVIDES THIS CODE TO YOU WITHOUT WARRANTIES OF ANY KIND;
  ~    (B) CLOUDERA DISCLAIMS ANY AND ALL EXPRESS AND IMPLIED WARRANTIES WITH RESPECT TO THIS CODE, INCLUDING BUT NOT
  ~        LIMITED TO IMPLIED WARRANTIES OF TITLE, NON-INFRINGEMENT, MERCHANTABILITY AND FITNESS FOR A PARTICULAR PURPOSE;
  ~    (C) CLOUDERA IS NOT LIABLE TO YOU, AND WILL NOT DEFEND, INDEMNIFY, OR HOLD YOU HARMLESS FOR ANY CLAIMS ARISING
  ~        FROM OR RELATED TO THE CODE; AND
  ~    (D) WITH RESPECT TO YOUR EXERCISE OF ANY RIGHTS GRANTED TO YOU FOR THE CODE, CLOUDERA IS NOT LIABLE FOR ANY
  ~        DIRECT, INDIRECT, INCIDENTAL, SPECIAL, EXEMPLARY, PUNITIVE OR CONSEQUENTIAL DAMAGES INCLUDING, BUT NOT LIMITED
  ~        TO, DAMAGES RELATED TO LOST REVENUE, LOST PROFITS, LOSS OF INCOME, LOSS OF BUSINESS ADVANTAGE OR
  ~        UNAVAILABILITY, OR LOSS OR CORRUPTION OF DATA.
  ~
  -->
<svg xmlns="http://www.w3.org/2000/svg" xmlns:xlink="http://www.w3.org/1999/xlink" width="72" height="73" viewBox="0 0 72 73">
    <defs>
        <path id="prefix__a" d="M0 72L71.316 72 71.316 0.963 0 0.963z"/>
    </defs>
    <g fill="none" fill-rule="evenodd">
        <path fill="#838B92" d="M34.71 51.814L36.641 51.814 36.641 48.533 34.71 48.533zM34.71 17.371L36.641 17.371 36.641 14.091 34.71 14.091zM34.71 24.26L36.641 24.26 36.641 20.979 34.71 20.979zM34.71 58.701L36.641 58.701 36.641 55.421 34.71 55.421zM20.258 37.361L23.539 37.361 23.539 35.43 20.258 35.43zM54.701 37.362L57.981 37.362 57.981 35.431 54.701 35.431zM47.812 37.362L51.093 37.362 51.093 35.431 47.812 35.431z"/>
        <g transform="translate(0 .037)">
            <path fill="#838B92" d="M27.147 35.394v1.93h2.739c.41 2.467 2.358 4.415 4.824 4.826v2.738h1.93v-2.74c2.467-.411 4.415-2.357 4.825-4.823h2.74v-1.931h-2.74c-.41-2.466-2.36-4.412-4.824-4.823v-2.74H34.71v2.738c-2.466.41-4.414 2.358-4.824 4.825h-2.74z"/>
            <mask id="prefix__b" fill="#fff">
                <use xlink:href="#prefix__a"/>
            </mask>
            <path fill="#838B92" d="M13.37 37.324L16.65 37.324 16.65 35.393 13.37 35.393z" mask="url(#prefix__b)"/>
            <path fill="#838B92" d="M65.44 40.304c-2.175 0-3.944-1.77-3.944-3.944 0-2.176 1.769-3.946 3.945-3.946 2.174 0 3.943 1.77 3.943 3.946 0 2.174-1.77 3.944-3.943 3.944M35.675 62.18c1.079 0 2.057.436 2.77 1.141.704.712 1.14 1.69 1.14 2.768 0 2.175-1.77 3.944-3.945 3.944-1.078 0-2.055-.436-2.767-1.14-.705-.713-1.142-1.691-1.142-2.769 0-2.174 1.77-3.944 3.944-3.944M1.965 36.36c0-2.176 1.77-3.946 3.946-3.946 1.079 0 2.055.438 2.768 1.141.705.713 1.142 1.691 1.142 2.77 0 2.175-1.77 3.945-3.944 3.945-1.08 0-2.057-.438-2.77-1.142-.703-.713-1.141-1.69-1.141-2.768m33.71-23.645c2.984 0 5.45-2.237 5.822-5.121H64.44v22.981h.002c-2.766.475-4.88 2.885-4.88 5.785 0 2.886 2.096 5.288 4.843 5.779V65.09h-22.95c-.244-1.367-.96-2.57-1.975-3.435-.02-.018-.04-.038-.061-.055-.196-.162-.405-.308-.622-.444-.163-.106-.333-.197-.506-.286-.113-.055-.223-.114-.34-.163-.711-.307-1.488-.494-2.312-.494-2.9 0-5.308 2.113-5.784 4.879v-.002H6.91V42.144c2.764-.477 4.876-2.886 4.876-5.784 0-1.467-.543-2.805-1.436-3.834-.865-1.017-2.072-1.733-3.44-1.977V7.594h22.942v-.002c.37 2.885 2.839 5.123 5.823 5.123m0-9.82c2.175 0 3.945 1.769 3.945 3.944s-1.77 3.944-3.945 3.944-3.945-1.769-3.945-3.944 1.77-3.944 3.945-3.944m35.64 33.465c0-2.899-2.111-5.309-4.875-5.785V5.594H41.417C40.843 2.95 38.489.963 35.676.963c-2.813 0-5.17 1.988-5.741 4.633v-.002h-.041l.006-.034H4.876v24.98C2.112 31.017 0 33.427 0 36.325c0 .825.186 1.601.494 2.312.048.113.103.221.158.329.09.178.183.351.29.518.137.216.28.424.443.621l.057.061c.865 1.014 2.067 1.729 3.433 1.973V67.09h.035v.034h24.955c.075.419.206.817.365 1.201.082.203.172.401.275.591.048.088.102.17.155.255.136.225.284.441.449.645l.028.038C32.217 71.163 33.85 72 35.675 72c2.899 0 5.309-2.111 5.786-4.876h24.98v-24.98l-.022.002c2.775-.468 4.897-2.88 4.897-5.786" mask="url(#prefix__b)"/>
        </g>
    </g>
</svg>
