<!--
  ~  (c) 2018-2020 Cloudera, Inc. All rights reserved.
  ~
  ~    This code is provided to you pursuant to your written agreement with Cloudera, which may be the terms of the
  ~   Affero General Public License version 3 (AGPLv3), or pursuant to a written agreement with a third party authorized
  ~   to distribute this code.  If you do not have a written agreement with Cloudera or with an authorized and
  ~   properly licensed third party, you do not have any rights to this code.
  ~
  ~    If this code is provided to you under the terms of the AGPLv3:
  ~    (A) CLOUDERA PROVIDES THIS CODE TO YOU WITHOUT WARRANTIES OF ANY KIND;
  ~    (B) CLOUDERA DISCLAIMS ANY AND ALL EXPRESS AND IMPLIED WARRANTIES WITH RESPECT TO THIS CODE, INCLUDING BUT NOT
  ~        LIMITED TO IMPLIED WARRANTIES OF TITLE, NON-INFRINGEMENT, MERCHANTABILITY AND FITNESS FOR A PARTICULAR PURPOSE;
  ~    (C) CLOUDERA IS NOT LIABLE TO YOU, AND WILL NOT DEFEND, INDEMNIFY, OR HOLD YOU HARMLESS FOR ANY CLAIMS ARISING
  ~        FROM OR RELATED TO THE CODE; AND
  ~    (D) WITH RESPECT TO YOUR EXERCISE OF ANY RIGHTS GRANTED TO YOU FOR THE CODE, CLOUDERA IS NOT LIABLE FOR ANY
  ~        DIRECT, INDIRECT, INCIDENTAL, SPECIAL, EXEMPLARY, PUNITIVE OR CONSEQUENTIAL DAMAGES INCLUDING, BUT NOT LIMITED
  ~        TO, DAMAGES RELATED TO LOST REVENUE, LOST PROFITS, LOSS OF INCOME, LOSS OF BUSINESS ADVANTAGE OR
  ~        UNAVAILABILITY, OR LOSS OR CORRUPTION OF DATA.
  ~
  -->
<svg viewBox="0 0 24 24" xmlns="http://www.w3.org/2000/svg" width="1em" height="1em">
  <g fill="none" fill-rule="evenodd">
    <path d="M19.986 10.24a7.684 7.684 0 11-15.365 0 7.683 7.683 0 1115.365 0" fill="#C4D6B1"/>
    <path d="M12.304 2.556a7.684 7.684 0 00-7.683 7.685 7.683 7.683 0 1015.365 0 7.683 7.683 0 00-7.682-7.685m0 .564c3.924 0 7.117 3.194 7.117 7.121 0 3.925-3.193 7.12-7.117 7.12-3.925 0-7.118-3.195-7.118-7.12 0-3.927 3.193-7.12 7.118-7.12" fill="#5880AB"/>
    <path d="M22.018 18.82c-.656.714-.455 1.172-.925 1.418-.47.247-.302.422-.84-.07-.535-.494-.736-1.656-1.475-.564-.738 1.092-2.113.634-2.147.916-.033.282.202-.211-1.14-.633-1.342-.425-1.946-.46-2.248.28-.302.74-.436 1.023-1.577 1.268-.501.11-.066-1.373-.301-1.373s.2-.423-.671.247c-.873.67-.671 1.092-1.644.176-.973-.916-.738-1.057-1.04-1.198-.302-.14-.336.352-.906.07-.57-.281-1.174-.6-1.14-.915.033-.317.2-.881.2-.881l7.046-1.585 8.52.705.288 2.14z" fill="#4280B9"/>
    <path d="M9.071 8.746c.003-.019.01-.036.01-.057l-.046-.092c.058.065.118.123.181.171a.662.662 0 00-.145-.022m-.777-.535c.016-.01.032-.016.048-.026l.005-.015c.028.035.06.062.096.08a.615.615 0 01-.149-.04m2.154.83c0-.048-.002-.097-.004-.146l-.349-.37a.69.69 0 00-.005-.11c-.076-.166-.182-.236-.345-.121l-.473-.119a.51.51 0 00.014-.08c-.057-.408-.234-.65-.67-.538h-.043c.01-.034.02-.069.028-.103.017-.707-.64-.74-.984-1.088-.715.243-1.213.713-1.42 1.489l.018.437a.256.256 0 00.161.083c.362-.053.425.288.594.491a.257.257 0 00.167.082c.02-.004.038-.014.056-.023-.037.16.041.262.173.337h.001c.04.123.078.247.118.368.136.186.301.293.534.223.022-.025.044-.047.067-.07l.1.003.141.296.013.01c.168.26.534.006.695.286l.137.004.152.443.84-.75.004-.141c.056-.144-.034-.191-.137-.229-.015.001-.028.004-.043.006a22.497 22.497 0 00-.109-.22c-.116-.005-.22-.036-.283-.15l-.119-.13.003-.002c.006-.147-.025-.256-.087-.331.148.069.312.093.5.05l.132.41h.082c-.006.015-.015.029-.02.046-.03.21.07.336.24.419l.414-.449a.538.538 0 00-.293-.313" fill="#9B642B"/>
    <path d="M8.654 7.19c.122.24.37.248.607.185.02-.01.037-.024.057-.033v.07c.05.162.166.238.32.263.395-.056.68-.227.667-.708.063-.301.307-.066.44-.163l-.722-.413c-.077.076-.162.145-.235.224-.013-.098-.009-.192.113-.257l-.16-.138c-.663.061-1.345-.168-1.99.141.323.247.697.422.903.829M12.555 8.11c.145-.007.285-.02.292-.224v-.068l-.688-.28-.025.036c-.036.332.166.457.421.536M12.14 8.319c-.08-.066-.15-.056-.217-.022a.215.215 0 00-.066-.143c-.157-.163-.3-.36-.564-.296-.182-.153-.257-.36-.28-.595-.061-.118-.167-.146-.284-.147-.101.196-.243.368-.284.595l-.001.147c-.07.256.069.36.258.43-.008.017-.016.033-.022.053a.517.517 0 00.182.379c.17.14.347.166.53.076a.136.136 0 00.048.094c.313.158.702.051.988.308.27.261.537.22.804-.006-.225-.483-.61-.745-1.092-.873M8.706 11.26a.743.743 0 00-.133-.342c-.087-.096-.145-.24-.277-.257.005-.2-.05-.361-.252-.43-.069 0-.138-.003-.207-.004-.049-.293-.325-.303-.497-.443-.047 0-.093 0-.14-.002-.005-.196-.104-.293-.287-.3-.368.416.402.642.156 1.037-.06.123-.169.158-.289.168-.098.136-.094.27.004.402a.984.984 0 00.135.025c.134.21.341.27.561.303.171.215.471.294.564.59.042.01.084.018.126.025l.024.22a.178.178 0 00.106.023c.035-.355.452-.48.462-.85.026-.1.004-.152-.056-.164" fill="#9B642B"/>
    <g>
      <path d="M3.784 15.858c-.553-.54-1.176-.935-1.937-1.052.108-.205-.076-.363-.084-.549a4.272 4.272 0 01-.058-.193.754.754 0 01.047-.404.316.316 0 01.232-.179l.416-.14a.302.302 0 01.08.173c-.025.268-.163.555.122.77.23.143.484.206.743.202.528-.006.922.308 1.334.584a.663.663 0 01.26.156c.06.117.01.2-.07.276-.17.11-.338.221-.512.325-.19.035-.373.2-.574.031" fill="#DEECF2"/>
      <path d="M21.04 12.902c.468-.447.67.133.982.284.106.089.188.195.198.347-.067.325-.298.438-.575.489-.12.024-.23-.2-.359-.014-.33-.03-.626.225-.964.14-.185-.177-.44-.235-.626-.412-.134-.419.194-.536.426-.715.303-.06.625.043.917-.119" fill="#92CCEB"/>
      <path d="M4.25 13.496c.007-.232-.199-.302-.309-.446.065-.15.054-.326.15-.465-.156-.427-.605-.527-.856-.846-.134-.218-.04-.355.15-.456l.278-.03a.33.33 0 01.216.146c.074.123.134.26.27.327.101.058.198.124.286.202.111.103.215.216.326.32.216.226.543.333.661.667a.37.37 0 01-.037.195c-.21.288-.502.23-.83.184-.042-.02.016.08.041.07.226-.078.308.107.394.275a.272.272 0 01-.063.198c-.359.176-.53-.052-.677-.341" fill="#B2C2DF"/>
      <path d="M4.616 7.861c-.1-.04-.215-.132-.3-.114-.282.055-.546.125-.74-.139-.082-.11-.052-.204.098-.182.328.048.524-.587.922-.122.047.053.14.079.21.117.283.025.498.14.642.35.149.336.074.669-.032 1-.114.35.144.753-.198 1.074-.276.174-.534.397-.931.282-.284-.27-.144-.531.028-.79.152-.228.316-.452.355-.72-.01-.253.07-.51-.054-.756" fill="#B7C6E4"/>
      <path d="M4.657 15.268c-.59-.752-1.57-.404-2.256-.882.059-.233.149-.436.415-.464.285-.112.556.157.841.036.175-.112.357-.197.567-.182.096.189-.13.442.112.6.131.288.446.503.321.892" fill="#C5E1EE"/>
      <path d="M3.385 11.282l-.15.458c-.503.314-.768.182-.822-.448-.02-.23-.135-.45-.222-.717.512.082.74.61 1.194.707" fill="#B4C3E2"/>
      <path d="M19.61 12.59c.134.005.25-.031.312-.17.13-.06.246-.167.403-.11.11.11.097.246.07.383a.467.467 0 01-.16.25c-.168.203-.415.302-.597.489-.13.136-.279.186-.456.102a1.128 1.128 0 01-.342-.529c-.017-.161.04-.284.18-.358.188-.123.4.04.59-.056" fill="#3393CE"/>
      <path d="M1.983 13.482c-.049.052-.098.105-.147.155-.138.102-.3.072-.454.09a1.851 1.851 0 01-.187.001c-.21-.017-.442.114-.629-.091l-.144-.15c.293-.186.667-.244.86-.59.138-.102.278-.026.417-.008.364.055.251.362.284.593" fill="#D1E8F2"/>
      <path d="M23.74 13.917c-.096.237.118.544-.153.74-.183-.084-.276-.256-.378-.418-.12-.2-.165-.465-.425-.546-.159-.069-.262-.175-.232-.372a.477.477 0 01.306-.249.604.604 0 01.398.033c.1.052.13.156.162.257l.323.555" fill="#3494CF"/>
      <path d="M4.09 10.224l.146.016c.19.257.013.54.05.808-.009.285.026.58-.192.81-.287-.013-.284-.23-.283-.444-.163-.273.015-.597-.116-.874.064-.2.075-.47.395-.316" fill="#B4C3E2"/>
      <path d="M4.238 14.378c-.45-.19-.031-.401-.013-.602l.026-.28c.216.14.405.35.696.287.39-.054.55.127.495.53-.14.23-.33.142-.484.049-.252-.152-.481-.027-.72.016" fill="#A6BCDC"/>
      <path d="M23.281 13.217l-.415-.05c-.14-.044-.265-.108-.295-.28.094-.509.38-.474.72-.283.155.207.168.413-.01.613" fill="#A8D4ED"/>
      <path d="M22.571 12.886c.1.093.197.188.296.282l-.273.203c-.102.165-.223.261-.41.129-.129-.063-.158-.182-.162-.315l.55-.3" fill="#9BD1ED"/>
      <path d="M3.657 13.958c-.25.231-.554.08-.83.125-.077-.071-.09-.161-.064-.262a.547.547 0 00.215-.357c.34-.008.37.456.68.494" fill="#C6D7E7"/>
      <path d="M1.26 12.61c-.208-.153-.412-.372-.168-.59.256-.227.408.005.466.283-.1.101-.027.39-.298.307" fill="#C2CEE4"/>
      <path d="M.56 14.088c-.192-.09-.313-.326-.56-.302v-.149l.422-.149c.09.053.185.097.228.205.038.149.033.286-.09.395" fill="#E7EBF1"/>
      <path d="M24 15.12c-.243.15-.397-.022-.56-.168-.057-.14-.002-.267.039-.396.098-.208.038-.488.262-.64.143.12.059.379.259.463v.741z" fill="#84D3EA"/>
    </g>
    <g>
      <path d="M1.26 12.61c.1-.102.2-.204.298-.307.102.18.154.375.141.586-.135.238-.277.059-.417.008l-.022-.287" fill="#CFDBEC"/>
      <path d="M2.402 13.48c0-.047 0-.093-.002-.139l.03-.64c.28.08.286.322.378.496-.083.117-.135.26-.265.337-.06.02-.107.001-.141-.054" fill="#C6CFDF"/>
      <path d="M20.183 12.886l.146-.144c.077.022.097.1.142.154l.568.007c-.263.186-.53.347-.851.134-.042-.033-.056-.065-.044-.099.013-.034.025-.052.039-.052" fill="#D1E5F4"/>
      <path d="M2.545 13.47c.007-.176.093-.27.263-.274l.17.268c.017.135.144.324-.138.316-.175-.023-.27-.13-.295-.31" fill="#B8C5DE"/>
      <path d="M3.695 10.54c.218.264.075.583.116.873a10.912 10.912 0 00-.148-.16l.032-.713z" fill="#ACBCDC"/>
      <path d="M21.19 12.157c.14-.05.226-.037.208.042a.36.36 0 01-.168.196c-.086.046-.2.023-.169-.113.015-.069.118-.116.13-.125" fill="#B1CCE7"/>
      <path d="M4.09 12.584c-.047.156.233.427-.148.465-.288-.273.003-.343.148-.465" fill="#A2B6DC"/>
      <path d="M20.471 12.896l-.142-.153a62.692 62.692 0 00-.004-.434c.432.091.095.392.146.587" fill="#92CCEB"/>
      <path d="M6.35 17.79c-.173-.544-.7-.751-1.007-1.167-.108-.192-.048-.344.102-.474.195-.104.26.113.396.18.067-.174-.12-.282-.096-.438.099-.287.35-.396.572-.54a.455.455 0 01.296-.017c.096.038.176.101.247.178.115.133.184.29.239.46.065.201.119.405.083.621a.71.71 0 01-.196.365c-.502.066-.37.518-.463.834-.058.048-.115.047-.172-.003" fill="#4A83BB"/>
      <path d="M22.196 15.61c.28.157.635.061.873.262.05.454-.925.549-.32 1.166-.095.166-.239.22-.413.207-.192-.113-.32-.301-.484-.448-.039-.16-.076-.323-.27-.134-.186-.038-.37-.077-.448-.295.008-.21.161-.402.06-.622-.044-.123-.098-.245-.016-.372a.466.466 0 01.178-.08c.284.033.59-.092.851.119a.216.216 0 01-.01.196" fill="#5389C0"/>
      <path d="M22.298 17.192l.451-.153.995 1.317c-.368.163-.686.29-1.034.316-.396.2-.6-.028-.755-.37a.581.581 0 01-.013-.316c.12-.203.097-.44.136-.663.045-.096.103-.168.22-.13" fill="#4280B9"/>
      <path d="M5.52 16.159c-.06.154-.118.31-.177.463l-.401.137c-.206 0-.317-.152-.431-.299-.011-.508-.587-.265-.727-.601l.586-.157c.359.262.232-.287.434-.287l.115-.11c-.071-.256.075-.339.273-.38.15.045.233.162.287.307.057.205.077.42.122.63a.372.372 0 01-.081.297" fill="#7FC6E1"/>
      <path d="M23.298 14.228a.497.497 0 01.289.428l-.146.296c-.208-.074-.397-.1-.502.173-.097.253-.211.037-.318.003-.158.091-.264 0-.364-.115a.59.59 0 01-.063-.206c0-.2.09-.333.265-.407.144-.054.294-.095.424-.186a.666.666 0 01.168-.072c.096-.014.18.01.247.086" fill="#8CCCE5"/>
      <path d="M1.82 14.093c-.003.045-.004.09-.003.136-.039.06-.077.06-.114-.002-.28.043-.547.21-.846.124-.438-.604.088-.592.412-.71.26.046.432.214.551.452" fill="#B3C1DC"/>
      <path d="M22.033 18.231c.186.214.315.525.677.441-.424.269-.656.495.009.795.275.124.063.242-.124.26-.368-.178-.387-.602-.577-.906-.137-.201-.166-.398.015-.59" fill="#4689BE"/>
      <path d="M1.269 13.64c-.237.174-.59.275-.412.712-.152-.023-.23-.138-.297-.265l.007-.45c.233.106.469-.27.702.004" fill="#C4D8EA"/>
      <path d="M1.703 14.227l.114.002c.178.183.462.36.03.578-.188-.156-.35-.317-.144-.58" fill="#BAC5D9"/>
      <path d="M6.35 17.79a.482.482 0 01.14-.024c.215-.048.304.086.357.271a.226.226 0 01-.083.18l-.422-.146.009-.282" fill="#89AAD0"/>
      <path d="M22.306 14.978l.314.15c-.108.193-.15.448-.424.482l-.03-.205c-.084-.19-.002-.318.14-.427" fill="#83A4CF"/>
      <path d="M4.51 16.46c.154.084.338.118.431.3-.367.256-.354-.093-.43-.3" fill="#B8E0EF"/>
      <path d="M5.23 14.975c-.156.055-.25.175-.311.33l-.261-.038c-.097-.318-.401-.53-.42-.889.376-.72.75-.078 1.125.002.102.018.17.08.215.177.029.1.023.198-.021.293-.085.11-.181.19-.327.125" fill="#98B1D5"/>
      <path d="M2.545 13.47c.1.103.197.206.295.31l-.012.304c-.224-.027-.283.204-.427.302-.288-.302-.178-.604 0-.906l.144-.01z" fill="#F7F9FA"/>
      <path d="M1.82 14.093c-.258-.052-.372-.295-.55-.453a.445.445 0 01.566-.003l-.016.456z" fill="#C4DAEB"/>
      <path d="M4.804 15.415l-.177.63c-.17-.06-.183-.225-.257-.343.096-.177.226-.298.434-.287" fill="#67ADD3"/>
      <path d="M22.588 14.527c-.163.016-.265.103-.293.276-.32.267-.38-.202-.598-.23a.864.864 0 01-.246-.144.375.375 0 01-.073-.186c.001-.16.1-.243.225-.304.198-.14.465-.178.581-.44l.41-.129.265.268c.112.18.337.328.151.591l-.002-.002c-.128.117-.313.148-.42.3" fill="#2F91CB"/>
      <path d="M20.33 14.07c.33-.032.626-.327.982-.129.092.207-.108.312-.148.474a.523.523 0 01-.105.143.338.338 0 01-.17.035 1.692 1.692 0 01-.421-.139.447.447 0 01-.18-.207.219.219 0 01.043-.177" fill="#3B96CD"/>
      <path d="M20.33 14.07c0 .052.002.104.003.155-.276.258-.533.143-.787-.045-.122-.134-.101-.265.01-.394a.214.214 0 01.197-.035c.36-.228.468.047.578.32" fill="#539FCB"/>
      <path d="M19.753 13.751a.31.31 0 01-.128.04c-.131-.15-.101-.301-.002-.453l.56-.452.006.151c.02.349-.547.304-.436.714" fill="#B6DAF0"/>
      <path d="M21.022 14.391c-.034-.242.196-.3.29-.45.097-.182.194-.017.29-.001l-.142.29c-.104.178-.225.307-.438.161" fill="#80ABD6"/>
      <path d="M5.509 14.527c-.05-.049-.097-.098-.146-.148.063-.353-.173-.477-.416-.596l-.014-.139c.053-.272.397-.311.433-.597l.01-.138c.134-.141.093-.252-.054-.348-.154-.101-.364-.13-.421-.357a.307.307 0 01.163-.239c.174-.049.324.026.475.095.29.134.509.413.844.454a.64.64 0 01.34.196c.118.14.174.298.128.485-.156.3-.254.63-.418.926a1.289 1.289 0 01-.644.49.292.292 0 01-.28-.084" fill="#D3E6F0"/>
      <path d="M4.952 12.153c.224.121.456.232.669.371.123.08.202.232.122.383-.104.195-.243.022-.367.003-.231-.208-.553-.296-.712-.599.05-.145.133-.223.288-.158" fill="#A1B7D9"/>
      <path d="M4.094 11.858l.001-.888a.198.198 0 01.186-.052c.175.065.3.181.359.37.031.11.041.222.035.335-.043.176-.022.405-.296.386l-.285-.15" fill="#ACBDDC"/>
      <path d="M4.38 12.008c.164-.11.133-.287.143-.451a.377.377 0 01.315-.095c.233.104.407.238.253.542l-.139.149c-.096.051-.193.105-.288.157a.504.504 0 01-.285-.302" fill="#C0CEE5"/>
      <path d="M5.365 13.047c.21.483-.256.424-.433.597l-.518-.42c.38-.053.688 0 .952-.177" fill="#E2EFF5"/>
      <path d="M4.235 10.97h-.14l.141-.73.28-.162.71-.295c.175-.015.336-.402.527-.021.078.327-.066.544-.323.703-.4.162-.717.544-1.195.504" fill="#B0C0DE"/>
      <path d="M5.648 9.634c-.159-.008-.212.317-.422.15.143-.346-.083-.696.01-1.042.157-.106.314-.212.513-.212a.657.657 0 01.337.16.456.456 0 01.084.167c.037.183-.057.362-.006.545.016.287.422.535.08.858a.275.275 0 01-.18.009c-.22-.154-.266-.432-.416-.635" fill="#DDEDF4"/>
      <path d="M18.934 12.44l.135.282c-.139.065-.16.185-.136.327.126.195.081.489.325.616a.347.347 0 01-.015.286c-.164.186-.374.282-.602.344a.307.307 0 01-.189-.059c-.11-.138-.158-.31-.23-.468-.094-.23-.188-.461-.074-.715.31-.137.453-.508.786-.612" fill="#8DC6E5"/>
      <path d="M19.21 13.902a26.66 26.66 0 01-.023-.281l-.032-.066.05-.052.417-.165.003.454-.145.292-.093.027c-.099-.032-.167-.094-.177-.209" fill="#B2D7EE"/>
      <path d="M19.205 13.503l-.018.118c-.526.025-.147-.393-.253-.573.184.09.268.246.27.455" fill="#3693CE"/>
      <path d="M23.01 14.229l-.15-.59c.335.04.437.273.438.589l-.287.001" fill="#61A1D2"/>
      <path d="M19.05 18.8c-.198.02-.405.113-.573-.085-.179-.236-.06-.512-.095-.77-.007-.1 0-.198.024-.295.026-.19.388-.37.017-.574-.079-.235-.184-.448-.42-.537-.035-.029-.059-.021-.066.022.03-.029.062-.03.101-.005.194.109.298.282.354.493-.008.278-.267.323-.404.482-.169.037-.23.152-.212.326-.256.173-.504.353-.696.606l-.277.08c-.237.08-.475.19-.705-.021l-.265-.444c.066-.2-.002-.342-.178-.434l-.533-.134c-.165.073-.257-.029-.337-.156-.032-.276.135-.463.266-.667.373-.461.92-.074 1.34-.305.125-.092.237-.2.362-.294.103-.07.21-.137.312-.208a.795.795 0 01.445-.158.709.709 0 01.437.166c.136.113.27.232.423.313.137.069.166-.034.196-.14a.3.3 0 01.124-.138.517.517 0 01.388.004c.255.139.473.314.58.61.07.203.13.409.036.624-.157.166-.625.116-.36.576a.932.932 0 01-.043.195c-.15.269-.164.578-.242.868" fill="#81CAE3"/>
      <path d="M8.75 17.204l-.137.148c-.347.059-.312-.214-.345-.432-.009-.2-.189-.218-.3-.309a.604.604 0 01-.192-.469.685.685 0 01.05-.209c.506-.51.938-.117 1.383.124.158.077.26.212.341.368.075.152.141.308.13.487-.038.182-.167.276-.314.354-.217.112-.415.006-.616-.062" fill="#BBDBEA"/>
      <path d="M6.78 18.081l-.29-.315c-.113-.46-.346-.992.481-.891.545-.056.842.222.935.77.074.443-.203.322-.424.29-.249-.032-.442.238-.703.146" fill="#4885BB"/>
      <path d="M7.906 17.646c-.264-.322-.533-.635-.935-.771.035-.09.07-.18.103-.271.237-.231.376-.655.828-.457l.15.464c.145.055.223.166.243.325-.139.232.273.458.008.69l-.397.02" fill="#BEDCE8"/>
      <path d="M19.207 17.936a.305.305 0 00-.002-.117c.095-.123.033-.357.254-.39.193 0 .379.043.557.122.178.126.329.29.517.403a.4.4 0 01.114.154c-.022.105-.052.195-.181.126-.418.16-.815.386-1.266.442a1.048 1.048 0 01.007-.74" fill="#4B86BC"/>
      <path d="M11.296 17.623c-.224.113-.466-.18-.686.034-.137 0-.286.088-.402-.063-.122-.197-.354-.234-.51-.387-.053-.094-.031-.194-.008-.293.07-.17.197-.254.372-.248.125.1.205.07.235-.1a.352.352 0 01.169-.052c.128.01.23.077.327.158.177.15.304.373.549.43a.47.47 0 01.16.081c.23.303.024.377-.206.44" fill="#9AD0E4"/>
      <path d="M11.296 17.623c.1-.122.297-.207.144-.424-.051-.083-.04-.155.034-.216.407-.17.714-.047.924.352a.627.627 0 01-.113.603c-.444.289-.762.144-.99-.315" fill="#84C2D8"/>
      <path d="M10.381 18.24c-.016.018-.03.036-.047.053-.203.198-.265.635-.66.51-.315-.102-.273-.458-.356-.72.21-.115.444-.1.667-.153.182-.01.36 0 .494.156.025.091-.007.143-.098.154" fill="#437DB7"/>
      <path d="M17.08 18.463c-.076-.578.357-.573.697-.675.18.128.186.356.288.53.022.139.071.3-.167.233-.273-.03-.546-.06-.818-.088" fill="#82C7E2"/>
      <path d="M15.107 16.827l-.266.5c.08.206-.043.341-.153.481a.753.753 0 01-.01.134c-.49-.106-.57-.469-.52-.914.177-.348.5-.328.805-.353.088.01.136.06.144.152" fill="#6490BE"/>
      <path d="M13.552 18.674c-.283-.024-.52-.169-.539-.464-.02-.35.287-.377.535-.425.13.037.188.134.21.264.002.153.011.304-.012.455-.034.096-.125.12-.194.17" fill="#7EBDDC"/>
      <path d="M22.033 18.231l-.015.59-.983-.29c-.06-.283.171-.307.322-.402.082-.028.167-.048.249-.073.104-.038.188-.115.286-.163a.145.145 0 01.142.059l-.001.28" fill="#71A0CC"/>
      <path d="M13.661 17.38c-.282-.032-.587-.274-.826.098-.186.143-.348.17-.45-.101.307-.552.801-.488 1.288-.413.196.03.263.176.195.377a.172.172 0 01-.207.04" fill="#C2934E"/>
      <path d="M21.471 18.23l-.436.3c-.243.016-.46-.028-.569-.296l.146-.15a.384.384 0 01.172-.127.866.866 0 01.427-.02c.138.046.286.084.26.292" fill="#5297C7"/>
      <path d="M9.89 18.074c-.189.159-.38.135-.572.01-.163-.098-.152-.268-.162-.429.083-.1.195-.064.297-.074.138-.01.275-.057.412 0 .05.036.086.085.108.144.033.133.012.25-.084.35" fill="#759FCA"/>
      <path d="M17.898 18.551c.103-.056.133-.115.012-.188a.16.16 0 01.01-.177c.182-.123.371-.228.591-.251.213.27-.105.515-.033.78-.19-.066-.42.025-.58-.164" fill="#7DC2DF"/>
      <path d="M6.78 18.081c.246.018.363-.655.702-.145-.01.736-.498.132-.718.28.006-.044.011-.09.015-.135" fill="#608ABF"/>
      <path d="M9.32 19.13c.11.239.262.588-.078.636-.348.049-.14-.472-.343-.65.144-.123.284-.101.422.014" fill="#417AB1"/>
      <path d="M9.462 17.788l-.305-.133a1.07 1.07 0 01-.406-.452c.18-.167.372.065.555-.013.153.036.222.15.25.302a.477.477 0 01-.094.296" fill="#98BBD8"/>
      <path d="M14.248 17.07c-.02.38.238.608.43.872-.045.143-.158.156-.276.16-.168-.093-.252-.272-.38-.41a.572.572 0 01-.125-.268c.038-.204.049-.44.35-.354" fill="#95CCE4"/>
      <path d="M13.552 18.674l.15-.146c.057-.145.118-.288.275-.344a.17.17 0 01.155.066c-.1.282.1 1.016-.58.424" fill="#5FA4CE"/>
      <path d="M12.386 17.363c.115.19.286.14.45.114-.101.263-.281.423-.551.461l-.006-.567c.03-.074.066-.077.107-.008" fill="#A4C7D0"/>
      <path d="M14.133 18.25c-.05-.008-.1-.016-.148-.022a.341.341 0 01-.106-.175c-.014-.197.046-.348.24-.41.193.087.283.242.284.46l-.27.147" fill="#81BADA"/>
      <path d="M19.207 17.936c.087.247.05.494-.007.74l-.151.125c-.118-.322-.2-.638.158-.865" fill="#7DC2DF"/>
      <path d="M10.381 18.24a.168.168 0 00.038-.13c-.048-.11-.149-.19-.168-.317a.227.227 0 01.06-.165c.104-.037.211-.118.3.029.06.254.322.595-.23.583" fill="#DFEDF3"/>
      <path d="M16.098 18.522l.705.021c-.237.046-.492.787-.705-.02" fill="#5790C3"/>
      <path d="M8.303 17.627c.001-.246-.185-.463-.105-.722.085-.093.167-.093.245.01-.104.214-.078.373.17.436-.01.207-.119.293-.31.276" fill="#3D82BA"/>
      <path d="M13.661 17.38l.154-.013a.278.278 0 01.107.177c.041.185-.017.358-.052.534-.064.043-.125.036-.182-.015l-.14-.278.113-.405" fill="#7CA5CB"/>
      <path d="M14.687 17.808l.153-.481c.094.06.188.122.281.184-.03.28-.239.279-.434.297" fill="#699AC9"/>
      <path d="M15.656 17.645c.118-.028.266-.17.343.016.069.163-.046.305-.166.416-.101-.125-.18-.26-.177-.432" fill="#ADD4E8"/>
      <path d="M9.32 19.13l-.421-.012c-.02-.086-.12-.208-.007-.253.223-.09.344.071.429.265" fill="#5785BC"/>
      <path d="M7.902 16.148c-.358-.013-.473.46-.828.456l-.12-.6c.134-.131.02-.305.067-.45.07-.112.165-.197.263-.281.196-.14.365-.09.517.082.036.058.06.12.073.187.042.154-.097.321.03.47-.002.045-.002.09-.002.136M17.832 19.67c-.358-.013-.473.462-.828.457l-.121-.6c.135-.132.02-.304.068-.45.069-.113.165-.198.263-.28.196-.141.366-.091.517.081a.531.531 0 01.073.186c.043.154-.097.321.03.47-.002.046-.002.09-.002.136" fill="#8CCDE5"/>
      <path d="M5.52 16.159l-.03-.293c.045-.14.139-.202.278-.19.04.026.059.059.056.095-.004.04-.011.06-.022.06.073.09.15.179.22.272.15.204.17.447-.043.568-.321.183-.303-.13-.35-.334-.014-.065-.071-.118-.11-.178" fill="#3A7AB5"/>
      <path d="M5.802 15.83a.71.71 0 00-.02-.11c-.121-.114-.172-.262-.202-.424a.47.47 0 01.02-.19c.115-.188.298-.203.483-.213.06.002.117.019.17.047.176.132.128.322.117.501-.117.246-.355.3-.568.39" fill="#81C9E3"/>
      <path d="M6.37 15.441a62.277 62.277 0 01-.167-.463c-.044-.136.032-.18.141-.2.223.087.43.192.474.475a.316.316 0 01-.206.208 18.782 18.782 0 01-.242-.02" fill="#C6E4F0"/>
      <path d="M6.613 15.46l.165-.193c.24-.185.425-.118.565.142-.051.132-.162.153-.277.166-.101.082-.207.07-.314.014a15.425 15.425 0 01-.14-.128" fill="#CCE6F0"/>
      <path d="M6.752 15.589l.314-.014c.05.168.236.377-.113.43l-.201-.416" fill="#A0D1E7"/>
      <path d="M21.913 17.95c-.025.114-.023.247-.17.282-.18-.158-.413-.253-.534-.483-.07-.311-.356-.587-.14-.945.263-.245.561-.146.854-.092.264.04.404.188.375.48l-.127.165c-.024.227-.35.31-.258.593" fill="#FAFCFD"/>
      <path d="M21.751 14.394c.325-.074.228.47.543.41l.011.174-.138.427c-.283.015-.565.118-.849.01-.117-.126-.066-.25.005-.373.172-.193.223-.477.428-.648" fill="#7AB6D9"/>
      <path d="M21.035 16.9c.12.285.321.545.275.889-.136.073-.252.009-.367-.061a.497.497 0 01-.169-.254 1.48 1.48 0 01-.047-.319 3.019 3.019 0 01-.005-.33c.01-.193.025-.383.163-.53.104-.068.206-.07.304.013.074.218.342.085.437.264-.17.161-.435.135-.59.327" fill="#98CFE6"/>
      <path d="M21.19 16.308l-.304.007a2.407 2.407 0 00-.09-.043c-.166-.163-.196-.348-.085-.557.203-.095.406-.14.61-.005.263.273.1.444-.131.598" fill="#7DC5E1"/>
      <path d="M21.322 15.71c-.185-.001-.368.154-.553.006-.09-.07-.104-.164-.086-.272a.38.38 0 01.195-.218c.151-.023.25.043.301.19l.143.294" fill="#78BADC"/>
      <path d="M21.035 16.9c.105-.293.354-.298.591-.327.145-.062.267-.069.297.14l-.888.186" fill="#BCDFEF"/>
      <path d="M21.18 15.416l-.285-.15c-.061-.172.026-.278.148-.37a.413.413 0 01.412.024c.06.063.063.127.007.194-.114.065-.142.176-.143.3a2.046 2.046 0 01-.14.002" fill="#66A5D0"/>
      <path d="M21.913 17.95c-.225-.347.137-.413.258-.593-.056.195.313.499-.137.595l-.06-.005-.06.003z" fill="#9BD3E8"/>
      <path d="M5.653 15.278c.166.108.13.28.13.442-.099.048-.196.098-.294.146-.177-.164-.11-.38-.118-.58.091-.126.188-.008.282-.008" fill="#5C8DC1"/>
      <path d="M5.653 15.278c-.09.152-.188-.001-.282.007l-.14-.31.275-.15c.127.055.21.135.146.296l.001.157" fill="#B7C8E1"/>
      <path d="M22.588 14.527c.012-.298.217-.298.42-.3-.073.203-.209.31-.42.3" fill="#599ED1"/>
      <path d="M5.652 15.12c-.048-.099-.097-.196-.146-.294l.003-.298.274-.01c.472-.116.42.14.289.45l-.42.152" fill="#8BCCE4"/>
      <path d="M21.022 14.391l.438-.162c.004.047.005.093.005.14.107.15.122.307.019.467-.286.095-.473.03-.471-.33.002-.038.005-.077.009-.115" fill="#709ECC"/>
      <path d="M21.458 14.82l.007-.452.286.026c-.006.28-.067.536-.29.72l-.002-.143c-.052-.034-.07-.066-.052-.1.017-.033.033-.05.05-.05" fill="#639CCB"/>
      <path d="M21.035 14.971l-.14.296-.156.157c-.357.054-.656.42-1.062.218-.096-.213-.098-.436-.071-.664.107-.484.464-.567.858-.59.159.005.332-.046.452.123-.184.217.205.27.119.46" fill="#7BBEDB"/>
      <path d="M20.464 14.388c-.139.313-.626.14-.695.548a.375.375 0 01-.25.184c-.14.03-.28.023-.419-.002a1.07 1.07 0 01-.385-.158.503.503 0 01-.137-.156c-.069-.262.103-.387.263-.519.18-.182.42-.142.635-.193l.004-.008c.286.03.55.222.853.141l.131.163" fill="#84C7E1"/>
      <path d="M21.035 14.971c-.097-.137-.313-.24-.12-.46a.39.39 0 00.099-.004c.09.193.226.317.444.313l.001.15-.424.001" fill="#629AC9"/>
      <path d="M6.35 14.08c.09-.324.092-.692.409-.902.165-.168.064-.428.193-.608.097-.21.028-.438.067-.656.103-.176.256-.192.427-.146.16.072.244.217.318.369.066.147.178.267.217.43a.627.627 0 01-.09.375.715.715 0 01-.122.15 1.078 1.078 0 01-.242.133 1.023 1.023 0 00-.487.358c-.146.158-.193.356-.204.569a.22.22 0 01-.112.144c-.182.038-.31-.027-.373-.216" fill="#9FB5D8"/>
      <path d="M6.353 12.6c-.466.237-.541-.348-.847-.446-.115-.13-.07-.234.043-.33a1.07 1.07 0 01.56.011c.226.205.639.345.244.765" fill="#D8E9F1"/>
      <path d="M6.35 14.08l.38.146c.228.444-.01.566-.376.598l-.151.153a5.166 5.166 0 00-.131-.008c.007-.224-.012-.43-.29-.452.19-.146.38-.29.569-.437" fill="#AFD2E5"/>
      <path d="M6.353 12.6c.22-.38-.221-.479-.283-.738.023-.027.046-.05.069-.076a.543.543 0 01.48-.018.756.756 0 01.334.338c.005.174.016.348-.011.522-.087.1-.2.12-.32.12l-.27-.148" fill="#D3E9F2"/>
      <path d="M5.648 11.86c-.114.062-.14.173-.142.293-.138-.05-.276-.098-.414-.149a.502.502 0 00-.286-.448c-.046-.133.032-.184.133-.22.172-.016.329.044.485.11.146.094.296.188.224.413" fill="#E6F1F6"/>
      <path d="M6.622 12.747l.282-.153c.053-.046.104-.042.153.005-.028.234-.082.453-.297.58l-.138-.432" fill="#B0CDE5"/>
      <path d="M5.359 11.555l-.417-.142c-.124-.104-.32.024-.423-.144l-.284-.3c.38-.188.69-.53 1.13-.592.097.019.159.08.199.172.034.12.044.246.06.372a.853.853 0 01-.016.376c-.036.135-.135.204-.25.258" fill="#ACBEDC"/>
      <path d="M4.518 11.269c.158-.007.32-.024.423.145l-.135.141-.284.001c0-.095-.003-.19-.004-.287" fill="#D8E0EE"/>
      <path d="M5.498 10.531l-.133-.154a.748.748 0 00.283-.742c.23.129.41.296.422.594.097.176.004.313-.085.45a.323.323 0 01-.16.075c-.173.028-.199-.18-.327-.223" fill="#CEE1EF"/>
      <path d="M6.203 10.222c.316-.346-.446-.53-.119-.878.112-.197.318-.266.483-.392.101-.07.205-.135.33-.145a.261.261 0 01.16.081l.045.006c.115.21.002.4-.043.598-.106.369.288.689.098 1.066-.069.143-.178.212-.33.197-.266-.104-.513-.232-.624-.533" fill="#B0C0E0"/>
      <path d="M6.203 10.222c.212.129.478.184.577.466.048.15.05.303.061.458a.225.225 0 01-.195.176.831.831 0 01-.274-.065c-.143-.2-.617-.126-.448-.589.05-.146.098-.293.146-.439l.133-.007" fill="#ABBDDC"/>
      <path d="M6.91 8.887a36.98 36.98 0 01-.271.161.551.551 0 01-.568-.154v-.143c.048-.17.168-.248.322-.283.282-.01.52.04.518.419" fill="#E3F2F7"/>
      <path d="M6.07 8.894c.209-.022.394.047.569.154-.144.182-.337.265-.554.296-.186-.143.035-.3-.014-.45" fill="#CCE1EE"/>
      <path d="M6.34 8.59l-.268.161c-.107-.015-.218-.02-.267-.149.134-.107.19-.33.41-.31.04-.002.078-.003.116-.006.093.099.107.198.01.303" fill="#C0C1C5"/>
      <path d="M5.66 8.896c.034.11.08.18.062.22-.024.05-.097.076-.149.113-.017-.043-.056-.094-.045-.128.017-.057.065-.105.132-.205" fill="#E4F2F8"/>
      <path d="M16.652 9.934l-.011.286c-.156.112-.007.207.013.31.07.234-.081.318-.243.396a.563.563 0 01-.298-.005c-.381-.222-.667.213-1.023.167a1.375 1.375 0 01-.461-.16c-.41-.49-.784-.483-1.554.03-.17.11-.343-.016-.514.011-.193.079-.381.18-.598.15-.697-.204-.697-.204-1.013.656-.15.336-.438.405-.748.426-.125.027-.275.031-.17.242.299.325.014.751.18 1.1-.193.357-.581.527-.775.886-.087.146-.127.324-.27.431a.214.214 0 01-.188-.056c-.126-.186-.145-.412-.213-.619a2.485 2.485 0 01-.024-.868c.368-.435.062-1.109.485-1.526.22-.26.57-.385.68-.754.196-.351.308-.757.606-1.041a.85.85 0 01.253-.173c.612-.06 1.12-.382 1.63-.705.296.01.592.057.882-.044.51.047.994-.114 1.486-.205.07-.004.14.001.212.01.189.034.339.12.399.328.187.132.374.266.56.4.132.222.412.136.57.302.049.007.098.016.147.025" fill="#FDEABB"/>
      <path d="M16.379 10.82a.47.47 0 00.275-.29l.573.292c.272.181.469.419.53.762-.02.52-.425.628-.775.796a.461.461 0 01-.214.007c-.187-.064-.281-.22-.353-.399-.07-.21-.071-.432-.096-.65-.022-.178-.086-.363.06-.518" fill="#E9CF9E"/>
      <path d="M18.085 11.999c-.014-.162-.052-.33.12-.44.101-.086.201-.077.3.01-.119.432.442.496.43.872-.14.321-.302.614-.7.607a.248.248 0 01-.089-.168c.024-.296-.12-.582-.06-.881" fill="#96CBE3"/>
      <path d="M18.505 11.568l-.301-.008a.588.588 0 00.004-.145c.207-.082-.214-.826.428-.446l.015.446-.146.153" fill="#B3D8E8"/>
      <path d="M18.244 12.892l-.01.155c-.103.267.12.463.14.704.076.224.033.47.113.694a.835.835 0 01-.032.228c-.2.323-.154.734-.344 1.06-.177.195-.43-.04-.613.122l-.42.162c-.291.154-.392-.064-.495-.28a.495.495 0 01.02-.322c.055-.079.12-.164.209-.178.604-.097.627-.493.47-.986a.792.792 0 01.014-.212c.155-.363.162-.792.45-1.093.157-.12.317-.201.498-.054" fill="#C89F69"/>
      <path d="M19.476 14.092l-.55.296c-.168.084-.302.099-.296-.165.154-.186.356-.275.58-.32.089.063.178.125.266.189" fill="#3E97CD"/>
      <path d="M18.63 14.223c.06.132.175.154.296.165-.1.143-.318.195-.305.428-.159.088-.284.106-.28-.147l.008-.134c.107-.074.03-.262.176-.312a1.75 1.75 0 01.105 0" fill="#579ED0"/>
      <path d="M18.525 14.223l-.175.312.024-.783c.185.109.114.31.15.471" fill="#6C675D"/>
      <path d="M16.66 15.42l-.001.286c.019.165.1.305.158.455a.468.468 0 01-.303.285c-.091.001-.175-.029-.26-.06-.233-.086-.428.022-.624.13-.254.003-.502.023-.654.285-.186.258-.557-.034-.728.27-.188.061-.262.211-.286.401-.044.073-.089.07-.135.001a1.91 1.91 0 00-.012-.106c-.258-.47-.648-.252-.996-.197-.15.023-.289.126-.433.193a.901.901 0 00-.107.007c-.217-.29-.517-.319-.835-.291-.136-.129-.139-.285-.093-.455a.556.556 0 01.23-.262c.57-.26 1.14.069 1.709.007.065-.012.132-.015.198-.012.173.026.343.076.514.122.167.045-.012-.086.038-.11 0-.198.103-.29.281-.308a.877.877 0 00.546-.108c.05-.03.103-.058.155-.084.128-.065.239-.164.374-.214a.717.717 0 01.177-.01c.28-.042.4-.306.593-.466.193-.158.359-.402.656-.22.074.203-.049.33-.162.46" fill="#C4934C"/>
      <path d="M19.073 14.978l.406-.013c.215.41-.076.702-.215 1.031a.165.165 0 01-.195.044l-.434-.012a.318.318 0 01-.203-.168.486.486 0 01-.026-.19l.027-.093a.617.617 0 01.122-.15c.179-.14.33-.32.518-.45" fill="#5688C0"/>
      <path d="M14.976 16.802c.093-.422.43-.328.703-.365.192-.276.436-.243.695-.133l.141.142c-.103.25-.262.281-.506.2-.319-.109-.644-.108-.903.181l-.062-.03-.068.005z" fill="#C2934E"/>
      <path d="M18.512 17.935c-.12.265-.331.319-.584.278-.13-.28-.095-.532.113-.756.215-.1.369-.036.468.184.002.097.003.195.003.294" fill="#4982BC"/>
      <path d="M19.45 17.512l-.246.307c.059-.243-.126-.416-.207-.678l.623.053c.105-.089.208-.08.31.008-.023.337-.207.4-.48.31" fill="#B7DFEE"/>
      <path d="M18.51 17.64l-.437-.143c-.055.063-.104.055-.15-.01-.013-.318.328-.249.43-.437.05-.056.097-.051.14.007.23.188.266.382.017.584" fill="#6D9AC8"/>
      <path d="M18.497 15.869c.046.052.091.106.137.157 0 .045-.002.09-.004.134a.34.34 0 01-.279.15c-.2-.004-.338-.107-.424-.293.04-.163.166-.214.298-.262a.3.3 0 01.272.114" fill="#9ECAE3"/>
      <path d="M19.068 16.04c.044-.01.088-.019.132-.024.137-.127.283-.141.44-.045.143.185.148.384.048.592-.057.079-.125.091-.205.039.013-.311-.339-.324-.415-.562" fill="#97B3D7"/>
      <path d="M18.494 17.057a.888.888 0 00-.14-.007l-.424-.45c-.048-.032-.064-.064-.048-.096.015-.033.03-.049.048-.049.348.035.522.25.564.602" fill="#9ED5E9"/>
      <path d="M17.923 17.486l.15.011c-.136.22-.156.464-.145.715l-.018.153c-.179-.159-.108-.38-.133-.577-.042-.149-.107-.31.146-.302" fill="#548EC2"/>
      <path d="M19.483 16.602l.164-.029a.158.158 0 01.163.029c.1.152.204.301.274.472-.02.103-.063.171-.178.121l-.286-.001c.025-.215-.044-.406-.137-.592" fill="#C4E4F0"/>
      <path d="M18.237 15.856l-.31.16-.428-.16c.152-.2.385-.1.572-.175a.14.14 0 01.162.006.157.157 0 01.004.17" fill="#C7E4ED"/>
      <path d="M18.35 16.31c.06-.12.164-.15.28-.15.032.103.109.285.087.3-.166.107-.267-.032-.366-.15" fill="#9DD1E7"/>
      <path d="M16.817 16.16c-.145-.115-.29-.232-.158-.454.146.095.2.326.42.31-.054.114-.152.142-.262.145" fill="#A59C7D"/>
      <path d="M17.93 16.455v.146c-.114.065-.227.133-.34.198-.012-.04-.043-.085-.032-.116.064-.177.209-.22.372-.228" fill="#9FD5E9"/>
      <path d="M7.905 16.012c-.37-.046-.092-.31-.141-.463.123-.19.154-.455.395-.553.242-.091.462-.267.742-.217.07.07.146.136.196.226.018.238.019.446.258.625.37.278.09.423-.175.527-.426-.033-.796-.615-1.275-.145" fill="#C5E1EC"/>
      <path d="M9.18 16.157c.007-.147.435-.324.085-.4-.659-.142-.38-.457-.23-.79-.045-.042-.056-.076-.032-.103.02-.023.04-.034.06-.034a.563.563 0 00.095-.001c.63.152.509.732.614 1.184-.041.198-.018.447-.316.444l-.276-.3" fill="#BAD6DF"/>
      <path d="M9.455 16.457c.167-.106.13-.29.156-.45.334.017.565.265.844.408a.16.16 0 01-.007.184c-.045.015-.089.031-.133.048a.259.259 0 01-.155.09l-.45.177c-.052.057-.087.05-.102-.03l-.153-.427" fill="#B5A78C"/>
      <path d="M9.608 16.884l.103.03.047.288a.175.175 0 01.02.175c-.08.1-.167.185-.304.105-.056-.096-.113-.194-.168-.293l.302-.305" fill="#4E84BB"/>
      <path d="M8.444 16.916l-.246-.012a39.901 39.901 0 00-.146-.293c.32-.168.413-.013.392.305" fill="#6DA8D0"/>
      <path d="M20.464 18.083c-.156-.116-.399-.133-.42-.404-.104-.169-.004-.27.111-.367.162-.05.275.031.373.152a.612.612 0 01.073.212.47.47 0 01-.137.407" fill="#6AAFD4"/>
      <path d="M20.187 17.344l-.145.335c-.19-.08-.435.045-.592-.167.205-.02.372-.103.456-.317l.133-.137c.06-.047.121-.045.183-.003.05.104.053.203-.035.29" fill="#A6D5E9"/>
      <path d="M20.464 18.083l.014-.445c.334-.051.37.008.276.442a6.5 6.5 0 01-.143.005l-.147-.002" fill="#3E80B9"/>
      <path d="M10.448 16.599l-.009-.147a.29.29 0 01.165-.205.489.489 0 01.179-.007c.092.013.183.031.274.044.157.066.423-.01.38.318l.007.476c.001.04 0 .08-.005.12l-.154.032c-.192-.139-.32-.363-.55-.453l-.287-.178z" fill="#C7A271"/>
      <path d="M9.723 17.344c.01-.047.023-.094.036-.143.315-.044.575-.01.552.428a1.98 1.98 0 00-.005.133c-.208.19-.316.065-.4-.136l-.024.013c-.082-.08-.22-.129-.16-.295" fill="#E5F1F5"/>
      <path d="M10.735 16.777c.303-.01.437.207.55.453-.313.023-.383-.28-.55-.453" fill="#A6D0DD"/>
      <path d="M10.16 16.737c.051-.03.103-.062.155-.091.05.104.111.213-.009.302-.044.033-.114.03-.172.041.01-.084.017-.168.026-.252" fill="#C2DFE3"/>
      <path d="M9.906 17.625c.125.07.237.187.399.139.123.084.152.202.114.346a95.59 95.59 0 00-.53-.035l.017-.45z" fill="#97BEDC"/>
      <path d="M13.688 18.063l.164.004c.054-.051.094-.039.124.029a.819.819 0 00.008.13c-.094.102-.189.202-.283.302-.072-.152-.242-.302-.013-.465" fill="#508DC0"/>
      <path d="M21.05 17.635l.26.154c.185.104.33.25.434.442a23.662 23.662 0 00-.273-.002c-.056-.135-.166-.15-.286-.145-.154-.114-.328-.22-.135-.449" fill="#A1C5DF"/>
      <path d="M21.05 17.635l.135.449-.431-.003c-.14-.116.045-.452-.275-.442l-.027-.15c.148-.13.294-.117.439.006l.159.14" fill="#3578B4"/>
      <path d="M9.723 17.344l.16.295c-.14.05-.281.099-.421.15l.012-.306.248-.139" fill="#5F8EC1"/>
      <path d="M13.976 18.096l-.124-.028-.024-.595h.134l.158.17-.144.453" fill="#A9D2E8"/>
      <path d="M6.354 14.824c.22-.135.416-.285.378-.598l.063.008c.118-.152.28-.225.453-.278.25-.048.499-.086.688.158.066.209-.004.425.026.637.015.236.118.504-.203.618-.14.005-.3-.207-.416.04l-.566-.141c-.084-.208-.39-.183-.423-.444" fill="#4682B9"/>
      <path d="M7.759 15.368c.158-.181.102-.365.005-.549.08-.08.175-.093.278-.059.117.084.208.18.13.347-.164.117-.162.407-.408.442l-.005-.18" fill="#83ABD1"/>
      <path d="M20.173 17.046a1.922 1.922 0 00-.134.011c-.278-.024-.282-.233-.275-.448.172-.366.473-.42.816-.372.249.146.165.468.315.665l-.01.312c-.286.174-.5.006-.712-.168" fill="#8ACCE5"/>
      <path d="M20.173 17.046c.26-.055.47.131.713.168 0 .093.003.187.005.281a4477.8 4477.8 0 00-.44-.006l-.263-.145-.015-.298" fill="#5E90C2"/>
      <path d="M20.894 16.902a.847.847 0 01-.28-.588c.081-.1.175-.087.272-.03v.03l.008.588" fill="#BFDDED"/>
      <path d="M20.887 16.285l-.273.03-.85.294-.117-.036-.02-.581c-.094-.172-.092-.292.142-.282.292-.213.545-.572.97-.286l.03.292a.761.761 0 00.118.569" fill="#578BC1"/>
      <path d="M6.34 8.59l-.008-.303c.658-.353.595.253.725.602l-.146-.002c-.105-.28-.334-.297-.57-.298" fill="#CCE1EE"/>
      <path d="M19.768 15.71c-.11.059-.144.16-.142.282l-.426.023c-.06-.394.266-.677.278-1.05l.29-.027v.772" fill="#5381B0"/>
      <path d="M18.247 15.716c-.06-.012-.118-.022-.177-.035.052-.348-.15-.774.27-1.012.067.107.165.148.282.148l.154.005c.242.389-.038.555-.282.736l.007.03a.394.394 0 00-.11.133c-.05.042-.098.042-.144-.005" fill="#81CBE4"/>
      <path d="M18.494 15.558c.134-.228.34-.425.282-.735.098.053.197.103.296.154-.073.326-.236.553-.578.581" fill="#92CDE5"/>
      <path d="M6.492 11.12c.048.048.098.099.146.15.308.154.766.073.845.59-.154.006-.322-.03-.423.146a.248.248 0 01-.14.144l-.285-.29c-.173-.15-.516-.06-.564-.343-.05-.287.288-.25.421-.398" fill="#B0C2E1"/>
      <path d="M7.483 11.86c-.188-.344-.693-.19-.844-.59l.145-.18a.247.247 0 01.178-.028c.206.076.4.18.597.278.243.163.537.283.527.669-.12.158-.207.368-.461.296l-.142-.446" fill="#9BAFD5"/>
      <path d="M7.205 14.074c-.094.176-.257.154-.41.16-.237-.304-.183-.546.138-.735.376-.17.373.103.381.362a.61.61 0 01-.109.213" fill="#3477B3"/>
      <path d="M7.778 12.913l.13-.31c.07-.154.07-.367.298-.383a.41.41 0 01.2.06c.193.192.378.423.231.699-.12.227-.378.092-.579.088a.474.474 0 01-.28-.154" fill="#4C7BB5"/>
      <path d="M7.199 13.933c-.011-.198.027-.428-.266-.435.1-.27.332-.361.56-.458.155.21.045.44.053.662-.066.161-.135.317-.348.23" fill="#5686BC"/>
      <path d="M8.194 12.251l-.286.352-.283-.298c.146-.09.201-.322.42-.298.05-.047.103-.056.163-.02.054.09.058.18-.014.264" fill="#90A8D1"/>
      <path d="M7.468 13.653c-.238-.215.078-.405.026-.612l.274-.003.075.087c.078.196.074.38-.064.55-.108.058-.212.057-.31-.022M9.447 20.38c-.237-.215.078-.405.026-.612.092 0 .183-.002.275-.003l.074.088c.078.197.074.381-.064.55-.107.057-.212.056-.31-.023" fill="#81C2DF"/>
      <path d="M6.92 12.15l.14-.144c.196.2.2.397-.002.594l-.153-.005a.448.448 0 01.015-.444" fill="#B4C6E2"/>
      <path d="M7.778 12.913l.27.006c.038.057.035.112-.01.165-.09.042-.173.045-.24-.046h-.03a.43.43 0 01.01-.124" fill="#6C5B2F"/>
      <path d="M5.359 11.555l.149-.288c.298-.102.353.192.499.338.065.072.124.146.064.252l-.001.005c-.141.035-.282.233-.422-.003a80.994 80.994 0 00-.29-.304" fill="#CEE6F1"/>
      <path d="M6.071 11.857l-.14-.148c-.082-.244-.185-.474-.426-.593a1.776 1.776 0 010-.146c.075-.12.17-.22.285-.297.045 0 .09-.002.135-.005.063.325.35.339.567.45-.455.354-.118.54.143.741-.188 0-.376 0-.564-.002" fill="#BDCCE5"/>
      <path d="M5.79 10.673c-.005.195-.096.297-.285.297-.08-.144-.104-.29-.007-.439.194-.17.164.164.292.142" fill="#E5F0F6"/>
      <path d="M5.505 11.116c.368.02.439.274.427.593l-.424-.442-.003-.151" fill="#D4E4F0"/>
      <path d="M10.869 11.686c.176-1.023.297-1.097 1.138-.71.317.188.464.014.552-.284l.414.26.06.074a.348.348 0 01-.033.188c-.198.243-.367.514-.601.727-.251.104-.564.125-.605.506-.024.156-.14.255-.213.382-.064.209.025.431-.05.639-.062.18-.142.342-.316.43-.44.11-.872.193-1.066-.408-.415-.24.138-.772-.275-1.011-.072-.19.053-.28.167-.375.305-.077.747.15.828-.418" fill="#F6D47A"/>
      <path d="M10.149 13.49c.306.416.744.276 1.143.299l.053.083.01.099c-.023.32-.097.645.105.94.069.13.1.266.068.414-.28.548-.611.4-.956.082-.156-.228-.402-.33-.611-.484-.194-.212-.54-.227-.648-.547.145-.434.524-.626.836-.886" fill="#E5BD6A"/>
      <path d="M9.312 14.376c.222.17.58.104.71.438.043.29.41.153.484.404.027.125-.003.249-.007.374.037.241.347.449.082.726l-.142.135c-.367.037-.61-.175-.828-.446-.08-.423-.106-.868-.454-1.178.027-.16-.003-.343.155-.453" fill="#D6B582"/>
      <path d="M12.973 10.952c.149-.3.274-.594.71-.446.27.092.41-.265.665-.348.117.228.233.455.35.68.117.073.213.16.2.322-.345.529-.847.312-1.308.301-.114-.272-.406-.305-.591-.483l-.027-.026z" fill="#F5D378"/>
      <path d="M15.099 10.986c.355.067.564-.718.999-.19.37.503.133.98-.054 1.46a.277.277 0 01-.17.107c-.361-.21-.953-.15-.904-.845.04-.178.044-.366.129-.532" fill="#F4D176"/>
      <path d="M8.04 13.008a.669.669 0 00.007-.09c.176-.06.35-.012.527.082.024-.347-.206-.498-.274-.726-.102-.409.204-.607.4-.863.058-.037.12-.048.188-.037.226.094.392.249.445.511-.1.185-.377.352-.188.587.344.43-.024.547-.247.738a.612.612 0 01-.315.139c-.242-.005-.47-.039-.542-.341" fill="#BB8A3B"/>
      <path d="M15.948 12.3c.018-.504.302-.98.15-1.504.094.008.187.015.28.024.046.149.09.3.136.451-.093.245-.134.49.009.732l.277.3c.06.351-.196.413-.42.503-.29-.029-.42-.213-.432-.506" fill="#E5BD69"/>
      <path d="M10.637 10.089c-.343.246-.278.766-.615 1.02-.309.446-.532.204-.748-.103l-.021-.111.02-.112c.245-.38.514-.73.969-.847.152-.007.294.013.395.153" fill="#BB8A3B"/>
      <path d="M10.637 10.089l-.473-.015a.176.176 0 01-.042-.173.82.82 0 01.157-.237c.13-.137.251-.287.426-.367a.186.186 0 01.169.053l-.141.62-.096.119" fill="#BB8A3B"/>
      <path d="M8.618 13.217l.28-.006.007 1.005c.067.109.063.22.011.334a.274.274 0 01-.312.005 3.562 3.562 0 01.014-1.338" fill="#5E7FA5"/>
      <path d="M10.869 11.686c.005.734-.52.39-.842.457-.043-.026-.057-.05-.041-.071.015-.021.03-.032.046-.032.3-.063.666.045.837-.354" fill="#E9BC51"/>
      <path d="M15.099 10.986c.1.14.09.283.007.426-.265.084-.188-.196-.283-.293l-.126-.281.402.148" fill="#E8B946"/>
      <path d="M12.559 10.691c-.007.472-.2.55-.553.285.254.053.399-.125.553-.285" fill="#EDC66A"/>
      <path d="M8.886 14.547l.019-.33c.196.163.125.401.158.612a.503.503 0 00-.029.138l-.147-.139c-.081-.093-.077-.188-.001-.281" fill="#A5A7A1"/>
      <path d="M10.032 12.04l-.006.103-.153.335c-.43-.34-.033-.348.16-.438" fill="#EEC668"/>
      <path d="M16.372 12.747l.428-.444.14.001c.299.155.53.375.648.71.02.321-.35.455-.33.774.054.158.026.325.05.486.015.381-.184.588-.51.692-.461.08-.643.536-.968.801-.123.101-.256.31-.301-.053-.098-.208-.174-.42-.085-.655.116-.23.339-.265.544-.333.372-.258.205-.587.109-.907-.074-.153-.133-.308-.101-.486.072-.232.207-.42.376-.586" fill="#D8AE5E"/>
      <path d="M17.513 13.044c-.149-.283-.502-.39-.572-.74.182-.3.707-.243.702-.74l.442.435c.14.28.398.539.158.892l-.458.153c-.09.085-.181.092-.272 0" fill="#DDBE8B"/>
      <path d="M16.523 12.003c-.264-.24-.18-.486-.01-.732l.01.732" fill="#DBAD55"/>
      <path d="M16.8 14.966c.102-.27.433-.392.425-.733.046-.074.093-.076.142-.005.321.893.321.893-.707 1.192l.14-.454" fill="#C4914A"/>
      <path d="M17.513 13.044h.272c-.198.315-.075.771-.41 1.028-.112-.082-.137-.26-.296-.29-.176-.454.413-.412.434-.738" fill="#DBBA85"/>
      <path d="M17.08 13.782c.281-.11.248.134.295.289l-.008.157c-.048.002-.095.003-.142.006-.048-.152-.097-.3-.146-.452" fill="#D1A24F"/>
      <path d="M10.729 7.117c.179.342-.076.456-.284.593-.282-.051-.6.12-.845-.15.358-.036.53-.317.706-.593l.423.15" fill="#9B642B"/>
      <path d="M10.87 16.452l-.14-.138c-.108-.142-.072-.296-.038-.45.547-.144 1.063-.53 1.667-.24.202.177.344.431.67.44.186.006.414.086.382.388-.612.355-1.223-.184-1.834 0-.236-.119-.47-.249-.707 0" fill="#D3A658"/>
      <path d="M13.41 16.452c-.137-.176-.326-.32-.53-.268-.435.114-.46-.149-.457-.47l.085-.088c.54-.199 1.088-.134 1.636-.044.156.063.247.189.297.351a.28.28 0 01-.041.227c-.181.002-.275.1-.286.288-.185.12-.371.11-.56.01-.047-.003-.095-.005-.143-.006" fill="#D8AB5C"/>
      <path d="M15.393 15.714l-.284.294c-.178-.162-.517-.039-.598-.373.236-.321.54-.377.89-.25.062.11.071.22-.008.329" fill="#D8AE5E"/>
      <path d="M10.87 16.452c.236-.527.471-.305.707 0l-.14.15c-.15-.216-.373-.124-.567-.15" fill="#C89649"/>
      <path d="M14.4 16.16v-.156c.192-.376.378-.224.563.006-.164.15-.304.397-.563.15" fill="#D1A457"/>
      <path d="M14.964 16.01c-.187-.076-.373-.269-.563-.006-.115-.059-.135-.168-.136-.287.09-.082.182-.097.278-.01.24-.007.458.034.567.301a6.863 6.863 0 01-.146.002" fill="#CC9941"/>
      <path d="M16.374 16.304c-.243-.017-.478.007-.695.134.164-.438.42-.338.695-.134" fill="#BD863D"/>
      <path d="M15.393 15.714l-.01-.298c-.086-.17-.092-.298.144-.292-.065.196.15.393.002.59l-.068-.001h-.068z" fill="#CD9A3E"/>
      <path d="M13.555 16.457l.559-.01c-.182.317-.371.156-.56.01" fill="#C48F3B"/>
      <path d="M18.247 15.716a.365.365 0 00.112-.005c.046-.053.09-.049.135.004l.003.154-.26-.012a.233.233 0 01.01-.141" fill="#4D75A0"/>
      <path d="M18.494 15.715c-.046 0-.09-.001-.136-.004l.143-.122a1.332 1.332 0 00-.008.126" fill="#588DC2"/>
      <path d="M8.886 14.547l.001.281c-.235.1-.438.294-.714.279l-.138-.296c-.026-.118.039-.186.123-.243.147-.068.293-.144.457-.058l.271.037M12.777 19.866l.002.281c-.236.1-.439.294-.715.278l-.137-.295c-.027-.118.038-.187.122-.243.147-.069.293-.144.458-.058l.27.037" fill="#9FCEE5"/>
      <path d="M10.73 15.86v.454l-.148.004c-.01-.188.04-.396-.221-.463-.192-.048-.204-.164-.055-.298.194.019.437-.035.425.303" fill="#CA9845"/>
      <path d="M7.468 13.653l.302-.016c.341.085.535.253.326.645a.227.227 0 01-.185-.056c-.2-.23-.469-.111-.706-.152a2.208 2.208 0 01-.007-.14l.27-.281z" fill="#789AC8"/>
      <path d="M7.91 14.226c.047.003.093.007.139.012.164.09.284.199.138.407l-.151.166-.272.007c.02-.205-.064-.439.147-.592" fill="#3F7DBE"/>
      <path d="M8.187 14.645a48.29 48.29 0 00-.139-.408c.073-.285-.15-.418-.278-.6l.027-.598.244-.032c.162.161.373.175.577.21.192.43.2.862-.003 1.293l-.428.135" fill="#427CB5"/>
      <path d="M14.823 11.12l.283.292c-.18.66.62.46.704.888.045.456-.273.618-.578.79a5.44 5.44 0 00-1.019-.535c-.932-.625-1.409-.471-1.826.593-.24.266-.393.598-.61.883-.178.057-.344.06-.477-.103a6.436 6.436 0 01-.008-.139l.142-.439c.147-.201.053-.405.002-.608l.283-.283c-.016-.518.357-.528.694-.586.043-.38.307-.57.578-.757.356-.202.533.045.705.308.31-.369.851.201 1.127-.305" fill="#FDDB7E"/>
      <path d="M12.413 11.873c-.286.124-.575.243-.694.587-.144-.686.298-.607.694-.587" fill="#E9BB49"/>
      <path d="M13.696 11.424c-.214-.155-.406-.365-.704-.308a.792.792 0 01.006-.138c.333-.023.656-.032.698.446" fill="#EABC4A"/>
      <path d="M11.436 12.742c.203.203.2.407-.001.608.064-.202-.14-.406 0-.608" fill="#EBC052"/>
      <path d="M11.3 13.928l.553.006c.064-.052.128-.05.19.004.154.332.26.68.312 1.048-.131.365-.46.294-.725.36a.252.252 0 01-.195-.08c-.002-.12-.027-.23-.14-.294-.114-.34-.098-.683-.008-1.026l.013-.018z" fill="#E6BE68"/>
      <path d="M11.435 15.267l.14-.001c.213-.004.424.018.632.054.204.036.37.125.217.393l-.001.001c-.417.054-.87-.15-1.245.235-.132.137-.301-.031-.447-.089-.142-.1-.284-.202-.425-.303l.15-.298c.046-.064.088-.06.126.009.285.156.569.557.853-.001" fill="#D9AE5F"/>
      <path d="M10.582 15.268a4.986 4.986 0 01-.125-.008c-.065-.235-.548-.02-.435-.447.174.17.544.07.56.455" fill="#CF9E49"/>
      <path d="M11.287 13.946l.008 1.027c-.226-.341-.217-.684-.008-1.027" fill="#D9A944"/>
      <path d="M15.246 13.058l.564-.758h.138c.14.15.282.3.424.447.062.28-.128.424-.28.592-.256.338-.308.892-.873.9-.116-.14-.126-.306-.117-.48.02-.181.076-.36.07-.547a.216.216 0 01.074-.154" fill="#E9C16C"/>
      <path d="M15.255 14.228c.344-.23.438-.718.837-.89l.143.446c-.043.347.106.723-.141 1.038l-.566.303c-.117.059-.135.172-.144.29-.278.105-.596.08-.841.292l-.278.01-1.841-.004c-.118-.494-.68-.058-.848-.447.168-.279.543-.011.708-.298.262-.157.539-.167.826-.095.09.033.172.08.25.138.205.201.413.357.666.072.15-.16.343-.243.539-.318.05-.026.102-.047.153-.068a.505.505 0 00.24-.204c.026-.05.057-.097.089-.142a.311.311 0 01.208-.123" fill="#DEB362"/>
      <path d="M16.094 14.823c.057-.345-.13-.726.14-1.039.124.372.41.768-.14 1.039" fill="#D5A851"/>
      <path d="M10.023 6.391a.262.262 0 00-.122-.033c-.222.009-.259.12-.159.31.176 0 .273-.088.281-.277M14.51 8.61l-.275-.15c-.158.007-.311.003-.417-.15-.11-.004-.212-.026-.27-.139l-.701-.285-.277.126a1.057 1.057 0 01-.418-.412l.007-.062a1.788 1.788 0 01-.014-.128l-.282-.296-.147.016c-.148-.028-.32.014-.424-.15l-.547-.176c-.214-.028-.493-.278-.567.18.11.159.268.23.441.271.119.029.237.027.355.014-.112.28.014.482.213.662.208.093.402.221.63.262l.04-.03.016.298.232-.123c.337.34.73.6 1.127.855.552.277 1.043-.114 1.566-.161l-.287-.421M11.489 8.765l-.032.008v-.012l-.585-.164-.137-.297-.285-.434c.012-.013.025-.024.037-.038a.228.228 0 00-.076-.19c-.252-.227-.555.11-.811-.078l-.271-.143c.02-.05.017-.101-.012-.153-.301.033-.551-.026-.673-.368-.154-.435-.485-.561-.894-.535a.464.464 0 00-.132.004c.013.283.176.4.419.478.319.104.457.365.436.715.048.05.107.077.175.075.053-.01.107-.018.16-.024.213.087.338.265.37.541a.556.556 0 00.564.198.571.571 0 01.053-.048c.094.013.179.049.229.149.082.21.14.443.38.512a.182.182 0 00-.003.104c.074.148.176.258.34.289h.013c-.097.2-.191.398-.02.615.673.005 1.25-.223 1.694-.772-.152-.529-.606-.337-.94-.432M9.326 10.968c-.001-.046 0-.093.002-.14l-.004-.005c.063-.205.002-.372-.15-.51a.478.478 0 00-.162-.05c-.112-.36-.511.03-.679-.182.054-.147-.012-.25-.118-.337a.144.144 0 00-.168.036l-.478-.127.011-.034c.033-.21-.086-.33-.236-.43l-.145-.291a2.996 2.996 0 01-.097-.004c-.064.196-.126.392-.189.589a.732.732 0 00.301.363.38.38 0 00.129.01c.031.24.332.194.424.369.066.09.156.105.254.087.015-.004.03-.011.044-.018l.125.376.28.3v.002l.143.292.15.161a.56.56 0 01.133-.01l-.01-.027a.269.269 0 01.016-.006l-.006.034c.093.21.248.358.437.469.176-.313.725-.26.689-.777-.29.275-.481-.002-.696-.14" fill="#675128"/>
      <path d="M12.26 13.183c-.034-.563.26-.955.712-1.117.462-.167.957-.117 1.29.374.087.097.233.167.14.344a.428.428 0 01-.271.102c-.242.002-.452-.213-.71-.116-.352.078-.545.453-.897.532-.105.002-.197-.028-.264-.119" fill="#D2AE51"/>
      <path d="M12.26 13.183l.307.01c.16.147.236.368.404.51.066.08.107.171.115.277-.004.112-.041.207-.138.267-.33-.066-.672-.086-.955-.311l-.14-.002c-.181-.44.135-.582.407-.75" fill="#CFAB4F"/>
      <path d="M14.403 12.72l-.14-.28c.387.1.812.135.983.618 0 .045 0 .09.003.136-.075.077-.163.09-.26.06-.128-.079-.21-.222-.36-.272-.112-.052-.215-.113-.226-.261" fill="#D2A940"/>
      <path d="M11.992 13.936c.354.006.74-.105.985.297l.072.055c.096.16.153.333.162.523a.271.271 0 01-.083.16c-.28-.071-.564.167-.844-.003-.26-.293-.315-.651-.292-1.032" fill="#BD9847"/>
      <path d="M13.129 14.971l.007-.169c.097-.154.245-.217.405-.262.226-.067.482.015.69-.15.11-.122.155-.28.206-.433.039-.116.072-.235.099-.358a.578.578 0 01.173-.321.373.373 0 01.255-.085c.095 0 .19 0 .285.002.223.148.043.295-.003.442-.17.223.022.52-.137.745v-.003a.647.647 0 01-.426.448h.003c-.18.12-.427.026-.587.209-.26.208-.55.03-.823.076l-.147-.14" fill="#C19A48"/>
      <path d="M15.109 14.383c.03-.252-.097-.536.137-.746l.009.592c-.05.05-.097.101-.146.154" fill="#C99B39"/>
      <path d="M13.276 15.112c.249-.257.562-.092.842-.14.043.032.057.068.045.102-.013.035-.027.054-.04.054-.292.594-.571.372-.847-.016" fill="#BD9341"/>
      <path d="M14.122 15.127c0-.052-.003-.105-.004-.155.15-.216.371-.13.567-.145l-.563.3" fill="#CD9D3D"/>
      <path d="M14.683 14.827l.426-.448c.028.328-.11.482-.426.448" fill="#C2943B"/>
      <path d="M12.99 13.933a10.971 10.971 0 00-.16-.156c-.195-.592.312-.807.563-1.16.304-.316.481.137.733.134.3.207.535.45.461.875-.276.348-.496.174-.708-.08-.13-.095-.253-.093-.369.029-.155.149-.146.567-.52.358" fill="#F5C958"/>
      <path d="M13.393 12.617c-.043.463-.54.685-.563 1.16-.302-.088-.273-.34-.264-.583.242-.248.46-.532.827-.577" fill="#FCE7B5"/>
      <path d="M14.545 13.636l-.419-.885c.092-.01.185-.019.277-.03l.262.21c.155.093.228.221.157.41l-.149.29c-.04.055-.083.057-.128.005" fill="#F9E2AB"/>
      <path d="M14.545 13.636a.437.437 0 00.128-.006c.008.123-.008.236-.12.308-.127.115-.153.327-.332.395-.26.1-.54.074-.804.147-.2.028-.333-.07-.424-.247h-.016l.012-.3c.397.01.18-.48.432-.586.184.31.366.3.548-.001.142.205.26.466.576.29" fill="#E9BB50"/>
      <path d="M14.823 13.341a49.195 49.195 0 00-.157-.41c.425-.322.247.114.299.261l-.142.15" fill="#D0AC52"/>
      <path d="M14.24 14.235c.068-.142.16-.255.313-.298.026.217-.056.403-.153.583-.266.193-.597-.03-.866.147-.124.072-.238.18-.398.135-.096-.176-.177-.357-.143-.569l.435.12c.259-.13.559.052.812-.118" fill="#E9CD9A"/>
      <path d="M13.534 14.667c.257-.257.582-.066.866-.147-.253.28-.576.108-.866.147" fill="#CE9E3D"/>
      <path d="M13.969 13.345c-.021.24.104.596-.311.562-.349-.027-.233-.336-.236-.56.182-.134.364-.127.547-.002" fill="#A47F2C"/>
      <path d="M14.24 14.235c-.241.263-.537.11-.812.118.247-.227.541-.084.812-.118" fill="#DBAA43"/>
      <path d="M7.194 7.121c.282.31.278.725.685.7.042-.003.122-.117.11-.143-.133-.282-.298-.533-.795-.557M8.33 8.15l-.141.003c.14.347.433.295.706.296-.107-.269-.323-.31-.565-.298M10.165 9.338a.187.187 0 00-.117-.044c.101-.19.011-.31-.167-.4l-.846-.296.002.148a.898.898 0 01.421.444.404.404 0 00.092.275c.092.08.185.135.287.06.004.13.087.2.187.257l.144.15.158-.131-.16-.463" fill="#FDEABB"/>
    </g>
    <path d="M18.563 5.816c-1.204-1.831-3.665-3.267-6.255-3.267-4.216 0-7.69 3.45-7.614 7.61.03 1.667.385 3.141 1.333 4.39C9.013 5.69 16.832 6.1 18.864 6.195l-.301-.379z" fill-opacity=".5" fill="#FFF"/>
  </g>
</svg>
