<!--
  ~  (c) 2018-2020 Cloudera, Inc. All rights reserved.
  ~
  ~    This code is provided to you pursuant to your written agreement with Cloudera, which may be the terms of the
  ~   Affero General Public License version 3 (AGPLv3), or pursuant to a written agreement with a third party authorized
  ~   to distribute this code.  If you do not have a written agreement with Cloudera or with an authorized and
  ~   properly licensed third party, you do not have any rights to this code.
  ~
  ~    If this code is provided to you under the terms of the AGPLv3:
  ~    (A) CLOUDERA PROVIDES THIS CODE TO YOU WITHOUT WARRANTIES OF ANY KIND;
  ~    (B) CLOUDERA DISCLAIMS ANY AND ALL EXPRESS AND IMPLIED WARRANTIES WITH RESPECT TO THIS CODE, INCLUDING BUT NOT
  ~        LIMITED TO IMPLIED WARRANTIES OF TITLE, NON-INFRINGEMENT, MERCHANTABILITY AND FITNESS FOR A PARTICULAR PURPOSE;
  ~    (C) CLOUDERA IS NOT LIABLE TO YOU, AND WILL NOT DEFEND, INDEMNIFY, OR HOLD YOU HARMLESS FOR ANY CLAIMS ARISING
  ~        FROM OR RELATED TO THE CODE; AND
  ~    (D) WITH RESPECT TO YOUR EXERCISE OF ANY RIGHTS GRANTED TO YOU FOR THE CODE, CLOUDERA IS NOT LIABLE FOR ANY
  ~        DIRECT, INDIRECT, INCIDENTAL, SPECIAL, EXEMPLARY, PUNITIVE OR CONSEQUENTIAL DAMAGES INCLUDING, BUT NOT LIMITED
  ~        TO, DAMAGES RELATED TO LOST REVENUE, LOST PROFITS, LOSS OF INCOME, LOSS OF BUSINESS ADVANTAGE OR
  ~        UNAVAILABILITY, OR LOSS OR CORRUPTION OF DATA.
  ~
  -->
<svg viewBox="0 0 24 24" xmlns="http://www.w3.org/2000/svg" width="1em" height="1em">
  <g fill-rule="nonzero" fill="none">
    <path d="M15.3 8.413l1.74-1.728.115-.728c-3.168-2.864-8.204-2.54-11.06.678A7.974 7.974 0 004.4 9.792l.622-.087 3.477-.57.269-.273c1.546-1.689 4.162-1.916 5.947-.48l.586.031z" fill="#EA4335"/>
    <path d="M19.516 9.741a7.78 7.78 0 00-2.36-3.784l-2.44 2.426a4.302 4.302 0 011.591 3.42v.43c1.2 0 2.172.967 2.172 2.16 0 1.192-.972 2.134-2.172 2.134h-4.349l-.427.461v2.59l.427.406h4.35c3.119.024 5.668-2.446 5.692-5.547a5.607 5.607 0 00-2.484-4.696" fill="#4285F4"/>
    <path d="M7.615 19.984h4.343v-3.457H7.615c-.31 0-.61-.066-.89-.194l-.617.188-1.75 1.729-.153.588a5.658 5.658 0 003.41 1.146" fill="#34A853"/>
    <path d="M7.615 8.77C4.495 8.79 1.982 11.32 2 14.42a5.604 5.604 0 002.205 4.418l2.52-2.505a2.154 2.154 0 01-1.086-2.856 2.177 2.177 0 013.958 0l2.52-2.505a5.654 5.654 0 00-4.502-2.201" fill="#FBBC05"/>
  </g>
</svg>
