<!--
  ~  (c) 2018-2020 Cloudera, Inc. All rights reserved.
  ~
  ~    This code is provided to you pursuant to your written agreement with Cloudera, which may be the terms of the
  ~   Affero General Public License version 3 (AGPLv3), or pursuant to a written agreement with a third party authorized
  ~   to distribute this code.  If you do not have a written agreement with Cloudera or with an authorized and
  ~   properly licensed third party, you do not have any rights to this code.
  ~
  ~    If this code is provided to you under the terms of the AGPLv3:
  ~    (A) CLOUDERA PROVIDES THIS CODE TO YOU WITHOUT WARRANTIES OF ANY KIND;
  ~    (B) CLOUDERA DISCLAIMS ANY AND ALL EXPRESS AND IMPLIED WARRANTIES WITH RESPECT TO THIS CODE, INCLUDING BUT NOT
  ~        LIMITED TO IMPLIED WARRANTIES OF TITLE, NON-INFRINGEMENT, MERCHANTABILITY AND FITNESS FOR A PARTICULAR PURPOSE;
  ~    (C) CLOUDERA IS NOT LIABLE TO YOU, AND WILL NOT DEFEND, INDEMNIFY, OR HOLD YOU HARMLESS FOR ANY CLAIMS ARISING
  ~        FROM OR RELATED TO THE CODE; AND
  ~    (D) WITH RESPECT TO YOUR EXERCISE OF ANY RIGHTS GRANTED TO YOU FOR THE CODE, CLOUDERA IS NOT LIABLE FOR ANY
  ~        DIRECT, INDIRECT, INCIDENTAL, SPECIAL, EXEMPLARY, PUNITIVE OR CONSEQUENTIAL DAMAGES INCLUDING, BUT NOT LIMITED
  ~        TO, DAMAGES RELATED TO LOST REVENUE, LOST PROFITS, LOSS OF INCOME, LOSS OF BUSINESS ADVANTAGE OR
  ~        UNAVAILABILITY, OR LOSS OR CORRUPTION OF DATA.
  ~
  -->
<svg viewBox="0 0 24 24" xmlns="http://www.w3.org/2000/svg" width="1em" height="1em">
  <path d="M8 13.5c2.737 0 6 1.215 6 7h-2c0-4.336-2.046-4.973-3.878-5H8c-1.862 0-4 .568-4 5H2c0-5.785 3.263-7 6-7zm9 1.125c3.037 0 4.907 2.195 4.997 5.616L22 20.5h-1.725c0-.968-.143-4.125-3.275-4.125-.748 0-1.411.206-1.99.526a7.73 7.73 0 00-.721-1.633A5.898 5.898 0 0117 14.625zm0-8A3.379 3.379 0 0120.375 10 3.379 3.379 0 0117 13.375 3.379 3.379 0 0113.625 10 3.379 3.379 0 0117 6.625zm0 1.75c-.896 0-1.625.729-1.625 1.625s.729 1.625 1.625 1.625 1.625-.729 1.625-1.625S17.896 8.375 17 8.375zM8 3.5c2.206 0 4 1.794 4 4s-1.794 4-4 4-4-1.794-4-4 1.794-4 4-4zm0 2c-1.103 0-2 .897-2 2s.897 2 2 2 2-.897 2-2-.897-2-2-2z" fill="currentColor" fill-rule="evenodd"/>
</svg>
