<!--
  ~  (c) 2018-2020 Cloudera, Inc. All rights reserved.
  ~
  ~    This code is provided to you pursuant to your written agreement with Cloudera, which may be the terms of the
  ~   Affero General Public License version 3 (AGPLv3), or pursuant to a written agreement with a third party authorized
  ~   to distribute this code.  If you do not have a written agreement with Cloudera or with an authorized and
  ~   properly licensed third party, you do not have any rights to this code.
  ~
  ~    If this code is provided to you under the terms of the AGPLv3:
  ~    (A) CLOUDERA PROVIDES THIS CODE TO YOU WITHOUT WARRANTIES OF ANY KIND;
  ~    (B) CLOUDERA DISCLAIMS ANY AND ALL EXPRESS AND IMPLIED WARRANTIES WITH RESPECT TO THIS CODE, INCLUDING BUT NOT
  ~        LIMITED TO IMPLIED WARRANTIES OF TITLE, NON-INFRINGEMENT, MERCHANTABILITY AND FITNESS FOR A PARTICULAR PURPOSE;
  ~    (C) CLOUDERA IS NOT LIABLE TO YOU, AND WILL NOT DEFEND, INDEMNIFY, OR HOLD YOU HARMLESS FOR ANY CLAIMS ARISING
  ~        FROM OR RELATED TO THE CODE; AND
  ~    (D) WITH RESPECT TO YOUR EXERCISE OF ANY RIGHTS GRANTED TO YOU FOR THE CODE, CLOUDERA IS NOT LIABLE FOR ANY
  ~        DIRECT, INDIRECT, INCIDENTAL, SPECIAL, EXEMPLARY, PUNITIVE OR CONSEQUENTIAL DAMAGES INCLUDING, BUT NOT LIMITED
  ~        TO, DAMAGES RELATED TO LOST REVENUE, LOST PROFITS, LOSS OF INCOME, LOSS OF BUSINESS ADVANTAGE OR
  ~        UNAVAILABILITY, OR LOSS OR CORRUPTION OF DATA.
  ~
  -->
<svg viewBox="0 0 24 24" xmlns="http://www.w3.org/2000/svg" width="1em" height="1em">
  <g fill="none" fill-rule="evenodd">
    <path d="M12.89 4.646c-.167-.466-5.907-2.745-5.98-2.494-1.055.28-1.484 1.52-2.209 2.306l-1.61-.094c-.71.931-1.082 1.883-.828 2.871.909 1.258 1.964 2.328 2.622 3.907.052.745 3.156.078 3.822-.069-.91.664-1.7 1.694-1.36 4.659.31 1.392.522 2.947 3.276 4.522.363.207 1.113.446 1.577.62.444.209.962.294 2.426-.163.847-.373 1.761-.597 2.59-.969l-.996.048c-1.372.03-2.43.135-2.758-.256L12.2 17.309l.736-1.46c1.019.107 1.357.95 2.254 1.272l1.058-.8c3.074 1.851 4.297-1.174 4.647-3.531-.037-.959-2.034.3-1.913-.148.047-1.03-.776-2.379-1.307-3.43l.615-2.43c.28-.254-1.293-2.958-2.576-3.296-1.126-.295-2.824 1.16-2.824 1.16z" fill="#FDEE21"/>
    <path d="M20.544 12.537c1.17.39-1.04 6.264-4.21 4.06l-.164-.122-.854.616c-.69-.31-.732-.429-.709-.528l.018-.063.537-1.373c1.297 1.078 2.925 2.733 4.537.087a4.393 4.393 0 00.85-2.165c.028-.133.073-.261.035-.408a.282.282 0 01-.09.081c-.833.764-1.232.382-1.439.15.332.14.79.1 1.426-.235.036-.026.071-.037.092-.033l-.029-.067zm-5.865 2.697l-.027.042a.087.087 0 01.022-.038l.005-.004zm.274-.416l.601.083c-.18.013-.65.168-.83.295l-.045.038.274-.416zm1.68-2.987c.025.127.071.247.06.386l-.019.108.316.2c-.612.063-1.267.038-1.72.452l-.108.113.235-.524c-.06-.153-.087-.446-.057-.43.017.01-.114-.024-.182-.036l-.03-.004 1.506-.265zm1.306-2.018c.456.712.803 1.455.962 2.252l.05.301-.273.621c-.24-.093-.562-.191-.739-.291.12-.152.192-.309.175-.424-.01-.063-.03-.098-.12-.147.202.044.418.044.635.041.074-.037.158-.051.046-.553-.064-.136-.128-.272-.199-.408l-.111-.204-.599-.223c.092-.032.203-.038.208-.189-.025-.198-.024-.515-.035-.776zm-1.702.706c-.485.151-.949.4-1.26.927.238-.87.286-.837.363-.88.332-.152.604-.057.897-.047z" fill="#C8C037"/>
    <path d="M8.807 11.107c-.597 1.174-.875 3.282-.598 4.849.223.872.228 2.342 1.657 3.13.7.401.51.714.983 1.091.519.413 1.964.805 2.8.545-.586.66-1.893-.05-2.979-.412-2.759-1.791-3.298-3.477-3.335-5.13-.142-2.37.57-3.747 1.472-4.073zm-.954-5.425l3.266.8c2.206.086 2.016.642 3.406 3.29-.993-1.436-2.388-1.975-3.961-2.033.315-.105.63-.16.946-.315.077-.083.052-.229.023-.377-1.515-.404-2.47-.903-3.68-1.365zm7.733 3.395v.003-.003zM6.704 2.162c2.866.668 5.558 1.786 7.97 3.628.35.903.6 1.807.81 2.79l.102.497-.219-.324c-.658-.996-1.321-2.12-2.19-2.863-2.33-1.073-4.634-1.87-7.335-2.596l.862-1.132zm8.967 1.353c.814.215 1.664.793 2.81 3.074l-.905 2.234c.095-.816.275-2.124.068-2.64-.575-.788-1.153-1.602-1.732-2.357-.096-.091-.165-.215-.24-.311zm-.867.411c.3.083.506-.015 1.12.553l.967 1.872.174.841s-.411-.941-.612-1.3c-.464-.526-.698-1.504-1.65-1.966z" fill="#FCF6A0"/>
    <path d="M6.68 2.001c1.566.126 3.276.753 3.551 1.015.574.267 1.108.55 1.553.793.067.04.428.325 1.176.707.338-.219.627-.59.993-.83.234-.153.526-.224.866-.296.28-.054 1.092.036 1.298.129.738.34 1.14.882 1.612 1.575.208.322.365.627.497.9.131.272.312.549.309.756.004.116-.08.201-.144.354-.215.606-.405 1.103-.514 1.794-.011.091-.05.225-.064.383-.003.025.01.086.01.086s.231.216.326.298c.22.21.351.74.396.81.173.337.422.786.612 1.213.023.045.075.306.027.846-.001.007-.126.01-.2.014.624.074.857-.252 1.487-.428.177-.039.383.242.54.514.112.133-.286 2.475-1.544 3.96-.989.846-2.413.644-3.287-.011-.295.422-.559.9-1.775.531-.365-.245-.408-.584-.568-.92-.237.058-.407.024-.797-.02-.129.002-.184.009-.281.207l.32.49c.12.139.231.42.972.742.088.044.33.03.33.023l-.076.025c-.364.12-.866-.114-.87-.103-.391-.125-.686-.37-.918-.662.018.26.025.544.115.798.067.192.104.24.159.383.03.041.161.061.32.124.061.023.264.097.383.111.354.043.755-.004.755-.004-.23.241-.907.203-1.212.176.124.24.245.515.324.716.05.129.04.128.736.204-.325.03-.536.12-.61.122-.054.001.03.173.053.203.09.091.218.126.35.149l.2.03c.848.085 2.701-.071 2.701-.071s-2.087.75-3.112 1.066a2.961 2.961 0 01-1.16.082c-1.893-.434-3.3-1.5-4.038-2.413l-.007-.007a4.915 4.915 0 01-.187-.251 5.547 5.547 0 01-.568-1.117c-.24-.672-.4-1.259-.476-1.967a12.65 12.65 0 01-.005-.066l-.01-.036c-.111-1.537.109-2.531.871-3.646.082-.13.301-.229.33-.331-.229.091-.484.191-.77.263-.292.103-.642.16-.939.217-.215.023-.443.029-.609.027-.383-.034-.813-.035-1.124-.102-.143-.033-.132-.032-.186-.14-.148-.338-.284-.821-.469-1.173-.244-.543-.586-.913-1.18-1.505-.667-.715-1.363-1.642-1.09-2.768.133-.441.451-1.142.703-1.512.229-.28.464-.369.711-.232.28.036.38.01.533.002.324-.019.582-.149.673-.23.46-.345.76-.81 1.21-1.286.273-.285.526-.535.788-.71zm6.563 17.86l.065-.027c-.86.426-1.781.357-2.654.375.522.305 1.072.53 1.634.62.317.055 1.85.263 1.172-.64-.01-.02-.168-.19-.24-.382l.023.054zm-5.459-2.797c.211.503.474 1.105.748 1.422.03.033.063.065.095.098.848.424 2.247 1.056 4.267.743a16.672 16.672 0 01-.502-.812l.078-.001c-1.564.065-3.424-.69-4.605-1.4zm-.361-3.793l-.003.02c-.136.659-.126 1.328-.053 1.943.984.78 1.399 1.646 4.422 2.352l.297.066c0-.264.05-.564.117-.782l.042-.12.007-.015.047.007c-2.565-.291-4.479-2.364-4.876-3.471zm2.26-2.49a3.574 3.574 0 00-1.262.55.289.289 0 00-.095.087l-.016-.104c.212 1.443.496 2.537 1.725 3.453.746.548 1.487 1.094 2.385 1.546.051-.13.097-.24.139-.327l-.01.021-.131-.07c-.357-.21-.453-.391-.731-.752-.784-1.347-1.572-2.82-1.976-4.289zm5.878 4.121c-.568-.003-.553-.002-.943.389-.005-.141.03-.304.265-.474 0-.019.61.061.678.085zm4.943-2.194c-.173.14-.19.273-.702.432-.373.09-.583-.062-.759-.267.266.077.309.283 1.022.052l.439-.217zm-3.778-.924c-.09.023-.176.046-.265.076.036.01.167.491.063.506-.028.005.438.136.438.136-.484.035-.962-.001-1.42.167l-.196.086.247-.206c-.01.053-.095-.327-.063-.483.008-.042-.432.024-.432.024.577-.38.962-.484 1.628-.306zm-.46-1.27c-.604.088-.754.114-1.132.54.056-.164.064-.34.191-.515.31-.07.63-.064.94-.025zm-5.952-4.008c.968.033 2.038-.022 2.766.216.584.53.774 1.528 1.073 2.197-.324-.26-.613-1.182-1.104-1.373-.455-.04-.622-.185-1.22-.06.217-.112.422-.254.652-.33.157-.037.303.004.452.025.037-.017.061-.04.052-.073-.602-.38-1.837-.385-2.67-.602zm5.612-2.03c.134.012.857 1.179.89 1.373.06.424.209.9.249 1.344a14.634 14.634 0 00-.41-1.278c-.048-.117-.168-.382-.501-.757a1.66 1.66 0 01-.204-.556l-.024-.126zm0 0zm-.069 11.715c-.08.06-.159.113-.26.334-.05.087-.114.143-.165.148-.227.03-.477-.023-.748-.211.038.108.272.234.426.353-.151.008-.375-.007-.437-.094-.23-.328-.196-.43-.15-.506.235-.321.538-.648.621-1.107.256.39.644.77 1.105 1.137l-.012.01.012-.01c.508.266.995.674 1.873.582l.195-.028c.822-.127 1.401-1.042 1.919-2.06.249-.58.412-1.214.46-1.76.003-.038-.023-.533-.28-.512-.383.03-.365.229-.808.326-.27-.017-.617.02-.634-.014l.005.002-.025.015c-.124.35-.258.702-.394 1.03-.322.385-.185.166-.667.765.154-.243.355-.477.46-.73.074-.167.166-.344.207-.492-.128-.065-.39-.07-.426-.047-.428.259-.506.532-.758.798.183-.3.34-.625.552-.895.024-.034.181-.041.278-.062-.15-.026-.428-.081-.45-.079-.28.069-.437.318-.645.483.151-.223.29-.456.483-.648.02-.022.539.024.808.134l.005.11.153.062.112-.289-.112-.017a15.75 15.75 0 00-.415-.168l-.2-.079.115-.006c.039-.133.07-.292.138-.33.08-.131-.12-.126-.184-.187l.213.053c.233.002.506-.015.568.194l.012.08.086-.045c-.005-.248.031-.54-.122-.793a9.777 9.777 0 01-.365-.708l-.341-.101h.293c-.181-.384-.367-.815-.43-1.075-.034-.143-.125-.157-.125-.157l-.007.091c-.003.09.004.177.002.312 0 0-.29-.662-.222-1.19-.001-.13.339-1.094.399-1.235a5.57 5.57 0 00.175-.699c.06-.315.007-.487-.124-.749-.546-1.068-1.453-2.08-1.8-2.357-.033-.032-.337-.093-.43-.144-.09-.04.114.2.114.2-.13.123-.673-.483-1.625-.046-.216.082-.358.22-.513.341-.162.127-.343.327-.49.478.008.044.102.108.275.21.458.27 1.205.853 1.384 1.083.064.068.3 1.37.534 2.206.073.261.632.556.632.556-.125.015-.427-.081-.554-.13-.02.104.102.684.102.684s-.127-.281-.272-.974c-.202-.682-.423-1.388-.727-2.042-.298-.424-1.319-1.211-1.657-1.325-.386-.224-.79-.41-1.234-.657-1.095-.598-2.479-1.492-4.677-1.847-.238.026-.347.09-.627.214-.612.59-.782 1.247-1.713 1.805.027.075.084.118.176.131.619.129 1.599.767 2.475 1.258 0 0-1.167-.552-2.05-.888-.35-.133-.688-.178-.85-.206-.355-.069-.81-.079-1.27-.087-.44.461-.7.92-.86 1.484-.057.61.046.82.086 1.025.159.69.728 1.342 1.393 2.017.185.188.374.369.535.59l.007.009c.277.415.36 1.19.665 1.623.048.046.814-.01 1.263.053.194.027.394.026.597.001.624-.16 1.03-.31 1.52-.456.215-.119.976-.403 1.203-.455v.005l.399-.127c.703-.214 1.376-.356 2.042-.5-.174.707-.261 1.144-.088 2.52.107.425.89.749 1.479.9-.282.495-.772 1.274.289 2.131.149.23.264.487.394.732h-.002c.329.894 1.105.995 1.789.382l.101-.098z" fill="#000"/>
    <path d="M18.17 12.4s.232-.026.265.093a.437.437 0 01-.057.237c-.037.02-.283.003-.293-.05-.02-.06.03-.247.086-.28zm-2.533-.193c.054-.065.303-.079.353.021a.4.4 0 01.014.215.421.421 0 00-.313.097c-.056.057-.097-.28-.054-.333z" fill="#FFF"/>
  </g>
</svg>
