<!--
  ~  (c) 2018-2020 Cloudera, Inc. All rights reserved.
  ~
  ~    This code is provided to you pursuant to your written agreement with Cloudera, which may be the terms of the
  ~   Affero General Public License version 3 (AGPLv3), or pursuant to a written agreement with a third party authorized
  ~   to distribute this code.  If you do not have a written agreement with Cloudera or with an authorized and
  ~   properly licensed third party, you do not have any rights to this code.
  ~
  ~    If this code is provided to you under the terms of the AGPLv3:
  ~    (A) CLOUDERA PROVIDES THIS CODE TO YOU WITHOUT WARRANTIES OF ANY KIND;
  ~    (B) CLOUDERA DISCLAIMS ANY AND ALL EXPRESS AND IMPLIED WARRANTIES WITH RESPECT TO THIS CODE, INCLUDING BUT NOT
  ~        LIMITED TO IMPLIED WARRANTIES OF TITLE, NON-INFRINGEMENT, MERCHANTABILITY AND FITNESS FOR A PARTICULAR PURPOSE;
  ~    (C) CLOUDERA IS NOT LIABLE TO YOU, AND WILL NOT DEFEND, INDEMNIFY, OR HOLD YOU HARMLESS FOR ANY CLAIMS ARISING
  ~        FROM OR RELATED TO THE CODE; AND
  ~    (D) WITH RESPECT TO YOUR EXERCISE OF ANY RIGHTS GRANTED TO YOU FOR THE CODE, CLOUDERA IS NOT LIABLE FOR ANY
  ~        DIRECT, INDIRECT, INCIDENTAL, SPECIAL, EXEMPLARY, PUNITIVE OR CONSEQUENTIAL DAMAGES INCLUDING, BUT NOT LIMITED
  ~        TO, DAMAGES RELATED TO LOST REVENUE, LOST PROFITS, LOSS OF INCOME, LOSS OF BUSINESS ADVANTAGE OR
  ~        UNAVAILABILITY, OR LOSS OR CORRUPTION OF DATA.
  ~
  -->
<svg viewBox="0 0 24 24" xmlns="http://www.w3.org/2000/svg" width="1em" height="1em">
  <g fill="none" fill-rule="evenodd">
    <path d="M8.223 16.27c0-.012-.086-.073-.189-.136a3.045 3.045 0 01-.43-.351c-.134-.13-.256-.236-.27-.236-.073 0-.256.1-.485.27-.657.482-.888.578-1.936.8-.52.112-.704.175-.947.324-.337.206-.409.24-.63.297a2.077 2.077 0 01-.432.057c-.3 0-.333.094-.05.143.165.03.421.014.752-.045.132-.024.396-.093.587-.154.411-.13.726-.195 1.594-.331 1.02-.16 1.431-.245 1.885-.39.29-.092.553-.211.551-.248m-2.736-.57c.065.065.18.059.328-.017a.505.505 0 00.155-.111c.12-.2-.36-.178-.49.02-.034.054-.033.069.007.109m.291-.73c-.009.285.147.299.941.085.308-.082.617-.184.712-.234a1.17 1.17 0 00.484-.522c.048-.095.137-.22.198-.276.061-.056.111-.123.111-.15 0-.222-.767-.323-1.26-.166-.6.19-1.173.802-1.186 1.264m2.811 1.13c.098.059.186.119.195.133.021.035-.47.28-.828.413-.637.238-1.322.389-2.355.518-.688.086-.805.11-1.318.27a8.283 8.283 0 01-.66.178c-.695.144-1.325-.027-1.42-.386a.504.504 0 00-.07-.162c-.127-.146-.174-.497-.093-.688.024-.055.072-.268.106-.473.12-.706.241-1.088.501-1.58.457-.863 1.366-1.958 2.467-2.972.728-.67 1.42-1.186 3.018-2.25.987-.656.997-.665 1.111-.981.025-.071.147-.524.272-1.008.388-1.507.637-2.075 1.1-2.511.26-.247.675-.4.917-.34.137.035.144.103.05.486-.16.638-.214 1.042-.216 1.61 0 .562.034.78.167 1.043.15.297.28.397.711.505A6.995 6.995 0 009 13.805c0 .32.03.634.071.944a2.451 2.451 0 01-.64.27c-.314.082-.447.153-.525.28-.062.103-.068.185-.02.289.031.07.341.297.703.515m-4.255-4.18c.32-.345.853-.838 1.24-1.144l.295-.236c.005-.004-.018-.046-.052-.092a1.375 1.375 0 01-.129-.348c-.07-.277-.129-.375-.223-.375-.095 0-.383.17-.563.334-.47.425-.815 1.142-.855 1.777-.009.144-.007.286.004.315.017.044.065.006.283-.23M16 7.804a6 6 0 010 12 6 6 0 010-12zm-6.898 7.147c.078.469.202.923.37 1.356a5.213 5.213 0 01-1.205-.608c-.158-.11-.203-.156-.21-.22-.018-.158.127-.252.52-.335.186-.04.342-.096.525-.193z" fill="#050505"/>
    <path d="M22 13.804a6 6 0 01-12 0 6 6 0 0112 0" fill="#BA160C"/>
    <path d="M13.625 10.857v4.223c0 .42.1.725.301.917.2.192.478.287.833.287.741 0 1.117-.389 1.129-1.169v-4.258h1.323v4.214c0 .701-.22 1.254-.657 1.661-.439.408-1.036.611-1.795.611-.747 0-1.341-.197-1.78-.593-.44-.395-.664-.939-.672-1.63v-4.263h1.318zm6.068 0v6.398h-1.318v-6.398h1.318z" fill="#FFF"/>
  </g>
</svg>
