<!--
  ~  (c) 2018-2020 Cloudera, Inc. All rights reserved.
  ~
  ~    This code is provided to you pursuant to your written agreement with Cloudera, which may be the terms of the
  ~   Affero General Public License version 3 (AGPLv3), or pursuant to a written agreement with a third party authorized
  ~   to distribute this code.  If you do not have a written agreement with Cloudera or with an authorized and
  ~   properly licensed third party, you do not have any rights to this code.
  ~
  ~    If this code is provided to you under the terms of the AGPLv3:
  ~    (A) CLOUDERA PROVIDES THIS CODE TO YOU WITHOUT WARRANTIES OF ANY KIND;
  ~    (B) CLOUDERA DISCLAIMS ANY AND ALL EXPRESS AND IMPLIED WARRANTIES WITH RESPECT TO THIS CODE, INCLUDING BUT NOT
  ~        LIMITED TO IMPLIED WARRANTIES OF TITLE, NON-INFRINGEMENT, MERCHANTABILITY AND FITNESS FOR A PARTICULAR PURPOSE;
  ~    (C) CLOUDERA IS NOT LIABLE TO YOU, AND WILL NOT DEFEND, INDEMNIFY, OR HOLD YOU HARMLESS FOR ANY CLAIMS ARISING
  ~        FROM OR RELATED TO THE CODE; AND
  ~    (D) WITH RESPECT TO YOUR EXERCISE OF ANY RIGHTS GRANTED TO YOU FOR THE CODE, CLOUDERA IS NOT LIABLE FOR ANY
  ~        DIRECT, INDIRECT, INCIDENTAL, SPECIAL, EXEMPLARY, PUNITIVE OR CONSEQUENTIAL DAMAGES INCLUDING, BUT NOT LIMITED
  ~        TO, DAMAGES RELATED TO LOST REVENUE, LOST PROFITS, LOSS OF INCOME, LOSS OF BUSINESS ADVANTAGE OR
  ~        UNAVAILABILITY, OR LOSS OR CORRUPTION OF DATA.
  ~
  -->
<svg viewBox="0 0 24 24" xmlns="http://www.w3.org/2000/svg" width="1em" height="1em">
  <path d="M14.062 21.608l.009.02c.095.19.242.345.252.366.813 1.064-1.027.819-1.406.755a5.638 5.638 0 01-1.691-.583l-.271-.147.073-.003c.846-.013 1.728.03 2.577-.23l.281-.099.176-.079zm.138-.755c.13.084.475.199.887.208-.144.064-.398.118-.762.161-.083-.18-.125-.302-.125-.369zm-6.684-2.538l.071.044.244.14c1.253.703 3.037 1.407 4.663 1.513l.323.013.224-.003.15.25c.153.251.315.5.453.707-2.422.369-4.1-.376-5.12-.877a16.445 16.445 0 01-.112-.113c-.328-.373-.643-1.082-.896-1.674zm6.004 1.192c.385.215 1.068.271 1.748.271-.443.288-1.128.303-1.453.208 0 0-.19-.236-.295-.479zm-.038-1.998c.21.204.21.54.658.9.448.359 1.014.506 1.196.607-.456.211-1.24-.101-1.438-.248-.197-.147-.706-.565-.706-.652 0-.086.097-.458.29-.607zm-6.4-3.66c.448 1.22 2.489 3.437 5.272 3.995l.29.052.228.03-.006.018-.044.12a3.167 3.167 0 00-.138.741l-.005.192-.004.01-.316-.07c-3.664-.832-4.16-1.858-5.344-2.78a7.376 7.376 0 01.002-1.939l.058-.33.008-.04zM6.68 1c2.637.418 4.297 1.47 5.61 2.175.533.29 1.017.51 1.48.775.405.133 1.629 1.06 1.987 1.559.364.77.63 1.602.872 2.405.174.816.326 1.148.326 1.148s-.148-.683-.123-.806c.153.057.515.17.665.153 0 0-.67-.347-.758-.654-.282-.985-.564-2.518-.64-2.598-.215-.271-1.11-.958-1.66-1.276-.208-.12-.32-.195-.33-.248.176-.178.393-.413.587-.562.187-.144.356-.305.616-.402 1.141-.515 1.794.199 1.948.054 0 0-.245-.282-.136-.236.112.061.476.133.516.17.416.326 1.503 1.518 2.158 2.776.158.308.222.511.149.882-.074.371-.13.576-.21.824-.072.165-.48 1.3-.479 1.453-.082.623.267 1.403.267 1.403.002-.127-.003-.219-.003-.304l.001-.085.008-.087c.03.008.114.04.15.185.064.263.237.674.422 1.07l.094.197h-.352l.41.122.062.124c.188.378.35.675.375.706.157.255.148.545.146.807v.128l-.103.051-.013-.085c-.062-.226-.33-.235-.588-.236h-.095l-.255-.063c.077.072.317.066.22.221-.068.037-.105.173-.142.308l-.023.08-.138.007.4.156.165.065.173.07.134.02-.134.34-.184-.073-.006-.129c-.323-.13-.946-.184-.969-.157-.23.225-.398.5-.58.762.25-.195.438-.488.773-.568.027-.003.36.062.54.093-.115.024-.304.032-.333.073-.255.317-.442.701-.662 1.053.303-.313.396-.635.91-.939.043-.027.357-.021.51.055-.016.059-.04.12-.066.184l-.043.098-.138.297c-.126.298-.367.573-.552.86.578-.706.413-.447.8-.901l.161-.394.158-.407.151-.41.031-.019.016.008c.09.021.452-.012.74.006.53-.115.508-.35.968-.385.309-.024.34.559.336.604a6.923 6.923 0 01-.552 2.073c-.584 1.128-1.234 2.148-2.13 2.39l-.171.036-.22.03c-.985.107-1.562-.302-2.129-.613l-.13-.07-.232-.186c-.451-.375-.83-.759-1.094-1.153-.1.54-.464.925-.745 1.304-.056.089-.096.21.18.595.074.103.342.12.524.111-.185-.14-.465-.288-.51-.416.324.222.624.285.896.25.062-.007.14-.073.199-.175.103-.223.188-.301.27-.363l.041-.03.221.277-.111.105c-.785.699-1.675.626-2.096-.301l-.057-.139-.152-.291c-.1-.196-.202-.39-.321-.571-1.273-1.009-.685-1.928-.347-2.509-.707-.18-1.645-.56-1.774-1.061-.207-1.62-.102-2.135.106-2.967-.639.135-1.283.269-1.947.446l-.502.142-.479.151v-.008l-.1.026c-.347.101-1.11.385-1.343.511-.587.17-1.074.349-1.822.537-.244.03-.483.03-.716-.002-.539-.073-1.456-.007-1.515-.062-.319-.446-.435-1.2-.682-1.71l-.115-.202-.008-.01-.15-.187c-.157-.18-.326-.342-.492-.508-.798-.794-1.48-1.562-1.67-2.375-.045-.22-.152-.448-.118-1.035l.012-.169.002-.003.068-.217c.195-.567.494-1.049.965-1.53.55.008 1.096.02 1.521.102.195.032.6.085 1.02.242.958.358 2.195.925 2.422 1.03l.027.011-.235-.131c-.902-.508-1.863-1.098-2.545-1.3l-.178-.046c-.089-.012-.15-.047-.188-.106l-.015-.031.022-.023.022-.025c1.07-.652 1.28-1.412 2.002-2.095.335-.146.466-.221.751-.252zm6.194 16.925l.043.007-.045-.007h.002zm-3.085-7.012c.472 1.774 1.442 3.56 2.407 5.188.296.376.42.587.742.802l.15.092.141.075-.04.086-.074.175-.041.097c-1.076-.532-1.965-1.174-2.86-1.82-1.4-1.025-1.776-2.239-2.029-3.814l-.02-.129a.345.345 0 01.115-.102c.31-.21.638-.376.983-.498l.262-.084.264-.068zm4.985 6.375c.002.006-.002.004-.006.001h.006zm1.275-1.624l-.02.003c-.281.2-.324.392-.318.558.4-.394.445-.452.879-.457h.252a7.076 7.076 0 00-.737-.101l-.056-.003zm6.72-2.48l-.525.256c-.856.27-.907.029-1.226-.063.21.242.463.422.91.316.614-.188.634-.344.842-.51zm-6.482-.728s.528-.077.517-.028c-.03.144.028.452.059.546l.011.026-.29.239.208-.091c.558-.21 1.14-.165 1.73-.207 0 0-.559-.155-.525-.16.125-.017-.033-.583-.075-.596.106-.036.21-.063.317-.09-.799-.21-1.26-.086-1.952.36zm.272-1.826c-.152.204-.162.412-.229.605.453-.501.633-.532 1.357-.635a3.339 3.339 0 00-1.128.03zM10.55 5.88c1 .255 2.48.261 3.203.708.01.04-.018.066-.063.087l-.213-.034a.865.865 0 00-.328.004c-.277.09-.522.257-.782.387.717-.146.917.026 1.462.072.59.225.936 1.31 1.325 1.617-.359-.788-.587-1.963-1.288-2.587-.872-.28-2.156-.216-3.316-.255zm6.73-2.392c.047.248.087.493.273.804.4.441.543.754.6.892.194.501.35 1.003.492 1.504-.047-.523-.225-1.083-.297-1.583-.04-.228-.907-1.602-1.068-1.617zM3.875 3.381l.008.014v.002l-.008-.016zm10.904 19.4l-.083.087c.512-.503.483-.93.112-1.247-.15-.026-.288-.069-.39-.169a.667.667 0 01-.07-.144l-.014-.053v-.022c.098.109.247.184.439.235h4.053c-2.012.905-3.367 1.37-4.065 1.4-.868.19-1.344.153-1.721.026l.155.037a3.614 3.614 0 001.592-.158l-.008.008z" fill="currentColor" fill-rule="evenodd"/>
</svg>
