<!--
  ~  (c) 2018-2020 Cloudera, Inc. All rights reserved.
  ~
  ~    This code is provided to you pursuant to your written agreement with Cloudera, which may be the terms of the
  ~   Affero General Public License version 3 (AGPLv3), or pursuant to a written agreement with a third party authorized
  ~   to distribute this code.  If you do not have a written agreement with Cloudera or with an authorized and
  ~   properly licensed third party, you do not have any rights to this code.
  ~
  ~    If this code is provided to you under the terms of the AGPLv3:
  ~    (A) CLOUDERA PROVIDES THIS CODE TO YOU WITHOUT WARRANTIES OF ANY KIND;
  ~    (B) CLOUDERA DISCLAIMS ANY AND ALL EXPRESS AND IMPLIED WARRANTIES WITH RESPECT TO THIS CODE, INCLUDING BUT NOT
  ~        LIMITED TO IMPLIED WARRANTIES OF TITLE, NON-INFRINGEMENT, MERCHANTABILITY AND FITNESS FOR A PARTICULAR PURPOSE;
  ~    (C) CLOUDERA IS NOT LIABLE TO YOU, AND WILL NOT DEFEND, INDEMNIFY, OR HOLD YOU HARMLESS FOR ANY CLAIMS ARISING
  ~        FROM OR RELATED TO THE CODE; AND
  ~    (D) WITH RESPECT TO YOUR EXERCISE OF ANY RIGHTS GRANTED TO YOU FOR THE CODE, CLOUDERA IS NOT LIABLE FOR ANY
  ~        DIRECT, INDIRECT, INCIDENTAL, SPECIAL, EXEMPLARY, PUNITIVE OR CONSEQUENTIAL DAMAGES INCLUDING, BUT NOT LIMITED
  ~        TO, DAMAGES RELATED TO LOST REVENUE, LOST PROFITS, LOSS OF INCOME, LOSS OF BUSINESS ADVANTAGE OR
  ~        UNAVAILABILITY, OR LOSS OR CORRUPTION OF DATA.
  ~
  -->
<svg viewBox="0 0 24 24" xmlns="http://www.w3.org/2000/svg" width="1em" height="1em">
  <g fill="none" fill-rule="evenodd">
    <path d="M20.026 13.156v-.021c.1.006.2.016.3.02.1.003.201.002.302.001.27 0 .27-.001.314-.275.007-.042.005-.086.01-.128.02-.147-.049-.2-.186-.198-.335.003-.67 0-1.004.001-.068 0-.138.005-.184.065-.107.141-.214.284-.316.43-.054.075-.02.106.062.105h.702m-9.803-.6c-.243 0-.485-.002-.727 0-.296 0-.296.001-.314.312-.001.017-.004.034-.004.051-.005.212.012.235.225.236.45.004.902.002 1.353.001.387 0 .387 0 .438-.378.027-.192.008-.218-.195-.221-.258-.005-.517-.002-.776-.002m8.616 6.629c-.293 0-.587.012-.879-.004-.215-.013-.373.054-.486.24-.046.078-.165.137-.124.235.048.117.178.063.271.063.602-.003 1.203-.014 1.805-.02.125-.001.25.018.375.01.144-.009.2-.133.203-.352.003-.168-.095-.173-.211-.172h-.954m-3.32.876h-.576c-.353 0-.353 0-.395.347l-.042.356c-.017.138.032.208.178.206.334-.004.669-.002 1.003 0a.24.24 0 00.212-.111c.152-.215.308-.426.457-.642.087-.126.074-.15-.084-.154-.25-.005-.502-.001-.752-.002m-6.37.909l.829-.001c.074 0 .157.006.175-.1.033-.21.068-.421.098-.632.017-.116-.031-.176-.152-.176-.561.002-1.121.002-1.682.001-.122 0-.18.054-.191.183-.015.17-.047.338-.072.506-.03.19-.016.214.167.217.276.006.552.002.828.002m3.977-7.813c.458 0 .917.002 1.376 0 .21-.002.275-.104.272-.408-.003-.18-.014-.19-.266-.19-.743-.002-1.485-.002-2.228-.002-.15 0-.3.004-.45 0-.15-.003-.244.047-.234.22.003.041-.006.084-.013.126-.042.25-.042.252.216.253.442.002.884.001 1.327.001m4.28-.6c-.493 0-.987-.004-1.48.002-.202.003-.276.122-.275.398.001.182.02.2.26.2h2.309c.478 0 .48 0 .756-.393.036-.05.12-.098.075-.172-.031-.053-.107-.034-.165-.034h-1.48m-.428.944c-.41 0-.82.003-1.23-.002-.122-.001-.179.038-.201.167-.023.127-.025.255-.046.381-.046.291-.046.292.253.293.527 0 1.056-.02 1.582.007.326.016.565-.06.72-.37.06-.12.163-.216.244-.325.028-.037.09-.073.05-.127-.019-.024-.077-.023-.117-.023l-1.255-.001m-4.74 6.56c-.459 0-.918.006-1.377-.003-.171-.004-.246.068-.26.232-.012.153-.024.306-.04.458-.023.204-.018.217.19.22.268.004.535.001.802.001.643 0 1.286-.003 1.93.001.16.001.25-.043.255-.228.003-.143.033-.287.054-.43.036-.241.034-.25-.2-.25-.452-.003-.903-.001-1.354 0m.04-.34h1.353c.23-.001.257-.023.284-.253.026-.228.041-.459.07-.687.034-.27.044-.256-.242-.258-.468-.002-.935-.002-1.403 0-.302.001-.352-.05-.358.318-.002.093-.033.185-.039.279-.01.168-.087.24-.256.235a15.156 15.156 0 00-.777 0c-.142.002-.214.094-.21.247.003.155.117.117.2.117.46.003.919.002 1.378.002m5.761 1.248c.518 0 1.036-.005 1.554.003.172.003.24-.073.254-.237a7.34 7.34 0 01.053-.457c.021-.151-.028-.22-.187-.22-.86.004-1.72.003-2.58.002-.11 0-.191.04-.257.128-.147.197-.3.389-.446.586-.033.045-.102.09-.075.15.034.075.119.044.181.044.501.003 1.002.001 1.503.001m-4.951-7.469c-.468 0-.935.005-1.403-.003-.15-.002-.215.061-.229.202-.005.06-.007.12-.01.179-.015.24-.01.248.222.25.275.003.55-.003.826.003.182.004.2.032.176.214-.017.127-.042.252-.059.378-.025.189.003.224.195.225.492.003.985-.004 1.478.004.161.003.222-.065.238-.22.035-.348.068-.696.126-1.04.027-.16-.015-.195-.158-.194-.467.005-.935.002-1.402.002m-7.766 3.14v.002H6.1c.272-.002.298-.025.335-.296.06-.438.112-.878.18-1.315.026-.163-.027-.175-.169-.183-.592-.033-1.183.026-1.774-.007-.127-.007-.15.058-.168.165-.085.487-.117.98-.189 1.47-.018.126.043.167.157.166.284-.003.568-.001.851-.001m12.252.335c-.276 0-.553.016-.828-.005-.229-.017-.371.073-.5.257-.478.68-.968 1.352-1.452 2.028-.054.075-.113.149-.13.246-.027.17.005.217.177.218.578.003 1.155-.001 1.732.003.113 0 .186-.04.25-.134.144-.21.297-.414.447-.62.444-.61.89-1.22 1.331-1.832.094-.129.081-.156-.073-.159-.318-.005-.636-.001-.954-.002m-6.935 0c-.585 0-1.17-.001-1.755.001-.234.001-.236.004-.27.233-.025.177-.042.356-.065.534-.075.574-.156 1.148-.224 1.723-.028.232-.001.253.222.254.518.002 1.036-.003 1.554.003.14.001.21-.034.228-.193.069-.575.157-1.147.228-1.722.038-.307.05-.331.348-.332.485-.002.97.001 1.454-.002.195-.002.26-.098.26-.343 0-.2-.143-.153-.25-.154-.577-.003-1.153-.001-1.73-.002m7.219-.335c.292 0 .586-.009.878.004.17.007.276-.058.375-.197.447-.628.895-1.257 1.364-1.87.209-.272.337-.555.359-.903.01-.153-.035-.177-.158-.176-.393.003-.788.03-1.177-.007-.408-.038-.669.09-.907.45-.562.848-1.175 1.66-1.768 2.488-.035.048-.093.097-.072.156.03.08.114.053.177.054.31.002.62.001.929.001m-7.324-.027h1.74c.412 0 .412 0 .478-.41.035-.222.008-.26-.211-.261-.402-.004-.803 0-1.205-.002-.117 0-.234-.001-.35-.011-.12-.01-.167-.069-.155-.206.06-.663.162-1.32.258-1.978.032-.219.02-.244-.19-.245-.526-.003-1.053.002-1.58-.003-.148-.002-.222.029-.244.204-.116.93-.245 1.86-.374 2.79-.018.125.031.151.135.143.602-.047 1.205-.004 1.698-.02m-5.74 4.353c.277 0 .553-.005.829.001.138.003.218-.03.228-.193.009-.153.05-.303.074-.454.034-.22.005-.258-.212-.261-.259-.004-.518 0-.777-.003-.12-.002-.258-.013-.264-.17-.007-.174.138-.164.255-.165.267-.003.535 0 .802-.002.282 0 .277-.002.31-.301.04-.365.09-.729.139-1.092.048-.355.103-.708.15-1.063.036-.255.01-.287-.237-.288-.535-.002-1.07-.002-1.605 0-.226.001-.243.022-.271.237l-.247 1.903c-.067.524-.132 1.049-.198 1.574-.031.253-.014.273.247.276.26.002.519 0 .778 0m1.11-8.412c-.813 0-1.624-.002-2.436 0-.245 0-.252.002-.29.246-.06.396-.119.792-.164 1.19-.039.343-.03.344.298.345h4.67c.034 0 .068-.004.1 0 .152.016.24-.033.243-.207.002-.12.024-.238.04-.357.035-.269.036-.27-.224-.27H5.53c-.083 0-.167 0-.25-.005-.105-.006-.18-.058-.18-.172.002-.1.072-.151.164-.162.075-.009.15-.008.226-.008h2.712c.25-.001.263-.015.293-.27.003-.026.002-.052.006-.078.034-.249.034-.251-.212-.252H5.905" fill="#EB8A0E"/>
    <path d="M5.411 3.115V6.31h.427V3.115H7.93v8.613H5.838v-3.95l-.427-.008v3.958H3.343V3.115H5.41zm5.093 0v8.613H8.49V3.115h2.014zm2.504 0l.527 3.685c.023.121.135.139.194.052l.025-.052.527-3.685h2.139l-1.592 8.613h-2.402l-1.592-8.613h2.174zm7.838 0v2.258h-2.223v.867h1.06v2.242h-1.06v.968l2.223.02v2.258h-3.999V3.115h4z" stroke="#FDEE21" stroke-width=".5" fill="#000"/>
    <g opacity=".9" transform="translate(8.25 8.25)">
      <circle stroke="#000" stroke-width=".75" fill="#FFF" cx="3.75" cy="3.75" r="3.75"/>
      <path fill="#000" d="M3.25 1.25v2h-2v1h2v2h1v-2h2v-1h-2v-2z"/>
    </g>
  </g>
</svg>
