<!--
  ~  (c) 2018-2020 Cloudera, Inc. All rights reserved.
  ~
  ~    This code is provided to you pursuant to your written agreement with Cloudera, which may be the terms of the
  ~   Affero General Public License version 3 (AGPLv3), or pursuant to a written agreement with a third party authorized
  ~   to distribute this code.  If you do not have a written agreement with Cloudera or with an authorized and
  ~   properly licensed third party, you do not have any rights to this code.
  ~
  ~    If this code is provided to you under the terms of the AGPLv3:
  ~    (A) CLOUDERA PROVIDES THIS CODE TO YOU WITHOUT WARRANTIES OF ANY KIND;
  ~    (B) CLOUDERA DISCLAIMS ANY AND ALL EXPRESS AND IMPLIED WARRANTIES WITH RESPECT TO THIS CODE, INCLUDING BUT NOT
  ~        LIMITED TO IMPLIED WARRANTIES OF TITLE, NON-INFRINGEMENT, MERCHANTABILITY AND FITNESS FOR A PARTICULAR PURPOSE;
  ~    (C) CLOUDERA IS NOT LIABLE TO YOU, AND WILL NOT DEFEND, INDEMNIFY, OR HOLD YOU HARMLESS FOR ANY CLAIMS ARISING
  ~        FROM OR RELATED TO THE CODE; AND
  ~    (D) WITH RESPECT TO YOUR EXERCISE OF ANY RIGHTS GRANTED TO YOU FOR THE CODE, CLOUDERA IS NOT LIABLE FOR ANY
  ~        DIRECT, INDIRECT, INCIDENTAL, SPECIAL, EXEMPLARY, PUNITIVE OR CONSEQUENTIAL DAMAGES INCLUDING, BUT NOT LIMITED
  ~        TO, DAMAGES RELATED TO LOST REVENUE, LOST PROFITS, LOSS OF INCOME, LOSS OF BUSINESS ADVANTAGE OR
  ~        UNAVAILABILITY, OR LOSS OR CORRUPTION OF DATA.
  ~
  -->
<svg viewBox="0 0 24 24" xmlns="http://www.w3.org/2000/svg" width="1em" height="1em">
  <g fill="none" fill-rule="evenodd">
    <path fill="#FF0" d="M8.866 6.767l-1.6.246-1.46.606-1.24.74-1.179 1.364-.666.67-.645.224-.17-.394.298-.408.067-.575.2.007.218.189-.06-.586-.24-.153.006-.224-.572.307-.519.58-.108.519.222.415.207.705.42.189.443-.02.42-.232-.28 1.346.28 1.497-.309.692L1.59 15.5l.18.616.478.714.901.6.478.063.532.017-.332 1.29 1.22.474 1.52.19.52-.322.04-.872.579-.91.04-.72 1.4.095 1.3-.114-1.3.74.22.89.82 1.213.8.322.639-.246.26-.493 1.34-.966.26.208 2.099.076.42-.322.04-.569-.14-.246-.1-1.536-.7-1.326.12-.588.42.209 1.18 1.042.58.038.639-.247.64-.454.32-.986 1.88.114 1.139-.417.92-.815.66-1.175.16-1.384-.14-1.61-.36-1.441-.36-.455-.5-.152-.88.91-.8.265-.7-1.099-.7-.606-.38-.228-1.519-1.194-1.22-.625-1.22-.095-1.419.227-1.24.436-.86.664-.679.777-.7.19z"/>
    <path d="M10.677 5.572c-.953.88-1.473 1.545-2.08 2.577-.433.737-.92 1.448-1.375 2.175-.23.369-.253.678-.321 1.102l-.672-.758.32-.91.896-1.525-.288.312c-1.285.395-2.043.66-2.93 1.642-1.37 1.515-1.066 3.352-.686 5.152l-.608-1.456-.224-1.334c.02-.455.042-.91.064-1.365l.576-1.305.864-1.213 1.344-1.062 1.472-.576 1.728-.212-.301.325.333-.31L9.94 5.754l.736-.182zm4.704-2.184c-.763.271-2.03.36-2.118 1.19-.063.59.047.886.422 1.51-.926-.909-1.155-.768-2.944-.486l.768-1.031 1.344-.789 1.728-.364.8-.03z" fill="#FFC"/>
    <path d="M13.893 12.966c.189.168.399.309.588.477l.772.326-.051.667-.046.13h.132l.48 1.481c-.161 1.06.373 1.63.152 1.923-.063.083-.148.228-.242.268-.338.141-.803-.027-.837.056h-1.116l-.446-.18.687-.764.218-.453-.081.143-.266.359-.266.358-.842.683-.343.245-.344.244-.326.586-.31.179-.308.179-.464-.065-.55-.489-.795-1.177c.368.281.786.759 1.254.537.304-.144.35-.302.515-.586.389.052.609.168.924-.062.437-.32.827-.642 1.213-1.012a1.85 1.85 0 00.463-.657c.307-.67.563-1.575.722-2.335-.24-.466-.397-.58-.487-1.061zm-6.348 2.243l.067.578.154 1.22-.043.261-.042.26-.481.847-.172.944-.515.196-2.287-.559c.475.022 1.63.264 1.706-.283.021-.152.01-.282-.026-.49.432-.163.81-.47 1.116-.806.41-.757.374-1.323.523-2.168zm-4.746-1.088l.76 1.568c.27.396.538.793.807 1.189l-.566.537-.567.097-1.15-.846c.347 0 .651.013.994.063.156-.188.207-.29.275-.52-.39-.571-.572-.985-.776-1.638l.223-.45zm8.23.982c-.25.448-.328.701-.395 1.205l-.257.358-1.958.049-.635-.065-.07-.065.018-.228c.867 0 1.782-.046 2.576-.39.225-.32.446-.581.721-.864zm7.573-1.823l.37.264-.29.706-.389.495-.601.228c.042-.102.048-.21-.206-.358l-.19-.016-.12-.057-.12-.057-.154-.26-.034-.44.12-.31 1.614-.195zm-6.148-5.306c.293 1.305.714 2.557.897 3.882.119.862.132 1.275-.325 2.019-.5-.031-.81.022-1.294.172-1.924.598-3.027 1.477-4.323-.294l1.241.555.885-.165 1.563-.863 1.219-.228.395-1.562-.292-2.068-.034-.976.068-.472zm10.264-1.886l.252.17.251.17.378 1.53.206 1.546-.257 1.579-.344.683-.343.684-.91.716-.584.163-.584.163-1.717-.081-1.838-.717c1.504.362 3.112.762 4.482-.083 1.223-.755 1.48-2.336 1.515-3.587.028-1.02-.273-1.94-.507-2.936zm-16.394 4.93l1.03 1.383-.086.912c-.264-.456-.562-.89-.805-1.35-.191-.363-.163-.535-.14-.945zm11.012.98c-.493.322-.727.564-1.042 1.044.239-.761.232-.822 1.042-1.044zM2.365 8.712l.147.117.147.235.031.368-.108-.081-.109-.081-.178-.051-.14.697-.263.368.109.158.108.157h.194l.837-.389-.302.889-.59.132-.325-.103-.263-.169-.186-.639c-.068-.71.176-.88.798-1.263l.093-.345zm10.519-2.496c-1.356.545-1.94 1.133-2.147 2.538-.017-.276-.079-.552-.096-.83-.383-.12-.409.205-.546.482a6.835 6.835 0 01-1.347 1.881c.414-.64.677-1.252.944-1.934l.135-.347.292-.7.532-.732 1.082-.228 1.15-.13zm4.272 1.247c-.029.049-.073.126-.13.18.23.205.344.344.426.635l-.097.045c.172-.05.347-.092.519-.124-.827.422-1.62.846-2.042 1.648 0-.234.057-.438.156-.615l.025.013c-.29-.148-.362-.261-.502-.543-.163.04-.318.08-.453.033.086.001.139-.02.224-.07l.42-.413.741-.532.486-.15c.061-.024.165-.082.227-.107zm-.93-4.01l.515.318.514.319 1.386 1.075.85.494.036.002.037.001.755.684.395.846-.275.44.086.667-.309.05c.008-.142.021-.283-.069-.424a3.974 3.974 0 00-.804-.074c-.093-.141-.106-.341-.126-.471-.092-.055-.152-.073-.197-.19-.006-.014.23.032.238.016.433-.113.582-.228.588-.278-.033-.54-.558-1.294-1.117-1.358-.308-.036-.45-.047-.835.057.364-.325.174-.442.003-.672-.441-.594-1.119-1.016-1.67-1.502zm6.49 2.851l-.285.547-.171.17-.172.171-.584.342h-.474l-.214-.035c.12-.083.205-.045.347-.087.171-.05.338-.112.5-.207.32-.188.485-.414.679-.683.09-.124.23-.155.374-.218zm-7.557.09l.31-.143.199-.054c-.614.397-1.048 1.197-.994 1.977-.2-.674-.129-1.313.485-1.78z" fill="#CC0"/>
    <path d="M.258 10.286c.095-1.017.304-1.456 1.066-2.22-.956.638-1.195.928-1.066 2.22zm14.316-2.738c.12-.508.336-.998 1.169-1.377-1.104.262-1.311.702-1.17 1.377zm6.168-.057c.322.029.506.076.794-.06a2.555 2.555 0 001.187-1.153c-.157.586-.472 1.084-1.126 1.305-.32.109-.528-.003-.855-.092zm-8.27-1.262a9.685 9.685 0 01-1.144.348c-.352.44-.567.667-.648 1.255-.096-.579-.116-.686.156-1.118-.078.038-.152.09-.257.175-.38.308-.875 1.517-1.072 1.95.125-.52.518-1.822.923-2.201.266-.25.326-.244.702-.277.447-.04.893-.084 1.34-.132zm3.327 2.46a.671.671 0 01-.072-.297c-.177.135-.37.262-.57.336.276-.234.651-.786.924-.96.308-.198.727-.16 1.087-.317-.122.106-.28.19-.44.272a.73.73 0 01.416.358c.037.073.059.15.068.226.242-.075.479-.111.68-.108-.718.19-1.481.637-2.007 1.228.059-.154.141-.293.24-.417a.72.72 0 01-.326-.32zm4.53-1.615c.052.049.095.108.124.173a.58.58 0 01.051-.04 5.88 5.88 0 00-.066-.136c-.038 0-.074.001-.11.003zM2.82 14.284c.274.897.741 1.78 1.258 2.522v.013a.92.92 0 01-.148.351c-.37.47-1.31-.219-1.583-.482-.297-.288-.497-.63-.544-.95-.035-.233-.001-.238.17-.403l.695-.667.152-.385zm.14-3.935a8.534 8.534 0 00-.22.608c-.362.146-.837.238-1.02-.122-.088-.175-.137-.346-.202-.567-.595-.585.295-1.357.78-1.633-.07.143-.12.25-.155.362-.147.483.067.914-.395 1.264.217.415.207.581.712.389.195-.074.356-.178.5-.3zm-.597-1.202c.095-.01.153.037.227.107-.014-.166-.046-.29-.17-.358a1.3 1.3 0 00-.058.251zm12.894 5.723c-.123.417-.289.81-.44 1.261-.143.427-.876 1.666-1.307 1.966.084.06.238.082.512.105.195.016.96.02 1.153.022.423.007.584-.023.627-.48.02-.223.002-.265-.116-.461l-.031-1.05c-.01-.331-.077-.522-.215-.831-.082-.185-.127-.358-.183-.532zm-2.063 3.447c-.355.271-.95.751-1.066.812-.21.296-.235.479-.57.651-.999.512-1.529-.082-2.12-.945-.281-.411-.897-1.35-.243-1.669.275-.134.483-.234.692-.35a7.868 7.868 0 01-2.058-.017c.013.08.023.156.032.225.046.363.06.474-.147.766-.151.212-.21.274-.393.66.034.315.02.492-.074.821-.208.732-1.65.331-2.237.18-.707-.18-1.717-.35-1.303-1.21a3.96 3.96 0 00.231-.606c-.618.26-1.477-.29-1.886-.68-.389-.369-.6-.798-.674-1.215-.062-.355-.005-.353.262-.603.244-.23.488-.46.733-.688l.295-.763a5.268 5.268 0 01-.084-.567c-.07-.782-.047-1.34.071-1.851-.43.159-.923.084-1.143-.348a2.74 2.74 0 01-.196-.576c-.959-.876.838-2.024 1.363-2.11-.06.161-.126.309-.184.455.356.175.312.672.237.992-.128-.153-.199-.353-.387-.362-.027.362-.023.762-.32.975.087.224.083.224.334.133.356-.13.625-.42.894-.703A4.888 4.888 0 014.43 8.278C5.69 7.22 6.88 6.873 8.799 6.583c.255-.252.519-.496.802-.733.383-.32.632-.387.995-.405.6-.761 1.073-1.292 2.052-1.682 2.052-.819 3.466-.858 5.113.429.544.425 1.008.873 1.606 1.228.303.18.52.31.749.568.288.326.524.652.688 1.072.212-.083.454-.16.649-.319.252-.204.412-.546.645-.77.31-.297 1.017.062 1.173.346.533.965.75 2.745.637 3.803-.14 1.308-.709 2.544-1.924 3.16-.827.417-1.936.456-2.886.286l-.184.576c-.185.575-.905 1.045-1.535 1.073-.604.027-.932-.269-1.328-.63l-.625-.57c-.012.13-.03.253-.052.373.164.307.242.576.383.892.154.348.229.576.24.949l.027.992c.156.262.17.325.147.625-.048.632-.415.692-1.027.688-.204 0-.973.004-1.169-.01-.39-.026-.647-.055-.781-.207zm-2.433-1.203l-.044-.333a2.479 2.479 0 01-.008-.567l.048-.588c-.06.199-.18.398-.24.597-.024.08-.044.145-.056.204a7.46 7.46 0 01-2.69.033 15.18 15.18 0 00-.185-.88c-.018.264-.006.994-.008 1.402 0 .317-.015.425-.187.694-.161.252-.23.31-.455.735.019.269.02.447-.056.702-.125.424-1.389.095-1.722.009-.41-.107-1.26-.265-1.046-.784.188-.456.307-.937.399-1.576-.752-1.027-1.452-2.434-1.586-3.681-.104-.968-.041-1.564.18-2.156.35-.939.84-1.751 1.626-2.405 1.06-.882 2.052-1.236 3.603-1.46-.373.396-.742.815-1.144 1.264-.408.454-.65.914-.909 1.41-.357.688-.35.949.124 1.552.409.52.629.753.807 1.262-.147.287-.2.53-.25.923.5.518.871.873 1.357.983.476.107.874.086 1.3-.12.945-.459 1.82-1.05 2.888-1.075.494-1.15.444-2.112.207-3.225-.162-.76-.227-1.48-.278-2.255-.2.798-.237 1.5-.089 2.295.18.958.318 2.016-.18 2.858-.964.07-1.791.627-2.661 1.054-.35.172-.714.188-1.1.088-.36-.094-.602-.32-.99-.742-.005-.425.096-.621.302-1.005.33-.618.695-1.193 1.096-1.801-.49.561-.955 1.03-1.341 1.594-.148-.399-.359-.6-.708-1.05-.341-.437-.377-.63-.122-1.136.257-.51.474-.958.911-1.405C8.31 7.757 9 6.897 9.825 6.137c.448-.413.63-.399 1.224-.484a21.925 21.925 0 001.61-.296c-.53.047-1.042.064-1.558.077h-.016c.507-.614.802-.957 1.626-1.296 2.03-.836 3.318-.926 4.912.344.413.33.774.649 1.193.933a1.576 1.576 0 00-.456.103c.211-.039.454 0 .673.037.061.038.124.075.189.11.296.166.463.257.663.521.212.28.388.558.543.866-.101-.035-.187-.064-.263-.085a.59.59 0 00-.534.03l-.012.006a2.594 2.594 0 01-.586.188.737.737 0 00.405-.006.516.516 0 00.045.609 4.598 4.598 0 00-.238.091c.378-.055.719-.064 1.088-.018.024.11.05.227.072.346l-.137.01-.011.001c-.175-.132-.37-.11-.635-.052-.809.174-.619.604-.99 1.252.385-.447.357-.915.986-1.057.147-.032.246-.074.346-.06-.179.086-.333.227-.395.39-.172.463-.065.853-.255 1.284.235-.386.25-.762.46-1.168.075-.146.355-.38.527-.383l.141-.003c.042.257.067.512.051.723-.03.386-.135.96-.198 1.179.212-.26.31-.809.403-1.196.097-.402.073-.886-.013-1.318-.116-.594.528-.497.903-.777.275-.206.464-.534.717-.767.25-.23.644.109.743.334.426.98.62 2.52.508 3.506-.126 1.107-.69 2.316-1.721 2.861-1.313.695-2.862.27-4.167-.146-.279-.089-.472-.218-.717-.365.067.285.097.586.008.87-.14.451-.368 1.189.278 1.325.246.052.357.044.704-.126a1.37 1.37 0 01-.615.012.394.394 0 01-.317-.26c.061.042.16.064.331.103.479.11.935-.109 1.024-.423.052-.184.043-.28.154-.531.099.029.201.055.306.079l-.178.55c-.154.476-.753.86-1.282.85-.49-.008-.8-.298-1.138-.583a267.16 267.16 0 00-.678-.57 5.355 5.355 0 01-1.663-.792c.403.448.675.696 1.236.92-.081.788-.37 1.363-.617 2.118-.112.342-.993 1.71-1.237 1.843-.174.095-1.264.965-1.47 1.08-.152.193-.286.458-.516.573-.7.351-1.15-.32-1.526-.888-.171-.258-.648-1.003-.233-1.211.393-.197.613-.338 1.013-.587.059.101.16.2.226.3v.001zM.012 9.456c.105-.458.203-.63.501-1.006-.483.32-.546.45-.501 1.006zm10.27-4.757c.479-.914.842-1.25 1.846-1.699-1.136.264-1.47.452-1.847 1.7zm.09-.858c.273-.39.431-.517.853-.763-.573.13-.682.23-.854.763zm6.47 8.381c.126-.065.357-.155.484-.22-.13.02-.365.066-.496.087-.348.056-.39.135-.443.46l-.087.497c.069-.173.151-.375.23-.54.085-.175.132-.191.311-.284z" fill="#000"/>
    <path d="M16.505 8.6a.294.294 0 01.017.042 1.917 1.917 0 00-.396.368.333.333 0 01-.183-.157.288.288 0 01.147-.392.32.32 0 01.415.139zm3.144-1.213c.128.011.222.12.21.24a.21.21 0 01-.021.073 2.09 2.09 0 00-.355.094.285.285 0 01-.083-.208.226.226 0 01.249-.2z" fill="#FFC"/>
  </g>
</svg>
