<!--
  ~  (c) 2018-2020 Cloudera, Inc. All rights reserved.
  ~
  ~    This code is provided to you pursuant to your written agreement with Cloudera, which may be the terms of the
  ~   Affero General Public License version 3 (AGPLv3), or pursuant to a written agreement with a third party authorized
  ~   to distribute this code.  If you do not have a written agreement with Cloudera or with an authorized and
  ~   properly licensed third party, you do not have any rights to this code.
  ~
  ~    If this code is provided to you under the terms of the AGPLv3:
  ~    (A) CLOUDERA PROVIDES THIS CODE TO YOU WITHOUT WARRANTIES OF ANY KIND;
  ~    (B) CLOUDERA DISCLAIMS ANY AND ALL EXPRESS AND IMPLIED WARRANTIES WITH RESPECT TO THIS CODE, INCLUDING BUT NOT
  ~        LIMITED TO IMPLIED WARRANTIES OF TITLE, NON-INFRINGEMENT, MERCHANTABILITY AND FITNESS FOR A PARTICULAR PURPOSE;
  ~    (C) CLOUDERA IS NOT LIABLE TO YOU, AND WILL NOT DEFEND, INDEMNIFY, OR HOLD YOU HARMLESS FOR ANY CLAIMS ARISING
  ~        FROM OR RELATED TO THE CODE; AND
  ~    (D) WITH RESPECT TO YOUR EXERCISE OF ANY RIGHTS GRANTED TO YOU FOR THE CODE, CLOUDERA IS NOT LIABLE FOR ANY
  ~        DIRECT, INDIRECT, INCIDENTAL, SPECIAL, EXEMPLARY, PUNITIVE OR CONSEQUENTIAL DAMAGES INCLUDING, BUT NOT LIMITED
  ~        TO, DAMAGES RELATED TO LOST REVENUE, LOST PROFITS, LOSS OF INCOME, LOSS OF BUSINESS ADVANTAGE OR
  ~        UNAVAILABILITY, OR LOSS OR CORRUPTION OF DATA.
  ~
  -->
<svg xmlns="http://www.w3.org/2000/svg" width="24" height="24" viewBox="0 0 24 24">
    <path fill-rule="evenodd" d="M4.619 3.4L7.6 6.381C8.894 5.576 10.372 5.02 12 5.02c6 0 10 7.5 10 7.5s-1.578 2.352-3.841 4.422l2.46 2.46-1.238 1.237-16-16L4.619 3.4zm.284 5.214l1.417 1.417c-.817.862-1.472 1.744-1.912 2.398 1.647 2.12 4.905 5.59 7.592 5.59.595 0 1.217-.177 1.844-.465l1.48 1.481c-1.071.59-2.196.984-3.324.984-5 0-10-7.5-10-7.5s1.062-1.979 2.903-3.905zm3.124 3.124l4.253 4.253c-.094.007-.184.028-.28.028-2.209 0-4-1.791-4-4 0-.096.02-.187.027-.281zM12 7.019c-1.047 0-2.035.323-2.939.822l2.607 2.61c.205-.258.332-.578.332-.932 0-.623-.38-1.156-.92-1.384.296-.069.602-.116.92-.116 2.209 0 4 1.791 4 4 0 .787-.235 1.516-.629 2.133l1.37 1.371c1.133-1.028 2.146-2.186 2.855-3.098C18.378 10.605 15.532 7.02 12 7.02z"/>
</svg>
