<!--
  ~  (c) 2018-2020 Cloudera, Inc. All rights reserved.
  ~
  ~    This code is provided to you pursuant to your written agreement with Cloudera, which may be the terms of the
  ~   Affero General Public License version 3 (AGPLv3), or pursuant to a written agreement with a third party authorized
  ~   to distribute this code.  If you do not have a written agreement with Cloudera or with an authorized and
  ~   properly licensed third party, you do not have any rights to this code.
  ~
  ~    If this code is provided to you under the terms of the AGPLv3:
  ~    (A) CLOUDERA PROVIDES THIS CODE TO YOU WITHOUT WARRANTIES OF ANY KIND;
  ~    (B) CLOUDERA DISCLAIMS ANY AND ALL EXPRESS AND IMPLIED WARRANTIES WITH RESPECT TO THIS CODE, INCLUDING BUT NOT
  ~        LIMITED TO IMPLIED WARRANTIES OF TITLE, NON-INFRINGEMENT, MERCHANTABILITY AND FITNESS FOR A PARTICULAR PURPOSE;
  ~    (C) CLOUDERA IS NOT LIABLE TO YOU, AND WILL NOT DEFEND, INDEMNIFY, OR HOLD YOU HARMLESS FOR ANY CLAIMS ARISING
  ~        FROM OR RELATED TO THE CODE; AND
  ~    (D) WITH RESPECT TO YOUR EXERCISE OF ANY RIGHTS GRANTED TO YOU FOR THE CODE, CLOUDERA IS NOT LIABLE FOR ANY
  ~        DIRECT, INDIRECT, INCIDENTAL, SPECIAL, EXEMPLARY, PUNITIVE OR CONSEQUENTIAL DAMAGES INCLUDING, BUT NOT LIMITED
  ~        TO, DAMAGES RELATED TO LOST REVENUE, LOST PROFITS, LOSS OF INCOME, LOSS OF BUSINESS ADVANTAGE OR
  ~        UNAVAILABILITY, OR LOSS OR CORRUPTION OF DATA.
  ~
  -->
<svg viewBox="0 0 24 24" xmlns="http://www.w3.org/2000/svg" width="1em" height="1em">
  <path d="M11.768 17.68a1.16 1.16 0 100 2.32 1.16 1.16 0 000-2.32zm-.909-1.457c0-.724.09-.967.268-1.397.18-.43.535-.902 1.066-1.417.529-.514.865-.88 1.007-1.098.217-.331.326-.689.326-1.075 0-.511-.126-.9-.38-1.168-.252-.269-.623-.404-1.113-.404-.467 0-.845.132-1.129.394-.286.264-.429.62-.429 1.069H8.493c.01-.963.338-1.725.982-2.285.646-.561 1.498-.842 2.558-.842 1.093 0 1.945.278 2.557.833.612.555.918 1.331.918 2.327 0 .887-.414 1.761-1.24 2.621l-1.003.988c-.359.409-.544.67-.555 1.454h-1.851zM12 6c-4.411 0-8 3.589-8 8s3.589 8 8 8c4.412 0 8-3.589 8-8s-3.588-8-8-8zm0 18C6.487 24 2 19.514 2 14S6.487 4 12 4c5.514 0 10 4.486 10 10s-4.486 10-10 10z" fill="currentColor" fill-rule="evenodd"/>
</svg>
