<!--
  ~  (c) 2018-2020 Cloudera, Inc. All rights reserved.
  ~
  ~    This code is provided to you pursuant to your written agreement with Cloudera, which may be the terms of the
  ~   Affero General Public License version 3 (AGPLv3), or pursuant to a written agreement with a third party authorized
  ~   to distribute this code.  If you do not have a written agreement with Cloudera or with an authorized and
  ~   properly licensed third party, you do not have any rights to this code.
  ~
  ~    If this code is provided to you under the terms of the AGPLv3:
  ~    (A) CLOUDERA PROVIDES THIS CODE TO YOU WITHOUT WARRANTIES OF ANY KIND;
  ~    (B) CLOUDERA DISCLAIMS ANY AND ALL EXPRESS AND IMPLIED WARRANTIES WITH RESPECT TO THIS CODE, INCLUDING BUT NOT
  ~        LIMITED TO IMPLIED WARRANTIES OF TITLE, NON-INFRINGEMENT, MERCHANTABILITY AND FITNESS FOR A PARTICULAR PURPOSE;
  ~    (C) CLOUDERA IS NOT LIABLE TO YOU, AND WILL NOT DEFEND, INDEMNIFY, OR HOLD YOU HARMLESS FOR ANY CLAIMS ARISING
  ~        FROM OR RELATED TO THE CODE; AND
  ~    (D) WITH RESPECT TO YOUR EXERCISE OF ANY RIGHTS GRANTED TO YOU FOR THE CODE, CLOUDERA IS NOT LIABLE FOR ANY
  ~        DIRECT, INDIRECT, INCIDENTAL, SPECIAL, EXEMPLARY, PUNITIVE OR CONSEQUENTIAL DAMAGES INCLUDING, BUT NOT LIMITED
  ~        TO, DAMAGES RELATED TO LOST REVENUE, LOST PROFITS, LOSS OF INCOME, LOSS OF BUSINESS ADVANTAGE OR
  ~        UNAVAILABILITY, OR LOSS OR CORRUPTION OF DATA.
  ~
  -->
<svg viewBox="0 0 24 24" xmlns="http://www.w3.org/2000/svg" width="1em" height="1em">
  <g fill="none" fill-rule="evenodd">
    <path d="M10.5 13.397c.017-.004.027-.008.042-.013a.497.497 0 01-.172.003c.046.005.126.018.13.01M7.803 14.387l.02-.018c-.017.008-.03.019-.046.026.008-.005.016-.002.026-.008" fill="#FF0"/>
    <path d="M7.651 14.435c.035 0 .062-.017.09-.028.185-.168.426-.514.604-.628.21-.135.493-.11.737-.215-.008.007-.02.01-.029.018l.021-.01c-.02.033-.049.085-.088.122.154.137.23.233.286.425.092-.018.185-.041.265-.042l.024-.006c-.002 0-.003.002-.005.003l.017-.003-.035.012c-.553.283-1.08.57-1.362 1.106 0-.115.026-.216.063-.311-.008.01-.019.017-.027.026.013-.035.038-.063.055-.096.006-.011.01-.025.015-.036l.005.002.001-.001c-.184-.097-.238-.174-.33-.36-.11.026-.216.054-.307.022m-.316-.845c-.004.013-.01.026-.013.039-.096-.457.044-.756.793-.934-.037.018-.059.038-.094.056-.39.278-.666.794-.63 1.303a1.423 1.423 0 01-.056-.464m1.168 3.748l-.01.02.002-.01-.006.008.01-.028.053-.306c.036-.22.065-.274.301-.312.088-.014.243-.045.332-.058l.011-.004a2.097 2.097 0 00-.693.69m-3.784-2.89c-.01-.188-.053-.375-.065-.563-.259-.082-.277.139-.37.326a4.64 4.64 0 01-.914 1.277c.23-.355.387-.703.537-1.07.102-.391.348-1.167.604-1.406.181-.17.222-.165.476-.188.304-.027.606-.056.91-.09-.039.015-.08.023-.119.037l.397-.045h.001c-.92.37-1.316.769-1.457 1.722m6.788-.857l.054.004c.08-.053.136-.03.232-.058.115-.034.23-.076.338-.14.218-.128.33-.281.461-.463.06-.081.15-.104.242-.144.004-.008.012-.014.017-.022l-.007.019.002-.001-.005.009c-.109.386-.32.712-.754.858-.217.074-.358-.002-.58-.062m-3.064 4.637c.23.194.44.39.772.396a.856.856 0 00.233-.036c-.005-.037-.032-.08-.096-.126a.534.534 0 01-.223-.01c-.438-.093-.284-.593-.188-.9.06-.192.04-.396-.006-.59.135.08.253.15.391.207.961.229 1.97.43 2.838-.105.83-.512 1.004-1.585 1.027-2.433.018-.643-.156-1.228-.309-1.85-.102-.07-.222-.103-.315-.018-.17.158-.3.38-.486.52-.255.19-.692.125-.613.527.058.294.075.622.01.895-.064.262-.13.635-.274.81.042-.147.114-.537.134-.8a2.136 2.136 0 00-.035-.49l-.095.003c-.117.002-.307.16-.358.26-.142.275-.153.53-.312.792.13-.292.056-.557.173-.871a.528.528 0 01.268-.265c-.068-.01-.135.02-.235.04-.426.098-.407.415-.669.718.252-.44.123-.731.672-.85.167-.036.292-.043.404.027a.342.342 0 00-.048-.194 2.685 2.685 0 00-.448-.041c-.054.005-.107.006-.164.014.022-.01.044-.017.066-.025-.062-.096-.07-.23-.085-.317-.062-.038-.103-.05-.133-.13h.012c.136-.026.268-.07.394-.126l.008-.004a.382.382 0 01.143-.043l.003-.004c-.022-.366-.378-.878-.758-.921a1.185 1.185 0 00-.566.038c.247-.22.118-.3.002-.455-.186-.251-.435-.457-.687-.655a2.29 2.29 0 00-1.373-.306c-.485.127-1.036.257-1.084.705-.043.4.032.6.286 1.024-.337-.33-.54-.453-.84-.47a14.46 14.46 0 01-.948.175c-.16.023-.27.038-.372.062a6.791 6.791 0 00-1.29 1.63c-.08.137-.17.268-.254.4a6.097 6.097 0 001.387 3.294c.412-.215.826-.415 1.288-.448.337-.571.244-1.29.122-1.94a3.477 3.477 0 01.06-1.556c.003.046.008.09.012.136v-.004c.2.886.485 1.735.61 2.634.08.585.088.865-.22 1.37-.34-.021-.55.014-.879.117-.19.059-.366.12-.534.18a6.128 6.128 0 001.896 1.252c.183-.437.336-.98.434-1.446-.162-.314-.268-.394-.329-.713l-.007-.008a.02.02 0 00.006.004v-.003l.011.009a3.64 3.64 0 001.111.528l.46.386" fill="#FF0"/>
    <path d="M3.268 14.037a6.77 6.77 0 011.292-1.631c-.153.037-.276.097-.46.266-.401.37-.757.77-1.115 1.164 0 .202.01.403.03.6.084-.132.173-.263.253-.4M6.434 11.614c.046-.448.599-.578 1.083-.705-.436.038-.905.18-1.458.407-.56.23-.76.462-1.103.88h.01c.35-.01.698-.02 1.058-.054-.048.011-.097.017-.146.027.3.016.505.14.841.47-.253-.424-.329-.625-.285-1.025" fill="#FFC"/>
    <path d="M6.757 19.47c.13.055.262.1.395.146a1.7 1.7 0 00.123-.251c.168-.512.364-.902.42-1.436-.378-.151-.563-.318-.833-.617.062.319.167.399.33.713a8.455 8.455 0 01-.435 1.446M6.273 17.921c.31-.505.3-.785.22-1.37-.124-.899-.41-1.748-.608-2.633l-.001.003c.034.474.077.924.177 1.394.16.755.195 1.408-.141 2.188-.49.011-.918.202-1.344.418.093.102.186.203.286.298.168-.06.343-.122.533-.18.328-.103.539-.139.878-.118M12.046 13.55c.339-.16.613-.43.789-.76-.094.04-.184.063-.242.143-.132.183-.244.336-.461.464a1.5 1.5 0 01-.34.14c-.094.028-.152.005-.231.058.182.018.308.038.485-.045M12.846 12.785l-.002.001-.003.01.005-.01zM8.056 19.521c-.007-.225-.052-.354-.146-.564-.056-.125-.086-.243-.124-.361-.084.283-.196.55-.298.856-.02.058-.059.143-.107.237.223.066.452.117.685.157l-.01-.325zM8.49 17.356l.006-.008.004-.021-.01.029M5.778 12.77a6.562 6.562 0 01-.658.2c-.238.3-.384.452-.439.851-.065-.392-.079-.464.106-.757a.889.889 0 00-.175.119c-.257.209-.593 1.028-.727 1.322l.022-.087c-.15.367-.307.715-.537 1.07a4.64 4.64 0 00.914-1.277c.093-.188.111-.409.37-.327.012.188.054.375.065.563.141-.953.537-1.352 1.457-1.721l-.398.044zM6.862 17.308l.01.006a.106.106 0 01-.011-.01v.004" fill="#CC0"/>
    <path d="M12.164 17.064c-.868.535-1.876.333-2.837.104.032.014.059.03.095.042.885.282 1.936.57 2.826.099.7-.37 1.083-1.19 1.168-1.941.076-.669-.056-1.714-.344-2.379a.57.57 0 00-.19-.208c.153.621.327 1.207.309 1.849-.023.849-.197 1.922-1.027 2.434M8.176 15.189c.282-.537.81-.823 1.362-1.105-.466.13-.952.417-1.299.794a.841.841 0 00-.063.31M8.288 14.773c.028-.051.05-.106.087-.151l-.005-.005a.229.229 0 01-.12-.103c-.001-.004.002-.01 0-.015-.031-.034-.075-.053-.096-.095a.446.446 0 01-.05-.202 1.723 1.723 0 01-.282.167l-.02.018c-.01.005-.016.004-.025.008-.02.01-.038.027-.06.035.009-.006.017-.016.025-.023-.03.01-.056.027-.091.027.092.033.197.006.307-.021.093.186.146.263.33.36M8.282 14.771c-.006.011-.009.025-.015.036l.02-.034-.005-.002zM9.448 18.588c.286-.077.555-.287.637-.541l.121-.373a3.938 3.938 0 01-.208-.054c-.075.17-.069.236-.104.36-.06.213-.37.362-.695.287-.116-.026-.183-.041-.225-.07a.27.27 0 00.216.177c.137.029.28.026.417-.008a1.008 1.008 0 01-.255.096c.064.047.092.088.096.126M11.227 13.308a.375.375 0 01.084.117.324.324 0 01.035-.027l-.045-.092c-.026 0-.051 0-.075.002zM9.066 13.99c.025.05.04.103.046.154.057-.017.105-.014.16-.025-.056-.192-.132-.288-.286-.425.038-.037.068-.09.088-.122a.13.13 0 00-.02.01 1.697 1.697 0 01-.27.166.494.494 0 01.282.243M9.561 14.07l-.024.007c.005-.001.013-.004.02-.004l.004-.002M11.151 14.079c.008.005.02.003.027.009l.007-.001.093-.007a5.976 5.976 0 00-.049-.234 2.623 2.623 0 00-.574-.002c.15.004.301.012.448.04a.342.342 0 01.048.195M9.577 11.87c.116.156.245.235-.002.456.261-.07.357-.063.566-.039.38.043.736.555.758.921l-.003.004a.395.395 0 01.22.023c.051.014.109.034.178.057a3.717 3.717 0 00-.368-.587c-.136-.179-.249-.24-.45-.354a1.779 1.779 0 01-.128-.074c-.149-.025-.314-.052-.457-.025.099-.039.204-.062.31-.07-.285-.193-.53-.409-.81-.633a3.544 3.544 0 00-.501-.334c.252.2.501.404.687.655M8.021 12.75c-.457.238-.609.532-.687.84-.005.15.01.304.056.463-.035-.509.24-1.025.631-1.303M10.37 13.387c-.006-.002-.014.002-.022 0l.002-.001h-.011c.03.08.072.092.133.129.014.088.024.222.086.318.032-.012.063-.026.095-.037a.35.35 0 01-.03-.413c-.026.008-.053-.002-.08 0-.015.006-.026.01-.042.014-.004.008-.084-.005-.13-.01M9.19 16.65c-.086.045-.243.106-.33.15-.121.063-.152.074-.21.193a5.417 5.417 0 00-.147.345 2.09 2.09 0 01.694-.69l-.011.003h.004" fill="#CC0"/>
    <path d="M4.18 12.412l.044-.01.053-.049.475-.129.226-.258.265-.357.346-.202.207-.16.163-.058.196-.115.327-.069.155-.054.432-.069.258-.055.107-.004.166-.026.176.013.094-.003-.028.008.586.046.075.04c-.018-.017-.039-.032-.057-.049h-.003.003l.17.105.64.328 1.03.81.258.155.11.094.004.004.025.001.025.001.512.463.268.575-.003.005.008.014.543-.18.597-.618.224.07-.01-.04.098.065.027.008.018.022.028.02.171.115.256 1.038.008.063.008.03.006.072.118.884-.047.288-.09.786-.365.648-.138.276-.618.486-.396.111-.095.027-.233.084-.06-.003-.008.003-1.165-.056-.044-.017-.032.1.012.008-.072.174-.124.383-.14.1-.124.158-.408.154.004-.013-.2.077-.393-.026-.8-.707-.267-.132-.033.437-.017.047.022.041h.053l.085.261.265.503.046.713.095.014-.01-.363c-.007-.253-.058-.408-.163-.644-.095-.214-.148-.397-.259-.605.014-.08.026-.165.035-.253l.424.387c.268.245.491.446.9.427.428-.019.916-.337 1.042-.728l.125-.39c.644.115 1.396.088 1.957-.195.825-.418 1.211-1.256 1.306-2.143.076-.718-.07-1.925-.433-2.58-.105-.193-.585-.436-.795-.235-.158.152-.267.384-.438.522-.132.108-.296.161-.44.217a2.365 2.365 0 00-.467-.727c-.155-.175-.302-.263-.508-.386-.405-.24-.72-.544-1.089-.833-1.118-.873-2.077-.846-3.469-.29-.664.264-.985.624-1.392 1.141-.246.012-.415.057-.675.274a9.303 9.303 0 00-.544.497c-.134.021-.243.045-.367.067-.005.042-.014.082-.019.124l.425-.065.735-.688zM5.663 10.544c-.77.179-.998.307-1.253 1.153l.001-.001c.325-.62.571-.847 1.252-1.152" fill="#000"/>
    <path d="M5.05 10.597c-.388.088-.461.156-.578.518.185-.265.293-.351.579-.518M8.288 14.773h-.001l.012.008c-.005-.004-.006-.006-.011-.008M9.21 14.155c.108-.032.218-.057.327-.078-.08 0-.173.023-.265.042l.003.006-.066.03zM8.212 14.904c.008-.01.02-.017.027-.026.01-.023.017-.048.028-.07-.017.033-.042.06-.055.096M11.603 17.663l.233-.085-.293.082zM13.46 14l-.006-.03.013.102zM7.754 18.39l-.021-.042-.015.042zM9.448 18.588a.856.856 0 01-.233.036c-.332-.006-.542-.203-.772-.396l-.46-.387a3.615 3.615 0 01-1.11-.527c.124.109.262.204.387.315l.523.22v.016l.266.132.8.707.393.026.2-.077a.143.143 0 00.006-.065M9.97 18.355l.14-.1.124-.383-.124.304zM5.796 11.247l-.207.16.37-.217zM12.973 12.712l-.029-.008.045.03zM6.638 10.95l-.155.056.587-.124zM7.6 10.797l-.166.026.342-.012zM9.574 14.07l-.018.003a.077.077 0 01-.018.01c.012-.003.024-.01.036-.012M8.493 17.359l.01-.021-.008.01-.002.01zM12.85 12.768c-.003.008-.011.014-.016.022l.01-.003.007-.02M4.102 13.94l.198-.475.361-.497.734-.154.383-.043c.04-.014.08-.022.118-.037-.303.033-.606.063-.909.09-.255.022-.296.018-.476.188-.256.239-.502 1.015-.604 1.407.034-.082.07-.159.103-.244l.092-.235z" fill="#000"/>
    <path d="M9.326 17.168a2.726 2.726 0 01-.39-.207c.044.195.064.399.004.592-.094.306-.25.806.19.899.086.018.15.024.222.01-.018-.012-.03-.024-.054-.038l-.128-.011-.083-.04-.08-.037-.104-.177-.025-.298.082-.211 1.095-.132.238.17.034-.098-1.205-.47.204.049M12.087 13.653c.433-.146.645-.473.754-.858l-.189.36-.115.117-.117.116-.396.232h-.322l-.145-.024.004-.001a.912.912 0 00-.054-.004c.222.06.363.136.58.062M6.863 17.312l-.001-.004a.02.02 0 01-.006-.004l.007.008M10.656 13.844c-.033-.001-.065-.01-.098-.01l-.001-.001-.065.025c.057-.008.109-.01.164-.014M10.745 13.26c-.125.057-.258.1-.394.125l.019.001c.058.013.115.005.173-.002.248-.07.345-.139.353-.172a.388.388 0 00-.143.043l-.008.004zM4.965 17.518l.827-.155.268-1.06-.2-1.402-.021-.662.045-.317-.011-.136a3.478 3.478 0 00-.061 1.557c.122.65.216 1.368-.122 1.939-.461.033-.876.233-1.287.448.018.023.04.043.059.066l.503-.278zM7.93 12.75l.135-.038c-.016.011-.028.027-.044.038.035-.018.057-.038.095-.055-.749.178-.89.476-.794.934h.001l.012-.039a.93.93 0 01.385-.744l.21-.097zM9.185 16.651c-.089.014-.245.044-.332.058-.236.038-.265.092-.3.313l-.054.305c.15-.478.164-.532.686-.676M7.822 14.369l.266-.262.503-.361.33-.102c.035-.014.09-.043.132-.062.009-.007.02-.011.03-.018-.244.106-.53.08-.738.215-.178.113-.42.46-.603.628.01-.005.023-.005.035-.012.016-.006.029-.018.045-.026M7.892 18.651l.241.743a1.76 1.76 0 00-.009.461l.08.012-.047-.714-.265-.502zM3.376 13.132l-.204.221.226-.21.045-.043-.424.065v.011l.357-.044zM8.89 11.215a13.903 13.903 0 01-.387-.315l-.076-.039-.585-.046c-.1.034-.21.065-.325.094.48-.04.918.051 1.373.306" fill="#000"/>
    <path d="M11.36 14.139l-.21.034c.002-.032.002-.063.002-.094-.113-.07-.237-.063-.404-.026-.55.118-.42.409-.672.849.26-.303.242-.62.669-.717.099-.022.167-.05.235-.041a.521.521 0 00-.268.265c-.117.314-.044.579-.173.87.159-.261.169-.516.312-.791.05-.1.24-.258.357-.26l.096-.002c.028.174.045.347.035.49a5.35 5.35 0 01-.135.8c.144-.176.21-.55.274-.811.065-.273.049-.601-.01-.895-.078-.402.359-.337.613-.526.187-.14.315-.363.487-.521.092-.085.212-.052.315.018l-.025-.103-.225-.068-.597.617-.542.18-.01-.014-.182.293.058.453zM9.142 11.283l.94.73.57.331-.108-.094-.258-.155-1.03-.81-.64-.328.177.11zM4.68 12.289c-.045.04-.079.078-.12.117.1-.024.211-.04.371-.062.318-.046.633-.107.947-.174-.26-.014-.593.05-1.156.14l.256-.344-.226.259-.475.128-.053.048.455-.112zM13.177 16.49l-.094.188.364-.648.091-.786-.128.784zM5.59 11.407l-.347.203-.265.356.235-.268zM6.155 11.074l-.196.115.523-.184zM4.224 12.4l-.045.012-.736.688.007-.001zM7.328 10.827l-.258.055.365-.059zM7.87 10.807l-.094.003.066.005.028-.008" fill="#000"/>
    <path d="M4.56 12.406c.041-.04.074-.076.12-.117h-.002l-.454.112-.774.698h-.007l-.045.044-.226.21.204-.22-.359.044c-.02.21-.034.424-.034.64l.001.019c.358-.393.715-.794 1.117-1.164.183-.17.305-.23.458-.266M5.878 12.17c.048-.01.098-.017.146-.028-.36.032-.707.044-1.057.052h-.011c.344-.416.544-.649 1.103-.879.552-.227 1.022-.368 1.459-.406.114-.03.225-.06.324-.094l-.066-.005-.341.013-.366.058-.587.124-.522.184-.371.217-.376.291-.235.268-.255.344c.563-.088.894-.153 1.155-.14M10.306 17.697l-.012-.01-.06.185zM8.446 10.853c.018.016.04.03.057.047l.113.058-.17-.105zM10.326 17.59l.044.016 1.165.055.008-.002-1.216-.074zM11.485 13.393l.003-.005-.268-.575-.512-.463h-.025l-.024-.002-.006-.004.366.317zM12.375 17.38l-.54.198.096-.027.396-.11.617-.486.14-.277-.085.149zM12.848 12.639c.002.013.005.026.01.039l.086.026-.097-.065zM9.442 18.653l-.004.013.408-.154.123-.157-.293.208-.234.09zM13.454 13.97l-.008-.062-.257-1.04-.17-.114-.03-.02.227.288zM7.682 18.254l.05.094.016-.047.034-.437-.019-.009zM13.538 15.244l.047-.288-.118-.883.089 1.018zM8.443 10.851l.003.001h-.002zM7.807 18.39h-.053l.138.261zM10.37 13.387l-.02-.001h-.002c.008.003.015-.001.022 0M5.861 14.9l.198 1.403-.268 1.06-.826.154-.504.278c.037.043.077.084.115.126.425-.216.854-.407 1.344-.418.336-.78.301-1.433.141-2.188a9.84 9.84 0 01-.177-1.394l-.046.317.023.662zM4.613 13.182a.902.902 0 01.174-.119c-.184.293-.171.366-.106.76.056-.4.2-.554.44-.853.223-.053.44-.124.658-.2l-.383.043-.734.155-.361.497-.198.475-.092.235c-.033.085-.07.162-.103.243l-.023.087c.134-.294.47-1.114.728-1.323" fill="#000"/>
    <path d="M7.892 18.651l-.138-.26h-.036l.014-.043-.049-.094.081-.399.018.01.002-.016-.524-.22c-.125-.112-.263-.206-.388-.316-.003-.002-.007-.003-.01-.006l.001.004c.269.3.454.466.831.617-.055.534-.251.924-.419 1.436a1.7 1.7 0 01-.123.251c.076.026.152.051.229.074a2 2 0 00.107-.238c.102-.305.215-.572.298-.855.038.118.068.235.124.361.094.21.139.34.146.564l.01.325c.019.003.039.005.058.01a1.76 1.76 0 01.009-.462l-.241-.743zM11.703 13.62h.32l.398-.232.116-.116.115-.115.19-.362.002-.008a.126.126 0 00-.01.003c-.175.33-.448.6-.788.76-.176.084-.302.064-.485.045h-.005l.147.025zM8.86 16.8c.087-.044.244-.105.33-.15l-.004.002c-.523.144-.537.197-.686.675l-.004.02c.002-.003.005-.005.007-.01.045-.112.096-.24.147-.344.058-.12.089-.13.21-.193" fill="#000"/>
    <path d="M13.072 12.99c.289.664.42 1.708.344 2.377-.085.751-.468 1.572-1.167 1.941-.891.472-1.942.183-2.827-.099-.036-.01-.063-.028-.095-.04l-.204-.049 1.203.47.002-.005 1.215.074.293-.082.54-.197.624-.553.084-.15.093-.187.234-.463.127-.784.018-.152-.088-1.019-.014-.103-.237-.948-.227-.287-.045-.03-.087-.027.025.104a.562.562 0 01.189.208M11.346 13.398a.411.411 0 00-.035.027.346.346 0 00-.084-.117h-.001c.025-.002.05-.002.075-.002.016.03.03.061.045.092M9.39 11.549c.28.224.526.44.81.633-.106.008-.21.031-.31.07.143-.026.309 0 .457.025.04.026.084.051.128.075.2.112.314.174.45.353.144.19.263.379.368.588a2.554 2.554 0 00-.178-.058.391.391 0 00-.22-.023c-.008.034-.104.102-.353.172.027-.004.054.007.08-.001a.35.35 0 00.03.413.194.194 0 01-.056-.141.154.154 0 01.169-.136v.001c.087.007.15.081.143.163a.14.14 0 01-.015.049 1.557 1.557 0 00-.241.064c-.032.011-.063.024-.096.037v.002c.034 0 .066.008.099.009.193-.018.379-.023.574.002.016.074.034.154.049.234l-.093.007-.007.001c-.01-.006-.02-.004-.027-.009l-.001.093.209-.033-.058-.453.183-.293-.466-.732-.366-.317-.571-.331-.94-.73-.35-.216-.175-.109-.113-.058c.125.106.255.211.387.315.164.092.329.198.5.334M7.777 14.395c-.012.006-.024.007-.035.011l-.024.024c.02-.008.039-.026.059-.035M8.59 13.746l-.502.36-.266.263c.097-.05.195-.1.283-.167a.46.46 0 00.049.202c.02.042.065.062.097.095a.194.194 0 01.09-.246l.01-.004a.218.218 0 01.282.094l.012.028a1.332 1.332 0 00-.27.25c-.002 0-.002-.003-.005-.004.002 0 .003.004.005.004-.036.045-.058.1-.087.152.005.002.006.005.01.008l-.011-.007-.02.034c-.01.022-.018.047-.028.07a2.899 2.899 0 011.299-.795l.018-.01c-.005 0-.013.004-.018.004-.11.02-.22.046-.328.078l.066-.03-.003-.006c-.056.01-.103.008-.161.025a.455.455 0 00-.045-.153.495.495 0 00-.283-.243 1.61 1.61 0 00.269-.166c-.042.019-.097.048-.132.062l-.33.102zM8.021 12.75c.016-.01.028-.028.043-.038l-.134.037-.21.097a.928.928 0 00-.386.743c.078-.307.23-.6.687-.839M8.96 17.65l-.082.21.024.299.104.176.081.039.082.039.13.01c.022.014.036.026.053.039a.99.99 0 00.254-.096.932.932 0 01-.417.008.267.267 0 01-.215-.177c.042.029.11.044.225.07.325.075.634-.074.695-.286.035-.125.03-.19.104-.361a3.7 3.7 0 00.208.054l-.12.373c-.084.254-.352.464-.638.54a.131.131 0 01-.007.066l.235-.09.293-.208.14-.18.125-.303.06-.184-.239-.17-1.095.132z" fill="#000"/>
    <path d="M8.251 14.514a.225.225 0 00.12.102c-.053-.026-.082-.076-.12-.118.001.006-.002.011 0 .016M10.908 13.683c.008-.082-.056-.155-.143-.163v-.001a.155.155 0 00-.169.136.195.195 0 00.057.14c.078-.027.16-.048.241-.062a.178.178 0 00.014-.05" fill="#FFC"/>
    <path d="M8.644 14.371a.217.217 0 00-.293-.123l-.01.005a.192.192 0 00-.09.245c.038.042.067.092.12.118l.004.005c.078-.096.168-.18.27-.25" fill="#FFC"/>
    <path d="M9.13 6.66a7.13 7.13 0 10.001 14.26 7.13 7.13 0 000-14.26m0 .98a6.158 6.158 0 016.15 6.15 6.158 6.158 0 01-6.15 6.152 6.158 6.158 0 01-6.152-6.152A6.158 6.158 0 019.13 7.64" fill="#000"/>
    <g>
      <path d="M17.793 5.576l-1.683 4.838c-.28.804-.752 1.352-1.418 1.644-.665.293-1.434.288-2.305-.016-.858-.298-1.46-.762-1.806-1.39-.347-.63-.387-1.344-.12-2.14l1.702-4.895 1.513.527-1.686 4.848c-.167.481-.174.872-.022 1.172.156.301.436.521.843.663.851.296 1.438 0 1.763-.89l1.701-4.89 1.518.53z" fill="#6CF"/>
      <path d="M11.865 3l-.16.458-1.702 4.894c-.311.933-.26 1.783.154 2.533.405.735 1.102 1.278 2.072 1.615a4.29 4.29 0 001.409.259c.443 0 .864-.087 1.25-.258.79-.346 1.356-.995 1.68-1.928l1.684-4.838.159-.457-.458-.159-1.518-.529-.457-.159-.16.457-1.701 4.889c-.247.676-.577.676-.718.676-.124 0-.268-.028-.43-.083-.286-.101-.473-.241-.57-.428-.11-.218-.034-.551.049-.791l1.687-4.848.159-.457-.458-.159-1.513-.528L11.865 3zm.298.617l1.514.527-1.687 4.848c-.167.481-.173.872-.021 1.172.155.301.436.521.842.663.213.074.408.111.588.111.54 0 .932-.334 1.176-1.002l1.7-4.889 1.519.529-1.683 4.838c-.28.804-.752 1.352-1.418 1.644a2.59 2.59 0 01-1.055.216c-.39 0-.807-.077-1.25-.232-.858-.297-1.46-.762-1.807-1.391-.346-.63-.386-1.342-.121-2.14l1.703-4.894z" fill="#000"/>
      <path fill="#6CF" d="M18.828 14.154l-1.513-.527 2.554-7.345 1.514.526z"/>
      <path d="M19.57 5.666l-.158.458-2.555 7.345-.16.457.458.159 1.514.528.458.159.159-.458 2.555-7.346L22 6.51l-.458-.16-1.513-.525-.458-.16zm.299.617l1.514.526-2.555 7.346-1.513-.527 2.554-7.345z" fill="#000"/>
    </g>
  </g>
</svg>
