<!--
  ~  (c) 2018-2020 Cloudera, Inc. All rights reserved.
  ~
  ~    This code is provided to you pursuant to your written agreement with Cloudera, which may be the terms of the
  ~   Affero General Public License version 3 (AGPLv3), or pursuant to a written agreement with a third party authorized
  ~   to distribute this code.  If you do not have a written agreement with Cloudera or with an authorized and
  ~   properly licensed third party, you do not have any rights to this code.
  ~
  ~    If this code is provided to you under the terms of the AGPLv3:
  ~    (A) CLOUDERA PROVIDES THIS CODE TO YOU WITHOUT WARRANTIES OF ANY KIND;
  ~    (B) CLOUDERA DISCLAIMS ANY AND ALL EXPRESS AND IMPLIED WARRANTIES WITH RESPECT TO THIS CODE, INCLUDING BUT NOT
  ~        LIMITED TO IMPLIED WARRANTIES OF TITLE, NON-INFRINGEMENT, MERCHANTABILITY AND FITNESS FOR A PARTICULAR PURPOSE;
  ~    (C) CLOUDERA IS NOT LIABLE TO YOU, AND WILL NOT DEFEND, INDEMNIFY, OR HOLD YOU HARMLESS FOR ANY CLAIMS ARISING
  ~        FROM OR RELATED TO THE CODE; AND
  ~    (D) WITH RESPECT TO YOUR EXERCISE OF ANY RIGHTS GRANTED TO YOU FOR THE CODE, CLOUDERA IS NOT LIABLE FOR ANY
  ~        DIRECT, INDIRECT, INCIDENTAL, SPECIAL, EXEMPLARY, PUNITIVE OR CONSEQUENTIAL DAMAGES INCLUDING, BUT NOT LIMITED
  ~        TO, DAMAGES RELATED TO LOST REVENUE, LOST PROFITS, LOSS OF INCOME, LOSS OF BUSINESS ADVANTAGE OR
  ~        UNAVAILABILITY, OR LOSS OR CORRUPTION OF DATA.
  ~
  -->
<svg viewBox="0 0 24 24" xmlns="http://www.w3.org/2000/svg" width="1em" height="1em">
  <path d="M12 6.75a1.25 1.25 0 100 2.5 1.25 1.25 0 000-2.5zM11 17h2v-6h-2v6zm1-13c-4.411 0-8 3.589-8 8s3.589 8 8 8 8-3.589 8-8-3.589-8-8-8zm0 18C6.486 22 2 17.514 2 12S6.486 2 12 2s10 4.486 10 10-4.486 10-10 10z" fill="currentColor" fill-rule="evenodd"/>
</svg>
