<!--
  ~  (c) 2018-2020 Cloudera, Inc. All rights reserved.
  ~
  ~    This code is provided to you pursuant to your written agreement with Cloudera, which may be the terms of the
  ~   Affero General Public License version 3 (AGPLv3), or pursuant to a written agreement with a third party authorized
  ~   to distribute this code.  If you do not have a written agreement with Cloudera or with an authorized and
  ~   properly licensed third party, you do not have any rights to this code.
  ~
  ~    If this code is provided to you under the terms of the AGPLv3:
  ~    (A) CLOUDERA PROVIDES THIS CODE TO YOU WITHOUT WARRANTIES OF ANY KIND;
  ~    (B) CLOUDERA DISCLAIMS ANY AND ALL EXPRESS AND IMPLIED WARRANTIES WITH RESPECT TO THIS CODE, INCLUDING BUT NOT
  ~        LIMITED TO IMPLIED WARRANTIES OF TITLE, NON-INFRINGEMENT, MERCHANTABILITY AND FITNESS FOR A PARTICULAR PURPOSE;
  ~    (C) CLOUDERA IS NOT LIABLE TO YOU, AND WILL NOT DEFEND, INDEMNIFY, OR HOLD YOU HARMLESS FOR ANY CLAIMS ARISING
  ~        FROM OR RELATED TO THE CODE; AND
  ~    (D) WITH RESPECT TO YOUR EXERCISE OF ANY RIGHTS GRANTED TO YOU FOR THE CODE, CLOUDERA IS NOT LIABLE FOR ANY
  ~        DIRECT, INDIRECT, INCIDENTAL, SPECIAL, EXEMPLARY, PUNITIVE OR CONSEQUENTIAL DAMAGES INCLUDING, BUT NOT LIMITED
  ~        TO, DAMAGES RELATED TO LOST REVENUE, LOST PROFITS, LOSS OF INCOME, LOSS OF BUSINESS ADVANTAGE OR
  ~        UNAVAILABILITY, OR LOSS OR CORRUPTION OF DATA.
  ~
  -->
<svg viewBox="0 0 24 24" xmlns="http://www.w3.org/2000/svg" width="1em" height="1em">
  <path d="M15.273 1a7.852 7.852 0 011.574 2.2c.819 1.59 1.041 3.488.618 5.266a.89.89 0 01-.303.454 8.654 8.654 0 00-2.107 2.447 5.233 5.233 0 00-.424 1.28.443.443 0 00.194.412.647.647 0 00.52-.124 27.804 27.804 0 001.575-1.595c.35-.371.641-.77 1.029-1.238a3.988 3.988 0 01-.315 2.31 5.537 5.537 0 01-.932 1.087c-.255.261-.594.467-.836.756a.686.686 0 00-.27.557c0 .226.102.436.27.557.085.067.18.118.279.151h.097c-.54.275-.915.847-.993 1.512-.09 1.695-.48 3.35-1.15 4.868-.289.58-.79.984-1.369 1.1a.917.917 0 00-.109-.633 2.536 2.536 0 00-.75-.26h.169c.266 0 .557 0 .63-.303a.613.613 0 00-.066-.42.488.488 0 00-.31-.24c-.298-.043-.513-.348-.484-.688.206.152.404.318.593.495.206.206.351.165.557 0 .358-.192.53-.661.4-1.086a4.078 4.078 0 010-2.516c.174-.498.415-.962.714-1.375.45-.46.487-1.247.085-1.76l-.085-.124a2.647 2.647 0 01-.672-1.787c0-.675.243-1.321.672-1.788a9.456 9.456 0 011.574-1.856c.524-.43.856-1.098.908-1.829.249-1.981-.194-3.994-1.235-5.61a.871.871 0 01-.048-.22zM10.78 15.602a.751.751 0 01.218.358c.278.646.435 1.375.666 1.994h-.122l-.532-1.21a.557.557 0 00-.473-.344 1.152 1.152 0 01-.52-.275 6.34 6.34 0 01-.448-.523.973.973 0 011.21 0zM9.739 1a.905.905 0 010 .22C8.686 2.83 8.23 4.843 8.468 6.83c.052.731.384 1.4.908 1.829a9.456 9.456 0 011.574 1.856c.43.467.672 1.113.672 1.787 0 .675-.243 1.321-.672 1.788l-.085.124a1.557 1.557 0 01-.666.536 2.182 2.182 0 01-1.065-.495c-.242-.289-.581-.495-.836-.756a5.537 5.537 0 01-.932-1.087 3.988 3.988 0 01-.315-2.31c.388.523.727.867 1.017 1.238.5.55 1.025 1.082 1.574 1.595.153.116.34.16.521.124a.443.443 0 00.194-.413 5.233 5.233 0 00-.424-1.279A8.617 8.617 0 007.778 8.92a.897.897 0 01-.29-.454C7.08 6.68 7.325 4.781 8.164 3.2A7.852 7.852 0 019.74 1z" fill="#2E6695" fill-rule="nonzero"/>
</svg>
