<!--
  ~  (c) 2018-2020 Cloudera, Inc. All rights reserved.
  ~
  ~    This code is provided to you pursuant to your written agreement with Cloudera, which may be the terms of the
  ~   Affero General Public License version 3 (AGPLv3), or pursuant to a written agreement with a third party authorized
  ~   to distribute this code.  If you do not have a written agreement with Cloudera or with an authorized and
  ~   properly licensed third party, you do not have any rights to this code.
  ~
  ~    If this code is provided to you under the terms of the AGPLv3:
  ~    (A) CLOUDERA PROVIDES THIS CODE TO YOU WITHOUT WARRANTIES OF ANY KIND;
  ~    (B) CLOUDERA DISCLAIMS ANY AND ALL EXPRESS AND IMPLIED WARRANTIES WITH RESPECT TO THIS CODE, INCLUDING BUT NOT
  ~        LIMITED TO IMPLIED WARRANTIES OF TITLE, NON-INFRINGEMENT, MERCHANTABILITY AND FITNESS FOR A PARTICULAR PURPOSE;
  ~    (C) CLOUDERA IS NOT LIABLE TO YOU, AND WILL NOT DEFEND, INDEMNIFY, OR HOLD YOU HARMLESS FOR ANY CLAIMS ARISING
  ~        FROM OR RELATED TO THE CODE; AND
  ~    (D) WITH RESPECT TO YOUR EXERCISE OF ANY RIGHTS GRANTED TO YOU FOR THE CODE, CLOUDERA IS NOT LIABLE FOR ANY
  ~        DIRECT, INDIRECT, INCIDENTAL, SPECIAL, EXEMPLARY, PUNITIVE OR CONSEQUENTIAL DAMAGES INCLUDING, BUT NOT LIMITED
  ~        TO, DAMAGES RELATED TO LOST REVENUE, LOST PROFITS, LOSS OF INCOME, LOSS OF BUSINESS ADVANTAGE OR
  ~        UNAVAILABILITY, OR LOSS OR CORRUPTION OF DATA.
  ~
  -->
<svg viewBox="0 0 24 24" xmlns="http://www.w3.org/2000/svg" width="1em" height="1em">
  <path d="M5.335 17.145c-.36.062-.712 2.614-.712 2.614s.861-1.628 1.183-1.748c.32-.12 1.671.463 1.671.463l-.131-.662s-1.652-.729-2.011-.667zm-.417-1.836c.364-.121 1.856.593 1.856.593l-.122-.748s-1.82-.888-2.226-.835c-.407.053-.798 2.617-.798 2.617s.928-1.506 1.29-1.627zm-.204-2.764c.433-.083 2.042.957 2.042.957l-.038-.874s-1.965-1.29-2.436-1.29c-.47 0-1.281 3.026-1.281 3.026s1.281-1.736 1.714-1.819zm3.624-3.274c-.268-.243-.526-.504-.574-.582-.173-.275-.304-.196-.299-1.197.008-1.484.344-2.713 1.08-3.948.155-.26.281-.493.281-.518 0-.222-1.105 1.03-1.563 1.77-.928 1.504-1.31 2.349-1.01 4.041.095.538.098.543.718 1.109.801.731-.264.246.103.899.31.55-.164.131-.162.612 0 .157.027.307.056.333.109.091.333.045.659-.134.54-.297.664-.489.657-1.013-.014-.996 1.375-.177.054-1.372zm9.04 9.361c-.012.779-.37 1.169-1.076 1.169-.336 0-.6-.096-.791-.287-.191-.193-.287-.498-.287-.917v-2.051c-.45-.622-1-1.267-1.255-1.382v1.647c.193.334.43 1.028.662 2.506a.249.249 0 01-.248.289.251.251 0 01-.213-.121l-.102-.164c.1.373.274.693.54.946.42.395.983.593 1.694.593.724 0 1.293-.204 1.71-.611.416-.407.625-.961.625-1.661v-4.214h-1.26v4.258zm-3.808-1.89c-.264-.04-1.133.244-1.725.454.135-.657.223-1.293.236-1.76.42-.169 1.623-.629 1.965-.53.415.12 1.477 1.626 1.477 1.626s-.448-2.563-.913-2.616c-.365-.042-1.723.495-2.288.728.148-.257.345-.504.543-.653.198-.149.235-.208.143-.239-.298-.1-.505-.366-.505-.651 0-.071-.02-.17-.046-.277.582-.303 1.494-.738 1.821-.682.495.083 1.963 1.818 1.963 1.818s-.928-3.025-1.467-3.025c-.444 0-2.031.867-2.582 1.175-.172-.36-.385-.681-.552-.735-.445-.144.205-.668.63-1.037.873-.758.898-.807.995-2.002.114-1.403-.244-1.819-1.006-3.134-.428-.738-1.383-1.922-1.55-1.922-.115 0-.104.031.216.566.396.661.752 1.579.91 2.348.163.791.168 1.242.012 2.054l-.117.61-.779.74c-1.473 1.398-.915.21-.854 1.225.029.462.08.593.552 1.377.676 1.121.679 1.226.068 2.189-.7 1.104-.886 1.86-.716 2.924.212 1.323.225 1.173-.131 1.48-.176.152-.347.276-.38.276-.034 0 .17.559.115.69-.194.126-.146.639-.133.896.008.151.018.298.021.325.01.072.412-.064.737-.248.402-.226.66-.578.983-1.341.17-.4.339-.944.482-1.52.48-.156 1.117-.335 1.336-.264.367.121 1.352 1.749 1.352 1.749s-.401-2.552-.813-2.614zm6.175 4.03H21v-6.398h-1.255v6.398z" fill="#266792" fill-rule="evenodd"/>
</svg>
