<!--
  ~  (c) 2018-2020 Cloudera, Inc. All rights reserved.
  ~
  ~    This code is provided to you pursuant to your written agreement with Cloudera, which may be the terms of the
  ~   Affero General Public License version 3 (AGPLv3), or pursuant to a written agreement with a third party authorized
  ~   to distribute this code.  If you do not have a written agreement with Cloudera or with an authorized and
  ~   properly licensed third party, you do not have any rights to this code.
  ~
  ~    If this code is provided to you under the terms of the AGPLv3:
  ~    (A) CLOUDERA PROVIDES THIS CODE TO YOU WITHOUT WARRANTIES OF ANY KIND;
  ~    (B) CLOUDERA DISCLAIMS ANY AND ALL EXPRESS AND IMPLIED WARRANTIES WITH RESPECT TO THIS CODE, INCLUDING BUT NOT
  ~        LIMITED TO IMPLIED WARRANTIES OF TITLE, NON-INFRINGEMENT, MERCHANTABILITY AND FITNESS FOR A PARTICULAR PURPOSE;
  ~    (C) CLOUDERA IS NOT LIABLE TO YOU, AND WILL NOT DEFEND, INDEMNIFY, OR HOLD YOU HARMLESS FOR ANY CLAIMS ARISING
  ~        FROM OR RELATED TO THE CODE; AND
  ~    (D) WITH RESPECT TO YOUR EXERCISE OF ANY RIGHTS GRANTED TO YOU FOR THE CODE, CLOUDERA IS NOT LIABLE FOR ANY
  ~        DIRECT, INDIRECT, INCIDENTAL, SPECIAL, EXEMPLARY, PUNITIVE OR CONSEQUENTIAL DAMAGES INCLUDING, BUT NOT LIMITED
  ~        TO, DAMAGES RELATED TO LOST REVENUE, LOST PROFITS, LOSS OF INCOME, LOSS OF BUSINESS ADVANTAGE OR
  ~        UNAVAILABILITY, OR LOSS OR CORRUPTION OF DATA.
  ~
  -->
<svg viewBox="0 0 24 24" xmlns="http://www.w3.org/2000/svg" width="1em" height="1em">
  <path d="M12.54 18.986c.127-.065.231-.196.23-.291 0-.279-1.92-5.887-1.991-5.818-.036.035-.065 1.33-.065 2.88 0 2.68.01 2.825.206 3.017.113.112.267.203.342.203.075 0 .245.114.378.253.239.25.246.25.456.063.117-.104.317-.243.444-.307zm-9.049 1.856c-.35-.187-.491-.44-.491-.884 0-.445.297-.813.82-1.02l.414-.162V5.313l-.45-.19C3.231 4.89 3 4.583 3 4.088c0-.49.338-.876.874-.998.536-.121 6.768-.121 7.303 0 1.097.25 1.187 1.461.147 1.98-.265.131-.51.314-.545.404-.085.216-.084 6.354 0 6.57.05.125.111.066.25-.238.101-.223.905-1.405 1.787-2.627 1.804-2.501 1.908-2.67 1.91-3.119 0-.511-.093-.632-.73-.948-.669-.332-.813-.52-.813-1.059 0-.505.426-.92 1.037-1.01.25-.036 1.519-.051 2.82-.033 1.976.027 2.418.06 2.68.202.536.29.706.928.402 1.508-.118.224-.38.4-1.024.694-.522.237-1.077.586-1.4.882-.554.504-1.738 2.007-1.738 2.204 0 .183 3.798 9.893 3.97 10.151.088.132.32.332.515.445.42.244.555.461.555.891 0 .424-.15.675-.512.86-.252.127-.913.152-4.104.152h-3.802l-.317-.262-.316-.262-.317.262-.316.262-3.772-.004c-3.129-.004-3.82-.03-4.053-.154z" fill="#72B74F" fill-rule="evenodd"/>
</svg>
