<!--
  ~  (c) 2018-2020 Cloudera, Inc. All rights reserved.
  ~
  ~    This code is provided to you pursuant to your written agreement with Cloudera, which may be the terms of the
  ~   Affero General Public License version 3 (AGPLv3), or pursuant to a written agreement with a third party authorized
  ~   to distribute this code.  If you do not have a written agreement with Cloudera or with an authorized and
  ~   properly licensed third party, you do not have any rights to this code.
  ~
  ~    If this code is provided to you under the terms of the AGPLv3:
  ~    (A) CLOUDERA PROVIDES THIS CODE TO YOU WITHOUT WARRANTIES OF ANY KIND;
  ~    (B) CLOUDERA DISCLAIMS ANY AND ALL EXPRESS AND IMPLIED WARRANTIES WITH RESPECT TO THIS CODE, INCLUDING BUT NOT
  ~        LIMITED TO IMPLIED WARRANTIES OF TITLE, NON-INFRINGEMENT, MERCHANTABILITY AND FITNESS FOR A PARTICULAR PURPOSE;
  ~    (C) CLOUDERA IS NOT LIABLE TO YOU, AND WILL NOT DEFEND, INDEMNIFY, OR HOLD YOU HARMLESS FOR ANY CLAIMS ARISING
  ~        FROM OR RELATED TO THE CODE; AND
  ~    (D) WITH RESPECT TO YOUR EXERCISE OF ANY RIGHTS GRANTED TO YOU FOR THE CODE, CLOUDERA IS NOT LIABLE FOR ANY
  ~        DIRECT, INDIRECT, INCIDENTAL, SPECIAL, EXEMPLARY, PUNITIVE OR CONSEQUENTIAL DAMAGES INCLUDING, BUT NOT LIMITED
  ~        TO, DAMAGES RELATED TO LOST REVENUE, LOST PROFITS, LOSS OF INCOME, LOSS OF BUSINESS ADVANTAGE OR
  ~        UNAVAILABILITY, OR LOSS OR CORRUPTION OF DATA.
  ~
  -->
<svg viewBox="0 0 24 24" xmlns="http://www.w3.org/2000/svg" width="1em" height="1em">
  <path d="M18.179 10.147a3.042 3.042 0 01-2.164.895 3.073 3.073 0 01-2.328-1.078 1.37 1.37 0 01-.154-.202 2.232 2.232 0 01-.25-.404 3.07 3.07 0 01.568-3.54 3.042 3.042 0 012.164-.895c.817 0 1.587.318 2.164.895.577.577.896 1.347.896 2.165 0 .817-.32 1.587-.896 2.164m1.356-5.686a4.964 4.964 0 00-3.52-1.46 4.968 4.968 0 00-3.521 1.46 4.97 4.97 0 00-.615 6.301l-8.88 8.87 1.367 1.366 1.962-1.963 1.963 1.963 1.356-1.367-1.962-1.962 2.164-2.165 1.963 1.963 1.356-1.356-1.963-1.963 2.039-2.029a4.919 4.919 0 002.77.846c1.28 0 2.55-.49 3.52-1.462a4.963 4.963 0 000-7.042" fill="currentColor" fill-rule="evenodd"/>
</svg>
