<!--
  ~  (c) 2018-2020 Cloudera, Inc. All rights reserved.
  ~
  ~    This code is provided to you pursuant to your written agreement with Cloudera, which may be the terms of the
  ~   Affero General Public License version 3 (AGPLv3), or pursuant to a written agreement with a third party authorized
  ~   to distribute this code.  If you do not have a written agreement with Cloudera or with an authorized and
  ~   properly licensed third party, you do not have any rights to this code.
  ~
  ~    If this code is provided to you under the terms of the AGPLv3:
  ~    (A) CLOUDERA PROVIDES THIS CODE TO YOU WITHOUT WARRANTIES OF ANY KIND;
  ~    (B) CLOUDERA DISCLAIMS ANY AND ALL EXPRESS AND IMPLIED WARRANTIES WITH RESPECT TO THIS CODE, INCLUDING BUT NOT
  ~        LIMITED TO IMPLIED WARRANTIES OF TITLE, NON-INFRINGEMENT, MERCHANTABILITY AND FITNESS FOR A PARTICULAR PURPOSE;
  ~    (C) CLOUDERA IS NOT LIABLE TO YOU, AND WILL NOT DEFEND, INDEMNIFY, OR HOLD YOU HARMLESS FOR ANY CLAIMS ARISING
  ~        FROM OR RELATED TO THE CODE; AND
  ~    (D) WITH RESPECT TO YOUR EXERCISE OF ANY RIGHTS GRANTED TO YOU FOR THE CODE, CLOUDERA IS NOT LIABLE FOR ANY
  ~        DIRECT, INDIRECT, INCIDENTAL, SPECIAL, EXEMPLARY, PUNITIVE OR CONSEQUENTIAL DAMAGES INCLUDING, BUT NOT LIMITED
  ~        TO, DAMAGES RELATED TO LOST REVENUE, LOST PROFITS, LOSS OF INCOME, LOSS OF BUSINESS ADVANTAGE OR
  ~        UNAVAILABILITY, OR LOSS OR CORRUPTION OF DATA.
  ~
  -->
<svg viewBox="0 0 24 24" xmlns="http://www.w3.org/2000/svg" width="1em" height="1em">
  <g fill="none" fill-rule="evenodd">
    <path d="M18.014 12.158v7.013c.154.024.195-.103.266-.17.64-.608 1.28-1.216 1.908-1.834.162-.163.272-.163.43-.005.077.081.162.151.238.23.153.162.198.244.017.414a313.583 313.583 0 00-3.216 3.1c-.131.127-.196.124-.326 0a384.807 384.807 0 00-3.186-3.072c-.16-.154-.144-.227.009-.384.084-.089.175-.178.267-.258.199-.174.265-.146.42.01.608.601 1.229 1.19 1.845 1.781.085.081.179.162.314.29V12.2c-.713.702-1.394 1.317-2.002 1.966-.117.125-.303.381-.4.303a5.055 5.055 0 01-.567-.537c-.092-.103.046-.162.107-.225 1.069-1.035 2.145-2.066 3.21-3.104.142-.137.229-.138.37 0a419.095 419.095 0 003.187 3.072c.153.147.103.21-.02.356a2.517 2.517 0 01-.267.258c-.18.158-.267.162-.431 0-.687-.69-1.393-1.368-2.173-2.13" fill="#EF7222"/>
    <path d="M10 17a2 2 0 11-4.001-.001A2 2 0 0110 17zM5 7h6V5H5v2zm0 3h6V8H5v2zm0 3h6v-2H5v2zm-1 7h8V4H4v16zm-1 1h10V3H3v18z" fill="#000"/>
  </g>
</svg>
