<svg xmlns="http://www.w3.org/2000/svg" width="18" height="18" viewBox="0 0 18 18">
    <path fill="#5A656D" fill-rule="evenodd" d="M8.833 1.5c3.222 0 5.834 2.612 5.834 5.833 0 4.667-5.834 9.167-5.834 9.167S3 12 3 7.333C3 4.112 5.612 1.5 8.833 1.5zm0 1.5C6.443 3 4.5 4.944 4.5 7.333c0 2.663 2.61 5.623 4.333 7.2 1.722-1.577 4.334-4.537 4.334-7.2C13.167 4.944 11.223 3 8.833 3zm0 1.5c1.657 0 3 1.343 3 3s-1.343 3-3 3c-1.656 0-3-1.343-3-3s1.344-3 3-3zm0 1.5c-.827 0-1.5.673-1.5 1.5S8.006 9 8.833 9c.828 0 1.5-.673 1.5-1.5S9.661 6 8.833 6z"/>
</svg>
