<!--
  ~  (c) 2018-2020 Cloudera, Inc. All rights reserved.
  ~
  ~    This code is provided to you pursuant to your written agreement with Cloudera, which may be the terms of the
  ~   Affero General Public License version 3 (AGPLv3), or pursuant to a written agreement with a third party authorized
  ~   to distribute this code.  If you do not have a written agreement with Cloudera or with an authorized and
  ~   properly licensed third party, you do not have any rights to this code.
  ~
  ~    If this code is provided to you under the terms of the AGPLv3:
  ~    (A) CLOUDERA PROVIDES THIS CODE TO YOU WITHOUT WARRANTIES OF ANY KIND;
  ~    (B) CLOUDERA DISCLAIMS ANY AND ALL EXPRESS AND IMPLIED WARRANTIES WITH RESPECT TO THIS CODE, INCLUDING BUT NOT
  ~        LIMITED TO IMPLIED WARRANTIES OF TITLE, NON-INFRINGEMENT, MERCHANTABILITY AND FITNESS FOR A PARTICULAR PURPOSE;
  ~    (C) CLOUDERA IS NOT LIABLE TO YOU, AND WILL NOT DEFEND, INDEMNIFY, OR HOLD YOU HARMLESS FOR ANY CLAIMS ARISING
  ~        FROM OR RELATED TO THE CODE; AND
  ~    (D) WITH RESPECT TO YOUR EXERCISE OF ANY RIGHTS GRANTED TO YOU FOR THE CODE, CLOUDERA IS NOT LIABLE FOR ANY
  ~        DIRECT, INDIRECT, INCIDENTAL, SPECIAL, EXEMPLARY, PUNITIVE OR CONSEQUENTIAL DAMAGES INCLUDING, BUT NOT LIMITED
  ~        TO, DAMAGES RELATED TO LOST REVENUE, LOST PROFITS, LOSS OF INCOME, LOSS OF BUSINESS ADVANTAGE OR
  ~        UNAVAILABILITY, OR LOSS OR CORRUPTION OF DATA.
  ~
  -->
<svg viewBox="0 0 24 24" xmlns="http://www.w3.org/2000/svg" width="1em" height="1em">
  <path d="M15.759 7.5l5.515.004c.363 0 1 .054 1.375.433.273.279.382.701.344 1.113-.058.62-.331 1.625-.46 2.367-.038.22-.304.488-.512.533.115.209.273.504.203 1.002-.168 1.2-.492 3.366-.518 3.537l-.002.011H18.43l.51-3.113a.488.488 0 00-.007-.183l-.026-.084-1.287.005a.18.18 0 00-.157.095l-.018.046-.758 3.234h-6.43l1.53-6.208a.45.45 0 00.001-.167l-.02-.078-1.027-.008a.142.142 0 00-.12.067l-.02.047L9.01 16.5H5.732l1.485-6.201a.447.447 0 00.006-.177l-.02-.083h-.968a.142.142 0 00-.12.067l-.02.047L4.504 16.5H1l1.76-7.342c.142-.59.568-1.563 2.108-1.596l.14-.02.142-.008h8.153a1.551 1.551 0 011.39.867c.151-.458.424-.901 1.066-.901zm5.415.795h-4.179c-.54 0-1.01.385-1.14.932L14.172 15.9h2.068l.751-3.013a.473.473 0 01.455-.367h1.81c.288 0 .509.27.463.568l-.43 2.812h1.641s.299-1.731.476-2.99c.114-.81-.145-.912-.342-1.123.429.02.63-.342.656-.445.195-.777.398-1.248.452-1.83.06-.644-.378-1.216-.997-1.216zm-16.024 0c-.594 0-1.111-.039-1.256.562L2.2 15.9h2.035l.053-.223 1.419-5.897a.44.44 0 01.336-.333l.083-.008h1.581c.282 0 .488.276.42.56L6.707 15.9h2.05l.054-.223 1.419-5.897.025-.077a.432.432 0 01.356-.257l-.026-.001.063-.006 1.57.012c.274 0 .479.262.424.541L11.23 15.9h1.794l1.535-5.922c.206-.854-.412-1.682-1.256-1.682zm14.677 1.12c.888 0 .59 1.438-.116 1.438h-2.385l.28-1.438h2.22zm-.29.3h-1.408l-.163.837h1.456c.165-.246.221-.59.114-.837z" fill="currentColor" fill-rule="evenodd"/>
</svg>
