<!--
  ~  (c) 2018-2020 Cloudera, Inc. All rights reserved.
  ~
  ~    This code is provided to you pursuant to your written agreement with Cloudera, which may be the terms of the
  ~   Affero General Public License version 3 (AGPLv3), or pursuant to a written agreement with a third party authorized
  ~   to distribute this code.  If you do not have a written agreement with Cloudera or with an authorized and
  ~   properly licensed third party, you do not have any rights to this code.
  ~
  ~    If this code is provided to you under the terms of the AGPLv3:
  ~    (A) CLOUDERA PROVIDES THIS CODE TO YOU WITHOUT WARRANTIES OF ANY KIND;
  ~    (B) CLOUDERA DISCLAIMS ANY AND ALL EXPRESS AND IMPLIED WARRANTIES WITH RESPECT TO THIS CODE, INCLUDING BUT NOT
  ~        LIMITED TO IMPLIED WARRANTIES OF TITLE, NON-INFRINGEMENT, MERCHANTABILITY AND FITNESS FOR A PARTICULAR PURPOSE;
  ~    (C) CLOUDERA IS NOT LIABLE TO YOU, AND WILL NOT DEFEND, INDEMNIFY, OR HOLD YOU HARMLESS FOR ANY CLAIMS ARISING
  ~        FROM OR RELATED TO THE CODE; AND
  ~    (D) WITH RESPECT TO YOUR EXERCISE OF ANY RIGHTS GRANTED TO YOU FOR THE CODE, CLOUDERA IS NOT LIABLE FOR ANY
  ~        DIRECT, INDIRECT, INCIDENTAL, SPECIAL, EXEMPLARY, PUNITIVE OR CONSEQUENTIAL DAMAGES INCLUDING, BUT NOT LIMITED
  ~        TO, DAMAGES RELATED TO LOST REVENUE, LOST PROFITS, LOSS OF INCOME, LOSS OF BUSINESS ADVANTAGE OR
  ~        UNAVAILABILITY, OR LOSS OR CORRUPTION OF DATA.
  ~
  -->
<svg viewBox="0 0 24 24" xmlns="http://www.w3.org/2000/svg" width="1em" height="1em">
  <g fill="none" fill-rule="evenodd">
    <path d="M22.047 11.25a.677.677 0 01-.668.434c.2.206.463.306.347 1.097-.18 1.228-.484 2.919-.484 2.919h-.538c.067-.594.222-1.97.338-2.92.098-.792-.147-.89-.347-1.096a.677.677 0 00.668-.434c.198-.758.406-1.697.46-2.265a1.652 1.652 0 00-.393-1.187h.061c.632 0 1.078.558 1.017 1.187-.055.568-.263 1.507-.46 2.265zm-2.341-.77h-1.777l.166-.817h1.728c.108.24.051.577-.117.817zm-2.136.293h-.685l.287-1.403h.683l-.285 1.403zm-.342 1.985l-.766 2.942h-.615l.697-2.942a.478.478 0 01.463-.358h.684a.478.478 0 00-.463.358zM13.186 15.7h-.857l1.494-6.232a1.32 1.32 0 00-1.28-1.641h.927a1.32 1.32 0 011.29 1.032l-.765 3.618-.81 3.223zm-2.848-5.975l-1.5 5.975H7.98l1.43-5.975a.44.44 0 01.427-.333l.89.007a.437.437 0 00-.39.326zm-4.608 0L4.229 15.7h-.857l1.43-5.975a.44.44 0 01.427-.333h.927a.44.44 0 00-.426.333zm16.72-1.798a1.279 1.279 0 00-.959-.423h-.612c-.017 0-.033-.004-.051-.004h-4.855c-.654 0-.932.433-1.086.88a1.603 1.603 0 00-1.417-.847H5.162c-.098 0-.194.01-.287.027-1.57.033-2.004.982-2.149 1.558L1 15.993h3.458l.055-.222 1.501-5.975a.146.146 0 01.142-.11h1.097a.432.432 0 01.015.253L5.82 15.993h3.246l.055-.222 1.5-5.975a.147.147 0 01.143-.11l1.14.008a.433.433 0 01.02.238l-1.495 6.061h6.258l.058-.22.766-2.941a.185.185 0 01.179-.138h1.49c.034.079.049.167.034.26l-.447 3.039H21.487l.044-.241c.003-.017.307-1.71.486-2.93.071-.486.012-.774-.106-.978a.952.952 0 00.42-.52c.188-.72.41-1.706.469-2.31a1.413 1.413 0 00-.35-1.087z" fill="#000"/>
    <path d="M20.119 9.37c.905 0 .601 1.403-.118 1.403H17.57l.285-1.403h2.264zm-2.891 3.388a.478.478 0 01.463-.358h1.844c.295 0 .519.263.473.554l-.439 2.746h1.673s.304-1.69.485-2.92c.115-.79-.148-.89-.348-1.096a.677.677 0 00.668-.434c.198-.758.406-1.697.46-2.265.062-.629-.384-1.187-1.016-1.187h-4.258c-.55 0-1.03.376-1.161.91L14.355 15.7h2.107l.766-2.942z" fill="#6CF"/>
    <path d="M5.162 7.827h8.308c.86 0 1.49.808 1.28 1.641L13.187 15.7h-1.829l1.44-5.768a.44.44 0 00-.432-.528l-1.6-.012a.44.44 0 00-.426.333L8.838 15.7h-2.09l1.447-5.761a.44.44 0 00-.427-.547H6.156a.44.44 0 00-.427.333L4.23 15.7H2.155l1.727-6.875a1.32 1.32 0 011.28-.998z" fill="#FF0"/>
  </g>
</svg>
