<!--
  ~  (c) 2018-2020 Cloudera, Inc. All rights reserved.
  ~
  ~    This code is provided to you pursuant to your written agreement with Cloudera, which may be the terms of the
  ~   Affero General Public License version 3 (AGPLv3), or pursuant to a written agreement with a third party authorized
  ~   to distribute this code.  If you do not have a written agreement with Cloudera or with an authorized and
  ~   properly licensed third party, you do not have any rights to this code.
  ~
  ~    If this code is provided to you under the terms of the AGPLv3:
  ~    (A) CLOUDERA PROVIDES THIS CODE TO YOU WITHOUT WARRANTIES OF ANY KIND;
  ~    (B) CLOUDERA DISCLAIMS ANY AND ALL EXPRESS AND IMPLIED WARRANTIES WITH RESPECT TO THIS CODE, INCLUDING BUT NOT
  ~        LIMITED TO IMPLIED WARRANTIES OF TITLE, NON-INFRINGEMENT, MERCHANTABILITY AND FITNESS FOR A PARTICULAR PURPOSE;
  ~    (C) CLOUDERA IS NOT LIABLE TO YOU, AND WILL NOT DEFEND, INDEMNIFY, OR HOLD YOU HARMLESS FOR ANY CLAIMS ARISING
  ~        FROM OR RELATED TO THE CODE; AND
  ~    (D) WITH RESPECT TO YOUR EXERCISE OF ANY RIGHTS GRANTED TO YOU FOR THE CODE, CLOUDERA IS NOT LIABLE FOR ANY
  ~        DIRECT, INDIRECT, INCIDENTAL, SPECIAL, EXEMPLARY, PUNITIVE OR CONSEQUENTIAL DAMAGES INCLUDING, BUT NOT LIMITED
  ~        TO, DAMAGES RELATED TO LOST REVENUE, LOST PROFITS, LOSS OF INCOME, LOSS OF BUSINESS ADVANTAGE OR
  ~        UNAVAILABILITY, OR LOSS OR CORRUPTION OF DATA.
  ~
  -->
<svg viewBox="0 0 24 24" xmlns="http://www.w3.org/2000/svg" width="1em" height="1em">
  <path d="M18.014 2c1.2 0 2.212.344 2.934 1.056 1.745 1.755 1.245 5.277-.956 8.944 2.201 3.667 2.701 7.189.956 8.944-.722.712-1.734 1.056-2.934 1.056-1.645 0-3.624-.644-5.67-1.811a4.03 4.03 0 01-.344-.2 27.319 27.319 0 01-2.045-1.4 23.659 23.659 0 01-2.423-2.122 23.213 23.213 0 01-1.99-2.245 2.084 2.084 0 00-.133-.166c-.322-.478-1.09-1.69-1.402-2.056-2.2-3.667-2.7-7.189-.954-8.944C3.773 2.344 4.787 2 5.987 2 7.721 2 9.833 2.722 12 4.011c.456.211 1.657 1.1 2.046 1.4a23.532 23.532 0 012.422 2.122c.579.578 1.111 1.167 1.613 1.778-.078.233-.956 1.356-1.323 1.889-.545-.7-1.156-1.4-1.856-2.1a21.084 21.084 0 00-2.558-2.189c-.066-.044-.2-.133-.355-.244A58.412 58.412 0 009.955 5.41c-.011 0-.023-.011-.023-.011l-.155-.078c-1.5-.755-2.823-1.1-3.79-1.1-.434 0-1.023.067-1.356.411-.7.69-.545 2.69.69 5.145l.088.178c.289.5.89 1.51 1.256 2.033-.011 0-.011.011-.011.011l.1.133a21.705 21.705 0 004.521 4.665l.359.269v.01c.04.034.103.08.184.134l.182.122c.448.302 1.168.748 1.794 1.1l.262.145-.01.01c.01.012.022.012.033.012.011 0 .011 0 .021.011.212.111.401.211.556.278 1.324.6 2.48.889 3.358.889.433 0 1.022-.067 1.356-.411.722-.711.533-2.79-.778-5.323a23.535 23.535 0 01-2.124 2.423 19.831 19.831 0 01-1.633 1.477c-.6-.266-1.623-.744-2.201-1.066a21.206 21.206 0 002.268-1.978 21.493 21.493 0 002.444-2.9c.212-.289.878-1.411 1.235-2.067 0 .011 0 .011.01.023.056-.112.112-.223.156-.323.012-.033.033-.066.045-.089 1.134-2.344 1.256-4.244.578-4.91-.334-.345-.923-.412-1.356-.412-.867 0-2.001.278-3.301.856-.3-.345-1.258-1.178-1.935-1.511C14.668 2.556 16.491 2 18.014 2zM3.54 12.833c.356.534 1.067 1.511 1.49 1.99-.966 2.177-1.045 3.91-.4 4.544.333.344.923.41 1.355.41.857 0 1.969-.266 3.246-.833.39.445 1.112 1.212 1.767 1.59C9.188 21.477 7.455 22 5.986 22c-1.2 0-2.212-.344-2.933-1.056-1.613-1.622-1.313-4.755.488-8.11zm8.46-3.058c.566 0 1.133.22 1.567.658a2.193 2.193 0 010 3.134 2.196 2.196 0 01-3.135 0 2.193 2.193 0 010-3.134c.434-.438 1-.658 1.567-.658zM9.198 6.022c.366.145.934.4 1.422.667.1.044.202.099.29.156.177.1.334.188.455.277A21.425 21.425 0 009.1 9.1a23.174 23.174 0 00-1.822 2.045 36.454 36.454 0 01-1.353-1.74l-.037-.05v-.01a22.612 22.612 0 011.644-1.812c.545-.544 1.1-1.055 1.668-1.51z" fill="currentColor" fill-rule="evenodd"/>
</svg>
