<!--
  ~  (c) 2018-2020 Cloudera, Inc. All rights reserved.
  ~
  ~    This code is provided to you pursuant to your written agreement with Cloudera, which may be the terms of the
  ~   Affero General Public License version 3 (AGPLv3), or pursuant to a written agreement with a third party authorized
  ~   to distribute this code.  If you do not have a written agreement with Cloudera or with an authorized and
  ~   properly licensed third party, you do not have any rights to this code.
  ~
  ~    If this code is provided to you under the terms of the AGPLv3:
  ~    (A) CLOUDERA PROVIDES THIS CODE TO YOU WITHOUT WARRANTIES OF ANY KIND;
  ~    (B) CLOUDERA DISCLAIMS ANY AND ALL EXPRESS AND IMPLIED WARRANTIES WITH RESPECT TO THIS CODE, INCLUDING BUT NOT
  ~        LIMITED TO IMPLIED WARRANTIES OF TITLE, NON-INFRINGEMENT, MERCHANTABILITY AND FITNESS FOR A PARTICULAR PURPOSE;
  ~    (C) CLOUDERA IS NOT LIABLE TO YOU, AND WILL NOT DEFEND, INDEMNIFY, OR HOLD YOU HARMLESS FOR ANY CLAIMS ARISING
  ~        FROM OR RELATED TO THE CODE; AND
  ~    (D) WITH RESPECT TO YOUR EXERCISE OF ANY RIGHTS GRANTED TO YOU FOR THE CODE, CLOUDERA IS NOT LIABLE FOR ANY
  ~        DIRECT, INDIRECT, INCIDENTAL, SPECIAL, EXEMPLARY, PUNITIVE OR CONSEQUENTIAL DAMAGES INCLUDING, BUT NOT LIMITED
  ~        TO, DAMAGES RELATED TO LOST REVENUE, LOST PROFITS, LOSS OF INCOME, LOSS OF BUSINESS ADVANTAGE OR
  ~        UNAVAILABILITY, OR LOSS OR CORRUPTION OF DATA.
  ~
  -->
<svg viewBox="0 0 24 24" xmlns="http://www.w3.org/2000/svg" width="1em" height="1em">
  <path d="M19.073 8.956a2.215 2.215 0 00-1.337 1.337h-3.073a3.159 3.159 0 00-.956-.956V6.264a2.215 2.215 0 001.337-1.337h2.692a2.218 2.218 0 001.337 1.337v2.692zm-8.78 8.78a2.213 2.213 0 00-1.337 1.337H6.263a2.214 2.214 0 00-1.336-1.337v-2.692a2.211 2.211 0 001.336-1.337h3.074c.243.381.575.713.956.956v3.073zM20.78 6.156A2.193 2.193 0 0022 4.196C22 2.985 21.014 2 19.804 2c-.858 0-1.599.498-1.96 1.22h-2.908A2.193 2.193 0 0012.976 2c-1.21 0-2.196.985-2.196 2.195 0 .86.498 1.6 1.22 1.961V8.83A3.178 3.178 0 008.83 12H6.155a2.194 2.194 0 00-1.96-1.22c-1.21 0-2.196.986-2.196 2.196 0 .858.498 1.6 1.22 1.96v2.908A2.194 2.194 0 002 19.805C2 21.015 2.985 22 4.195 22c.858 0 1.6-.498 1.961-1.22h2.907A2.196 2.196 0 0011.024 22c1.21 0 2.195-.985 2.195-2.195 0-.859-.498-1.6-1.219-1.96V15.17a3.178 3.178 0 003.171-3.17h2.673a2.193 2.193 0 001.96 1.22A2.2 2.2 0 0022 11.023c0-.858-.498-1.599-1.22-1.96V6.155z" fill="currentColor" fill-rule="evenodd"/>
</svg>
