<!--
  ~  (c) 2018-2020 Cloudera, Inc. All rights reserved.
  ~
  ~    This code is provided to you pursuant to your written agreement with Cloudera, which may be the terms of the
  ~   Affero General Public License version 3 (AGPLv3), or pursuant to a written agreement with a third party authorized
  ~   to distribute this code.  If you do not have a written agreement with Cloudera or with an authorized and
  ~   properly licensed third party, you do not have any rights to this code.
  ~
  ~    If this code is provided to you under the terms of the AGPLv3:
  ~    (A) CLOUDERA PROVIDES THIS CODE TO YOU WITHOUT WARRANTIES OF ANY KIND;
  ~    (B) CLOUDERA DISCLAIMS ANY AND ALL EXPRESS AND IMPLIED WARRANTIES WITH RESPECT TO THIS CODE, INCLUDING BUT NOT
  ~        LIMITED TO IMPLIED WARRANTIES OF TITLE, NON-INFRINGEMENT, MERCHANTABILITY AND FITNESS FOR A PARTICULAR PURPOSE;
  ~    (C) CLOUDERA IS NOT LIABLE TO YOU, AND WILL NOT DEFEND, INDEMNIFY, OR HOLD YOU HARMLESS FOR ANY CLAIMS ARISING
  ~        FROM OR RELATED TO THE CODE; AND
  ~    (D) WITH RESPECT TO YOUR EXERCISE OF ANY RIGHTS GRANTED TO YOU FOR THE CODE, CLOUDERA IS NOT LIABLE FOR ANY
  ~        DIRECT, INDIRECT, INCIDENTAL, SPECIAL, EXEMPLARY, PUNITIVE OR CONSEQUENTIAL DAMAGES INCLUDING, BUT NOT LIMITED
  ~        TO, DAMAGES RELATED TO LOST REVENUE, LOST PROFITS, LOSS OF INCOME, LOSS OF BUSINESS ADVANTAGE OR
  ~        UNAVAILABILITY, OR LOSS OR CORRUPTION OF DATA.
  ~
  -->
<svg viewBox="0 0 24 24" xmlns="http://www.w3.org/2000/svg" width="1em" height="1em">
  <path d="M17.412 3c1.08 0 1.991.31 2.641.95 1.571 1.58 1.12 4.75-.86 8.05 1.98 3.3 2.431 6.47.86 8.05-.65.64-1.56.95-2.64.95-1.481 0-3.262-.58-5.104-1.63-.099-.05-.199-.11-.309-.18-.62-.38-1.441-.95-1.84-1.26-.74-.57-1.48-1.2-2.181-1.91-.66-.65-1.25-1.33-1.79-2.02-.02-.03-.06-.08-.12-.15-.291-.43-.981-1.52-1.262-1.85-1.98-3.3-2.43-6.47-.86-8.05.65-.64 1.56-.95 2.641-.95 1.56 0 3.462.65 5.412 1.81.41.19 1.49.99 1.841 1.26.74.57 1.48 1.2 2.18 1.91.521.52 1 1.05 1.451 1.6-.07.21-.86 1.22-1.19 1.7-.49-.63-1.04-1.26-1.67-1.89-.77-.77-1.541-1.42-2.303-1.97-.059-.04-.179-.12-.319-.22-.51-.33-1.41-.89-1.83-1.13-.01 0-.021-.01-.021-.01l-.14-.07C8.65 5.31 7.46 5 6.59 5c-.39 0-.921.06-1.221.37-.63.62-.49 2.42.62 4.63l.08.16c.26.45.8 1.36 1.13 1.83l-.008.005-.001.005.09.12a19.51 19.51 0 004.015 4.157l.376.283v.01c.06.05.18.13.33.23.403.271 1.05.673 1.615.99l.235.13-.009.01c.01.01.02.01.03.01.01 0 .01 0 .02.01.19.1.36.19.5.25 1.19.54 2.231.8 3.021.8.39 0 .92-.06 1.22-.37.651-.64.481-2.51-.7-4.79-.57.74-1.2 1.48-1.911 2.18-.48.48-.97.93-1.47 1.33-.54-.24-1.46-.67-1.98-.96.68-.51 1.36-1.1 2.04-1.78.87-.87 1.601-1.75 2.2-2.61.191-.26.79-1.27 1.112-1.86 0 .01 0 .01.01.02.05-.1.1-.2.14-.29.01-.03.029-.06.04-.08 1.02-2.11 1.13-3.82.52-4.42-.3-.31-.83-.37-1.22-.37-.78 0-1.801.25-2.972.77-.27-.31-1.131-1.06-1.74-1.36C14.4 3.5 16.04 3 17.412 3zM4.387 12.75c.32.48.96 1.36 1.34 1.79-.869 1.96-.94 3.52-.36 4.09.3.31.832.37 1.22.37.772 0 1.772-.24 2.922-.75.351.4 1 1.09 1.59 1.43C9.47 20.53 7.91 21 6.589 21c-1.08 0-1.991-.31-2.64-.95-1.452-1.46-1.182-4.28.439-7.3zM12 9.997c.51 0 1.02.198 1.41.593.791.78.791 2.04 0 2.82a1.977 1.977 0 01-2.82 0c-.79-.78-.79-2.04 0-2.82.39-.395.9-.593 1.41-.593zM9.48 6.62c.33.13.841.36 1.28.6.09.04.181.09.26.14.16.09.301.17.41.25-.679.51-1.359 1.1-2.04 1.78-.61.61-1.16 1.23-1.64 1.84a32.808 32.808 0 01-1.217-1.566l-.033-.044v-.01c.459-.56.94-1.1 1.48-1.63.49-.49.99-.95 1.5-1.36z" fill="currentColor" fill-rule="evenodd"/>
</svg>
