<!--
  ~  (c) 2018-2020 Cloudera, Inc. All rights reserved.
  ~
  ~    This code is provided to you pursuant to your written agreement with Cloudera, which may be the terms of the
  ~   Affero General Public License version 3 (AGPLv3), or pursuant to a written agreement with a third party authorized
  ~   to distribute this code.  If you do not have a written agreement with Cloudera or with an authorized and
  ~   properly licensed third party, you do not have any rights to this code.
  ~
  ~    If this code is provided to you under the terms of the AGPLv3:
  ~    (A) CLOUDERA PROVIDES THIS CODE TO YOU WITHOUT WARRANTIES OF ANY KIND;
  ~    (B) CLOUDERA DISCLAIMS ANY AND ALL EXPRESS AND IMPLIED WARRANTIES WITH RESPECT TO THIS CODE, INCLUDING BUT NOT
  ~        LIMITED TO IMPLIED WARRANTIES OF TITLE, NON-INFRINGEMENT, MERCHANTABILITY AND FITNESS FOR A PARTICULAR PURPOSE;
  ~    (C) CLOUDERA IS NOT LIABLE TO YOU, AND WILL NOT DEFEND, INDEMNIFY, OR HOLD YOU HARMLESS FOR ANY CLAIMS ARISING
  ~        FROM OR RELATED TO THE CODE; AND
  ~    (D) WITH RESPECT TO YOUR EXERCISE OF ANY RIGHTS GRANTED TO YOU FOR THE CODE, CLOUDERA IS NOT LIABLE FOR ANY
  ~        DIRECT, INDIRECT, INCIDENTAL, SPECIAL, EXEMPLARY, PUNITIVE OR CONSEQUENTIAL DAMAGES INCLUDING, BUT NOT LIMITED
  ~        TO, DAMAGES RELATED TO LOST REVENUE, LOST PROFITS, LOSS OF INCOME, LOSS OF BUSINESS ADVANTAGE OR
  ~        UNAVAILABILITY, OR LOSS OR CORRUPTION OF DATA.
  ~
  -->
<svg viewBox="0 0 24 24" xmlns="http://www.w3.org/2000/svg" width="1em" height="1em">
  <g fill="none" fill-rule="evenodd">
    <path d="M10.579 19.105V21H8.684v-1.895h1.895zm10.421 0V21h-9.474v-1.895H21zM8.479 3.007a.066.066 0 01.029.029A20.816 20.816 0 0010.482 6.2c1.258 1.672 3.044 3.905 3.368 6.272H7.737v6.243c-2.603-.347-4.627-2.562-4.733-5.28L3 13.214C3 10.576 5.03 8.046 6.42 6.2a20.79 20.79 0 001.974-3.164.063.063 0 01.085-.03zm2.1 13.256v1.895H8.684v-1.895h1.895zm10.421 0v1.895h-9.474v-1.895H21zm-10.421-2.842v1.895H8.684V13.42h1.895zm10.421 0v1.895h-9.474V13.42H21z" fill="#728E9B"/>
    <path d="M5.657 7.862c.147.024.295.051.442.08l-.147.26c-.405.711-.766 1.449-1.08 2.207-.582 1.437-.92 3.006-.513 4.538.26.963.77 1.837 1.474 2.531a.067.067 0 01.01.083.065.065 0 01-.09.022 5.007 5.007 0 01-.617-.465 5.216 5.216 0 01-1.699-3.123c-.218-1.46.257-2.874.942-4.139.383-.691.81-1.357 1.276-1.994zm1.594-2.175c.063-.089.197-.1.14.006-.074.134-.146.268-.22.4-.263.476-.543.94-.817 1.409-.13-.023-.26-.042-.388-.06.329-.442.665-.877.985-1.326z" fill="#B9C6CD"/>
  </g>
</svg>
