<!--
  ~  (c) 2018-2020 Cloudera, Inc. All rights reserved.
  ~
  ~    This code is provided to you pursuant to your written agreement with Cloudera, which may be the terms of the
  ~   Affero General Public License version 3 (AGPLv3), or pursuant to a written agreement with a third party authorized
  ~   to distribute this code.  If you do not have a written agreement with Cloudera or with an authorized and
  ~   properly licensed third party, you do not have any rights to this code.
  ~
  ~    If this code is provided to you under the terms of the AGPLv3:
  ~    (A) CLOUDERA PROVIDES THIS CODE TO YOU WITHOUT WARRANTIES OF ANY KIND;
  ~    (B) CLOUDERA DISCLAIMS ANY AND ALL EXPRESS AND IMPLIED WARRANTIES WITH RESPECT TO THIS CODE, INCLUDING BUT NOT
  ~        LIMITED TO IMPLIED WARRANTIES OF TITLE, NON-INFRINGEMENT, MERCHANTABILITY AND FITNESS FOR A PARTICULAR PURPOSE;
  ~    (C) CLOUDERA IS NOT LIABLE TO YOU, AND WILL NOT DEFEND, INDEMNIFY, OR HOLD YOU HARMLESS FOR ANY CLAIMS ARISING
  ~        FROM OR RELATED TO THE CODE; AND
  ~    (D) WITH RESPECT TO YOUR EXERCISE OF ANY RIGHTS GRANTED TO YOU FOR THE CODE, CLOUDERA IS NOT LIABLE FOR ANY
  ~        DIRECT, INDIRECT, INCIDENTAL, SPECIAL, EXEMPLARY, PUNITIVE OR CONSEQUENTIAL DAMAGES INCLUDING, BUT NOT LIMITED
  ~        TO, DAMAGES RELATED TO LOST REVENUE, LOST PROFITS, LOSS OF INCOME, LOSS OF BUSINESS ADVANTAGE OR
  ~        UNAVAILABILITY, OR LOSS OR CORRUPTION OF DATA.
  ~
  -->
<svg viewBox="0 0 24 24" xmlns="http://www.w3.org/2000/svg" width="1em" height="1em">
  <g fill="none" fill-rule="evenodd">
    <path d="M16.77 20.986a6.55 6.55 0 01-1.332.879l-.29.135v-1.014h1.621zm-2.434-.557v1.124a6.45 6.45 0 01-1.872.415l-.32.014V20.59a.16.16 0 01.107-.153l.05-.008h2.035zm-2.589-18.42a.08.08 0 01.035.035 25.634 25.634 0 002.433 3.898c1.71 2.272 4.21 5.386 4.21 8.636H14.33a.16.16 0 00-.158.16v2.344h-2.3a.159.159 0 00-.158.16v4.17c-3.629 0-6.585-2.93-6.709-6.594L5 14.578C5 11.33 7.5 8.213 9.21 5.94a25.603 25.603 0 002.433-3.897.078.078 0 01.104-.036zm5.445 15.916v1.763a.476.476 0 01-.075.26l-.057.071a.463.463 0 01-.238.13l-.09.008H15v-2.232h2.192zm-2.856-.404v2.232h-2.193v-2.071c0-.071.045-.131.108-.153l.05-.008h2.035zm4.664.555a6.686 6.686 0 01-.996 1.65v-1.65zm-2.206-3.06v2.232h-2.192v-2.07a.16.16 0 01.108-.153l.05-.008h2.034zm2.19 0a6.757 6.757 0 01-.316 1.924l-.106.308H17.46v-2.231h1.525z" fill="#728E9B"/>
    <path d="M8.272 7.988c.182.03.363.063.545.099-.06.107-.123.213-.182.318a24.34 24.34 0 00-1.33 2.719c-.716 1.77-1.133 3.702-.631 5.589a6.888 6.888 0 001.815 3.117c.028.027.033.07.013.102a.08.08 0 01-.111.026 6.166 6.166 0 01-.76-.571 6.424 6.424 0 01-2.093-3.847c-.269-1.797.316-3.539 1.16-5.096.472-.852.997-1.672 1.572-2.456zm1.963-2.679c.077-.11.242-.122.171.007-.09.165-.178.33-.27.494-.323.585-.668 1.157-1.006 1.734-.16-.028-.319-.052-.478-.075.406-.543.82-1.08 1.213-1.631.125-.175.246-.352.37-.529z" fill="#B9C6CD"/>
  </g>
</svg>
