<!--
  ~  (c) 2018-2020 Cloudera, Inc. All rights reserved.
  ~
  ~    This code is provided to you pursuant to your written agreement with Cloudera, which may be the terms of the
  ~   Affero General Public License version 3 (AGPLv3), or pursuant to a written agreement with a third party authorized
  ~   to distribute this code.  If you do not have a written agreement with Cloudera or with an authorized and
  ~   properly licensed third party, you do not have any rights to this code.
  ~
  ~    If this code is provided to you under the terms of the AGPLv3:
  ~    (A) CLOUDERA PROVIDES THIS CODE TO YOU WITHOUT WARRANTIES OF ANY KIND;
  ~    (B) CLOUDERA DISCLAIMS ANY AND ALL EXPRESS AND IMPLIED WARRANTIES WITH RESPECT TO THIS CODE, INCLUDING BUT NOT
  ~        LIMITED TO IMPLIED WARRANTIES OF TITLE, NON-INFRINGEMENT, MERCHANTABILITY AND FITNESS FOR A PARTICULAR PURPOSE;
  ~    (C) CLOUDERA IS NOT LIABLE TO YOU, AND WILL NOT DEFEND, INDEMNIFY, OR HOLD YOU HARMLESS FOR ANY CLAIMS ARISING
  ~        FROM OR RELATED TO THE CODE; AND
  ~    (D) WITH RESPECT TO YOUR EXERCISE OF ANY RIGHTS GRANTED TO YOU FOR THE CODE, CLOUDERA IS NOT LIABLE FOR ANY
  ~        DIRECT, INDIRECT, INCIDENTAL, SPECIAL, EXEMPLARY, PUNITIVE OR CONSEQUENTIAL DAMAGES INCLUDING, BUT NOT LIMITED
  ~        TO, DAMAGES RELATED TO LOST REVENUE, LOST PROFITS, LOSS OF INCOME, LOSS OF BUSINESS ADVANTAGE OR
  ~        UNAVAILABILITY, OR LOSS OR CORRUPTION OF DATA.
  ~
  -->
<svg viewBox="0 0 24 24" xmlns="http://www.w3.org/2000/svg" width="1em" height="1em">
  <defs>
    <radialGradient cx="50%" cy="50%" fx="50%" fy="50%" r="68.112%" gradientTransform="translate(.133 .133) scale(.73409)" id="ic-pig_svg__a">
      <stop stop-color="#C16D3F" offset="0%"/>
      <stop stop-color="#F6AA7C" offset="100%"/>
    </radialGradient>
    <radialGradient cx="50%" cy="49.999%" fx="50%" fy="49.999%" r="51.31%" gradientTransform="matrix(.97448 0 0 .97448 .013 .013)" id="ic-pig_svg__b">
      <stop stop-color="#C16D3F" offset="0%"/>
      <stop stop-color="#F6AA7C" offset="100%"/>
    </radialGradient>
    <radialGradient cx="50%" cy="50%" fx="50%" fy="50%" r="77.486%" gradientTransform="matrix(.64528 0 0 .6453 .177 .177)" id="ic-pig_svg__c">
      <stop stop-color="#C16D3F" offset="0%"/>
      <stop stop-color="#F6AA7C" offset="100%"/>
    </radialGradient>
    <linearGradient x1="-22.687%" y1="43.179%" x2="94.971%" y2="53.295%" id="ic-pig_svg__d">
      <stop stop-color="#560000" offset="0%"/>
      <stop stop-color="#CC1515" offset="100%"/>
    </linearGradient>
  </defs>
  <g fill="none" fill-rule="evenodd">
    <path d="M9.446.378a6.954 6.954 0 00-3.108 1.745c-.123.123-.265.23-.371.368.029.107.135.182.195.274.057.07.114.141.166.215-.323-.31-.641-.647-1.062-.823-.654-.304-1.419-.273-2.09-.044-.542.18-1.09.337-1.64.491-.335.133-.705.14-1.059.151-.096.013-.21-.01-.295.044-.029.09.1.132.157.173.316.147.592.357.836.606.386.368.729.776 1.004 1.232.24.358.668.505 1.032.7.468.236.955.43 1.448.607-.127-.03-.313-.084-.394.058-.147.293-.202.623-.3.934-.124.474-.274.943-.37 1.424a6.717 6.717 0 00.09 2.123c.123.568.406 1.085.691 1.585.555.924 1.437 1.618 2.415 2.05.669.301 1.35.591 2.066.756.722.146 1.457.224 2.19.271.585-.004 1.175.013 1.752-.094 1.185-.193 2.364-.51 3.426-1.08.78-.408 1.483-.951 2.13-1.543.39-.353.928-.5 1.343-.82.354-.3.62-.748.843-1.16.195-.41.252-.872.216-1.322a2.743 2.743 0 00-.745-1.717c-.364-.424-.872-.68-1.377-.896-.136-.076-.311-.113-.408-.243-.116-.276-.144-.58-.226-.867-.221-.888-.511-1.784-1.073-2.52-.543-.726-1.232-1.339-1.987-1.837a6.392 6.392 0 00-2.839-.986c-.358-.03-.718-.029-1.076-.029h-.101c-.498 0-.998.038-1.48.174M1.572 3.376c.534-.113 1.08-.15 1.621-.201.263-.02.528-.041.79-.043.166.002.34.006.498.065-.525.01-1.053.022-1.575.094-.39.04-.78.088-1.17.088-.055 0-.11-.001-.164-.003m13.882 2.201a1.357 1.357 0 011.121-.652c.273.027.531.134.766.272-.219-.096-.445-.198-.69-.176a1.487 1.487 0 00-1.107.48c-.025.02-.1.11-.108.11-.002 0 .002-.01.018-.034m-5.356-.365c.036-.002.071-.002.107-.002.423 0 .842.16 1.167.429-.392-.251-.862-.352-1.323-.337a1.062 1.062 0 00-.56.108c-.273.12-.533.271-.762.46.363-.359.846-.643 1.371-.658m5.912 1.38c.004-.166-.165-.335-.053-.496a.893.893 0 01.667-.395c.216.012.355.21.511.335.176.152.345.334.554.433-.188.18-.451.254-.69.338-.09.038-.205.041-.282.1-.017.073.09.122.124.18.387.382.698.845.862 1.366.196.559.257 1.167.163 1.753-.023.21-.254.274-.405.37-.555.367-.998.872-1.46 1.344-.168.084-.365.075-.55.1-1.062.092-2.16-.075-3.125-.55-.34-.157-.62-.412-.93-.619-.062-.052-.158-.046-.191.035-.131.286-.18.605-.328.884-.189.383-.429.755-.751 1.034.39-.438.715-.945.873-1.515.238-.835.164-1.763-.247-2.533-.015-.037-.122-.223-.069-.138.364.59.553 1.302.541 1.999-.006.12.145.102.223.128.655.121 1.317.204 1.981.264.08-.038.013-.157.02-.23-.083-.483-.186-.97-.124-1.46.094-.784.372-1.596.96-2.141.4-.365.955-.607 1.5-.582a.195.195 0 01.09.02c.027.01.054.02.078.02s.044-.011.058-.043m-6.079.869c-.4-.042-.779-.186-1.148-.337.323-.107.637-.251.904-.467.204-.167.438-.342.719-.32.324.012.645.143.864.385.126.112.215.252.326.376a.542.542 0 01.171.24c-.096.082-.24.07-.358.098-.291.033-.584.05-.876.05-.201 0-.402-.008-.602-.025m5.21 6.104a4.438 4.438 0 001.594-.834c.028-.02.063-.048.088-.061-.155.24-.393.414-.618.586-.457.324-1.019.447-1.56.553-.737.127-1.497.176-2.235.035-.108-.02-.218-.038-.324-.066.219-.004.439-.002.66 0h.36c.685 0 1.372-.024 2.034-.213" fill="url(#ic-pig_svg__a)" transform="translate(1 4.25)"/>
    <path d="M15.55 6.709c-.561-.012-1.061.339-1.403.759a3.554 3.554 0 00-.738 1.9c-.027.484-.014.978.14 1.442.038.075.02.25.146.21.707-.044 1.418-.073 2.12-.184.61-.097 1.226-.22 1.797-.466.106-.04.2-.124.202-.245a4.526 4.526 0 00-.09-1.314c-.183-.812-.68-1.6-1.454-1.957a1.627 1.627 0 00-.72-.146m.995 2.518c-.119-.228-.1-.497-.03-.738.021-.047.048-.123.109-.128.124.05.123.217.143.33.008.203.021.429-.094.609-.012.017-.024.025-.036.025-.037 0-.073-.068-.092-.098m-1.874.49c-.088-.161-.064-.36-.079-.537.008-.21-.012-.435.07-.634.01-.014.023-.027.04-.023.093.059.078.198.096.295.009.289.034.59-.055.871-.007.027-.028.056-.047.056-.01 0-.018-.008-.025-.027" fill="url(#ic-pig_svg__b)" transform="translate(1 4.25)"/>
    <path d="M16.787.63a2.598 2.598 0 00-1.564.51c-.073.157.172.25.248.354.786.624 1.48 1.368 1.985 2.238.112.142.165.367.328.458.318-.141.637-.315.903-.543.36-.446.677-.93 1.1-1.323.28-.298.613-.54.941-.772-.192-.109-.465-.096-.692-.138-.808-.092-1.552-.452-2.333-.658a2.588 2.588 0 00-.852-.127h-.064m2.415 1.439a69.546 69.546 0 00-2.527-.175c-.04-.002-.255-.023-.113-.049.156-.03.315-.029.473-.03.785.015 1.573.07 2.345.214.06.034-.063.04-.137.04a.82.82 0 01-.041 0" fill="url(#ic-pig_svg__c)" transform="translate(1 4.25)"/>
    <path d="M12 11.213c.622.378 1.31.574 2.012.685.595.023 1.203.084 1.791-.006.221-.09-.065-.29-.157-.365-.321-.247-.686-.474-1.109-.413-.514-.019-1.305-.032-1.844-.072-.116-.008-.227-.023-.315-.026a1.455 1.455 0 00-.248.002l-.017.002a.128.128 0 00-.048-.009c-.105 0-.183.134-.065.202" fill="url(#ic-pig_svg__d)" transform="translate(1 4.25)"/>
    <path d="M7.412 6.163C9.18 4.64 11.471 4.03 13.684 4.496c.66.139 1.075.283 1.74.606.309.15.588.273.622.273.033 0 .158-.073.277-.162.836-.623 1.814-.672 2.983-.147.293.131.568.239.611.239.029 0 .364.129.586.227.057-.022.41.023.924.121l.346.135a.613.613 0 01.243-.063c.06.001.008.052-.115.113l-.094.053c-.31.193-.855.676-1.183 1.055-.34.393-.698.909-.698 1.005 0 .058-.846.576-1.07.654-.03.01.006.166.083.345.077.178.21.611.295.961l.156.636.551.287c1.55.806 2.276 2.41 1.737 3.83 0 0-.284.744-.547 1.061-.595.72-1.284.902-1.417.973-.132.07-.374.29-.374.29s-.448.388-.63.541c-.182.154-.494.414-.57.485-.138.128-.368.262-.368.262l-.498.296c-.77.387-1.187.547-1.903.73l-.609.155-.411.077-.448.079a7.249 7.249 0 01-1.019.078c-.313 0-1.31-.03-1.757-.078-.796-.086-1.892-.336-2.534-.578-.755-.284-1.797-.85-2.268-1.231-.413-.336-1.064-1.205-1.138-1.354a14.27 14.27 0 00-.126-.243c-.088-.16-.202-.467-.312-.767a5.436 5.436 0 01-.27-2.386c.086-.688.418-2.283.51-2.455.135-.254.072-.38-.235-.471a8.632 8.632 0 01-.925-.39c-.603-.291-.64-.323-.92-.78-.338-.553-1.285-1.519-1.714-1.749-.229-.122-.24-.2-.12-.2l.694-.06c.26-.015.491-.03.595-.075.015-.007.045-.005.076-.027.256-.09.649-.215.675-.215.05 0 .308-.105.576-.233.73-.349 1.3-.447 1.898-.325.438.09.784.228 1.083.433l.19.13zm6.125-1.598c-.719-.126-2.045-.126-2.701 0-1.24.24-2.479.872-3.366 1.718l-.49.468.222.27c.325.394.274.43-.073.053-.772-.839-1.811-1.076-2.973-.678a20.44 20.44 0 01-1.653.487.602.602 0 01-.055.034c-.067.04-.35.085-.628.102l-.557.042c.085 0-.053.013-.053.042 0 .029.14.11.31.18.376.154 1.235 1.028 1.581 1.607.22.37.292.427.937.76.384.2.997.466 1.362.594.592.206.626.243.11.118-.214-.053-.257.027-.496.918-.103.381-.244.898-.315 1.148-.147.517-.169 1.181-.066 2 .088.702.22 1.079.655 1.867.548.991 1.416 1.748 2.591 2.26 1.45.631 1.843.744 3.107.893 1.625.192 2.516.13 4.17-.286a9.192 9.192 0 004.011-2.181 7.22 7.22 0 01.968-.748c.582-.348 1.183-.95 1.393-1.396.377-.799.248-1.975-.297-2.7-.438-.583-.748-.807-1.658-1.199-.386-.166-.389-.169-.476-.578-.41-1.921-.864-2.838-1.907-3.856-1.113-1.084-2.26-1.694-3.653-1.939zm4.306 12.378c-.116.219-.608.622-.96.787-.824.388-2.356.583-3.312.422-.84-.14-.78-.181.224-.15 1.842.055 2.904-.223 3.89-1.017.21-.17.23-.175.158-.042zm-7.026.366c-.05.08-.319.243-.319.192 0-.016.083-.083.183-.15.101-.065.162-.085.136-.042zm7.359-7.02c.227.216.454.394.505.395.173.005-.174.232-.513.35l-.084.026-.37.108.32.334c.666.694 1.032 1.915.87 2.9-.039.227-.085.28-.351.398-.272.12-1.103.878-1.432 1.305-.096.125-.219.159-.733.202-1.383.115-2.885-.279-3.718-.976-.165-.137-.336-.25-.381-.25-.045 0-.118.152-.162.337-.153.646-.61 1.384-1.07 1.727-.086.064-.037-.017.105-.182l.058-.065.134-.16c.897-1.132 1.01-2.706.262-3.926-.125-.203-.152-.276-.065-.175.334.39.633 1.185.685 1.787l.008.174v.325l.368.074c.52.104 1.787.257 1.823.22.016-.017-.014-.235-.067-.485a3.624 3.624 0 01.04-1.78c.306-1.194 1.007-1.932 2.006-2.114.227-.041.4-.04.478.004.126.07.126-.004-.001-.31-.076-.183.295-.545.61-.595.246-.04.288-.017.675.351zm-5.234 5.079c0 .145 1.056.576 1.781.727.443.092 1.776.121 2.044.045.15-.043.153-.054.048-.204-.061-.088-.274-.252-.473-.366-.35-.2-.393-.208-1.27-.21-.499-.002-1.12-.031-1.38-.065-.48-.062-.75-.036-.75.073zm2.833-4.169c-1.03.605-1.586 2.204-1.272 3.584l.049.187.079.272.849-.044a15.6 15.6 0 001.634-.185c.804-.146 1.55-.381 1.641-.518.088-.132.056-.963-.054-1.432-.386-1.64-1.786-2.531-2.926-1.864zm-.02 1.57c.052.051.085.289.085.602 0 .538-.115.821-.224.552-.03-.073-.055-.322-.055-.552 0-.51.07-.726.195-.602zm1.939-.157c.183.184.124 1.003-.073 1.003-.029 0-.092-.095-.14-.21-.146-.353.023-.982.213-.793zm-5.97-2.005c.397.089.78.535.908.782-.028-.08-.009-.074.066.022a.539.539 0 01.105.184c0 .158-1.566.236-2.132.107a5.692 5.692 0 01-.589-.173l-.109-.043-.278-.119.325-.106c.18-.059.474-.229.655-.379.408-.336.577-.38 1.048-.275zm-.109.144c0 .034.032.082.07.106.128.079.072.165-.122.187-.138.016-.192.061-.192.162 0 .1.054.146.192.161.211.025.237.077.105.218-.072.077-.014.085.337.051.502-.05.652-.097.635-.215-.026.004-.224-.213-.368-.347-.211-.198-.657-.432-.657-.323zm-1.396.575c-.166.066-.168.072-.035.127.214.088.314.077.314-.034 0-.145-.08-.172-.28-.093zm7.404-1.309c-.057.035-.037.082.063.152.168.118.193.303.04.303a.105.105 0 00-.105.105c0 .058.051.105.113.105.079 0 .102.043.077.14-.043.163.087.182.428.063.121-.043.22-.092.22-.111 0-.019-.17-.208-.377-.42-.17-.176-.316-.294-.398-.33l-.036-.01zM12.52 9.98c.18.175.23.235.112.133-.38-.328-.807-.498-1.34-.533-.434-.029-.553-.008-.908.154a2.91 2.91 0 00-.648.41c-.207.195-.22.2-.104.038.18-.25.7-.59 1.04-.682a1.894 1.894 0 011.848.48zm5.047-.833c.237.002.773.212.848.333.024.038-.074.01-.216-.063-.535-.273-1.271-.093-1.702.416-.202.24-.21.242-.111.046.21-.42.719-.735 1.18-.732zm1.276-4.088c-.76-.253-1.547-.227-2.149.07-.221.11-.433.237-.471.283-.05.059.082.198.464.49.648.497 1.22 1.148 1.707 1.945l.365.597.46-.243c.388-.204.507-.313.74-.68.449-.706 1.275-1.48 1.787-1.72l-.389-.093c-.192 0-.452-.023-.58-.053a1.457 1.457 0 01-.078-.021c.002.068-.786-.219-1.856-.575zM5.221 7.36c.434.065.465.166.038.125-.19-.018-.636.001-.992.043-1.144.135-1.711.168-1.752.102-.056-.09 2.32-.328 2.706-.27zm15.245-1.065c-.1.064-.216.061-1.064-.029A17.75 17.75 0 0018.1 6.19c-.709-.012-.831-.076-.3-.155.376-.057 2.793.18 2.666.261z" fill="#0B0606"/>
    <path d="M11.648 10.724c.117.012.215.076.314.127.257.138.445.366.659.56.032.015.021.058.002.08-.057.064-.15.074-.229.094-.212.038-.428.06-.643.068-.036-.004-.086.01-.11-.023.006-.033.04-.056.058-.083.028-.034.071-.089.032-.128-.081-.06-.192-.038-.28-.08-.085-.035-.101-.15-.057-.22.054-.074.156-.067.236-.088.048-.013.115-.033.123-.091-.015-.067-.095-.087-.125-.145-.012-.018-.017-.05-.002-.064l.022-.007h.004zm-1.27.56c.022 0 .046.001.066.01.056.029.055.104.05.158-.008.052-.07.063-.113.057a.772.772 0 01-.275-.094c-.02-.007-.017-.032.002-.039a.756.756 0 01.27-.091zm7.258-1.27c.037.001.07.02.101.04.186.125.339.293.493.454.077.086.161.166.227.26-.006.033-.05.042-.074.058a1.487 1.487 0 01-.442.132c-.048.006-.109.003-.132-.047-.012-.061.012-.124.006-.186-.017-.045-.072-.04-.11-.049a.101.101 0 01-.077-.132c.012-.056.076-.07.124-.077.057-.004.088-.067.07-.116-.026-.114-.14-.17-.213-.25-.029-.028-.014-.083.027-.087z" fill="#FDFEFF"/>
  </g>
</svg>
