<!--
  ~  (c) 2018-2020 Cloudera, Inc. All rights reserved.
  ~
  ~    This code is provided to you pursuant to your written agreement with Cloudera, which may be the terms of the
  ~   Affero General Public License version 3 (AGPLv3), or pursuant to a written agreement with a third party authorized
  ~   to distribute this code.  If you do not have a written agreement with Cloudera or with an authorized and
  ~   properly licensed third party, you do not have any rights to this code.
  ~
  ~    If this code is provided to you under the terms of the AGPLv3:
  ~    (A) CLOUDERA PROVIDES THIS CODE TO YOU WITHOUT WARRANTIES OF ANY KIND;
  ~    (B) CLOUDERA DISCLAIMS ANY AND ALL EXPRESS AND IMPLIED WARRANTIES WITH RESPECT TO THIS CODE, INCLUDING BUT NOT
  ~        LIMITED TO IMPLIED WARRANTIES OF TITLE, NON-INFRINGEMENT, MERCHANTABILITY AND FITNESS FOR A PARTICULAR PURPOSE;
  ~    (C) CLOUDERA IS NOT LIABLE TO YOU, AND WILL NOT DEFEND, INDEMNIFY, OR HOLD YOU HARMLESS FOR ANY CLAIMS ARISING
  ~        FROM OR RELATED TO THE CODE; AND
  ~    (D) WITH RESPECT TO YOUR EXERCISE OF ANY RIGHTS GRANTED TO YOU FOR THE CODE, CLOUDERA IS NOT LIABLE FOR ANY
  ~        DIRECT, INDIRECT, INCIDENTAL, SPECIAL, EXEMPLARY, PUNITIVE OR CONSEQUENTIAL DAMAGES INCLUDING, BUT NOT LIMITED
  ~        TO, DAMAGES RELATED TO LOST REVENUE, LOST PROFITS, LOSS OF INCOME, LOSS OF BUSINESS ADVANTAGE OR
  ~        UNAVAILABILITY, OR LOSS OR CORRUPTION OF DATA.
  ~
  -->
<svg viewBox="0 0 192 192" xmlns="http://www.w3.org/2000/svg" width="1em" height="1em">
  <defs>
    <linearGradient x1="26.347%" y1="30.729%" x2="100%" y2="100%" id="ic-product-machine-learning-lg_svg__a">
      <stop stop-color="#22BCB9" offset="0%"/>
      <stop stop-color="#066584" offset="100%"/>
    </linearGradient>
  </defs>
  <g fill="none" fill-rule="evenodd">
    <path fill="url(#ic-product-machine-learning-lg_svg__a)" d="M20 20v152h100.645L172 120.645V20z"/>
    <path d="M95.248 40c4.141 0 7.63 1.188 10.124 3.642 6.02 6.056 4.295 18.208-3.298 30.858 7.593 12.65 9.318 24.802 3.298 30.858-2.493 2.454-5.983 3.642-10.124 3.642-5.676 0-12.502-2.223-19.562-6.248-.38-.192-.763-.422-1.185-.69-2.377-1.457-5.526-3.642-7.056-4.83-2.837-2.185-5.675-4.6-8.36-7.322-2.53-2.492-4.793-5.098-6.864-7.743a7.19 7.19 0 00-.46-.575l-.282-.423c-1.228-1.851-3.559-5.501-4.554-6.669-7.589-12.65-9.314-24.802-3.294-30.858C46.12 41.188 49.613 40 53.755 40c5.982 0 13.268 2.492 20.746 6.938 1.573.729 5.714 3.795 7.056 4.83 2.838 2.185 5.676 4.6 8.356 7.322a82.846 82.846 0 015.565 6.133c-.269.805-3.298 4.677-4.564 6.517a77.5 77.5 0 00-6.404-7.245c-2.953-2.952-5.905-5.443-8.824-7.552-.226-.153-.686-.46-1.223-.843-1.956-1.265-5.407-3.412-7.018-4.332-.038 0-.08-.038-.08-.038-.226-.115-.38-.192-.533-.268-5.177-2.607-9.74-3.795-13.077-3.795-1.496 0-3.528.23-4.678 1.418-2.416 2.377-1.88 9.277 2.377 17.748l.238.476.069.138c.997 1.725 3.068 5.213 4.333 7.015-.025 0-.034.017-.037.028l-.001.01.345.46c2.224 3.143 4.905 6.363 8.088 9.545a75.156 75.156 0 008.082 6.982l.665.493v.038c.23.192.686.499 1.265.882a100.552 100.552 0 006.672 4.064l.419.23-.035.038c.035.038.077.038.115.038.039 0 .039 0 .073.038.733.384 1.385.729 1.918.959 4.567 2.07 8.555 3.066 11.585 3.066 1.495 0 3.528-.23 4.678-1.418 2.493-2.453 1.84-9.622-2.684-18.362-2.186 2.837-4.602 5.674-7.329 8.357-1.836 1.84-3.715 3.565-5.633 5.098-2.07-.92-5.599-2.568-7.593-3.68 2.608-1.955 5.216-4.216 7.823-6.823 3.336-3.335 6.136-6.708 8.433-10.005.732-.997 3.03-4.868 4.26-7.13 0 .038 0 .038.039.077.191-.384.383-.767.537-1.112.038-.115.11-.23.153-.307 3.912-8.088 4.333-14.643 1.994-16.943-1.15-1.188-3.183-1.418-4.678-1.418-2.991 0-6.903.958-11.39 2.951-1.035-1.188-4.337-4.063-6.672-5.213C83.705 41.917 89.994 40 95.248 40zM45.317 77.375c1.227 1.84 3.681 5.213 5.138 6.862-3.332 7.513-3.605 13.493-1.38 15.678 1.15 1.188 3.186 1.418 4.678 1.418 2.957 0 6.792-.92 11.198-2.875 1.346 1.534 3.835 4.179 6.097 5.482-6.25 3.258-12.23 5.06-17.295 5.06-4.141 0-7.631-1.188-10.12-3.642-5.564-5.596-4.529-16.406 1.684-27.983zM74.5 66.822c1.956 0 3.911.76 5.407 2.273a7.565 7.565 0 010 10.81 7.577 7.577 0 01-5.407 2.274 7.577 7.577 0 01-5.407-2.274 7.565 7.565 0 010-10.81 7.577 7.577 0 015.407-2.273zm-9.666-12.945a47.656 47.656 0 014.909 2.3c.345.153.694.341.997.537.614.345 1.154.651 1.572.958-2.604 1.955-5.211 4.217-7.823 6.823a79.95 79.95 0 00-6.285 7.054c-1.342-1.614-3.34-4.179-4.333-5.559-.154-.214-.283-.38-.387-.516l-.074-.097v-.038c1.76-2.147 3.605-4.217 5.672-6.249 1.88-1.878 3.797-3.641 5.752-5.213z" fill="#FFF"/>
  </g>
</svg>
