<!--
  ~  (c) 2018-2020 Cloudera, Inc. All rights reserved.
  ~
  ~    This code is provided to you pursuant to your written agreement with Cloudera, which may be the terms of the
  ~   Affero General Public License version 3 (AGPLv3), or pursuant to a written agreement with a third party authorized
  ~   to distribute this code.  If you do not have a written agreement with Cloudera or with an authorized and
  ~   properly licensed third party, you do not have any rights to this code.
  ~
  ~    If this code is provided to you under the terms of the AGPLv3:
  ~    (A) CLOUDERA PROVIDES THIS CODE TO YOU WITHOUT WARRANTIES OF ANY KIND;
  ~    (B) CLOUDERA DISCLAIMS ANY AND ALL EXPRESS AND IMPLIED WARRANTIES WITH RESPECT TO THIS CODE, INCLUDING BUT NOT
  ~        LIMITED TO IMPLIED WARRANTIES OF TITLE, NON-INFRINGEMENT, MERCHANTABILITY AND FITNESS FOR A PARTICULAR PURPOSE;
  ~    (C) CLOUDERA IS NOT LIABLE TO YOU, AND WILL NOT DEFEND, INDEMNIFY, OR HOLD YOU HARMLESS FOR ANY CLAIMS ARISING
  ~        FROM OR RELATED TO THE CODE; AND
  ~    (D) WITH RESPECT TO YOUR EXERCISE OF ANY RIGHTS GRANTED TO YOU FOR THE CODE, CLOUDERA IS NOT LIABLE FOR ANY
  ~        DIRECT, INDIRECT, INCIDENTAL, SPECIAL, EXEMPLARY, PUNITIVE OR CONSEQUENTIAL DAMAGES INCLUDING, BUT NOT LIMITED
  ~        TO, DAMAGES RELATED TO LOST REVENUE, LOST PROFITS, LOSS OF INCOME, LOSS OF BUSINESS ADVANTAGE OR
  ~        UNAVAILABILITY, OR LOSS OR CORRUPTION OF DATA.
  ~
  -->
<svg viewBox="0 0 24 24" xmlns="http://www.w3.org/2000/svg" width="1em" height="1em">
  <path d="M18.7 16.5a2.2 2.2 0 11-4.4 0 2.2 2.2 0 014.4 0zm3.3.825v-1.65l-1.226-.204a4.41 4.41 0 00-.524-1.265l.722-1.012-1.167-1.167-1.01.723a4.41 4.41 0 00-1.266-.524L17.325 11h-1.65l-.204 1.226a4.398 4.398 0 00-1.265.524l-1.012-.723-1.167 1.167.723 1.012a4.411 4.411 0 00-.525 1.265L11 15.675v1.65l1.225.204c.11.453.288.878.525 1.265l-.723 1.012 1.167 1.167 1.012-.723c.387.236.811.415 1.265.524L15.675 22h1.65l.204-1.226a4.41 4.41 0 001.265-.524l1.011.723 1.167-1.167-.722-1.012a4.41 4.41 0 00.524-1.265L22 17.325zM10 15h.484l1.076.007c.066-.187.22-.569.307-.747l-.819-1.147.952-.952V9h-2v6zm1.64 3.192l-1.39-.231V17H5V5h12v5.25h.961l.231 1.39c.187.065.37.14.548.227l.26-.185V3H3v16h8.681l-.042-.808zM7 15h2v-4H7v4zm6-8h2v3.484l-.193 1.156c-.186.065-.369.14-.547.227L13 10.992V7z" fill="currentColor" fill-rule="evenodd"/>
</svg>
