<!--
  ~  (c) 2018-2020 Cloudera, Inc. All rights reserved.
  ~
  ~    This code is provided to you pursuant to your written agreement with Cloudera, which may be the terms of the
  ~   Affero General Public License version 3 (AGPLv3), or pursuant to a written agreement with a third party authorized
  ~   to distribute this code.  If you do not have a written agreement with Cloudera or with an authorized and
  ~   properly licensed third party, you do not have any rights to this code.
  ~
  ~    If this code is provided to you under the terms of the AGPLv3:
  ~    (A) CLOUDERA PROVIDES THIS CODE TO YOU WITHOUT WARRANTIES OF ANY KIND;
  ~    (B) CLOUDERA DISCLAIMS ANY AND ALL EXPRESS AND IMPLIED WARRANTIES WITH RESPECT TO THIS CODE, INCLUDING BUT NOT
  ~        LIMITED TO IMPLIED WARRANTIES OF TITLE, NON-INFRINGEMENT, MERCHANTABILITY AND FITNESS FOR A PARTICULAR PURPOSE;
  ~    (C) CLOUDERA IS NOT LIABLE TO YOU, AND WILL NOT DEFEND, INDEMNIFY, OR HOLD YOU HARMLESS FOR ANY CLAIMS ARISING
  ~        FROM OR RELATED TO THE CODE; AND
  ~    (D) WITH RESPECT TO YOUR EXERCISE OF ANY RIGHTS GRANTED TO YOU FOR THE CODE, CLOUDERA IS NOT LIABLE FOR ANY
  ~        DIRECT, INDIRECT, INCIDENTAL, SPECIAL, EXEMPLARY, PUNITIVE OR CONSEQUENTIAL DAMAGES INCLUDING, BUT NOT LIMITED
  ~        TO, DAMAGES RELATED TO LOST REVENUE, LOST PROFITS, LOSS OF INCOME, LOSS OF BUSINESS ADVANTAGE OR
  ~        UNAVAILABILITY, OR LOSS OR CORRUPTION OF DATA.
  ~
  -->
<svg viewBox="0 0 192 192" xmlns="http://www.w3.org/2000/svg" width="1em" height="1em">
  <defs>
    <linearGradient x1="26.347%" y1="30.729%" x2="100%" y2="100%" id="ic-product-data-catalog-lg_svg__a">
      <stop stop-color="#F2B50E" offset="0%"/>
      <stop stop-color="#B36820" offset="100%"/>
    </linearGradient>
  </defs>
  <g fill="none" fill-rule="evenodd">
    <path fill="url(#ic-product-data-catalog-lg_svg__a)" d="M20 20v152h100.645L172 120.645V20z"/>
    <path d="M83.192 74.901c6.797 0 12.292 5.504 12.292 12.264 0 6.8-5.495 12.303-12.292 12.303-6.753 0-12.252-5.503-12.252-12.303 0-6.76 5.5-12.264 12.252-12.264zm16.77 23.465a20.125 20.125 0 003.378-11.201c0-11.084-9.036-20.122-20.148-20.122-11.072 0-20.104 9.038-20.104 20.122 0 11.124 9.032 20.165 20.104 20.165a20.13 20.13 0 0011.193-3.38L107.424 117l5.576-5.58-13.039-13.054zM48.913 49.317c2.98-1.143 9.068-2.4 18.104-2.4 9.028 0 15.115 1.257 18.1 2.4-9.62 3.1-26.584 3.1-36.204 0zM67.018 40C58.887 40 40 41.021 40 50.14v41.665c0 3.85 3.378 6.679 9.973 8.332 3.889.985 8.873 1.613 14.255 1.767a23.82 23.82 0 01-3.808-7.112c-8.014-.629-12.568-2.278-13.51-3.303v-7.623c3.533 1.138 7.775 1.925 12.289 2.318.081-2.047.397-3.968.981-5.856-5.142-.397-9.891-1.338-13.27-2.752v-8.608c4.944 1.613 11.385 2.513 17.947 2.67a24.765 24.765 0 017.81-6.09c-9.307.664-19.71-.316-25.756-2.833v-7.858c5.495 1.807 12.799 2.711 20.107 2.711 7.3 0 14.604-.904 20.103-2.711v8.608c1.177.158 2.357.43 3.456.826 1.216.394 2.352.864 3.455 1.41V50.14C94.032 41.02 75.145 40 67.018 40z" fill="#FFF"/>
  </g>
</svg>
