<!--
  ~  (c) 2018-2020 Cloudera, Inc. All rights reserved.
  ~
  ~    This code is provided to you pursuant to your written agreement with Cloudera, which may be the terms of the
  ~   Affero General Public License version 3 (AGPLv3), or pursuant to a written agreement with a third party authorized
  ~   to distribute this code.  If you do not have a written agreement with Cloudera or with an authorized and
  ~   properly licensed third party, you do not have any rights to this code.
  ~
  ~    If this code is provided to you under the terms of the AGPLv3:
  ~    (A) CLOUDERA PROVIDES THIS CODE TO YOU WITHOUT WARRANTIES OF ANY KIND;
  ~    (B) CLOUDERA DISCLAIMS ANY AND ALL EXPRESS AND IMPLIED WARRANTIES WITH RESPECT TO THIS CODE, INCLUDING BUT NOT
  ~        LIMITED TO IMPLIED WARRANTIES OF TITLE, NON-INFRINGEMENT, MERCHANTABILITY AND FITNESS FOR A PARTICULAR PURPOSE;
  ~    (C) CLOUDERA IS NOT LIABLE TO YOU, AND WILL NOT DEFEND, INDEMNIFY, OR HOLD YOU HARMLESS FOR ANY CLAIMS ARISING
  ~        FROM OR RELATED TO THE CODE; AND
  ~    (D) WITH RESPECT TO YOUR EXERCISE OF ANY RIGHTS GRANTED TO YOU FOR THE CODE, CLOUDERA IS NOT LIABLE FOR ANY
  ~        DIRECT, INDIRECT, INCIDENTAL, SPECIAL, EXEMPLARY, PUNITIVE OR CONSEQUENTIAL DAMAGES INCLUDING, BUT NOT LIMITED
  ~        TO, DAMAGES RELATED TO LOST REVENUE, LOST PROFITS, LOSS OF INCOME, LOSS OF BUSINESS ADVANTAGE OR
  ~        UNAVAILABILITY, OR LOSS OR CORRUPTION OF DATA.
  ~
  -->
<svg xmlns="http://www.w3.org/2000/svg" width="36" height="36" viewBox="0 0 36 36">
    <defs>
        <linearGradient id="a" x1="26.465%" y1="30.841%" y2="100%">
            <stop offset="0%" stop-color="#85C441"/>
            <stop offset="100%" stop-color="#1C873F"/>
        </linearGradient>
    </defs>
    <g fill="none" fill-rule="evenodd">
        <path fill="#1C2429" d="M-50-10h248v56H-50z"/>
        <path fill="url(#a)" d="M3.75 3.75v28.5h18.871l9.629-9.629V3.75z"/>
        <path fill="#FFF" fill-rule="nonzero" d="M19.416 7.125c.857 0 1.553.7 1.553 1.56a1.558 1.558 0 0 1-1.82 1.536l-.066-.013-1.258 2.22a3.075 3.075 0 0 1 1.026 1.659l.017.075h.843l.022-.049c.253-.53.79-.887 1.401-.887.858 0 1.553.7 1.553 1.56 0 .86-.695 1.56-1.553 1.56-.654 0-1.221-.411-1.447-.997l-.018-.048h-.783a3.065 3.065 0 0 1-.9 1.696l-.057.054 1.341 2.336a1.558 1.558 0 0 1 1.7 1.553c0 .86-.697 1.56-1.554 1.56a1.558 1.558 0 0 1-1.199-2.55l.039-.044-1.294-2.253a3.076 3.076 0 0 1-2.035.068l-.088-.03-.476.839a1.558 1.558 0 0 1-1.229 2.512c-.857 0-1.553-.7-1.553-1.56a1.558 1.558 0 0 1 1.744-1.547l.062.009.462-.814a3.073 3.073 0 0 1-1.03-1.752l-.013-.077h-2.663a1.555 1.555 0 0 1-1.465 1.044c-.857 0-1.553-.7-1.553-1.56 0-.86.696-1.56 1.553-1.56.61 0 1.15.359 1.401.888l.023.049h2.722a3.072 3.072 0 0 1 1.048-1.737l.06-.049-.426-.742a1.558 1.558 0 0 1-1.763-1.545c0-.86.695-1.56 1.553-1.56a1.558 1.558 0 0 1 1.24 2.497l-.039.05.442.77a3.077 3.077 0 0 1 1.806-.002l.086.028 1.306-2.303a1.558 1.558 0 0 1 1.279-2.444zm0 13.005a.786.786 0 0 0-.184.022l-.045.013-.127.038-.11.08a.81.81 0 0 0 .466 1.467.808.808 0 0 0 .803-.81.808.808 0 0 0-.803-.81zm-6.282-1.457a.808.808 0 0 0-.803.81c0 .446.361.81.803.81a.808.808 0 0 0 .554-1.395l-.032-.03-.102-.087-.124-.05a.787.787 0 0 0-.296-.058zm2.712-5.825c-1.076 0-1.95.87-1.95 1.938 0 1.067.875 1.937 1.95 1.937s1.95-.87 1.95-1.937a1.946 1.946 0 0 0-1.95-1.938zm5.288 1.128a.806.806 0 0 0-.776.601l-.009.038-.027.13.016.137c.048.405.39.713.796.713a.808.808 0 0 0 .804-.81.808.808 0 0 0-.804-.81zm-12.456 0a.808.808 0 0 0-.803.81c0 .446.361.81.803.81.393 0 .727-.29.791-.675l.006-.039.016-.136-.028-.13a.806.806 0 0 0-.785-.64zm4.618-4.697a.808.808 0 0 0-.804.81c0 .446.361.81.804.81.072 0 .144-.011.215-.031l.053-.018.127-.045.103-.083a.81.81 0 0 0-.498-1.443zm6.12-1.404a.808.808 0 0 0-.591 1.356l.03.032.094.093.124.059a.79.79 0 0 0 .343.08.808.808 0 0 0 .803-.81.808.808 0 0 0-.803-.81z"/>
    </g>
</svg>
