<!--
  ~  (c) 2018-2020 Cloudera, Inc. All rights reserved.
  ~
  ~    This code is provided to you pursuant to your written agreement with Cloudera, which may be the terms of the
  ~   Affero General Public License version 3 (AGPLv3), or pursuant to a written agreement with a third party authorized
  ~   to distribute this code.  If you do not have a written agreement with Cloudera or with an authorized and
  ~   properly licensed third party, you do not have any rights to this code.
  ~
  ~    If this code is provided to you under the terms of the AGPLv3:
  ~    (A) CLOUDERA PROVIDES THIS CODE TO YOU WITHOUT WARRANTIES OF ANY KIND;
  ~    (B) CLOUDERA DISCLAIMS ANY AND ALL EXPRESS AND IMPLIED WARRANTIES WITH RESPECT TO THIS CODE, INCLUDING BUT NOT
  ~        LIMITED TO IMPLIED WARRANTIES OF TITLE, NON-INFRINGEMENT, MERCHANTABILITY AND FITNESS FOR A PARTICULAR PURPOSE;
  ~    (C) CLOUDERA IS NOT LIABLE TO YOU, AND WILL NOT DEFEND, INDEMNIFY, OR HOLD YOU HARMLESS FOR ANY CLAIMS ARISING
  ~        FROM OR RELATED TO THE CODE; AND
  ~    (D) WITH RESPECT TO YOUR EXERCISE OF ANY RIGHTS GRANTED TO YOU FOR THE CODE, CLOUDERA IS NOT LIABLE FOR ANY
  ~        DIRECT, INDIRECT, INCIDENTAL, SPECIAL, EXEMPLARY, PUNITIVE OR CONSEQUENTIAL DAMAGES INCLUDING, BUT NOT LIMITED
  ~        TO, DAMAGES RELATED TO LOST REVENUE, LOST PROFITS, LOSS OF INCOME, LOSS OF BUSINESS ADVANTAGE OR
  ~        UNAVAILABILITY, OR LOSS OR CORRUPTION OF DATA.
  ~
  -->
<svg viewBox="0 0 24 24" xmlns="http://www.w3.org/2000/svg" width="1em" height="1em">
  <defs>
    <linearGradient x1="28.771%" y1="30.729%" x2="94.875%" y2="100%" id="ic-product-data_catalog-sm_svg__a">
      <stop stop-color="#F2B50E" offset="0%"/>
      <stop stop-color="#B36820" offset="100%"/>
    </linearGradient>
  </defs>
  <path d="M13.65 11.112a3.031 3.031 0 010 6.062 3.03 3.03 0 01-3.021-3.036 3.028 3.028 0 013.021-3.026zm4.135 5.79a4.973 4.973 0 00-4.135-7.729c-2.73 0-4.957 2.23-4.957 4.965 0 2.745 2.227 4.976 4.957 4.976a4.961 4.961 0 002.76-.834l3.215 3.22L21 20.123l-3.215-3.221zM5.198 4.799c.735-.282 2.236-.592 4.464-.592 2.226 0 3.727.31 4.463.592-2.372.765-6.555.765-8.927 0zM9.662 2.5C7.657 2.5 3 2.752 3 5.002v10.281c0 .95.833 1.648 2.459 2.056.959.243 2.188.398 3.515.436a5.88 5.88 0 01-.939-1.755c-1.976-.155-3.099-.562-3.331-.815v-1.881c.871.281 1.917.475 3.03.572.02-.505.098-.979.242-1.445-1.268-.098-2.439-.33-3.272-.679V9.648c1.219.398 2.807.62 4.425.659a6.107 6.107 0 011.926-1.503c-2.295.164-4.86-.078-6.351-.699V6.166c1.355.446 3.156.669 4.958.669 1.8 0 3.601-.223 4.957-.669V8.29c.29.039.581.106.852.204.3.097.58.213.852.348v-3.84c0-2.25-4.657-2.502-6.661-2.502z" fill="url(#ic-product-data_catalog-sm_svg__a)" fill-rule="evenodd"/>
</svg>
