<!--
  ~  (c) 2018-2020 Cloudera, Inc. All rights reserved.
  ~
  ~    This code is provided to you pursuant to your written agreement with Cloudera, which may be the terms of the
  ~   Affero General Public License version 3 (AGPLv3), or pursuant to a written agreement with a third party authorized
  ~   to distribute this code.  If you do not have a written agreement with Cloudera or with an authorized and
  ~   properly licensed third party, you do not have any rights to this code.
  ~
  ~    If this code is provided to you under the terms of the AGPLv3:
  ~    (A) CLOUDERA PROVIDES THIS CODE TO YOU WITHOUT WARRANTIES OF ANY KIND;
  ~    (B) CLOUDERA DISCLAIMS ANY AND ALL EXPRESS AND IMPLIED WARRANTIES WITH RESPECT TO THIS CODE, INCLUDING BUT NOT
  ~        LIMITED TO IMPLIED WARRANTIES OF TITLE, NON-INFRINGEMENT, MERCHANTABILITY AND FITNESS FOR A PARTICULAR PURPOSE;
  ~    (C) CLOUDERA IS NOT LIABLE TO YOU, AND WILL NOT DEFEND, INDEMNIFY, OR HOLD YOU HARMLESS FOR ANY CLAIMS ARISING
  ~        FROM OR RELATED TO THE CODE; AND
  ~    (D) WITH RESPECT TO YOUR EXERCISE OF ANY RIGHTS GRANTED TO YOU FOR THE CODE, CLOUDERA IS NOT LIABLE FOR ANY
  ~        DIRECT, INDIRECT, INCIDENTAL, SPECIAL, EXEMPLARY, PUNITIVE OR CONSEQUENTIAL DAMAGES INCLUDING, BUT NOT LIMITED
  ~        TO, DAMAGES RELATED TO LOST REVENUE, LOST PROFITS, LOSS OF INCOME, LOSS OF BUSINESS ADVANTAGE OR
  ~        UNAVAILABILITY, OR LOSS OR CORRUPTION OF DATA.
  ~
  -->
<svg viewBox="0 0 24 24" xmlns="http://www.w3.org/2000/svg" width="1em" height="1em">
  <path d="M13.702 4.03a7.17 7.17 0 012.86.899c.552-.3 1.314-.501 1.898-.504.41.005.763.043 1.085.15.268.067.565.167.862.265.487.163.948.316 1.422.37.093.015.157.021.222.028.199.02.444.044.666.167.143.079.235.223.243.382a.465.465 0 01-.202.405c-.34.233-.64.449-.89.706-.298.273-.53.57-.775.886-.107.137-.214.274-.325.408-.223.193-.6.422-.883.584.094.276.183.58.273.933.03.104.058.226.083.347.026.12.05.24.09.355.018.007.044.019.065.026.062.027.123.053.18.084.519.216 1.1.501 1.538.997a3.12 3.12 0 01.874 1.982 2.976 2.976 0 01-.266 1.552c-.268.487-.563.966-.984 1.313-.246.185-.49.306-.724.424-.24.12-.466.232-.637.382-.782.698-1.527 1.224-2.277 1.606-1.001.524-2.196.894-3.648 1.123-.429.079-.863.095-1.29.098l-.318.001-.255.001a17.25 17.25 0 01-2.336-.279c-.802-.18-1.533-.486-2.214-.786-1.148-.494-2.102-1.285-2.683-2.227-.327-.562-.627-1.108-.763-1.724-.16-.81-.193-1.57-.1-2.274.05-.246.109-.475.17-.699l.094-.332.126-.447c.037-.116.063-.21.089-.306.035-.13.071-.263.117-.397a8.8 8.8 0 00-.315-.157l-.147-.07-.502-.245c-.345-.166-.736-.352-1-.738a5.685 5.685 0 00-.961-1.15 2.508 2.508 0 00-.727-.52C.915 7.36.99 7.011 1.024 6.91a.47.47 0 01.196-.25.83.83 0 01.457-.112l.143-.006c.318-.01.62-.02.866-.117a43.23 43.23 0 001.703-.498c.87-.29 1.757-.269 2.488.064.161.066.304.128.42.184l.01-.01.011-.01.117-.106a7.607 7.607 0 013.394-1.86c.64-.176 1.303-.188 1.739-.188.403-.002.766 0 1.134.03zm-1.106.903c-.64.005-1.106.043-1.517.157a6.665 6.665 0 00-2.744 1.416l-.228.208-.146.132c-.067.06-.136.118-.19.187a.487.487 0 01-.612.12 6.967 6.967 0 00-.668-.309c-.517-.233-1.165-.245-1.797-.032a40.11 40.11 0 01-1.703.497 1.89 1.89 0 01-.273.083c.04.036.079.074.117.113A6.49 6.49 0 013.93 8.817c.11.16.357.278.617.403l.128.062.126.063.245.118c.654.31.972.473 1.068.774a.57.57 0 01-.046.414c-.068.132-.118.318-.171.515l-.045.163-.05.161-.122.44c-.09.31-.18.617-.243.932-.075.572-.045 1.234.093 1.936.106.477.358.935.652 1.438.474.77 1.273 1.428 2.246 1.848.641.28 1.322.568 2.026.726.537.105 1.12.182 1.81.234l.353.024.226-.002c.506 0 .984 0 1.446-.084 1.355-.215 2.452-.551 3.364-1.03.68-.346 1.359-.826 2.08-1.471.266-.234.561-.38.846-.524.205-.102.4-.2.558-.318.281-.234.52-.623.733-1.01.114-.236.175-.535.173-.86l-.009-.197a2.257 2.257 0 00-.627-1.426c-.33-.371-.795-.597-1.254-.789a1.763 1.763 0 00-.135-.063c-.132-.055-.33-.139-.476-.328l-.032-.048-.025-.05-.017-.048-.019.046a.205.205 0 01-.028.042l-.04.033c-.35.218-.6.427-.65.468l-.008.008-.019.007c.674.68.972 1.78.952 2.556-.003.13-.124.245-.245.227a.237.237 0 01-.233-.239c.016-.591-.206-1.692-.882-2.301-.367-.333-.825-.475-1.351-.421-.537.052-.99.312-1.312.751-.523.713-.657 1.818-.378 3.038 1.614.057 2.994-.203 3.702-.483a.24.24 0 01.297.102.229.229 0 01-.065.301c-.771.561-1.122.836-1.501 1.306a.247.247 0 01-.1.071c-.221.084-.587.11-.936.11-.433 0-.84-.038-.917-.045-1.459-.265-2.113-.629-2.932-1.182-.084.597-.306 1.221-.774 1.764a.241.241 0 01-.337.028.229.229 0 01-.03-.328c1.105-1.282.645-3.158.403-3.472a.229.229 0 01.045-.326.242.242 0 01.335.045c.182.234.41.953.393 1.795.015.001.027-.007.04-.003a11.61 11.61 0 001.892.297c-.27-1.3-.11-2.494.474-3.29a2.284 2.284 0 012.068-.945c-.04-.148-.075-.374.048-.586.105-.184.301-.311.583-.381.317-.081.66.205.884.393.042.033.074.063.096.076.03.007.089.046.19.114.055.038.158.11.197.121.026.01.047.03.07.046-.028-.104-.051-.21-.074-.315-.022-.1-.043-.2-.072-.298a9.755 9.755 0 00-.379-1.208l-.015-.03c-.06-.06-.235-.141-.472-.163l-.124-.006c-.279.001-.67.083-.99.467a.256.256 0 01-.353.035.24.24 0 01-.039-.345 1.768 1.768 0 011.197-.639l.178-.009c.084 0 .16.01.236.02-.542-.817-1.39-1.692-2.17-2.202a6.148 6.148 0 00-2.686-.91c-.334-.027-.668-.022-1.02-.027zm5.955 11.577a.23.23 0 01.003.33c-.53.53-1.625 1.307-3.475 1.307-.408 0-.852-.037-1.335-.124a.234.234 0 01-.192-.271.237.237 0 01.278-.188c2.458.441 3.801-.47 4.383-1.05a.244.244 0 01.338-.004zm-.593-1.202a12.666 12.666 0 01-3.913.1c.45.215.978.385 1.758.527.429.042 1.221.072 1.554-.02a4.86 4.86 0 01.6-.607zm-1.688-2.67c.125 0 .228.308.228.685 0 .38-.103.685-.228.685s-.228-.306-.228-.685c0-.377.103-.684.228-.684zm1.96-.255c.124 0 .227.306.227.683 0 .38-.103.686-.228.686s-.228-.307-.228-.686c0-.377.103-.683.228-.683zm-4.799-1.047l.04.074.04.075c.03.058.035.124.013.184a.232.232 0 01-.126.137c-.477.212-.915.29-1.301.29-.728 0-1.283-.273-1.608-.432-.074-.036-.133-.066-.177-.081a.233.233 0 01-.157-.245.238.238 0 01.208-.207c.245-.03.436-.163.656-.317.257-.179.548-.382.96-.415.859-.07 1.244.547 1.452.937zm-1.366-.468c.098.106.161.242.161.395a.575.575 0 01-.13.35c.267.002.551-.026.869-.138-.201-.357-.44-.617-.9-.607zm6.086-.559a.854.854 0 01.005.702c.073.037.143.081.213.129.013-.024.013-.05.034-.07.01-.008.16-.14.404-.312-.032-.022-.06-.043-.083-.053-.055-.017-.106-.06-.208-.145a1.869 1.869 0 00-.365-.25zM10.253 8.91c.937-.656 1.888-.709 2.678-.142.106.075.145.228.07.332-.074.103-.204.142-.313.07l-.04-.026c-.78-.56-1.581-.229-2.116.145a.247.247 0 01-.14.044.24.24 0 01-.194-.097.23.23 0 01.055-.326zm8.209-3.552a3.99 3.99 0 00-.995.21c.794.66 1.56 1.54 2.03 2.348.241-.137.483-.284.587-.37.045-.067.146-.197.247-.328.26-.332.527-.676.864-.98.05-.053.105-.106.159-.157-.428-.081-.848-.221-1.257-.357-.275-.093-.55-.185-.83-.257-.25-.082-.497-.107-.805-.109z" fill="currentColor" fill-rule="evenodd"/>
</svg>
