<!--
  ~  (c) 2018-2020 Cloudera, Inc. All rights reserved.
  ~
  ~    This code is provided to you pursuant to your written agreement with Cloudera, which may be the terms of the
  ~   Affero General Public License version 3 (AGPLv3), or pursuant to a written agreement with a third party authorized
  ~   to distribute this code.  If you do not have a written agreement with Cloudera or with an authorized and
  ~   properly licensed third party, you do not have any rights to this code.
  ~
  ~    If this code is provided to you under the terms of the AGPLv3:
  ~    (A) CLOUDERA PROVIDES THIS CODE TO YOU WITHOUT WARRANTIES OF ANY KIND;
  ~    (B) CLOUDERA DISCLAIMS ANY AND ALL EXPRESS AND IMPLIED WARRANTIES WITH RESPECT TO THIS CODE, INCLUDING BUT NOT
  ~        LIMITED TO IMPLIED WARRANTIES OF TITLE, NON-INFRINGEMENT, MERCHANTABILITY AND FITNESS FOR A PARTICULAR PURPOSE;
  ~    (C) CLOUDERA IS NOT LIABLE TO YOU, AND WILL NOT DEFEND, INDEMNIFY, OR HOLD YOU HARMLESS FOR ANY CLAIMS ARISING
  ~        FROM OR RELATED TO THE CODE; AND
  ~    (D) WITH RESPECT TO YOUR EXERCISE OF ANY RIGHTS GRANTED TO YOU FOR THE CODE, CLOUDERA IS NOT LIABLE FOR ANY
  ~        DIRECT, INDIRECT, INCIDENTAL, SPECIAL, EXEMPLARY, PUNITIVE OR CONSEQUENTIAL DAMAGES INCLUDING, BUT NOT LIMITED
  ~        TO, DAMAGES RELATED TO LOST REVENUE, LOST PROFITS, LOSS OF INCOME, LOSS OF BUSINESS ADVANTAGE OR
  ~        UNAVAILABILITY, OR LOSS OR CORRUPTION OF DATA.
  ~
  -->
<svg viewBox="0 0 24 24" xmlns="http://www.w3.org/2000/svg" width="1em" height="1em">
  <defs>
    <linearGradient x1="32.432%" y1="31.124%" x2="87.807%" y2="100%" id="ic-product-data_hub-sm_svg__a">
      <stop stop-color="#ED1978" offset="0%"/>
      <stop stop-color="#8F2068" offset="100%"/>
    </linearGradient>
  </defs>
  <path d="M11.5 13.9c.16.069.32.1.5.1s.34-.031.5-.09A1.498 1.498 0 0012 11c-.83 0-1.5.67-1.5 1.5 0 .65.42 1.21 1 1.4M22 21.5c0 1.099-.9 2-2 2s-2-.901-2-2c0-.93.64-1.71 1.5-1.93V18h-7.01l-.01 1.559A2.016 2.016 0 0114 21.5c0 1.099-.9 2-2 2s-2-.901-2-2c0-.92.63-1.701 1.48-1.93l.01-1.57H4.5v1.57c.86.22 1.5 1 1.5 1.93 0 1.099-.9 2-2 2s-2-.901-2-2c0-.93.64-1.71 1.5-1.93V17h7.99v-1.55A2.983 2.983 0 019 12.5c0-1.661 1.34-3 3-3s3 1.339 3 3c0 1.49-1.09 2.73-2.51 2.96V17h8.01v2.57c.86.22 1.5 1 1.5 1.93m0-11.588c0 2.165-1.865 3.921-4.167 3.921h-2.34c.16-.415.257-.863.257-1.333 0-.229-.028-.45-.067-.667h2.15c1.195 0 2.167-.862 2.167-1.921 0-.875-.729-1.579-1.333-1.579h-2v-2c.095-5.316-6.603-4.792-6.559-.5-.828.003-1.441 0-1.441 0-.516 0-1.334.362-1.334 1.334v2h-2c-.506 0-1.333.854-1.333 1.529 0 .627.598 1.137 1.333 1.137h2.984a3.752 3.752 0 00-.067.667c0 .47.097.918.257 1.333H5.333C3.492 13.833 2 12.428 2 10.696c0-1.733 1.667-3.529 3.333-3.529 0-2.06 1.666-3.334 3.334-3.334.833-2.5 3.177-3.339 5-3.333 2.5.007 5 2.5 5 5.833C20.42 6.333 22 7.986 22 9.912" fill="url(#ic-product-data_hub-sm_svg__a)" fill-rule="evenodd"/>
</svg>
