<!--
  ~  (c) 2018-2020 Cloudera, Inc. All rights reserved.
  ~
  ~    This code is provided to you pursuant to your written agreement with Cloudera, which may be the terms of the
  ~   Affero General Public License version 3 (AGPLv3), or pursuant to a written agreement with a third party authorized
  ~   to distribute this code.  If you do not have a written agreement with Cloudera or with an authorized and
  ~   properly licensed third party, you do not have any rights to this code.
  ~
  ~    If this code is provided to you under the terms of the AGPLv3:
  ~    (A) CLOUDERA PROVIDES THIS CODE TO YOU WITHOUT WARRANTIES OF ANY KIND;
  ~    (B) CLOUDERA DISCLAIMS ANY AND ALL EXPRESS AND IMPLIED WARRANTIES WITH RESPECT TO THIS CODE, INCLUDING BUT NOT
  ~        LIMITED TO IMPLIED WARRANTIES OF TITLE, NON-INFRINGEMENT, MERCHANTABILITY AND FITNESS FOR A PARTICULAR PURPOSE;
  ~    (C) CLOUDERA IS NOT LIABLE TO YOU, AND WILL NOT DEFEND, INDEMNIFY, OR HOLD YOU HARMLESS FOR ANY CLAIMS ARISING
  ~        FROM OR RELATED TO THE CODE; AND
  ~    (D) WITH RESPECT TO YOUR EXERCISE OF ANY RIGHTS GRANTED TO YOU FOR THE CODE, CLOUDERA IS NOT LIABLE FOR ANY
  ~        DIRECT, INDIRECT, INCIDENTAL, SPECIAL, EXEMPLARY, PUNITIVE OR CONSEQUENTIAL DAMAGES INCLUDING, BUT NOT LIMITED
  ~        TO, DAMAGES RELATED TO LOST REVENUE, LOST PROFITS, LOSS OF INCOME, LOSS OF BUSINESS ADVANTAGE OR
  ~        UNAVAILABILITY, OR LOSS OR CORRUPTION OF DATA.
  ~
  -->
<svg viewBox="0 0 24 24" xmlns="http://www.w3.org/2000/svg" width="1em" height="1em">
  <defs>
    <linearGradient x1="26.347%" y1="30.729%" x2="100%" y2="100%" id="ic-product-cloudera-manager-sm_svg__a">
      <stop stop-color="#00B7E0" offset="0%"/>
      <stop stop-color="#005380" offset="100%"/>
    </linearGradient>
  </defs>
  <g fill="none" fill-rule="evenodd">
    <path fill="url(#ic-product-cloudera-manager-sm_svg__a)" d="M0 0v20h13.243L20 13.243V0z" transform="translate(2 2)"/>
    <path d="M7.365 4c.681 0 1.286.138 1.815.414.528.275.943.667 1.245 1.173.301.507.46 1.097.476 1.77H9.09C9.077 6.773 8.91 6.32 8.593 6c-.317-.32-.753-.48-1.31-.48-.744 0-1.256.267-1.538.802-.282.535-.423 1.257-.423 2.165 0 .608.054 1.129.164 1.563.11.434.31.778.6 1.033.289.256.692.384 1.21.384.587 0 1.031-.152 1.333-.457.3-.304.467-.743.499-1.32h1.809c-.008.666-.169 1.248-.482 1.746a3.16 3.16 0 01-1.274 1.156A3.937 3.937 0 017.377 13c-.893 0-1.627-.199-2.203-.596a3.472 3.472 0 01-1.269-1.611C3.635 10.116 3.5 9.35 3.5 8.5c0-.851.133-1.615.4-2.293a3.437 3.437 0 011.262-1.611C5.738 4.199 6.472 4 7.365 4zm6.615.207l2.256 5.704 2.267-5.704H20.5v8.586h-1.621V7.028l-2.267 5.765h-.776L13.57 7.028v5.765h-1.62V4.207h2.031z" fill="#FFF"/>
  </g>
</svg>
