<!--
  ~  (c) 2018-2020 Cloudera, Inc. All rights reserved.
  ~
  ~    This code is provided to you pursuant to your written agreement with Cloudera, which may be the terms of the
  ~   Affero General Public License version 3 (AGPLv3), or pursuant to a written agreement with a third party authorized
  ~   to distribute this code.  If you do not have a written agreement with Cloudera or with an authorized and
  ~   properly licensed third party, you do not have any rights to this code.
  ~
  ~    If this code is provided to you under the terms of the AGPLv3:
  ~    (A) CLOUDERA PROVIDES THIS CODE TO YOU WITHOUT WARRANTIES OF ANY KIND;
  ~    (B) CLOUDERA DISCLAIMS ANY AND ALL EXPRESS AND IMPLIED WARRANTIES WITH RESPECT TO THIS CODE, INCLUDING BUT NOT
  ~        LIMITED TO IMPLIED WARRANTIES OF TITLE, NON-INFRINGEMENT, MERCHANTABILITY AND FITNESS FOR A PARTICULAR PURPOSE;
  ~    (C) CLOUDERA IS NOT LIABLE TO YOU, AND WILL NOT DEFEND, INDEMNIFY, OR HOLD YOU HARMLESS FOR ANY CLAIMS ARISING
  ~        FROM OR RELATED TO THE CODE; AND
  ~    (D) WITH RESPECT TO YOUR EXERCISE OF ANY RIGHTS GRANTED TO YOU FOR THE CODE, CLOUDERA IS NOT LIABLE FOR ANY
  ~        DIRECT, INDIRECT, INCIDENTAL, SPECIAL, EXEMPLARY, PUNITIVE OR CONSEQUENTIAL DAMAGES INCLUDING, BUT NOT LIMITED
  ~        TO, DAMAGES RELATED TO LOST REVENUE, LOST PROFITS, LOSS OF INCOME, LOSS OF BUSINESS ADVANTAGE OR
  ~        UNAVAILABILITY, OR LOSS OR CORRUPTION OF DATA.
  ~
  -->
<svg viewBox="0 0 24 24" xmlns="http://www.w3.org/2000/svg" width="1em" height="1em">
  <defs>
    <linearGradient x1="26.465%" y1="30.841%" x2="100%" y2="100%" id="ic-product-data-flow-sm_svg__a">
      <stop stop-color="#85C441" offset="0%"/>
      <stop stop-color="#1C873F" offset="100%"/>
    </linearGradient>
  </defs>
  <path d="M17.796 2c1.102 0 1.996.91 1.996 2.029 0 1.119-.894 2.029-1.996 2.029-.116 0-.231-.01-.344-.03l-.084-.018-1.618 2.887a4.008 4.008 0 011.32 2.159l.021.098h1.084l.028-.063a1.996 1.996 0 011.8-1.155c1.103 0 1.997.91 1.997 2.029 0 1.119-.894 2.029-1.996 2.029-.842 0-1.57-.534-1.86-1.296l-.023-.062h-1.007a4.003 4.003 0 01-1.156 2.206l-.074.07 1.724 3.04c.062-.007.125-.01.188-.01 1.102 0 1.996.91 1.996 2.029 0 1.119-.894 2.029-1.996 2.029-1.102 0-1.996-.91-1.996-2.029 0-.479.166-.93.455-1.287l.05-.059-1.663-2.93a3.91 3.91 0 01-2.615.088l-.114-.038-.611 1.09c.266.35.417.783.417 1.24 0 1.118-.894 2.029-1.996 2.029-1.102 0-1.996-.91-1.996-2.03 0-1.118.894-2.028 1.996-2.028.082 0 .164.005.245.015l.08.012.593-1.058a4.008 4.008 0 01-1.323-2.28l-.018-.1H5.88a2 2 0 01-1.884 1.359c-1.102 0-1.996-.91-1.996-2.029 0-1.119.894-2.029 1.996-2.029.785 0 1.477.465 1.8 1.155l.03.063h3.498a4.005 4.005 0 011.347-2.26l.077-.063-.548-.966c-.089.013-.18.019-.27.019-1.102 0-1.996-.91-1.996-2.029 0-1.119.894-2.029 1.996-2.029 1.102 0 1.996.91 1.996 2.029 0 .449-.145.874-.402 1.22l-.05.064.568 1.001a3.91 3.91 0 012.32-.001l.112.036 1.679-2.996a2.043 2.043 0 01-.353-1.15C15.8 2.91 16.694 2 17.796 2zm0 16.918c-.08 0-.16.01-.237.028l-.058.016-.163.05-.141.104c-.27.197-.433.513-.433.855 0 .581.464 1.053 1.032 1.053.568 0 1.032-.472 1.032-1.053s-.464-1.053-1.032-1.053zm-8.073-1.896c-.568 0-1.032.472-1.032 1.053 0 .58.464 1.053 1.032 1.053.568 0 1.032-.472 1.032-1.053 0-.291-.117-.563-.32-.76l-.042-.04-.13-.113-.16-.066a1.001 1.001 0 00-.38-.074zm3.484-7.577a2.517 2.517 0 00-2.506 2.52 2.517 2.517 0 002.506 2.52 2.516 2.516 0 002.506-2.52 2.517 2.517 0 00-2.506-2.52zm6.797 1.467c-.47 0-.878.326-.997.782l-.012.05-.036.17.021.176c.062.527.502.928 1.024.928.568 0 1.032-.472 1.032-1.053s-.464-1.053-1.032-1.053zm-16.008 0c-.568 0-1.032.472-1.032 1.053s.464 1.053 1.032 1.053a1.04 1.04 0 001.017-.877l.007-.05.02-.177-.035-.17a1.04 1.04 0 00-1.01-.832zm5.934-6.11c-.568 0-1.032.472-1.032 1.053s.464 1.053 1.032 1.053a.987.987 0 00.277-.04l.068-.022.163-.06.133-.108c.246-.2.391-.499.391-.823 0-.58-.464-1.053-1.032-1.053zm7.866-1.826c-.568 0-1.032.472-1.032 1.053 0 .267.098.518.272.711l.038.04.121.122.16.077c.139.068.288.103.44.103.57 0 1.033-.472 1.033-1.053s-.464-1.053-1.032-1.053z" fill="url(#ic-product-data-flow-sm_svg__a)" fill-rule="evenodd"/>
</svg>
