<!--
  ~  (c) 2018-2020 Cloudera, Inc. All rights reserved.
  ~
  ~    This code is provided to you pursuant to your written agreement with Cloudera, which may be the terms of the
  ~   Affero General Public License version 3 (AGPLv3), or pursuant to a written agreement with a third party authorized
  ~   to distribute this code.  If you do not have a written agreement with Cloudera or with an authorized and
  ~   properly licensed third party, you do not have any rights to this code.
  ~
  ~    If this code is provided to you under the terms of the AGPLv3:
  ~    (A) CLOUDERA PROVIDES THIS CODE TO YOU WITHOUT WARRANTIES OF ANY KIND;
  ~    (B) CLOUDERA DISCLAIMS ANY AND ALL EXPRESS AND IMPLIED WARRANTIES WITH RESPECT TO THIS CODE, INCLUDING BUT NOT
  ~        LIMITED TO IMPLIED WARRANTIES OF TITLE, NON-INFRINGEMENT, MERCHANTABILITY AND FITNESS FOR A PARTICULAR PURPOSE;
  ~    (C) CLOUDERA IS NOT LIABLE TO YOU, AND WILL NOT DEFEND, INDEMNIFY, OR HOLD YOU HARMLESS FOR ANY CLAIMS ARISING
  ~        FROM OR RELATED TO THE CODE; AND
  ~    (D) WITH RESPECT TO YOUR EXERCISE OF ANY RIGHTS GRANTED TO YOU FOR THE CODE, CLOUDERA IS NOT LIABLE FOR ANY
  ~        DIRECT, INDIRECT, INCIDENTAL, SPECIAL, EXEMPLARY, PUNITIVE OR CONSEQUENTIAL DAMAGES INCLUDING, BUT NOT LIMITED
  ~        TO, DAMAGES RELATED TO LOST REVENUE, LOST PROFITS, LOSS OF INCOME, LOSS OF BUSINESS ADVANTAGE OR
  ~        UNAVAILABILITY, OR LOSS OR CORRUPTION OF DATA.
  ~
  -->
<svg viewBox="0 0 24 24" xmlns="http://www.w3.org/2000/svg" width="1em" height="1em">
  <defs>
    <linearGradient x1="50%" y1="84.995%" x2="50%" y2="-24.272%" id="ic-ranger_svg__a">
      <stop stop-color="#0F3A53" offset="0%"/>
      <stop stop-color="#18425C" offset="28.952%"/>
      <stop stop-color="#325872" offset="84.584%"/>
      <stop stop-color="#395E79" offset="100%"/>
    </linearGradient>
  </defs>
  <g fill="none" fill-rule="evenodd">
    <path d="M8.951 0l.379.012c2.623.165 4.791 2.009 7.098 3.172l.347.169.228.093c.103.037.208.069.314.095l.16.035.097.034c.286.15.323.683.315 1.118l-.019.48-.028.565a18.486 18.486 0 01-.187 1.684l-.097.557-.065.454a14.732 14.732 0 01-1.824 5.11l-.258.426-.209.27c-.096.117-.197.23-.301.34l-.16.161-.135-.145-.286.335a13.506 13.506 0 01-4.958 3.538l-.41.162-.412-.164a13.514 13.514 0 01-4.958-3.568l-.286-.338-.134.147-.238-.244a5.947 5.947 0 01-.296-.347l-.137-.18-.239-.393A14.675 14.675 0 01.416 8.473l-.07-.493-.103-.557c-.093-.558-.16-1.12-.2-1.684L.01 5.175 0 4.735C-.004 4.29.032 3.73.333 3.6l.09-.025.24-.056c.106-.029.21-.063.313-.103l.152-.064.33-.161C3.777 2.027 5.954.17 8.589.01L8.952 0zm5.108 14.15l-.287.33a13.3 13.3 0 01-4.155 3.11l-.398.182-.203.084.335-.133a12.282 12.282 0 004.485-3.223l.262-.31-.04-.04zm-10.227-.012l-.039.042.273.32a12.29 12.29 0 004.485 3.223l.323.128-.32-.131a12.293 12.293 0 01-4.446-3.252l-.276-.33zM1.187 8.541a13.234 13.234 0 001.63 4.661l.233.389.186.25c.087.109.177.214.272.315l.145.149.044-.046-.603-.69-.234-.388a13.71 13.71 0 01-1.666-4.642l-.066-.436.06.438zm15.569-.312l-.047.322a13.633 13.633 0 01-1.667 4.652l-.234.388-.588.685.029.029.215-.226c.093-.103.182-.21.266-.32l.122-.168.234-.389a13.25 13.25 0 001.63-4.661l.04-.312zm.36-3.421l-.003-.04c.007.123.007.248.004.367l-.018.453-.037.507a17.969 17.969 0 01-.194 1.509l-.05.262.055-.27c.09-.498.157-1 .201-1.503l.036-.505.014-.474v-.152l-.01-.193.003.039zM8.952.805L8.59.819c-.938.068-1.812.364-2.656.76l-.627.314C6.368 1.336 7.47.895 8.676.843L8.95.839l.001-.034z" fill="url(#ic-ranger_svg__a)" transform="translate(3 2.75)"/>
    <path d="M12.5 3.46c1.404.161 2.672.798 3.892 1.491l.66.381c.693.403 1.408.819 2.128 1.146.13.057.266.104.407.142l.216.05c.428.096.457.75.441 1.262l-.017.41c-.05.853-.159 1.706-.326 2.536a13.847 13.847 0 01-1.984 5.531l-.705.824-.146-.144a13.491 13.491 0 01-4.794 3.55l-.319.131-.048-.017a12.456 12.456 0 01-5.079-3.667l-.12.128-.708-.812A13.686 13.686 0 014 10.859c-.18-.841-.3-1.712-.358-2.58l-.019-.472c-.007-.48.05-1.069.48-1.149.222-.04.437-.107.641-.202a18.6 18.6 0 001.564-.825l1.116-.648c1.417-.814 2.888-1.557 4.585-1.523.152-.018.323-.016.49 0zm-.481.256h-.086c-1.832 0-3.433.935-4.984 1.84-.681.399-1.388.81-2.097 1.133-.224.104-.46.178-.702.223-.238.043-.274.508-.27.883l.018.472c.057.85.177 1.71.356 2.549a13.47 13.47 0 001.95 5.434l.507.58.128-.138.092.116a12.191 12.191 0 005.019 3.685l.221-.091a13.25 13.25 0 004.79-3.586l.09-.106.146.145.514-.599a13.595 13.595 0 001.936-5.42c.166-.827.275-1.667.323-2.505l.016-.379c.013-.395 0-.974-.238-1.03a3.354 3.354 0 01-.673-.21c-.55-.25-1.094-.547-1.625-.852l-1.177-.68c-1.198-.682-2.443-1.309-3.8-1.464a2.28 2.28 0 00-.454 0zm1.49 7.316c.653 0 1.161.15 1.528.455.366.303.548.737.548 1.302 0 .29-.062.565-.186.824s-.3.472-.526.646c-.227.17-.488.268-.781.29l.556 1.968h.644l-.238 1.02H13.4l-.717-2.893h-.91l-.432 1.873h.617l-.246 1.02h-2.9l.237-1.02h.638l1.033-4.471h-.635l.228-1.014h3.194zm-.393 1.014h-.742l-.415 1.76h.708c.4 0 .705-.085.915-.255.21-.172.315-.43.315-.771 0-.23-.07-.41-.213-.54-.142-.13-.332-.194-.568-.194zm2.534-3.384c.199.015.372.14.447.324l.023.235a3.944 3.944 0 01-1.454 1.218c-.178.112-.38.213-.59.325a1.474 1.474 0 01-.084-.206l-.03-.107c-.122-.582-.559-.693-1.117-.671-.19.015-.378.051-.56.112l-1.284.427-1.285.445a1.338 1.338 0 00-.894.838c-.07.307-.022.63.133.905-.356 0-.704.112-1.117.134a3.616 3.616 0 01-1.251 0c-.404-.1-.514-.369-.257-.704.275-.329.603-.608.97-.826l.226-.124a18.497 18.497 0 014.827-1.911 9.877 9.877 0 012.236-.414h1.06zm-7.2-.98a.675.675 0 01.177-.252l.083-.064a3.55 3.55 0 012.123-.794h.224c.27-.035.541.07.715.28.269.403.703.666 1.184.715.358 0 .414.391.616.604.021.022.034.1.077.167-2.052.232-4.03.902-5.8 1.967a.884.884 0 01.078-.994c.095-.143.184-.29.264-.44l.096-.193-.091-.05a.347.347 0 00-.1-.044c-.03 0-.11-.11-.16-.182l-.04-.064.118.086c.02.014.042.027.064.04a.61.61 0 00.116.054l.058.01a2.9 2.9 0 01-.447-.335l-.126-.317-.142-.31-.116-.223-.033-.026-.097-.09-.09-.096a3.074 3.074 0 01-.079-.378l-.03-.265.009-.072s.01-.1.067-.1l.033.006.034-.007s.011-.09.078-.09l.033.004.034-.003.082.057.075.066c.172.164.318.352.435.558l.115.195c.085.14.142.219.142.219l.005.15-.005.152c.042-.06.08-.124.112-.19.04.081.076.164.11.249zM7.29 6.404l.642 1.133c.165.3.297.55.297.589.053.127.098.258.135.39a1.79 1.79 0 00-.079-.424 14.78 14.78 0 00-.994-1.688zm.068.816l.063.123.07.056c-.01-.09-.133-.179-.133-.179z" fill="#FFF"/>
  </g>
</svg>
