<!--
  ~  (c) 2018-2020 Cloudera, Inc. All rights reserved.
  ~
  ~    This code is provided to you pursuant to your written agreement with Cloudera, which may be the terms of the
  ~   Affero General Public License version 3 (AGPLv3), or pursuant to a written agreement with a third party authorized
  ~   to distribute this code.  If you do not have a written agreement with Cloudera or with an authorized and
  ~   properly licensed third party, you do not have any rights to this code.
  ~
  ~    If this code is provided to you under the terms of the AGPLv3:
  ~    (A) CLOUDERA PROVIDES THIS CODE TO YOU WITHOUT WARRANTIES OF ANY KIND;
  ~    (B) CLOUDERA DISCLAIMS ANY AND ALL EXPRESS AND IMPLIED WARRANTIES WITH RESPECT TO THIS CODE, INCLUDING BUT NOT
  ~        LIMITED TO IMPLIED WARRANTIES OF TITLE, NON-INFRINGEMENT, MERCHANTABILITY AND FITNESS FOR A PARTICULAR PURPOSE;
  ~    (C) CLOUDERA IS NOT LIABLE TO YOU, AND WILL NOT DEFEND, INDEMNIFY, OR HOLD YOU HARMLESS FOR ANY CLAIMS ARISING
  ~        FROM OR RELATED TO THE CODE; AND
  ~    (D) WITH RESPECT TO YOUR EXERCISE OF ANY RIGHTS GRANTED TO YOU FOR THE CODE, CLOUDERA IS NOT LIABLE FOR ANY
  ~        DIRECT, INDIRECT, INCIDENTAL, SPECIAL, EXEMPLARY, PUNITIVE OR CONSEQUENTIAL DAMAGES INCLUDING, BUT NOT LIMITED
  ~        TO, DAMAGES RELATED TO LOST REVENUE, LOST PROFITS, LOSS OF INCOME, LOSS OF BUSINESS ADVANTAGE OR
  ~        UNAVAILABILITY, OR LOSS OR CORRUPTION OF DATA.
  ~
  -->
<svg viewBox="0 0 24 24" xmlns="http://www.w3.org/2000/svg" width="1em" height="1em">
  <g fill="none" fill-rule="evenodd">
    <path d="M3.555 7.187v-.662l-1.38-.797a1.514 1.514 0 00-.05.103A1.26 1.26 0 002 6.343V7.64h1.102a.453.453 0 00.452-.452" fill="#7EC7EE"/>
    <path d="M5.862 12.304l-.963-1.666-.375-.65v1.587a.453.453 0 01-.452.452h-.065a.453.453 0 01-.452-.452V8.458a.453.453 0 00-.452-.452H2.001v3.492c0 .054.005.11.014.165a1.443 1.443 0 00.202.523c.025.04.052.08.08.118.105.142.231.263.366.34l4.464 2.578c.142.082.32.131.506.15l-1.771-3.068z" fill="#3FAE2A"/>
    <path d="M7.789 7.857a.412.412 0 01.063-.005h.065c.248 0 .452.203.452.452v.276c0 .25.203.453.452.453h.05a.454.454 0 00.452-.453V7.421c0-.249.203-.442.452-.442h.064c.249 0 .446.186.446.418 0 .232.204.421.453.421h.062a.457.457 0 00.167-.031l-.285-.488-.965-1.671L7.89 2.465a1.851 1.851 0 00-.101-.003v5.395z" fill="#418FB2"/>
    <path d="M8.87 9.42h-.049a.451.451 0 00-.183.04l.684.394a.454.454 0 00-.451-.434" fill="#3B8640"/>
    <path d="M3.555 6.445c0-.249.203-.452.452-.452h.065c.249 0 .452.203.452.452v.64l.373.214.58.336V7.42c0-.249.204-.452.453-.452h.064c.249 0 .453.203.453.452v.773l.953.55v-.44c0-.227.17-.416.389-.447V2.462c-.034 0-.068 0-.102.003a1.302 1.302 0 00-.56.154L2.663 5.197c-.163.094-.313.25-.429.43l-.059.101 1.38.797v-.08z" fill="#3DB5E6"/>
    <path d="M6.891 9.972h.05c.248 0 .46-.211.46-.46v-.767l-.954-.55-.008 1.325c0 .249.204.452.452.452M4.897 7.3l-.373-.216v1.428c0 .249.204.452.452.452h.05c.248 0 .452-.224.452-.472v-.857L4.897 7.3z" fill="#7EC7EE"/>
    <path d="M7.4 13.434v-2.63a.454.454 0 00-.452-.452h-.05a.454.454 0 00-.451.453v.05a.454.454 0 01-.453.452H5.93a.453.453 0 01-.451-.453v-1.07a.453.453 0 00-.453-.453h-.049a.454.454 0 00-.452.453v.204l.375.65.963 1.667 1.77 3.067a1.6 1.6 0 00.157.008V13.88a.453.453 0 01-.389-.447" fill="#8CCE7F"/>
    <path d="M13.454 5.83a1.76 1.76 0 00-.11-.202 1.306 1.306 0 00-.429-.431L8.63 2.722 8.45 2.62a1.3 1.3 0 00-.56-.154l1.826 3.163.965 1.671.284.488a.453.453 0 00.286-.42l-.007-.922c0-.249.203-.452.452-.452h.065c.248 0 .451.203.451.452v.721c0 .172.098.334.24.41a.453.453 0 00.213.054h.912V6.343a1.27 1.27 0 00-.124-.512" fill="#427C97"/>
    <path d="M2 8.01h1.102c.249 0 .452.203.452.451V11.58c0 .248.204.452.453.452h.064a.454.454 0 00.452-.452V9.788c0-.25.204-.452.452-.452h.05c.248 0 .452.203.452.452v1.07c0 .249.203.452.452.452h.064a.454.454 0 00.452-.451v-.051c0-.248.204-.452.453-.452h.05c.248 0 .45.204.45.452v2.63a.453.453 0 00.453.452h.065a.454.454 0 00.452-.452V9.876a.454.454 0 01.452-.452h.05c.242 0 .441.194.45.434l.002.018v1.16c0 .25.203.453.452.453h.064a.453.453 0 00.452-.452V8.655c0-.249.204-.452.452-.452h.05c.248 0 .452.203.452.452v.35a.452.452 0 00.452.452h.064a.454.454 0 00.453-.452V8.46c0-.248.203-.452.452-.452h.912v-.388h-.912a.451.451 0 01-.452-.451v-.721a.453.453 0 00-.453-.452h-.064a.453.453 0 00-.452.452v.914a.454.454 0 01-.452.453h-.05c-.248 0-.452-.19-.452-.422 0-.232-.203-.422-.452-.422h-.064a.454.454 0 00-.452.453v1.16a.454.454 0 01-.453.452H8.82a.453.453 0 01-.452-.452v-.277a.454.454 0 00-.452-.452H7.85a.453.453 0 00-.452.452v1.208a.453.453 0 01-.452.452h-.05a.453.453 0 01-.452-.452V7.425a.454.454 0 00-.452-.453H5.93a.454.454 0 00-.452.453v1.071a.453.453 0 01-.452.452h-.05a.453.453 0 01-.452-.452V6.448a.453.453 0 00-.452-.451h-.064a.453.453 0 00-.453.452v.721a.453.453 0 01-.452.452H2v.387z" fill="#FFF"/>
    <path d="M9.206 12.148h4.09l-2.617-1.51-.387-.224v.618a.454.454 0 01-.453.453h-.064a.453.453 0 01-.452-.453v-1.16l-.002-.018-.683-.394a.453.453 0 00-.269.412v3.562a.454.454 0 01-.452.453h-.065a.412.412 0 01-.063-.006v1.499c.053 0 .105-.004.157-.009.185-.018.363-.067.505-.15l.755-.435v-2.638z" fill="#3D9A35"/>
    <path d="M13.381 12.148a1.3 1.3 0 00.196-.65V8.005h-.91a.454.454 0 00-.453.453V9a.454.454 0 01-.453.452h-.064a.45.45 0 01-.452-.452v-.35a.454.454 0 00-.452-.452h-.05a.454.454 0 00-.452.452v1.763l.388.224 2.616 1.51h.086z" fill="#3B8640"/>
    <path d="M11.846 19v2H10v-2h1.846zM22 19v2h-9.23v-2H22zm-10.154-3v2H10v-2h1.846zM22 16v2h-9.23v-2H22zm-10.154-3v2H10v-2h1.846zM22 13v2h-9.23v-2H22z" fill="#427C97"/>
  </g>
</svg>
