<!--
  ~  (c) 2018-2020 Cloudera, Inc. All rights reserved.
  ~
  ~    This code is provided to you pursuant to your written agreement with Cloudera, which may be the terms of the
  ~   Affero General Public License version 3 (AGPLv3), or pursuant to a written agreement with a third party authorized
  ~   to distribute this code.  If you do not have a written agreement with Cloudera or with an authorized and
  ~   properly licensed third party, you do not have any rights to this code.
  ~
  ~    If this code is provided to you under the terms of the AGPLv3:
  ~    (A) CLOUDERA PROVIDES THIS CODE TO YOU WITHOUT WARRANTIES OF ANY KIND;
  ~    (B) CLOUDERA DISCLAIMS ANY AND ALL EXPRESS AND IMPLIED WARRANTIES WITH RESPECT TO THIS CODE, INCLUDING BUT NOT
  ~        LIMITED TO IMPLIED WARRANTIES OF TITLE, NON-INFRINGEMENT, MERCHANTABILITY AND FITNESS FOR A PARTICULAR PURPOSE;
  ~    (C) CLOUDERA IS NOT LIABLE TO YOU, AND WILL NOT DEFEND, INDEMNIFY, OR HOLD YOU HARMLESS FOR ANY CLAIMS ARISING
  ~        FROM OR RELATED TO THE CODE; AND
  ~    (D) WITH RESPECT TO YOUR EXERCISE OF ANY RIGHTS GRANTED TO YOU FOR THE CODE, CLOUDERA IS NOT LIABLE FOR ANY
  ~        DIRECT, INDIRECT, INCIDENTAL, SPECIAL, EXEMPLARY, PUNITIVE OR CONSEQUENTIAL DAMAGES INCLUDING, BUT NOT LIMITED
  ~        TO, DAMAGES RELATED TO LOST REVENUE, LOST PROFITS, LOSS OF INCOME, LOSS OF BUSINESS ADVANTAGE OR
  ~        UNAVAILABILITY, OR LOSS OR CORRUPTION OF DATA.
  ~
  -->
<svg viewBox="0 0 24 24" xmlns="http://www.w3.org/2000/svg" width="1em" height="1em">
  <g fill="none" fill-rule="evenodd">
    <path d="M22 12c0 5.522-4.478 10-10 10S2 17.522 2 12 6.478 2 12 2s10 4.478 10 10z" fill="#D6D8DB"/>
    <path d="M12 16a1.25 1.25 0 110 2.5 1.25 1.25 0 010-2.5zm.285-10.43c1.178 0 2.096.299 2.756.898.658.597.988 1.433.988 2.507 0 .956-.445 1.897-1.336 2.824l-1.081 1.064c-.386.441-.586.722-.597 1.567H11.02c0-.781.096-1.041.29-1.505.193-.463.575-.972 1.147-1.527.57-.553.933-.948 1.085-1.183a2.07 2.07 0 00.352-1.158c0-.55-.136-.97-.41-1.259-.271-.29-.672-.435-1.199-.435-.504 0-.91.142-1.217.425-.308.283-.462.667-.462 1.151H8.471c.011-1.038.365-1.859 1.058-2.462.696-.605 1.614-.907 2.756-.907z" fill="#333E47"/>
  </g>
</svg>
