<!--
  ~  (c) 2018-2020 Cloudera, Inc. All rights reserved.
  ~
  ~    This code is provided to you pursuant to your written agreement with Cloudera, which may be the terms of the
  ~   Affero General Public License version 3 (AGPLv3), or pursuant to a written agreement with a third party authorized
  ~   to distribute this code.  If you do not have a written agreement with Cloudera or with an authorized and
  ~   properly licensed third party, you do not have any rights to this code.
  ~
  ~    If this code is provided to you under the terms of the AGPLv3:
  ~    (A) CLOUDERA PROVIDES THIS CODE TO YOU WITHOUT WARRANTIES OF ANY KIND;
  ~    (B) CLOUDERA DISCLAIMS ANY AND ALL EXPRESS AND IMPLIED WARRANTIES WITH RESPECT TO THIS CODE, INCLUDING BUT NOT
  ~        LIMITED TO IMPLIED WARRANTIES OF TITLE, NON-INFRINGEMENT, MERCHANTABILITY AND FITNESS FOR A PARTICULAR PURPOSE;
  ~    (C) CLOUDERA IS NOT LIABLE TO YOU, AND WILL NOT DEFEND, INDEMNIFY, OR HOLD YOU HARMLESS FOR ANY CLAIMS ARISING
  ~        FROM OR RELATED TO THE CODE; AND
  ~    (D) WITH RESPECT TO YOUR EXERCISE OF ANY RIGHTS GRANTED TO YOU FOR THE CODE, CLOUDERA IS NOT LIABLE FOR ANY
  ~        DIRECT, INDIRECT, INCIDENTAL, SPECIAL, EXEMPLARY, PUNITIVE OR CONSEQUENTIAL DAMAGES INCLUDING, BUT NOT LIMITED
  ~        TO, DAMAGES RELATED TO LOST REVENUE, LOST PROFITS, LOSS OF INCOME, LOSS OF BUSINESS ADVANTAGE OR
  ~        UNAVAILABILITY, OR LOSS OR CORRUPTION OF DATA.
  ~
  -->
<svg viewBox="0 0 24 24" xmlns="http://www.w3.org/2000/svg" width="1em" height="1em">
  <g fill="none" fill-rule="evenodd">
    <path d="M12.6 2C8.71 2 5.33 4.23 3.67 7.49L2 6.7l.72 4.93L7 9.07l-1.74-.83a8.246 8.246 0 017.34-4.49c4.55 0 8.25 3.7 8.25 8.25s-3.7 8.25-8.25 8.25c-3.49 0-6.49-2.18-7.69-5.25H3.06c1.28 4.06 5.07 7 9.54 7 5.52 0 10-4.48 10-10s-4.48-10-10-10" fill="#424143"/>
    <path d="M16.073 16.044c-.033-.07-.047-.105-.065-.14-.475-.901-.948-1.803-1.426-2.702-.049-.091-.043-.144.024-.221.754-.882 1.505-1.767 2.256-2.651a.24.24 0 00.06-.12c-.22.059-.439.115-.659.173-.912.242-1.823.483-2.734.727-.085.023-.123-.002-.165-.072-.518-.865-1.039-1.727-1.559-2.59a.337.337 0 00-.112-.126l-.126.69-.433 2.44c-.016.089-.038.176-.045.265-.008.084-.05.115-.126.139-1.075.337-2.148.678-3.22 1.018a.362.362 0 00-.145.08l2.647 1.052c-.032.026-.053.046-.077.06-.549.356-1.098.71-1.646 1.067-.065.043-.117.049-.19.015-.656-.294-1.315-.584-1.97-.877a2.037 2.037 0 01-.768-.56c-.467-.571-.375-1.22.248-1.617.203-.13.434-.228.665-.303 1.052-.343 2.108-.673 3.164-1.005.088-.027.13-.067.146-.163.14-.814.286-1.627.433-2.441.078-.434.12-.881.331-1.28.082-.152.18-.302.295-.43.42-.466 1.004-.484 1.447-.04.15.149.278.325.39.507.487.795.967 1.596 1.445 2.398.056.095.107.114.212.086 1.177-.315 2.355-.626 3.533-.937.243-.065.49-.088.738-.041.543.1.781.515.597 1.039-.083.24-.227.44-.39.632-.822.967-1.643 1.935-2.468 2.899-.067.079-.069.136-.022.224.492.928.98 1.857 1.47 2.786.117.223.206.453.21.708a1.141 1.141 0 01-.997 1.14c-.323.048-.624-.02-.926-.114-.738-.228-1.478-.452-2.217-.675-.069-.02-.095-.047-.107-.121-.085-.521-.178-1.04-.268-1.56-.002-.014.002-.03.004-.062l2.546.703" fill="#E26A1A"/>
  </g>
</svg>
