<!--
  ~  (c) 2018-2020 Cloudera, Inc. All rights reserved.
  ~
  ~    This code is provided to you pursuant to your written agreement with Cloudera, which may be the terms of the
  ~   Affero General Public License version 3 (AGPLv3), or pursuant to a written agreement with a third party authorized
  ~   to distribute this code.  If you do not have a written agreement with Cloudera or with an authorized and
  ~   properly licensed third party, you do not have any rights to this code.
  ~
  ~    If this code is provided to you under the terms of the AGPLv3:
  ~    (A) CLOUDERA PROVIDES THIS CODE TO YOU WITHOUT WARRANTIES OF ANY KIND;
  ~    (B) CLOUDERA DISCLAIMS ANY AND ALL EXPRESS AND IMPLIED WARRANTIES WITH RESPECT TO THIS CODE, INCLUDING BUT NOT
  ~        LIMITED TO IMPLIED WARRANTIES OF TITLE, NON-INFRINGEMENT, MERCHANTABILITY AND FITNESS FOR A PARTICULAR PURPOSE;
  ~    (C) CLOUDERA IS NOT LIABLE TO YOU, AND WILL NOT DEFEND, INDEMNIFY, OR HOLD YOU HARMLESS FOR ANY CLAIMS ARISING
  ~        FROM OR RELATED TO THE CODE; AND
  ~    (D) WITH RESPECT TO YOUR EXERCISE OF ANY RIGHTS GRANTED TO YOU FOR THE CODE, CLOUDERA IS NOT LIABLE FOR ANY
  ~        DIRECT, INDIRECT, INCIDENTAL, SPECIAL, EXEMPLARY, PUNITIVE OR CONSEQUENTIAL DAMAGES INCLUDING, BUT NOT LIMITED
  ~        TO, DAMAGES RELATED TO LOST REVENUE, LOST PROFITS, LOSS OF INCOME, LOSS OF BUSINESS ADVANTAGE OR
  ~        UNAVAILABILITY, OR LOSS OR CORRUPTION OF DATA.
  ~
  -->
<svg viewBox="0 0 24 24" xmlns="http://www.w3.org/2000/svg" width="1em" height="1em">
  <g fill="none" fill-rule="evenodd">
    <path d="M3.123 16.68l1.768-.936a7.913 7.913 0 01-.899-3.045L2 12.869c.027.314.068.622.123.925l.002.008.001.008.001.008.001.002.001.006.001.007h.001l.001.008v.002l.001.005.001.003.001.005v.003l.001.005.001.003.001.004v.003l.001.005.001.003.001.005v.003l.001.005.001.003.001.005v.007l.001.003.001.004v.004l.001.004.001.004.001.004.001.004v.004l.001.004.001.004.001.003.001.004v.003l.001.005.001.003.001.005v.003a.008.008 0 01.001.004l.001.004.001.004.001.004v.003l.001.004.001.004.001.004.001.004v.003l.001.005.001.003.001.005.001.003v.004l.001.003a.008.008 0 01.001.004l.001.004.001.004.001.004v.004l.001.004.001.004.001.004.001.003v.005l.001.002.001.005.001.003.001.004.001.004.001.004v.004l.001.004.001.003v.005l.001.003.001.004v.003l.001.005.001.003.001.004.001.004.001.004v.003l.001.005.001.003.001.005.001.002.001.005v.003l.002.005v.002l.001.005.001.003.001.005.001.003.001.005v.003l.002.004v.002l.001.006.001.002.001.006.002.007v.003l.002.005v.002l.001.005h.001l.001.008.002.007c.011.05.023.102.036.15v.002a.02.02 0 00.002.006l.001.007.001.002.001.006h.001l.001.008h.001l.001.008h.001l.001.006.002.008.001.007v.002l.002.006.002.008.002.007v.002l.002.005v.002l.002.005v.002l.002.006v.002l.002.006v.002l.002.005v.003l.002.004v.002l.002.006v.002l.002.005v.003l.002.005v.002l.002.006v.002l.002.005v.003l.002.004v.002l.002.006.001.002.001.005.001.003.001.005.001.002.001.006.001.002.001.005.001.002.001.005v.002l.001.006.001.002.001.006h.001l.002.007v.002l.002.006v.002l.002.004v.002l.002.006v.002l.002.006.001.002.001.005.001.002.001.006.001.002.001.006h.001l.001.006.001.002.002.006v.002l.002.005v.002l.002.006v.002l.002.006.001.002.001.004.001.002.001.006.001.002.002.005v.002l.002.006v.002a.013.013 0 01.001.006v.002l.002.005.001.002.001.005.001.002.002.006.002.007v.002l.002.006a.014.014 0 01.002.007l.001.002.001.006h.001l.002.007.002.007.002.008.002.007.031.102h.001l.001.007.001.002a.01.01 0 00.002.005v.002l.002.006.001.002.001.005.001.002.002.005v.002l.002.005.001.002.001.005.001.003.002.005v.002l.002.005.001.003.001.005.001.003.002.003.001.003.001.005.001.003v.004l.001.003.002.005.001.003.001.004.001.003.002.005.001.002.001.004.001.003.002.005.001.003.001.004.001.003.001.004a.008.008 0 01.001.004l.002.004.001.003.001.004.001.003.002.004.001.004.001.003a.008.008 0 01.001.004l.002.004.001.004.001.003.001.004.002.004.001.004.001.002.001.004.002.004.001.004v.003l.001.004.002.004.001.004.001.003.001.004.002.003.001.004.001.003.002.004.001.004.001.004.001.003.002.004.001.003.001.005.001.003.002.004.001.003.001.004.001.003.002.004.001.003.002.005v.003a.008.008 0 01.002.004l.001.003.002.005.001.002.001.005.001.002.002.005.001.002.001.005v.003l.002.005.001.002.002.005.001.003.001.005.001.002.002.005.001.002.002.005v.002a.014.014 0 01.002.006h.001l.002.007.001.002.002.006a.014.014 0 01.002.007l.001.002.002.005h.001l.002.008.003.007a.019.019 0 01.002.008h.001l.002.007c.16.442.349.87.567 1.28zm.89-5.584a7.922 7.922 0 01.976-3.02l-1.741-.983a9.947 9.947 0 00-1.223 3.78l1.988.223zM5.91 6.769a7.982 7.982 0 012.516-1.947L7.54 3.029a9.958 9.958 0 00-1.479.897l-.005.005c-.002 0-.004.003-.006.004h-.001a.02.02 0 00-.006.005l-.006.005h-.001l-.006.005-.006.003-.006.005-.006.005-.007.005a3.444 3.444 0 01-.063.047c-.002 0-.004.003-.006.004a.022.022 0 01-.005.005H5.93l-.005.005h-.001l-.006.005h-.001c-.002 0-.003.002-.005.003l-.002.002-.004.003h-.002c-.001.003-.003.004-.004.005h-.002a.008.008 0 00-.004.005h-.002l-.004.005h-.002l-.004.004c-.001 0-.002 0-.002.002-.002 0-.003.002-.004.003-.001 0-.002 0-.002.002-.002 0-.003.002-.004.003-.001 0-.002 0-.003.002l-.004.003h-.002a.008.008 0 00-.004.003l-.002.002c-.002 0-.003.002-.003.003-.001 0-.002 0-.003.002l-.003.003c-.001 0-.002 0-.003.002l-.004.003-.002.002-.004.003h-.002l-.004.005h-.002l-.004.004c-.001 0-.002 0-.003.002a.022.022 0 01-.005.004h-.001l-.005.005c-.002 0-.004.003-.006.005h-.002a.014.014 0 00-.004.004l-.003.002-.004.003a.002.002 0 01-.002.002.014.014 0 01-.004.003l-.002.002c-.002 0-.003.002-.004.003l-.003.002-.003.003-.002.002-.003.003c-.001 0-.002 0-.003.002l-.003.002-.003.003h-.003l-.004.004-.002.002c-.002 0-.003.002-.004.003-.001 0-.002 0-.002.002a.014.014 0 00-.004.003c-.001 0-.002 0-.003.002l-.003.003c-.001 0-.002 0-.003.002l-.002.003c-.001 0-.002 0-.003.002-.001 0-.002 0-.003.002l-.003.002-.003.003-.003.002-.004.003-.002.002-.004.002-.002.002-.004.003-.002.002-.004.003-.002.002-.003.003h-.002c-.001.003-.003.004-.004.005h-.001a.018.018 0 00-.005.005h-.001l-.005.005c-.014.01-.027.02-.041.033-.002 0-.004.003-.006.005-.002 0-.003.002-.005.004h-.001a.018.018 0 00-.005.005h-.001a.018.018 0 00-.005.005c-.002 0-.003.002-.005.004h-.001l-.005.004H5.59a.018.018 0 01-.005.005h-.001c-.001.003-.003.004-.005.005h-.001c-.001.003-.003.004-.005.005h-.001a.022.022 0 01-.005.005h-.001c-.001.003-.003.004-.005.005-.001.003-.003.004-.005.005-.002.003-.004.004-.006.005-.414.346-.799.725-1.153 1.133L5.91 6.769zm4.01-2.506a8.039 8.039 0 013.178-.183l.28-1.98a9.89 9.89 0 00-.602-.067l-.016-.001-.017-.001-.021-.002h-.001l-.016-.001h-.001l-.016-.001h-.001l-.015-.002h-.007l-.01-.001h-.007l-.014-.001h-.002l-.015-.001-.002-.001h-.005l-.009-.001h-.008l-.01-.001h-.007l-.015-.001h-.006l-.009-.001H12.537l-.009-.001h-.008l-.008-.001H12.5l-.003-.001h-.016l-.007-.001H12.465l-.007-.001h-.01l-.013-.001h-.01l-.006-.001h-.021l-.003-.001h-.019l-.004-.001h-.02l-.005-.001h-.024l-.004-.001h-.025l-.003-.001h-.028l-.002-.001h-.034l-.004-.001H12.187l-.005-.001h-.042L12.133 2h-.067L12.061 2H11.793l-.007.002H11.703c-.002 0-.004 0-.006.002h-.065c-.002.002-.005.002-.007.002h-.049l-.001.002h-.046l-.002.002h-.04l-.007.002h-.033l-.006.002h-.033c-.002.002-.005.002-.007.002H11.375l-.006.002h-.025l-.007.002h-.025l-.007.002h-.025c-.002.002-.004.002-.007.002h-.017c-.002 0-.004 0-.007.002h-.017l-.014.002h-.017l-.007.002h-.017l-.007.002h-.017c-.002 0-.005 0-.007.002h-.032c-.003.002-.005.002-.008.002h-.016c-.003.002-.005.002-.007.002h-.016l-.002.002H11.05c-.005.002-.01.002-.014.002H11.026l-.007.002h-.015l-.001.002h-.016l-.007.002h-.001a.02.02 0 00-.007 0h-.008c-.003.002-.005.002-.008.002h-.008l-.007.002h-.015l-.002.002h-.016c-.002.002-.005.002-.007.002h-.008c-.002 0-.005 0-.007.002h-.016l-.002.002h-.015c-.002.002-.004.002-.007.002h-.008l-.008.002h-.008c-.002 0-.005 0-.007.002h-.008c-.002 0-.005 0-.007.002h-.016l-.002.002h-.014c-.003.002-.005.002-.008.002h-.008c-.003.002-.005.002-.008.002h-.008c-.003.002-.005.002-.008.002h-.016c-.002.002-.004.002-.007.002H10.696c-.002.002-.004.002-.007.002h-.001a.059.059 0 01-.014.002h-.001l-.015.002H10.649c-.002.002-.005.002-.006.002h-.008l-.001.002c-.005 0-.01 0-.015.002h-.001c-.005 0-.01 0-.015.002h-.008l-.007.002H10.579l-.015.003h-.001l-.014.003c-.006 0-.01 0-.016.002h-.008l-.015.003c-.006 0-.01.002-.015.003h-.001c-.006 0-.01 0-.016.002h-.007l-.015.004h-.001c-.005 0-.01 0-.015.002h-.001a.059.059 0 01-.014.002h-.001l-.015.002h-.008c-.01.003-.02.004-.031.006l-.054.009c-.307.05-.609.116-.906.194l.51 1.934z" fill="#838B92"/>
    <path d="M18.71 4.635l-.035.039.036-.04a9.981 9.981 0 00-3.395-2.058l-.67 1.885c1.01.36 1.916.919 2.71 1.648 2.922 2.677 3.418 7.325 1.107 10.548-2.28 3.178-6.762 4.247-10.223 2.418v.002a8.007 8.007 0 01-2.466-2.01l-1.545 1.27a10.067 10.067 0 003.079 2.512v-.001c4.302 2.267 9.865.968 12.733-2.954 2.944-4.027 2.343-9.891-1.33-13.26" fill="#008CFF"/>
  </g>
</svg>
