<!--
  ~  (c) 2018-2020 Cloudera, Inc. All rights reserved.
  ~
  ~    This code is provided to you pursuant to your written agreement with Cloudera, which may be the terms of the
  ~   Affero General Public License version 3 (AGPLv3), or pursuant to a written agreement with a third party authorized
  ~   to distribute this code.  If you do not have a written agreement with Cloudera or with an authorized and
  ~   properly licensed third party, you do not have any rights to this code.
  ~
  ~    If this code is provided to you under the terms of the AGPLv3:
  ~    (A) CLOUDERA PROVIDES THIS CODE TO YOU WITHOUT WARRANTIES OF ANY KIND;
  ~    (B) CLOUDERA DISCLAIMS ANY AND ALL EXPRESS AND IMPLIED WARRANTIES WITH RESPECT TO THIS CODE, INCLUDING BUT NOT
  ~        LIMITED TO IMPLIED WARRANTIES OF TITLE, NON-INFRINGEMENT, MERCHANTABILITY AND FITNESS FOR A PARTICULAR PURPOSE;
  ~    (C) CLOUDERA IS NOT LIABLE TO YOU, AND WILL NOT DEFEND, INDEMNIFY, OR HOLD YOU HARMLESS FOR ANY CLAIMS ARISING
  ~        FROM OR RELATED TO THE CODE; AND
  ~    (D) WITH RESPECT TO YOUR EXERCISE OF ANY RIGHTS GRANTED TO YOU FOR THE CODE, CLOUDERA IS NOT LIABLE FOR ANY
  ~        DIRECT, INDIRECT, INCIDENTAL, SPECIAL, EXEMPLARY, PUNITIVE OR CONSEQUENTIAL DAMAGES INCLUDING, BUT NOT LIMITED
  ~        TO, DAMAGES RELATED TO LOST REVENUE, LOST PROFITS, LOSS OF INCOME, LOSS OF BUSINESS ADVANTAGE OR
  ~        UNAVAILABILITY, OR LOSS OR CORRUPTION OF DATA.
  ~
  -->
<svg viewBox="0 0 24 24" xmlns="http://www.w3.org/2000/svg" width="1em" height="1em">
  <g fill="none" fill-rule="evenodd">
    <path d="M5.42 9.304V8.28L3.273 7.05a2.341 2.341 0 00-.08.158c-.12.262-.191.538-.191.792v2.003h1.715a.702.702 0 00.703-.699" fill="#7EC7EE"/>
    <path d="M9.01 17.214l-1.498-2.576-.584-1.006v2.454a.703.703 0 01-.704.699h-.1a.703.703 0 01-.704-.699v-4.818a.703.703 0 00-.704-.699H3.002v5.398c0 .083.007.169.022.255.034.204.106.414.206.614a2.734 2.734 0 00.232.378c.164.219.36.405.57.525l6.947 3.984c.22.127.498.203.786.232L9.01 17.214z" fill="#3FAE2A"/>
    <path d="M12.01 10.339a.639.639 0 01.098-.008h.1c.387 0 .703.315.703.7v.427c0 .384.317.7.704.7h.077a.704.704 0 00.703-.7V9.666a.69.69 0 01.704-.684h.1c.387 0 .695.288.695.646 0 .359.317.652.704.652h.098a.71.71 0 00.259-.05l-.444-.753-1.502-2.584-2.842-4.888A2.94 2.94 0 0012.01 2v8.339z" fill="#418FB2"/>
    <path d="M13.692 12.756h-.076a.702.702 0 00-.285.06l1.063.61a.704.704 0 00-.702-.67" fill="#3B8640"/>
    <path d="M5.42 8.157c0-.384.317-.699.704-.699h.1c.387 0 .704.315.704.7v.987l.58.333.904.518v-.33c0-.385.316-.7.704-.7h.1c.387 0 .704.315.704.7v1.195l1.484.85v-.681c0-.351.264-.643.605-.69V2c-.052 0-.105.002-.158.005-.319.02-.629.1-.872.239L4.032 6.227a2.044 2.044 0 00-.667.667c-.033.05-.063.102-.092.155L5.42 8.281v-.124z" fill="#3DB5E6"/>
    <path d="M10.612 13.608h.076a.724.724 0 00.716-.71v-1.186L9.92 10.86l-.011 2.05c0 .385.316.698.703.698M7.507 9.477l-.58-.332v2.207c0 .385.318.698.705.698h.076c.387 0 .704-.346.704-.73V9.998l-.905-.52z" fill="#7EC7EE"/>
    <path d="M11.404 18.96v-4.065c0-.384-.317-.7-.703-.7h-.078a.704.704 0 00-.703.7v.077c0 .385-.317.7-.704.7h-.1a.703.703 0 01-.704-.7v-1.655c0-.384-.316-.699-.704-.699h-.076a.703.703 0 00-.704.7v.315l.584 1.004 1.498 2.577 2.755 4.74c.08.008.163.013.244.013V19.65a.702.702 0 01-.605-.692" fill="#8CCE7F"/>
    <path d="M15.904 14.292v.956a.703.703 0 01-.704.698h-.1a.703.703 0 01-.705-.698v-1.793l-.001-.029-1.063-.61a.701.701 0 00-.42.639v5.504c0 .385-.316.7-.704.7h-.1a.639.639 0 01-.098-.008v2.316c.081 0 .164-.005.244-.013.288-.028.565-.104.787-.231l6.947-3.983c.21-.121.406-.307.57-.526.043-.059.084-.12.122-.184l-4.173-2.393-.602-.345z" fill="#3D9A35"/>
    <path d="M20.826 7.208a2.334 2.334 0 00-.172-.314 2.04 2.04 0 00-.667-.667l-6.67-3.824-.277-.159a2.034 2.034 0 00-.873-.239l2.841 4.889 1.503 2.584.442.753a.7.7 0 00.446-.65l-.011-1.424c0-.384.316-.699.703-.699h.1c.388 0 .704.315.704.7V9.27a.73.73 0 00.373.635c.099.052.212.082.33.082h1.42V8c0-.253-.072-.53-.192-.791" fill="#427C97"/>
    <path d="M19.599 10.569a.702.702 0 00-.703.698v.84c0 .384-.317.7-.704.7h-.1a.699.699 0 01-.434-.15.695.695 0 01-.27-.55v-.54a.704.704 0 00-.705-.698h-.076a.703.703 0 00-.704.698v2.725l.603.345 4.174 2.394c.04-.063.075-.128.108-.194.143-.285.23-.591.23-.87v-5.398h-1.42z" fill="#3B8640"/>
    <path d="M3 10.574h1.715c.387 0 .703.315.703.7v4.818c0 .384.318.7.704.7h.1a.705.705 0 00.705-.7V13.324c0-.385.316-.7.703-.7h.077c.387 0 .704.315.704.7v1.655c0 .384.316.698.704.698h.1a.703.703 0 00.703-.698V14.9c0-.383.316-.698.704-.698h.077c.387 0 .703.315.703.698v4.066a.702.702 0 00.704.698h.1a.703.703 0 00.704-.698V13.46a.702.702 0 01.703-.7h.078c.377 0 .686.3.701.671l.002.029v1.793c0 .385.317.699.704.699h.1a.703.703 0 00.704-.699v-3.681c0-.384.316-.699.703-.699h.077c.387 0 .703.315.703.7v.54a.703.703 0 00.705.7l.1-.002a.704.704 0 00.704-.699v-.84c0-.384.316-.699.703-.699h1.42v-.599l-1.42.001a.701.701 0 01-.703-.698V8.163a.703.703 0 00-.704-.699h-.1a.704.704 0 00-.705.699v1.413a.7.7 0 01-.703.7h-.077c-.387 0-.703-.294-.703-.652 0-.359-.317-.652-.704-.652h-.1a.704.704 0 00-.704.7v1.792c0 .385-.316.7-.703.7h-.078a.703.703 0 01-.703-.7v-.428a.703.703 0 00-.704-.698h-.1a.701.701 0 00-.704.698V12.904a.703.703 0 01-.703.699h-.077a.702.702 0 01-.704-.699V9.671c0-.384-.316-.699-.704-.699h-.1a.704.704 0 00-.703.7v1.655a.703.703 0 01-.704.698H7.63a.703.703 0 01-.703-.698V8.163a.703.703 0 00-.704-.699h-.1a.703.703 0 00-.705.699V9.277a.703.703 0 01-.703.699H3v.598z" fill="#FFF"/>
  </g>
</svg>
