<!--
  ~  (c) 2018-2020 Cloudera, Inc. All rights reserved.
  ~
  ~    This code is provided to you pursuant to your written agreement with Cloudera, which may be the terms of the
  ~   Affero General Public License version 3 (AGPLv3), or pursuant to a written agreement with a third party authorized
  ~   to distribute this code.  If you do not have a written agreement with Cloudera or with an authorized and
  ~   properly licensed third party, you do not have any rights to this code.
  ~
  ~    If this code is provided to you under the terms of the AGPLv3:
  ~    (A) CLOUDERA PROVIDES THIS CODE TO YOU WITHOUT WARRANTIES OF ANY KIND;
  ~    (B) CLOUDERA DISCLAIMS ANY AND ALL EXPRESS AND IMPLIED WARRANTIES WITH RESPECT TO THIS CODE, INCLUDING BUT NOT
  ~        LIMITED TO IMPLIED WARRANTIES OF TITLE, NON-INFRINGEMENT, MERCHANTABILITY AND FITNESS FOR A PARTICULAR PURPOSE;
  ~    (C) CLOUDERA IS NOT LIABLE TO YOU, AND WILL NOT DEFEND, INDEMNIFY, OR HOLD YOU HARMLESS FOR ANY CLAIMS ARISING
  ~        FROM OR RELATED TO THE CODE; AND
  ~    (D) WITH RESPECT TO YOUR EXERCISE OF ANY RIGHTS GRANTED TO YOU FOR THE CODE, CLOUDERA IS NOT LIABLE FOR ANY
  ~        DIRECT, INDIRECT, INCIDENTAL, SPECIAL, EXEMPLARY, PUNITIVE OR CONSEQUENTIAL DAMAGES INCLUDING, BUT NOT LIMITED
  ~        TO, DAMAGES RELATED TO LOST REVENUE, LOST PROFITS, LOSS OF INCOME, LOSS OF BUSINESS ADVANTAGE OR
  ~        UNAVAILABILITY, OR LOSS OR CORRUPTION OF DATA.
  ~
  -->
<svg viewBox="0 0 24 24" xmlns="http://www.w3.org/2000/svg" width="1em" height="1em">
  <path d="M16.58 12.52c.04-.21.05-.42.05-.64 0-.22-.01-.43-.05-.64l2.7-2.7a8.104 8.104 0 010 6.68l-2.7-2.7zm-.01 5.99l-2.44-2.44c.82-.45 1.49-1.12 1.94-1.94l2.44 2.44a8.16 8.16 0 01-1.94 1.94zM11.88 20a8.097 8.097 0 01-3.34-.72l2.7-2.7c.21.04.42.05.64.05.22 0 .43-.01.64-.05l2.7 2.7c-1.02.46-2.15.72-3.34.72zm-6.63-3.43l2.44-2.44c.45.82 1.12 1.49 1.94 1.94l-2.44 2.44a8.137 8.137 0 01-1.94-1.94zm-.77-1.35a8.104 8.104 0 010-6.68l2.7 2.7c-.04.21-.05.42-.05.64 0 .22.01.43.05.64l-2.7 2.7zm2.71-9.97l2.44 2.44a4.896 4.896 0 00-1.94 1.94L5.25 7.19a8.119 8.119 0 011.94-1.94zm4.69-1.49c1.19 0 2.32.26 3.34.72l-2.7 2.7c-.21-.04-.42-.05-.64-.05-.22 0-.43.01-.64.05l-2.7-2.7a8.097 8.097 0 013.34-.72zm-3.25 8.12c0-1.79 1.46-3.25 3.25-3.25s3.25 1.46 3.25 3.25-1.46 3.25-3.25 3.25-3.25-1.46-3.25-3.25zm9.88-4.69l-2.44 2.44a4.893 4.893 0 00-1.94-1.94l2.44-2.44c.75.53 1.41 1.19 1.94 1.94zM2 11.88c0 5.45 4.43 9.88 9.88 9.88 5.45 0 9.88-4.43 9.88-9.88 0-5.45-4.43-9.88-9.88-9.88C6.43 2 2 6.43 2 11.88z" fill="currentColor" fill-rule="evenodd"/>
</svg>
