<!--
  ~  (c) 2018-2020 Cloudera, Inc. All rights reserved.
  ~
  ~    This code is provided to you pursuant to your written agreement with Cloudera, which may be the terms of the
  ~   Affero General Public License version 3 (AGPLv3), or pursuant to a written agreement with a third party authorized
  ~   to distribute this code.  If you do not have a written agreement with Cloudera or with an authorized and
  ~   properly licensed third party, you do not have any rights to this code.
  ~
  ~    If this code is provided to you under the terms of the AGPLv3:
  ~    (A) CLOUDERA PROVIDES THIS CODE TO YOU WITHOUT WARRANTIES OF ANY KIND;
  ~    (B) CLOUDERA DISCLAIMS ANY AND ALL EXPRESS AND IMPLIED WARRANTIES WITH RESPECT TO THIS CODE, INCLUDING BUT NOT
  ~        LIMITED TO IMPLIED WARRANTIES OF TITLE, NON-INFRINGEMENT, MERCHANTABILITY AND FITNESS FOR A PARTICULAR PURPOSE;
  ~    (C) CLOUDERA IS NOT LIABLE TO YOU, AND WILL NOT DEFEND, INDEMNIFY, OR HOLD YOU HARMLESS FOR ANY CLAIMS ARISING
  ~        FROM OR RELATED TO THE CODE; AND
  ~    (D) WITH RESPECT TO YOUR EXERCISE OF ANY RIGHTS GRANTED TO YOU FOR THE CODE, CLOUDERA IS NOT LIABLE FOR ANY
  ~        DIRECT, INDIRECT, INCIDENTAL, SPECIAL, EXEMPLARY, PUNITIVE OR CONSEQUENTIAL DAMAGES INCLUDING, BUT NOT LIMITED
  ~        TO, DAMAGES RELATED TO LOST REVENUE, LOST PROFITS, LOSS OF INCOME, LOSS OF BUSINESS ADVANTAGE OR
  ~        UNAVAILABILITY, OR LOSS OR CORRUPTION OF DATA.
  ~
  -->
<svg viewBox="0 0 24 24" xmlns="http://www.w3.org/2000/svg" width="1em" height="1em">
  <defs>
    <linearGradient x1="35.774%" y1="100%" x2="64.226%" y2="16.302%" id="ic-status-degraded_svg__a">
      <stop stop-color="#D8140B" offset="0%"/>
      <stop stop-color="#FFF" offset="100%"/>
    </linearGradient>
  </defs>
  <g fill="none" fill-rule="evenodd">
    <path fill="#D9150C" d="M13 20v-2h-2v2H6v2h12v-2z"/>
    <path d="M9.75 13.25V15H8v-1.75h1.75zm3.126 0V15h-1.751v-1.75h1.751zm3.125 0V15H14.25v-1.75h1.751zM9.75 10.624v1.751H8v-1.751h1.75zm3.126 0v1.751h-1.751v-1.751h1.751zm3.125 0v1.751H14.25v-1.751h1.751zM9.75 8v1.75H8V8h1.75zm3.126 0v1.75h-1.751V8h1.751zm3.125 0v1.75H14.25V8h1.751zM9.75 5.249V7H8V5.249h1.75zm3.126 0V7h-1.751V5.249h1.751zm3.125 0V7H14.25V5.249h1.751zM9.75 2.624v1.751H8V2.624h1.75zm3.126 0v1.751h-1.751V2.624h1.751zM9.75 0v1.75H8V0h1.75z" fill="url(#ic-status-degraded_svg__a)" transform="translate(4 2)"/>
    <path fill="#F36D6B" d="M4 9h7V2H4z"/>
    <path fill="#D9150C" d="M4 17h7v-6.999H4z"/>
    <path d="M8.5 13.5a1 1 0 11-2 0 1 1 0 112 0M6.5 5.5a1 1 0 112 0 1 1 0 11-2 0" fill="#FFF"/>
  </g>
</svg>
