<!--
  ~  (c) 2018-2020 Cloudera, Inc. All rights reserved.
  ~
  ~    This code is provided to you pursuant to your written agreement with Cloudera, which may be the terms of the
  ~   Affero General Public License version 3 (AGPLv3), or pursuant to a written agreement with a third party authorized
  ~   to distribute this code.  If you do not have a written agreement with Cloudera or with an authorized and
  ~   properly licensed third party, you do not have any rights to this code.
  ~
  ~    If this code is provided to you under the terms of the AGPLv3:
  ~    (A) CLOUDERA PROVIDES THIS CODE TO YOU WITHOUT WARRANTIES OF ANY KIND;
  ~    (B) CLOUDERA DISCLAIMS ANY AND ALL EXPRESS AND IMPLIED WARRANTIES WITH RESPECT TO THIS CODE, INCLUDING BUT NOT
  ~        LIMITED TO IMPLIED WARRANTIES OF TITLE, NON-INFRINGEMENT, MERCHANTABILITY AND FITNESS FOR A PARTICULAR PURPOSE;
  ~    (C) CLOUDERA IS NOT LIABLE TO YOU, AND WILL NOT DEFEND, INDEMNIFY, OR HOLD YOU HARMLESS FOR ANY CLAIMS ARISING
  ~        FROM OR RELATED TO THE CODE; AND
  ~    (D) WITH RESPECT TO YOUR EXERCISE OF ANY RIGHTS GRANTED TO YOU FOR THE CODE, CLOUDERA IS NOT LIABLE FOR ANY
  ~        DIRECT, INDIRECT, INCIDENTAL, SPECIAL, EXEMPLARY, PUNITIVE OR CONSEQUENTIAL DAMAGES INCLUDING, BUT NOT LIMITED
  ~        TO, DAMAGES RELATED TO LOST REVENUE, LOST PROFITS, LOSS OF INCOME, LOSS OF BUSINESS ADVANTAGE OR
  ~        UNAVAILABILITY, OR LOSS OR CORRUPTION OF DATA.
  ~
  -->
<svg viewBox="0 0 24 24" xmlns="http://www.w3.org/2000/svg" width="1em" height="1em">
  <path d="M12 9.241a2.763 2.763 0 00-2.759 2.76A2.763 2.763 0 0012 14.758 2.763 2.763 0 0014.759 12 2.763 2.763 0 0012 9.241zm0 7.29a4.535 4.535 0 01-4.531-4.53A4.535 4.535 0 0112 7.468 4.535 4.535 0 0116.531 12 4.535 4.535 0 0112 16.531zm-.616 3.696h1.232l.313-1.869.569-.137a6.427 6.427 0 001.841-.763l.5-.307 1.543 1.103.872-.872-1.103-1.545.307-.5c.35-.57.606-1.188.764-1.839l.136-.569 1.87-.313v-1.232l-1.87-.313-.136-.569a6.418 6.418 0 00-.764-1.84l-.307-.5 1.103-1.544-.872-.872-1.543 1.102-.5-.306a6.401 6.401 0 00-1.841-.764l-.569-.137-.313-1.869h-1.232l-.313 1.87-.569.136a6.401 6.401 0 00-1.841.764l-.5.306-1.543-1.102-.872.872 1.103 1.543-.307.5a6.418 6.418 0 00-.764 1.841l-.136.57-1.87.312v1.232l1.87.313.136.57c.158.65.414 1.267.764 1.838l.307.5-1.103 1.545.872.872 1.543-1.103.5.307a6.427 6.427 0 001.841.763l.569.137.313 1.87zM14.117 22H9.883l-.37-2.216a8.276 8.276 0 01-1.258-.522l-1.828 1.306-2.995-2.995 1.306-1.829a8.026 8.026 0 01-.522-1.257L2 14.117V9.883l2.216-.37c.138-.433.313-.854.522-1.258L3.432 6.427l2.995-2.996 1.828 1.307a8.077 8.077 0 011.258-.522L9.883 2h4.234l.37 2.216c.433.138.854.313 1.258.522l1.828-1.307 2.995 2.996-1.306 1.828c.209.404.384.825.522 1.257L22 9.883v4.234l-2.216.37a8.026 8.026 0 01-.522 1.257l1.306 1.83-2.995 2.994-1.828-1.306a8.276 8.276 0 01-1.258.522L14.117 22z" fill="currentColor" fill-rule="evenodd"/>
</svg>
