<!--
  ~  (c) 2018-2020 Cloudera, Inc. All rights reserved.
  ~
  ~    This code is provided to you pursuant to your written agreement with Cloudera, which may be the terms of the
  ~   Affero General Public License version 3 (AGPLv3), or pursuant to a written agreement with a third party authorized
  ~   to distribute this code.  If you do not have a written agreement with Cloudera or with an authorized and
  ~   properly licensed third party, you do not have any rights to this code.
  ~
  ~    If this code is provided to you under the terms of the AGPLv3:
  ~    (A) CLOUDERA PROVIDES THIS CODE TO YOU WITHOUT WARRANTIES OF ANY KIND;
  ~    (B) CLOUDERA DISCLAIMS ANY AND ALL EXPRESS AND IMPLIED WARRANTIES WITH RESPECT TO THIS CODE, INCLUDING BUT NOT
  ~        LIMITED TO IMPLIED WARRANTIES OF TITLE, NON-INFRINGEMENT, MERCHANTABILITY AND FITNESS FOR A PARTICULAR PURPOSE;
  ~    (C) CLOUDERA IS NOT LIABLE TO YOU, AND WILL NOT DEFEND, INDEMNIFY, OR HOLD YOU HARMLESS FOR ANY CLAIMS ARISING
  ~        FROM OR RELATED TO THE CODE; AND
  ~    (D) WITH RESPECT TO YOUR EXERCISE OF ANY RIGHTS GRANTED TO YOU FOR THE CODE, CLOUDERA IS NOT LIABLE FOR ANY
  ~        DIRECT, INDIRECT, INCIDENTAL, SPECIAL, EXEMPLARY, PUNITIVE OR CONSEQUENTIAL DAMAGES INCLUDING, BUT NOT LIMITED
  ~        TO, DAMAGES RELATED TO LOST REVENUE, LOST PROFITS, LOSS OF INCOME, LOSS OF BUSINESS ADVANTAGE OR
  ~        UNAVAILABILITY, OR LOSS OR CORRUPTION OF DATA.
  ~
  -->
<svg viewBox="0 0 24 24" xmlns="http://www.w3.org/2000/svg" width="1em" height="1em">
  <g fill="none" fill-rule="evenodd">
    <path d="M12.719 9.75l-.72.315-.717-.315-3.207-1.408C7.443 8.063 7 7.237 7 6.334V4h10v2.334c0 .903-.442 1.729-1.075 2.008L12.719 9.75zm3.206 5.908c.633.279 1.075 1.104 1.075 2.008V20H7v-2.334c0-.904.443-1.729 1.075-2.008l3.207-1.408.718-.315.719.315 3.206 1.408zm.804-5.485c1.366-.601 2.27-2.13 2.27-3.839V4h2V2H3v2h2v2.334c0 1.709.907 3.238 2.273 3.839l3.205 1.408c.04.276.04.562 0 .838l-3.205 1.408C5.906 14.428 5 15.957 5 17.666V20H3v2h18v-2h-2v-2.334c0-1.709-.905-3.238-2.271-3.839l-3.205-1.408a2.941 2.941 0 010-.838l3.205-1.408z" fill="#657481"/>
    <path d="M7 6v.334c0 .903.442 1.729 1.075 2.008l3.206 1.408.151.065c.129.548.339 1.456.34 1.528.014.651-.012 2.588-.022 2.698 0 0-.413 3.075-.624 3.425L8 20h8l-3.126-2.534c-.246-.332-.647-3.425-.647-3.425a78.517 78.517 0 01-.024-2.687c.002-.075.225-.986.36-1.536l.156-.068 3.206-1.408C16.558 8.063 17 7.237 17 6.334V6H7z" fill="#AAC3E9"/>
  </g>
</svg>
