<!--
  ~  (c) 2018-2020 Cloudera, Inc. All rights reserved.
  ~
  ~    This code is provided to you pursuant to your written agreement with Cloudera, which may be the terms of the
  ~   Affero General Public License version 3 (AGPLv3), or pursuant to a written agreement with a third party authorized
  ~   to distribute this code.  If you do not have a written agreement with Cloudera or with an authorized and
  ~   properly licensed third party, you do not have any rights to this code.
  ~
  ~    If this code is provided to you under the terms of the AGPLv3:
  ~    (A) CLOUDERA PROVIDES THIS CODE TO YOU WITHOUT WARRANTIES OF ANY KIND;
  ~    (B) CLOUDERA DISCLAIMS ANY AND ALL EXPRESS AND IMPLIED WARRANTIES WITH RESPECT TO THIS CODE, INCLUDING BUT NOT
  ~        LIMITED TO IMPLIED WARRANTIES OF TITLE, NON-INFRINGEMENT, MERCHANTABILITY AND FITNESS FOR A PARTICULAR PURPOSE;
  ~    (C) CLOUDERA IS NOT LIABLE TO YOU, AND WILL NOT DEFEND, INDEMNIFY, OR HOLD YOU HARMLESS FOR ANY CLAIMS ARISING
  ~        FROM OR RELATED TO THE CODE; AND
  ~    (D) WITH RESPECT TO YOUR EXERCISE OF ANY RIGHTS GRANTED TO YOU FOR THE CODE, CLOUDERA IS NOT LIABLE FOR ANY
  ~        DIRECT, INDIRECT, INCIDENTAL, SPECIAL, EXEMPLARY, PUNITIVE OR CONSEQUENTIAL DAMAGES INCLUDING, BUT NOT LIMITED
  ~        TO, DAMAGES RELATED TO LOST REVENUE, LOST PROFITS, LOSS OF INCOME, LOSS OF BUSINESS ADVANTAGE OR
  ~        UNAVAILABILITY, OR LOSS OR CORRUPTION OF DATA.
  ~
  -->
<svg viewBox="0 0 24 24" xmlns="http://www.w3.org/2000/svg" width="1em" height="1em">
  <path d="M19.241 16.696L21 17.73 12 23l-9-5.27 1.76-1.034L12 20.934l7.241-4.238zm-1.561-4.004l3.32 1.95-1.89 1.11-.81.477-.13.078-1.76 1.032-.81.469v.009l-1.89 1.09L12 19.913l-1.71-1.004-1.89-1.091v-.01l-.81-.468-1.759-1.032-.131-.078-.81-.478L3 14.641l3.32-1.95 1.89 1.111-1.44.84L12 17.708l5.23-3.068-1.44-.839.62-.36 1.27-.75zM13.27 1l.222 1.295c.26.081.513.183.755.306l1.097-.764 1.797 1.751-.784 1.069c.126.236.23.482.313.734l1.33.217v2.475l-1.33.217c-.082.253-.187.499-.313.735l.784 1.069-1.797 1.75-1.097-.763a5.04 5.04 0 01-.755.305l-.222 1.296h-2.54l-.222-1.296a5.04 5.04 0 01-.755-.305l-1.097.764-1.797-1.751.784-1.07A4.626 4.626 0 017.33 8.3L6 8.083V5.608l1.33-.217c.082-.252.187-.498.313-.734l-.784-1.069 1.797-1.751 1.097.764c.242-.123.495-.225.755-.306L10.73 1h2.54zM12 3.923c-1.655 0-3 1.31-3 2.923 0 1.612 1.345 2.923 3 2.923s3-1.311 3-2.923-1.345-2.923-3-2.923z" fill="currentColor" fill-rule="evenodd"/>
</svg>
