<!--
  ~  (c) 2018-2020 Cloudera, Inc. All rights reserved.
  ~
  ~    This code is provided to you pursuant to your written agreement with Cloudera, which may be the terms of the
  ~   Affero General Public License version 3 (AGPLv3), or pursuant to a written agreement with a third party authorized
  ~   to distribute this code.  If you do not have a written agreement with Cloudera or with an authorized and
  ~   properly licensed third party, you do not have any rights to this code.
  ~
  ~    If this code is provided to you under the terms of the AGPLv3:
  ~    (A) CLOUDERA PROVIDES THIS CODE TO YOU WITHOUT WARRANTIES OF ANY KIND;
  ~    (B) CLOUDERA DISCLAIMS ANY AND ALL EXPRESS AND IMPLIED WARRANTIES WITH RESPECT TO THIS CODE, INCLUDING BUT NOT
  ~        LIMITED TO IMPLIED WARRANTIES OF TITLE, NON-INFRINGEMENT, MERCHANTABILITY AND FITNESS FOR A PARTICULAR PURPOSE;
  ~    (C) CLOUDERA IS NOT LIABLE TO YOU, AND WILL NOT DEFEND, INDEMNIFY, OR HOLD YOU HARMLESS FOR ANY CLAIMS ARISING
  ~        FROM OR RELATED TO THE CODE; AND
  ~    (D) WITH RESPECT TO YOUR EXERCISE OF ANY RIGHTS GRANTED TO YOU FOR THE CODE, CLOUDERA IS NOT LIABLE FOR ANY
  ~        DIRECT, INDIRECT, INCIDENTAL, SPECIAL, EXEMPLARY, PUNITIVE OR CONSEQUENTIAL DAMAGES INCLUDING, BUT NOT LIMITED
  ~        TO, DAMAGES RELATED TO LOST REVENUE, LOST PROFITS, LOSS OF INCOME, LOSS OF BUSINESS ADVANTAGE OR
  ~        UNAVAILABILITY, OR LOSS OR CORRUPTION OF DATA.
  ~
  -->
<svg viewBox="0 0 24 24" xmlns="http://www.w3.org/2000/svg" width="1em" height="1em">
  <path d="M18.207 4c5.058 0 5.058 16 0 16h-11.9c-5.742 0-5.742-16 0-16zm-1.355 1.75H6.307C4.92 5.75 3.75 8.613 3.75 12c0 1.814.33 3.542.906 4.745.477.999 1.033 1.505 1.65 1.505h10.546c-.98-1.617-1.54-3.832-1.54-6.25s.56-4.632 1.54-6.25zm1.913.316C17.707 7.384 17.063 9.584 17.063 12c0 2.416.644 4.617 1.702 5.935.729-.77 1.485-2.917 1.485-5.935 0-3.017-.756-5.165-1.485-5.934zM8.62 7c.358 0 .682.148.919.388v.001a1.333 1.333 0 010 1.87c-.175.18-.4.306-.65.361v.705c.352.06.667.23.907.477.04.04.078.082.113.125l.602-.355a1.316 1.316 0 01-.02-.753c.086-.327.295-.62.606-.803l.01-.006c.309-.178.66-.215.977-.127.32.086.61.3.79.617.179.316.216.677.13 1.004a1.306 1.306 0 01-.606.803l-.082.05a1.29 1.29 0 01-1.535-.309l-.602.352a1.72 1.72 0 010 1.2l.602.352a1.284 1.284 0 011.617-.26l.02.01a1.34 1.34 0 01.456 1.797l-.01.021a1.288 1.288 0 01-1.767.465 1.325 1.325 0 01-.605-.806 1.312 1.312 0 01.019-.752l-.602-.353a1.435 1.435 0 01-.111.122 1.643 1.643 0 01-.908.477v.708c.25.052.474.18.649.358.236.24.38.572.38.937 0 .363-.144.693-.38.932a1.283 1.283 0 01-.92.392 1.29 1.29 0 01-.918-.388H7.7a1.34 1.34 0 010-1.87v-.003c.175-.179.4-.306.649-.358v-.708a1.638 1.638 0 01-.905-.475 1.708 1.708 0 01-.003-2.396 1.66 1.66 0 01.908-.477V9.62a1.3 1.3 0 01-.648-.36H7.7a1.336 1.336 0 010-1.87c.237-.242.562-.39.92-.39zm0 8.061a.583.583 0 00-.425.18.605.605 0 00-.18.435c0 .168.068.323.177.431a.598.598 0 00.854.004.616.616 0 00.177-.435.614.614 0 00-.175-.435.597.597 0 00-.428-.18zm3.42-1.76a.589.589 0 00-.448-.056.592.592 0 00-.367.286.622.622 0 00.22.84.602.602 0 00.827-.226l.01-.02a.613.613 0 00.048-.446.608.608 0 00-.281-.374zm-3.42-2.192a.866.866 0 00-.618.262.902.902 0 000 1.259.866.866 0 001.236 0 .907.907 0 000-1.259.871.871 0 00-.618-.262zm3.285-1.54a.594.594 0 00-.46.061.623.623 0 00-.22.839.6.6 0 00.824.224.622.622 0 00.223-.838l-.006-.008a.603.603 0 00-.361-.278zM8.62 7.71a.586.586 0 00-.425.18.609.609 0 00-.18.434.61.61 0 00.177.433c.11.113.26.18.428.18a.594.594 0 00.426-.177.615.615 0 00.177-.436.618.618 0 00-.175-.435.6.6 0 00-.428-.179z" fill="currentColor" fill-rule="evenodd"/>
</svg>
