<!--
  ~  (c) 2018-2020 Cloudera, Inc. All rights reserved.
  ~
  ~    This code is provided to you pursuant to your written agreement with Cloudera, which may be the terms of the
  ~   Affero General Public License version 3 (AGPLv3), or pursuant to a written agreement with a third party authorized
  ~   to distribute this code.  If you do not have a written agreement with Cloudera or with an authorized and
  ~   properly licensed third party, you do not have any rights to this code.
  ~
  ~    If this code is provided to you under the terms of the AGPLv3:
  ~    (A) CLOUDERA PROVIDES THIS CODE TO YOU WITHOUT WARRANTIES OF ANY KIND;
  ~    (B) CLOUDERA DISCLAIMS ANY AND ALL EXPRESS AND IMPLIED WARRANTIES WITH RESPECT TO THIS CODE, INCLUDING BUT NOT
  ~        LIMITED TO IMPLIED WARRANTIES OF TITLE, NON-INFRINGEMENT, MERCHANTABILITY AND FITNESS FOR A PARTICULAR PURPOSE;
  ~    (C) CLOUDERA IS NOT LIABLE TO YOU, AND WILL NOT DEFEND, INDEMNIFY, OR HOLD YOU HARMLESS FOR ANY CLAIMS ARISING
  ~        FROM OR RELATED TO THE CODE; AND
  ~    (D) WITH RESPECT TO YOUR EXERCISE OF ANY RIGHTS GRANTED TO YOU FOR THE CODE, CLOUDERA IS NOT LIABLE FOR ANY
  ~        DIRECT, INDIRECT, INCIDENTAL, SPECIAL, EXEMPLARY, PUNITIVE OR CONSEQUENTIAL DAMAGES INCLUDING, BUT NOT LIMITED
  ~        TO, DAMAGES RELATED TO LOST REVENUE, LOST PROFITS, LOSS OF INCOME, LOSS OF BUSINESS ADVANTAGE OR
  ~        UNAVAILABILITY, OR LOSS OR CORRUPTION OF DATA.
  ~
  -->
<svg viewBox="0 0 24 24" xmlns="http://www.w3.org/2000/svg" width="1em" height="1em">
  <path d="M16.48 12.773c-.05-.247-.095-.497-.153-.742-.027-.112-.037-.237-.171-.3-.28-.13-.561-.251-.968-.267.539.386.93.801 1.214 1.312.051.122.039.28.232.382a.75.75 0 00-.154-.385M9.736 16.02c.012-.177-.294-.11-.455-.106-.172.005-.478-.099-.485.11-.006.174.307.036.492.104.136-.094.435.096.448-.108m.56 2.626c.04-.095.083-.158.094-.227.05-.326.099-.666-.192-.907-.284-.235-.813-.223-1.118-.006-.799.568-.88 1.674-.172 2.37.76.748 2.167.935 3.206.549.896-.333 1.213-1.083 1.535-1.845.145-.343.363-.677.374-1.165-.414.307-.76.625-1.305.59.325-.487.45-.972.1-1.52H14.3c.348 0 .697.002 1.045-.001.158-.001.347.003.352-.213.005-.22-.183-.222-.341-.223-.517-.003-1.034 0-1.55-.002-.648-.003-1.295.017-1.941-.076-.83-.118-1.466-.5-1.837-1.279a3.49 3.49 0 00-.099-.194c-.01-.02-.032-.034-.07-.072-1.55 1.493-3.448 1.75-5.527 1.548.208-.373.397-.708.5-1.08.189-.682.151-1.363-.031-2.04-.108-.397-.232-.79-.337-1.187-.102-.384-.075-.414.31-.414 1.96 0 3.918.002 5.877-.004.187 0 .488.089.494-.204.006-.329-.312-.226-.506-.227a881.937 881.937 0 00-5.948 0c-.23 0-.394-.024-.429-.303-.136-1.088-.387-2.167-.188-3.277.086-.477.184-.948.327-1.412.056-.183.142-.251.33-.246.408.01.817.005 1.225.001.158-.001.349-.005.345-.221-.003-.214-.194-.213-.351-.215-.349-.003-.698-.013-1.046.003-.296.014-.292-.112-.186-.322.955-1.9 2.431-3.146 4.494-3.661.363-.09.733-.126 1.104-.157.256-.022.357.005.276.326-.348 1.373-.175 2.675.693 3.818.568.748 1.312 1.068 2.295.975 1.231-.117 2.761.579 3.38 2.22a.82.82 0 00.28.398c.596.459.886 1.046.774 1.83-.06.415-.043.846-.025 1.269.015.36-.05.675-.324.92-.355.318-.384.762-.461 1.186-.227 1.246-.214 2.477.257 3.675.043.11.013.204-.032.31-.254.59-.513 1.176-.9 1.69-.146.195-.017.288.087.393.811.82 1.76 1.024 2.844.651.167-.058.316-.173.503-.174.01 0 .02.011.037.02.002.17-.146.238-.243.332-1.267 1.241-2.789 1.355-4.197.29-.232-.175-.365-.13-.552.021-.655.531-1.345 1.014-2.098 1.396-1.155.586-2.317.587-3.504.06-.678-.3-1.32-.63-1.81-1.208-.841-.992-1.162-2.139-.922-3.41.117-.615.583-1.042 1.04-1.443.077-.068.176-.067.274-.067.853 0 1.706.003 2.56-.002.167-.001.3.055.423.164.568.499.773 1.354.491 2.053-.03.076-.065.151-.147.093-.306-.216-.657-.08-1.02-.147" fill="#EB8A0E" fill-rule="evenodd"/>
</svg>
