<!--
  ~  (c) 2018-2020 Cloudera, Inc. All rights reserved.
  ~
  ~    This code is provided to you pursuant to your written agreement with Cloudera, which may be the terms of the
  ~   Affero General Public License version 3 (AGPLv3), or pursuant to a written agreement with a third party authorized
  ~   to distribute this code.  If you do not have a written agreement with Cloudera or with an authorized and
  ~   properly licensed third party, you do not have any rights to this code.
  ~
  ~    If this code is provided to you under the terms of the AGPLv3:
  ~    (A) CLOUDERA PROVIDES THIS CODE TO YOU WITHOUT WARRANTIES OF ANY KIND;
  ~    (B) CLOUDERA DISCLAIMS ANY AND ALL EXPRESS AND IMPLIED WARRANTIES WITH RESPECT TO THIS CODE, INCLUDING BUT NOT
  ~        LIMITED TO IMPLIED WARRANTIES OF TITLE, NON-INFRINGEMENT, MERCHANTABILITY AND FITNESS FOR A PARTICULAR PURPOSE;
  ~    (C) CLOUDERA IS NOT LIABLE TO YOU, AND WILL NOT DEFEND, INDEMNIFY, OR HOLD YOU HARMLESS FOR ANY CLAIMS ARISING
  ~        FROM OR RELATED TO THE CODE; AND
  ~    (D) WITH RESPECT TO YOUR EXERCISE OF ANY RIGHTS GRANTED TO YOU FOR THE CODE, CLOUDERA IS NOT LIABLE FOR ANY
  ~        DIRECT, INDIRECT, INCIDENTAL, SPECIAL, EXEMPLARY, PUNITIVE OR CONSEQUENTIAL DAMAGES INCLUDING, BUT NOT LIMITED
  ~        TO, DAMAGES RELATED TO LOST REVENUE, LOST PROFITS, LOSS OF INCOME, LOSS OF BUSINESS ADVANTAGE OR
  ~        UNAVAILABILITY, OR LOSS OR CORRUPTION OF DATA.
  ~
  -->
<svg viewBox="0 0 24 24" xmlns="http://www.w3.org/2000/svg" xmlns:xlink="http://www.w3.org/1999/xlink" width="1em" height="1em">
  <defs>
    <linearGradient x1="62.888%" y1="38.131%" x2="52.555%" y2="56.634%" id="ic-zookeeper_svg__c">
      <stop stop-color="#5A77A6" offset="0%"/>
      <stop stop-color="#24324D" offset="40.178%"/>
      <stop stop-color="#141B2D" offset="100%"/>
    </linearGradient>
    <linearGradient x1="0%" y1="52.145%" x2="104.301%" y2="52.145%" id="ic-zookeeper_svg__d">
      <stop stop-color="#0141A0" offset="0%"/>
      <stop stop-color="#005ED2" offset="52.177%"/>
      <stop stop-color="#012C72" offset="100%"/>
    </linearGradient>
    <linearGradient x1="8.191%" y1="46.457%" x2="100%" y2="54.766%" id="ic-zookeeper_svg__e">
      <stop stop-color="#646363" offset="0%"/>
      <stop stop-color="#535151" offset="25.94%"/>
      <stop stop-color="#121212" offset="64.273%"/>
      <stop stop-color="#5C5C5C" offset="100%"/>
    </linearGradient>
    <path id="ic-zookeeper_svg__a" d="M0 .133h16.272v13.905H0z"/>
  </defs>
  <g fill="none" fill-rule="evenodd">
    <path d="M7.12 7.293L4.588 10.65l-.535-.056-.193.21.333.422.105 1.913.526.984L6.103 15l.456 3.493.438 1.019 1.874 1.826 1.979 2.036.84.44 1.157.087 1.208-.246L16 21.532l1.42-1.686.472-.684.333-.668-.088-3.44.175-.211.263-.018.946-.983.438-.966-.21-1.966.262-.281-.14-.351-.613.14-.298.334s-.84-1.334-1.453-1.405c-.613-.07-9.073-2.212-9.073-2.212l-1.314.158z" fill="#DAA678"/>
    <path d="M14.608 18.32c-.275.103-.421.212-1.497.253-.32.045-.64.149-.977.165-.373.017-.712-.112-1.043-.125-.607.037-1.13.048-1.28.04.19.25.805.95 2.239.859 1.434-.092 2.393-.572 2.558-1.192" fill="#FFF"/>
    <path d="M13.403 16.783c-.046-.091-.289-.243-.41-.243s-.455.06-.455.137c.182-.016.395-.061.5 0 .107.06.168.182.168.182l.197-.076z" fill="#01254A"/>
    <path d="M12.094 20.353c-.521 0-1.099-.13-1.677-.493l.079-.126c1.552.974 3.09.203 3.445-.172l.107.101c-.243.257-1.006.69-1.954.69" fill="#000"/>
    <path d="M11.98 19.507c-1.217 0-1.918-.456-2.19-.86-.113-.026-.095-.035-.148-.035.525.57 1.016 1.001 2.53.974 2.006-.035 2.54-1.228 2.55-1.29 0 0-.062-.009-.088.017-.438.834-1.364 1.194-2.654 1.194M11.173 13.15c.046.106.289.32.091.79-.015.274-.348 2.813-.364 2.95.122.06.198.182.546.212.35.03.713-.121.82-.152.045-.03.014-.015-.016-.136-.121.03-.32.069-.44.09-.167.031-.56-.136-.576-.258-.015-.121.334-3.268.334-3.268l-.577-.82v.09s-.257.046-.303.092c.121.076.44.304.485.41M8.414 13.13c0 .31.33.56.736.56.406 0 .735-.25.735-.56 0-.158-.085-.3-.223-.401.291.077.534.217.784.467-.046-.29-.486-.684-1.305-.7-.773-.015-1.455.502-1.44.76a1.592 1.592 0 011.037-.591c-.195.1-.324.27-.324.464" fill="#0D0D0D"/>
    <path d="M11.823 18.682c-.123-.044-1.139-.184-1.647-.035-.105-.035-.595-.096-.604-.184-.035-.018-.14.008-.21 0 .149.07.735.272.832.28.096-.043.71-.096.823-.087.114.009.657.017.814.097.14.017.42-.018.535-.01.14-.052.902-.175 1.103-.175.202 0 .604-.035.666-.035.122-.035.621-.28.762-.395-.019-.005-.053-.018-.105-.035-.28.22-.701.36-.701.36s-.832.035-.92.044c-.087.008-.78.158-.84.158-.062 0-.447.026-.508.017M14.257 11.668l1.612-.386 1.226.667-.316-.421s-.14-.176-.28-.281c-.14-.105-.42-.351-.42-.351l-.385-.07-.981.386s-.61-.077-.855.099c-.246.175-.897.568-1.107.673l.175.21 1.331-.526zM16.557 13.028c-.06-.44-.788-.796-1.607-.82-.5-.016-1.396.334-1.532 1.048.31-.375.53-.583.915-.717a.532.532 0 00-.16.369c0 .337.344.61.768.61.424 0 .768-.273.768-.61 0-.223-.15-.415-.374-.522a1.7 1.7 0 011.222.642M4.506 11.163l.275.37-.105.262.027.606.052.04v-.659l.092-.092s.513.606.552.672c-.131.158-.368.698-.21 1.014.079.013.118-.014.157-.04-.052-.158.08-.869.158-.882.052.04.105.184.105.184l-.092.764.158.737-.171-.066-.04-.395-.091-.065-.263.197-.118-.052-.066.065.197.093.263-.211.052.434.42.171-.118-.144-.144-.777.276-.896-1.366-1.33zM18.291 12.36l.397.857-.062.902.327-.186s-.036-.062-.036-.15.01-.274.01-.274l.3.177.14-.124-.044-.08-.097.098s-.15-.124-.23-.15c-.079-.027-.105.008-.105.008l-.035.062-.009.265.026.124-.14.07.052-.733-.194-.504-.026-.23s.053-.132.097-.176c.15.176.317.592.282.769.009.008.141.088.141.088s.018-.044.018-.133c0-.088-.159-.76-.335-.848.052-.115.44-.743.44-.743l.071.098.044.565.062.071.035-.106-.07-.592-.115-.221.23-.425-1.174 1.52z" fill="#0D0D0D"/>
    <path d="M4.834 10.885l.082.078-.02-.009c.46.526 1.151 1.504 1.234 1.697.105.246.35 1.475.35 1.475l.386.808s-.315-1.124-.245-1.3c.07-.175.079-1.58.079-1.685 0-.105-.5-.492-.5-.597 0-.105-.035-.808 0-.948.035-.14 1.051-3.23 1.156-3.37.105-.141-2.872.315-2.872.315l-.246.562c.07.456.386 2.353.35 2.739.063.043.148.127.246.235" fill="#0D0D0D"/>
    <path d="M7.321 12.23s.456-.492.56-.597c.176.07.841.421.841.421l.35-.175.982.351.63-.176-.245-.245-.596-.035-.525-.422-.42.07s-.806-.386-.841-.526c-.07.035-.455.175-.455.175l-.596 1.054.315.105z" fill="#0D0D0D"/>
    <g transform="translate(3.818 9.955)">
      <mask id="ic-zookeeper_svg__b" fill="#fff">
        <use xlink:href="#ic-zookeeper_svg__a"/>
      </mask>
      <path d="M16.272.607l-.158-.35-.823.21-.021.026.11-.2-1.578-.16c.07.14.28 1.3.28 1.37 0 .07-.21.877-.21 1.053 0 .176 0 .702.07.948s.035 1.159.035 1.37c.14-.176.315-.597.315-.597l.037-1.85.178-.562.17-.306.264-.355.175-.246.122-.245.368-.264.455-.053.053.176-.263.299.21 2.071-.052.106-.35.772-.964.948-.122.035-.07-.158-.053.211-.175.158s.052 3.441.052 3.617c-.07.123-.735 1.018-.735 1.141-.123.176-2.838 3.37-2.838 3.37l-.543.493-.893.193-.806.052-.7-.123-.841-.491s-1.559-1.703-1.646-1.72C5.237 11.527 3.38 9.718 3.24 9.49c-.14-.228-.385-.808-.385-.808L2.4 5.067l.07-.035-.158-.316v.193h-.105l-1.121-.843-.526-.808-.087-2.001L.158.958.175.73.42.695l.657.304a5.544 5.544 0 00-.061-.068L.77.695.49.537.017.625 0 1.01l.315.316.105 1.984.473.808.648.544.578.421.123-.017.455 3.616.368.808s.806.966.876 1.036c.07.07 1.103.93 1.349 1.211.245.281 1.47 1.475 1.506 1.598.035.123.21.158.298.21.087.053.648.37.648.37l.665.105.981.017.894-.263.542-.456 2.593-3.038.315-.369.403-.72.35-.491-.07-3.722.333-.018.525-.544.543-.509s.333-.86.385-.948c0-.176-.105-1.791-.21-1.984.105-.123.28-.369.28-.369" fill="#0D0D0D" mask="url(#ic-zookeeper_svg__b)"/>
    </g>
    <path d="M14.188 12.793a.497.497 0 00.093.426c.108-.038.732-.353.732-.353s-.67-.068-.825-.073M8.518 13.412c.108-.038.733-.353.733-.353s-.67-.068-.825-.073a.497.497 0 00.092.426" fill="#FFF"/>
    <g>
      <path d="M2.184 7.856C1.53 7.616 0 6.368 0 5.04 0 3.47 3.79.045 9.99.15c5.447.094 9.778 3.403 9.915 6.403.075 1.647-2.133 2.949-2.912 3.294-.276-1.089-6.953-4.57-14.81-1.992z" stroke="#000" stroke-width=".522" fill="url(#ic-zookeeper_svg__c)" transform="translate(2)"/>
      <path d="M2.385 8.839a47.078 47.078 0 00-.302-1.647C4.167 5.013 12.475 2.994 17.47 8.998c-.125.372-.652 1.116-.903 1.408-3.891-3.135-9.488-3.56-14.182-1.567z" stroke="#000" stroke-width=".522" fill="url(#ic-zookeeper_svg__d)" transform="translate(2)"/>
      <path d="M4.516 8.14c1.013.065 5.658 1.269 6.667 1.642 3.338 1.235 4.346 1.616 5.585 1.727.747.066.776-.22.527-.5-2.711-3.06-8.926-4.34-12.779-2.868z" stroke="#000" stroke-width=".522" fill="url(#ic-zookeeper_svg__e)" transform="translate(2)"/>
      <path d="M14.82 1.754c-.172.177-3.145 3.735-3.528 4.115.221-.011 2.61.247 2.932.254-.01.192-.082.747-.113.917-.777-.066-4.864-.249-5.185-.232.402-.404 3.815-4.394 3.815-4.394s-2.42-.112-2.903-.087c.068-.244.12-.797.114-.917.378-.068 4.42.248 4.868.344" fill="#FEFEFD"/>
      <path d="M9.952 1.41a4.85 4.85 0 01-.113.917c.481-.025 2.903.087 2.903.087s-.788.92-1.65 1.92a14.704 14.704 0 011.575-.047c.952-1.12 2.05-2.427 2.153-2.533-.448-.096-4.49-.412-4.868-.344" fill="#BCBCBC"/>
    </g>
  </g>
</svg>
