<!--
  (c) 2018-2020 Cloudera, Inc. All rights reserved.

  This code is provided to you pursuant to your written agreement with Cloudera, which may be the terms of the
  Affero General Public License version 3 (AGPLv3), or pursuant to a written agreement with a third party authorized
  to distribute this code.  If you do not have a written agreement with Cloudera or with an authorized and
  properly licensed third party, you do not have any rights to this code.

  If this code is provided to you under the terms of the AGPLv3:
   (A) CLOUDERA PROVIDES THIS CODE TO YOU WITHOUT WARRANTIES OF ANY KIND;
   (B) CLOUDERA DISCLAIMS ANY AND ALL EXPRESS AND IMPLIED WARRANTIES WITH RESPECT TO THIS CODE, INCLUDING BUT NOT
       LIMITED TO IMPLIED WARRANTIES OF TITLE, NON-INFRINGEMENT, MERCHANTABILITY AND FITNESS FOR A PARTICULAR PURPOSE;
   (C) CLOUDERA IS NOT LIABLE TO YOU, AND WILL NOT DEFEND, INDEMNIFY, OR HOLD YOU HARMLESS FOR ANY CLAIMS ARISING
       FROM OR RELATED TO THE CODE; AND
   (D) WITH RESPECT TO YOUR EXERCISE OF ANY RIGHTS GRANTED TO YOU FOR THE CODE, CLOUDERA IS NOT LIABLE FOR ANY
       DIRECT, INDIRECT, INCIDENTAL, SPECIAL, EXEMPLARY, PUNITIVE OR CONSEQUENTIAL DAMAGES INCLUDING, BUT NOT LIMITED
       TO, DAMAGES RELATED TO LOST REVENUE, LOST PROFITS, LOSS OF INCOME, LOSS OF BUSINESS ADVANTAGE OR
       UNAVAILABILITY, OR LOSS OR CORRUPTION OF DATA.
-->
<svg xmlns="http://www.w3.org/2000/svg" width="250" height="191" viewBox="0 0 250 191">
    <g fill="none" fill-rule="evenodd">
        <path fill="#1FCFB8" d="M159.911 32.007c-5.258 0-9.52 4.264-9.52 9.523 0 5.26 4.262 9.523 9.52 9.523 5.259 0 9.52-4.264 9.52-9.523 0-5.26-4.261-9.523-9.52-9.523m0 2.858a6.672 6.672 0 0 1 6.664 6.665 6.672 6.672 0 0 1-6.664 6.665 6.672 6.672 0 0 1-6.663-6.665 6.672 6.672 0 0 1 6.663-6.665M117.17 32.104a9.51 9.51 0 0 0-3.099.52c-4.971 1.713-7.615 7.131-5.904 12.104a9.524 9.524 0 0 0 9.002 6.427 9.502 9.502 0 0 0 3.099-.52c4.972-1.712 7.615-7.131 5.904-12.104a9.525 9.525 0 0 0-9.002-6.427m0 2.858a6.666 6.666 0 0 1 2.168 12.97 6.649 6.649 0 0 1-2.169.365 6.666 6.666 0 0 1 .001-13.335"/>
        <path fill="#1FCFB8" d="M80.25 80.542c-8.431 0-15.265-7.238-15.265-16.169 0-8.93 6.834-16.169 15.264-16.169 1.803 0 3.527.35 5.135.958a21.621 21.621 0 0 1-.39-4.092c0-11.284 8.636-20.43 19.288-20.43 3.527 0 6.822 1.019 9.669 2.771.1-13.408 13.522-23.83 24.17-23.83 10.65 0 24.613 10.422 24.711 23.83 2.845-1.752 6.143-2.772 9.671-2.772 10.65 0 19.285 9.147 19.285 20.43 0 1.402-.132 2.77-.387 4.093a14.458 14.458 0 0 1 5.135-.958c8.429 0 15.262 7.24 15.262 16.17 0 8.93-6.833 16.168-15.262 16.168H80.249zm116.286 3.582c10.39 0 18.843-8.86 18.843-19.75 0-10.891-8.453-19.752-18.843-19.752-.39 0-.78.014-1.17.04-.209-13.052-10.385-23.604-22.863-23.604a21.77 21.77 0 0 0-6.745 1.076C162.678 9.494 149.338 0 138.122 0c-11.248 0-24.178 9.325-27.13 22.124a21.733 21.733 0 0 0-6.71-1.066c-12.48 0-22.657 10.551-22.866 23.604-.388-.026-.777-.04-1.167-.04-10.39 0-18.844 8.86-18.844 19.751 0 10.89 8.454 19.75 18.844 19.75h116.287z"/>
        <path fill="#1FCFB8" d="M195.502 64.25c0 5.26-4.263 9.523-9.52 9.523-5.259 0-9.521-4.263-9.521-9.523s4.262-9.523 9.52-9.523 9.52 4.264 9.52 9.523M100.21 61.25c1.712 4.974-.931 10.393-5.903 12.104-4.972 1.712-10.39-.932-12.1-5.905-1.712-4.973.932-10.392 5.903-12.104 4.972-1.711 10.39.933 12.1 5.906M134.732 54.824a9.497 9.497 0 0 0-3.099.521c-4.972 1.712-7.615 7.13-5.904 12.104a9.524 9.524 0 0 0 9.002 6.426 9.514 9.514 0 0 0 3.099-.52c4.971-1.712 7.615-7.13 5.904-12.104a9.525 9.525 0 0 0-9.002-6.427m0 2.858a6.666 6.666 0 0 1 6.3 4.499 6.622 6.622 0 0 1-.312 5.092 6.62 6.62 0 0 1-3.82 3.379 6.647 6.647 0 0 1-2.169.365 6.666 6.666 0 0 1-6.3-4.498 6.624 6.624 0 0 1 .312-5.092 6.62 6.62 0 0 1 3.82-3.38 6.652 6.652 0 0 1 2.17-.365M125.81 43.059h24.581V40.2H125.81z"/>
        <path fill="#1FCFB8" d="M64.985 65.779h60.293V62.92H64.985zM143.648 65.779h50.038V62.92h-50.038z"/>
        <path fill="#333E47" d="M235.815 190.675H13.812a1.004 1.004 0 1 1 0-2.01h222.003a1.005 1.005 0 0 1 0 2.01M8.12 190.675H1.005a1.005 1.005 0 1 1 0-2.01H8.12a1.005 1.005 0 0 1 0 2.01M248.624 190.675h-7.116a1.004 1.004 0 1 1 0-2.01h7.116a1.005 1.005 0 0 1 0 2.01"/>
        <path fill="#ADB2B6" d="M158.613 66.009c1.004-3.133 2.88-18.1 2.88-18.1l-.412-.218.078-2.013a.752.752 0 0 0-.31-.636l-2.424-1.76a.75.75 0 0 0-1.187.524l-.199 1.764-.556-.292s-1.504 14.045-2.302 16.308c-.798 2.262-4.576 7.188-6.472 8.577-.033.025-.062.054-.093.081a8.106 8.106 0 0 0-3.688-2.237 3.381 3.381 0 0 0-.305-.536 3.527 3.527 0 0 0-3.452-2.753c-1.84 0-3.35 1.391-3.518 3.169a8.104 8.104 0 0 0-5.955 5.3c-.303.219-.558.512-.717.88l-6.73 15.483a2.159 2.159 0 0 0 3.958 1.721l.73-1.681-3.429 21.22 6.031-1.405v13.714h.005c0 .013-.005.026-.005.039v.602c0 .531.431.962.962.962h4.714a.962.962 0 0 0 .961-.962v-.532l.443-15.47 4.553-1.06.619 16.42h.007c0 .014-.004.027-.004.04v.602c0 .531.43.962.962.962h4.56a.962.962 0 0 0 .961-.962v-18.715l7.264-1.69-6.437-27.328c2.987-2.887 7.632-7.287 8.507-10.018"/>
        <path fill="#1B2329" d="M139.075 64.301h2.192c2.602 0 4.71-2.11 4.71-4.712v-2.192a4.712 4.712 0 0 0-4.71-4.712h-2.192a4.712 4.712 0 0 0-4.71 4.712v2.192a4.712 4.712 0 0 0 4.71 4.712"/>
        <path fill="#333E47" d="M159.919 189.739l-7.837-108.557 1.9-.137 7.836 108.557zM125.52 189.735l-1.9-.129 7.345-108.558 1.9.13z"/>
        <path fill="#333E47" d="M131.13 89.082h21.46v-1.905h-21.46zM131.131 98.328h23.546v-1.905H131.13zM131.131 107.573h23.546v-1.905H131.13zM129.563 116.819h25.978v-1.906h-25.978zM128.938 126.064h27.27v-1.905h-27.27zM128.242 135.31h28.708v-1.905h-28.708zM127.686 144.555h29.857v-1.905h-29.857zM126.891 153.8h31.32v-1.905h-31.32zM126.436 163.046h32.442v-1.905h-32.442zM125.81 172.292h33.735v-1.906H125.81zM125.81 181.537h34.403v-1.905H125.81z"/>
        <path fill="#FFF" d="M126.75 91.914a2.158 2.158 0 0 1-1.118-2.84l6.73-15.483a2.158 2.158 0 1 1 3.958 1.721l-6.73 15.483a2.157 2.157 0 0 1-2.84 1.119"/>
        <path fill="#333E47" d="M134.343 72.77c-.65 0-1.27.377-1.545 1.01l-6.73 15.484a1.67 1.67 0 0 0-.022 1.287c.165.418.482.747.895.926.412.18.868.187 1.286.022.418-.164.747-.482.926-.894l6.73-15.483a1.684 1.684 0 0 0-1.54-2.353m-6.733 19.802c-.356 0-.713-.074-1.05-.22a2.618 2.618 0 0 1-1.4-1.451 2.614 2.614 0 0 1 .036-2.016l6.729-15.483a2.636 2.636 0 0 1 3.466-1.366 2.638 2.638 0 0 1 1.365 3.467l-6.73 15.483a2.641 2.641 0 0 1-2.416 1.586"/>
        <path fill="#1B2329" d="M138.597 124.246h-4.713a.962.962 0 0 1-.961-.963v-.601c0-.531.43-.962.961-.962h4.713c.532 0 .962.43.962.962v.601c0 .532-.43.963-.962.963"/>
        <path fill="#1B2329" d="M133.884 122.196a.486.486 0 0 0-.486.486v.602c0 .268.219.485.486.485h4.713a.486.486 0 0 0 .486-.485v-.602a.486.486 0 0 0-.486-.486h-4.713zm4.713 2.526h-4.713a1.44 1.44 0 0 1-1.438-1.438v-.602a1.44 1.44 0 0 1 1.438-1.438h4.713a1.44 1.44 0 0 1 1.438 1.438v.602a1.44 1.44 0 0 1-1.438 1.438zM150.698 124.246h-4.56a.962.962 0 0 1-.961-.963v-.601c0-.531.43-.962.961-.962h4.56c.531 0 .962.43.962.962v.601c0 .532-.43.963-.962.963"/>
        <path fill="#1B2329" d="M146.139 122.196a.486.486 0 0 0-.486.486v.602c0 .268.218.485.486.485h4.56a.486.486 0 0 0 .485-.485v-.602a.486.486 0 0 0-.485-.486h-4.56zm4.56 2.526h-4.56a1.44 1.44 0 0 1-1.438-1.438v-.602a1.44 1.44 0 0 1 1.438-1.438h4.56a1.44 1.44 0 0 1 1.437 1.438v.602a1.44 1.44 0 0 1-1.437 1.438z"/>
        <path fill="#305868" d="M150.94 122.643c.245 0 .486.026.72.075V94.929h-18.737v27.714h5.765c.299 0 .59.037.871.109l.49-17.097c.045-1.495 1.036-2.68 2.242-2.68 1.207 0 2.198 1.185 2.242 2.68l.641 16.988h5.765z"/>
        <path fill="#1B2329" d="M133.399 122.166h5.289c.137 0 .274.008.411.021l.474-16.546c.053-1.762 1.247-3.142 2.718-3.142 1.472 0 2.666 1.38 2.718 3.142l.623 16.525h5.307c.082 0 .163.003.245.008V95.405h-17.785v26.761zm6.62 1.194l-.577-.147a3.05 3.05 0 0 0-.754-.094h-6.242V94.453h19.69v28.85l-.573-.119a3.067 3.067 0 0 0-.624-.065h-6.224l-.658-17.446c-.036-1.227-.828-2.222-1.766-2.222-.937 0-1.73.995-1.766 2.218l-.507 17.69z"/>
        <path fill="#A86C4E" d="M163.443 47.709h-4.316l.492-4.38a.75.75 0 0 1 1.187-.523l2.424 1.76a.752.752 0 0 1 .31.636l-.097 2.507z"/>
        <path fill="#333E47" d="M159.66 47.233h3.324l.08-2.05a.274.274 0 0 0-.113-.232l-2.425-1.76a.27.27 0 0 0-.272-.028.27.27 0 0 0-.162.22l-.433 3.85zm3.783.952h-4.317a.476.476 0 0 1-.473-.53l.493-4.379c.05-.439.32-.807.724-.985.403-.179.858-.13 1.215.13l2.425 1.759c.332.24.521.63.505 1.04l-.096 2.507a.476.476 0 0 1-.476.458z"/>
        <path fill="#FFF" d="M151.294 76.715c2.734-2.722 8.696-8.05 9.7-11.183 1.004-3.132 2.88-18.1 2.88-18.1l-5.01-2.631s-1.504 14.046-2.302 16.309c-.798 2.262-4.576 7.188-6.472 8.577-1.895 1.389 1.204 7.028 1.204 7.028"/>
        <path fill="#333E47" d="M159.262 45.548c-.318 2.897-1.539 13.7-2.251 15.72-.805 2.283-4.59 7.301-6.64 8.803-1.06.777.114 3.97 1.048 5.852.343-.334.72-.699 1.12-1.085 2.867-2.767 7.2-6.948 8.002-9.45.897-2.802 2.538-15.48 2.819-17.688l-4.098-2.152zm-7.968 31.643a.476.476 0 0 1-.417-.247c-.338-.615-3.238-6.051-1.068-7.641 1.905-1.396 5.558-6.235 6.304-8.352.77-2.185 2.263-16.061 2.278-16.2a.476.476 0 0 1 .694-.372l5.01 2.631a.476.476 0 0 1 .251.481c-.076.613-1.893 15.048-2.899 18.187-.875 2.731-5.135 6.843-8.246 9.845-.587.566-1.122 1.083-1.57 1.53a.476.476 0 0 1-.337.138z"/>
        <path fill="#FFF" d="M158.924 102.878l-32.033 7.455 5.944-36.777a8.108 8.108 0 0 1 7.91-6.334h3.362a8.108 8.108 0 0 1 7.91 6.334l6.907 29.322z"/>
        <path fill="#333E47" d="M140.745 67.698a7.588 7.588 0 0 0-7.446 5.962l-5.824 36.048 30.876-7.185-6.798-28.857a7.59 7.59 0 0 0-7.446-5.968h-3.362zm-13.854 43.111a.477.477 0 0 1-.47-.552l5.944-36.777c.89-3.977 4.334-6.735 8.38-6.735h3.362a8.535 8.535 0 0 1 8.374 6.707l6.907 29.317a.475.475 0 0 1-.356.573l-32.033 7.455a.46.46 0 0 1-.108.012z"/>
        <path fill="#FAFAFA" d="M157.578 101.937l-28.64 7.125 2.874-27.63 1.119-6.688c.756-3.272 3.763-5.596 7.235-5.596h3.075c3.471 0 6.478 2.324 7.235 5.596l2.133 8.746 4.97 18.447z"/>
        <path fill="#EDEDED" d="M146.595 68.86c0 1.934-1.706 3.501-3.81 3.501-2.103 0-3.809-1.567-3.809-3.5s1.706-3.5 3.81-3.5c2.103 0 3.809 1.567 3.809 3.5"/>
        <path fill="#1B2329" d="M143.648 63.825h-2.192a4.711 4.711 0 0 1-4.71-4.712V56.92a4.712 4.712 0 0 1 4.71-4.712h2.192a4.712 4.712 0 0 1 4.71 4.712v2.192a4.712 4.712 0 0 1-4.71 4.712"/>
        <path fill="#1B2329" d="M141.456 52.685a4.24 4.24 0 0 0-4.235 4.236v2.192a4.24 4.24 0 0 0 4.235 4.236h2.192a4.24 4.24 0 0 0 4.234-4.236v-2.192a4.24 4.24 0 0 0-4.234-4.236h-2.192zm2.192 11.617h-2.192a5.194 5.194 0 0 1-5.187-5.189v-2.192a5.194 5.194 0 0 1 5.187-5.188h2.192a5.193 5.193 0 0 1 5.187 5.188v2.192a5.194 5.194 0 0 1-5.187 5.189z"/>
        <path fill="#1B2329" d="M146.087 67.742c0 1.933-1.583 3.5-3.535 3.5-1.952 0-3.535-1.567-3.535-3.5s1.583-3.5 3.535-3.5c1.952 0 3.535 1.567 3.535 3.5"/>
        <path fill="#1B2329" d="M142.552 64.718c-1.687 0-3.058 1.357-3.058 3.024 0 1.668 1.371 3.024 3.058 3.024 1.687 0 3.06-1.356 3.06-3.024 0-1.667-1.373-3.024-3.06-3.024m0 7c-2.212 0-4.01-1.783-4.01-3.976s1.798-3.976 4.01-3.976c2.212 0 4.012 1.783 4.012 3.976s-1.8 3.977-4.012 3.977"/>
    </g>
</svg>
