<svg xmlns="http://www.w3.org/2000/svg" width="16" height="16" viewBox="0 0 16 16">
    <g fill="none" fill-rule="evenodd">
        <path fill="#FFF" d="M-775-110H292v462H-775z"/>
        <path fill="#D9150C" d="M8 9.833a.834.834 0 1 0 0 1.668.834.834 0 0 0 0-1.668zm-.667-1.166h1.334v-4H7.333v4zm.667-6A5.34 5.34 0 0 0 2.667 8 5.34 5.34 0 0 0 8 13.333 5.34 5.34 0 0 0 13.333 8 5.34 5.34 0 0 0 8 2.667zm0 12A6.674 6.674 0 0 1 1.333 8 6.674 6.674 0 0 1 8 1.333 6.674 6.674 0 0 1 14.667 8 6.674 6.674 0 0 1 8 14.667z"/>
    </g>
</svg>
