<svg xmlns="http://www.w3.org/2000/svg" width="79" height="52" viewBox="0 0 79 52">
    <g fill="none" fill-rule="evenodd">
        <path fill="#1C2429" d="M-92-2h248v56H-92z"/>
        <path fill="#FFF" fill-rule="nonzero" d="M4.368 37.69c3.357 0 4.485-2.116 4.485-4.916 0-2.758-1.1-4.917-4.485-4.917h-3.19v9.834h3.19zm-.167-1.086H2.474v-7.66H4.2c2.618 0 3.287 1.615 3.287 3.83 0 2.173-.64 3.83-3.287 3.83zm8.33 1.254c1.113 0 1.88-.39 2.325-1.073v.906h1.212v-4.026c0-1.783-.64-2.925-2.855-2.925-1.895 0-2.856.878-2.856 2.285h1.24c0-.822.474-1.338 1.63-1.338 1.281 0 1.63.655 1.63 1.797v.223h-1.463c-2.048 0-3.287.53-3.287 2.103 0 1.212.794 2.048 2.423 2.048zm.347-.975c-.989 0-1.476-.446-1.476-1.184 0-.878.766-1.128 2.09-1.128h1.364v.028c0 1.295-.432 2.284-1.978 2.284zm7.285.92a5.23 5.23 0 0 0 1.142-.14V36.66c-.264.07-.557.111-.808.111-.724 0-1.1-.376-1.1-1.24v-3.62h1.936v-1.004h-1.936v-1.643h-1.198v1.643h-1.058v1.003h1.058V35.7c0 1.49.599 2.103 1.964 2.103zm4.638.055c1.115 0 1.88-.39 2.326-1.073v.906h1.212v-4.026c0-1.783-.64-2.925-2.855-2.925-1.895 0-2.856.878-2.856 2.285h1.24c0-.822.474-1.338 1.63-1.338 1.281 0 1.63.655 1.63 1.797v.223h-1.463c-2.048 0-3.287.53-3.287 2.103 0 1.212.794 2.048 2.423 2.048zm.348-.975c-.988 0-1.476-.446-1.476-1.184 0-.878.766-1.128 2.09-1.128h1.364v.028c0 1.295-.431 2.284-1.978 2.284zm9.277.808V33.22h4.137v-1.087h-4.137v-3.19h4.165v-1.086h-5.46v9.834h1.295zm7.02 0v-9.834h-1.212v9.834h1.212zm4.861.167c2.312 0 3.245-1.7 3.245-3.552 0-1.825-.919-3.566-3.245-3.566-2.256 0-3.231 1.672-3.231 3.566 0 1.839.947 3.552 3.231 3.552zm0-1.059c-1.476 0-1.964-1.142-1.964-2.493 0-1.281.432-2.507 1.964-2.507 1.518 0 1.964 1.156 1.964 2.507 0 1.254-.404 2.493-1.964 2.493zm7.41.892l1.476-5.182 1.49 5.182h1.185l2.326-6.784h-1.296l-1.63 5.224-1.531-5.224H54.65l-1.546 5.238-1.616-5.238h-1.295l2.326 6.784h1.198zM35.001 19.097c0 1.407-.817 2.255-1.966 2.255-1.148 0-1.965-.848-1.965-2.255V14.13h-2.08v4.886c0 2.573 1.634 4.197 4.045 4.197s4.045-1.624 4.045-4.197v-4.886H35v4.966zm38.827.454l-1.25-3.111-1.249 3.111h2.499zm3.493 3.46h-2.103l-.729-1.812h-3.822l-.727 1.813h-2.104l3.79-8.88h1.863l3.832 8.88zm-12.335-5.816c0-.393-.158-.76-.4-.969-.272-.237-.663-.36-1.206-.36h-1.988v2.667h1.994c.533 0 .913-.12 1.182-.348.253-.216.418-.587.418-.99zm-.205 2.829l2.562 2.988h-2.421l-2.385-2.804h-1.145v2.804h-2.038v-8.88h4.14c1.154 0 2 .278 2.609.792.608.513.961 1.303.961 2.242 0 1.176-.505 2.398-2.283 2.858zM12.495 14.13h-2.079v8.88h6.291v-1.806h-4.212V14.13zM5.056 21.34c-1.536 0-2.649-1.2-2.649-2.768 0-1.57 1.113-2.766 2.65-2.766.738 0 1.348.26 1.882.76l1.34-1.326c-.81-.826-1.94-1.31-3.246-1.31-2.7 0-4.783 2.04-4.783 4.642 0 2.604 2.082 4.643 4.783 4.643 1.365 0 2.56-.545 3.375-1.461l-1.333-1.319c-.538.588-1.18.905-2.019.905zm40.982-2.768c0-1.603-1.171-2.665-2.915-2.665h-1.371v5.33h1.37c1.745 0 2.916-1.061 2.916-2.665zm2.158 0c0 2.656-1.98 4.44-4.926 4.44h-3.598v-8.88h3.51c2.947 0 5.014 1.785 5.014 4.44zm-23.403.014c0-1.62-1.072-2.794-2.584-2.794-1.51 0-2.583 1.175-2.583 2.794 0 1.604 1.072 2.767 2.583 2.767 1.512 0 2.584-1.163 2.584-2.767zm2.157 0c0 2.596-1.987 4.63-4.741 4.63-2.754 0-4.74-2.034-4.74-4.63 0-2.611 1.986-4.656 4.74-4.656 2.754 0 4.741 2.045 4.741 4.656zm22.19 4.427h7.778v-1.836h-6.547a5.77 5.77 0 0 1-1.23 1.836zm6.673-3.56v-1.818h-5.016c.044.31.073.628.073.958 0 .295-.022.58-.056.86h4.999zm-6.772-5.32h7.836v1.835h-6.54a5.84 5.84 0 0 0-1.296-1.836z"/>
    </g>
</svg>
